<svg width="24" height="24" viewBox="0 0 24 24" fill="none" xmlns="http://www.w3.org/2000/svg">
<path d="M18.7086 8.29261L12.7054 2.29422C12.3146 1.90432 11.6817 1.90442 11.2909 2.29444L5.29149 8.29282C5.10392 8.48037 4.99854 8.73475 4.99854 8.99999C4.99854 9.55228 5.44625 9.99999 5.99854 9.99999H18.0017C18.2671 9.99999 18.5216 9.89453 18.7091 9.70682C19.0995 9.31614 19.0992 8.68298 18.7086 8.29261Z" fill="#2C2044"/>
<path d="M11.2909 21.7055C11.6817 22.0956 12.3146 22.0957 12.7054 21.7058L18.7086 15.7074C19.0992 15.317 19.0995 14.6838 18.7091 14.2932C18.5216 14.1055 18.2671 14 18.0017 14H5.99854C5.44625 14 4.99854 14.4477 4.99854 15C4.99854 15.2652 5.10392 15.5196 5.29149 15.7072L11.2909 21.7055Z" fill="#2C2044"/>
</svg>
