<svg width="24" height="24" viewBox="0 0 24 24" fill="none" xmlns="http://www.w3.org/2000/svg">
<path d="M16.4246 5.33333H15.5333C15.0731 5.33333 14.7 5.70643 14.7 6.16667C14.7 6.6269 15.0731 7 15.5333 7H18.8667C19.3269 7 19.7 6.6269 19.7 6.16667V2.83333C19.7 2.3731 19.3269 2 18.8667 2C18.4064 2 18.0333 2.3731 18.0333 2.83333V4.02417C16.319 2.72493 14.2159 2 12 2C6.47715 2 2 6.47715 2 12C2 17.5228 6.47715 22 12 22C15.7945 22 19.2096 19.8672 20.9072 16.5497C21.1588 16.0581 20.9642 15.4556 20.4725 15.204C19.9809 14.9524 19.3783 15.147 19.1268 15.6387C17.7679 18.2941 15.0363 20 12 20C7.58172 20 4 16.4183 4 12C4 7.58172 7.58172 4 12 4C13.6044 4 15.1325 4.47367 16.4246 5.33333Z" fill="#2C2044"/>
<path d="M21.536 8.98118C21.8424 9.9498 22 10.9649 22 12C22 12.5523 21.5523 13 21 13C20.4477 13 20 12.5523 20 12C20 11.1701 19.874 10.3584 19.6291 9.58434C19.4625 9.05777 19.7544 8.49588 20.281 8.32932C20.8075 8.16276 21.3694 8.45461 21.536 8.98118Z" fill="#2C2044"/>
<path d="M10.2655 15.268C11.7199 15.268 12.5329 14.3247 12.5329 13.2257C12.5329 11.9925 11.5195 11.5753 10.7004 11.2381C10.1447 11.0093 9.67838 10.8174 9.67838 10.4324C9.67838 10.176 9.88614 9.97449 10.383 9.97449C10.7904 9.97449 11.0814 10.1179 11.3677 10.259L11.4037 10.2767C11.6567 10.4049 11.9006 10.4599 12.0812 10.1027L12.298 9.67226C12.4335 9.40667 12.4064 9.17771 12.1445 8.98539C11.8373 8.76559 11.1508 8.5 10.401 8.5C9.09122 8.5 8.09756 9.29677 8.09756 10.5057C8.09756 11.733 9.11926 12.1736 9.94017 12.5276C10.4914 12.7653 10.9521 12.964 10.9521 13.3356C10.9521 13.592 10.7353 13.7935 10.2655 13.7935C9.7903 13.7935 9.42564 13.5825 9.19914 13.4514C9.15871 13.428 9.12268 13.4072 9.09122 13.3905C8.79312 13.2257 8.58535 13.244 8.40469 13.5096L8.12466 13.9217C7.88979 14.2606 8.02529 14.4621 8.21499 14.6178C8.55825 14.8925 9.36221 15.268 10.2655 15.268Z" fill="#2C2044"/>
<path d="M14.196 15.1337C14.1157 15.3779 13.9551 15.5 13.6902 15.5H13.4493C13.1281 15.5 12.9836 15.3046 13.0799 14.9953L14.8544 9.41888C14.9347 9.17466 15.0953 9.05255 15.3603 9.05255H15.6012C15.9224 9.05255 16.0669 9.24793 15.9706 9.56542L14.196 15.1337Z" fill="#2C2044"/>
</svg>
