<svg width="24" height="24" viewBox="0 0 24 24" fill="none" xmlns="http://www.w3.org/2000/svg">
<path d="M13 9C13 8.44772 12.5523 8 12 8C11.4477 8 11 8.44772 11 9V11H9C8.44772 11 8 11.4477 8 12C8 12.5523 8.44772 13 9 13H11V15C11 15.5523 11.4477 16 12 16C12.5523 16 13 15.5523 13 15V13H15C15.5523 13 16 12.5523 16 12C16 11.4477 15.5523 11 15 11H13V9Z" fill="#2C2044"/>
<path fill-rule="evenodd" clip-rule="evenodd" d="M12.2674 21.9635L13.3685 21.6572C17.2939 20.5646 20 17.2921 20 13.0947V6.50863C20 6.05069 19.6324 5.50674 19 5.50674C17.2566 5.50674 14.7146 4.58524 12.745 2.3348C12.5642 2.12825 12.3159 2.01665 12 2C11.6881 2.01526 11.4401 2.12686 11.2561 2.3348C9.30164 4.54254 6.72801 5.50674 5 5.50674C4.40574 5.50674 4 6.00769 4 6.50863V13.0947C4 17.2921 6.70507 20.5646 10.6304 21.6572L11.7326 21.9635C11.9076 22.0122 12.0924 22.0122 12.2674 21.9635ZM18 7.44493V13.0947C18 16.2974 15.987 18.8487 12.8333 19.7265L11.9998 19.9584L11.165 19.7263C8.01228 18.8488 6 16.2977 6 13.0947V7.44233C8.02725 7.17226 10.226 6.11045 11.9965 4.44352C13.7692 6.13187 15.9533 7.1814 18 7.44493Z" fill="#2C2044"/>
</svg>
