<svg width="24" height="24" viewBox="0 0 24 24" fill="none" xmlns="http://www.w3.org/2000/svg">
<path fill-rule="evenodd" clip-rule="evenodd" d="M13.5789 12.484C14.227 13.1087 14.8391 13.7184 15.4742 14.3054C16.1179 14.9002 16.9051 15.1 17.7789 14.9544C19.1719 14.7222 20.1365 13.3596 19.8415 12.0232C19.6346 11.0858 19.0428 10.433 18.0832 10.1368C17.1539 9.84997 16.287 10.0129 15.5545 10.6378C15.0515 11.067 14.5904 11.541 14.1095 11.9939C13.9342 12.1589 13.7557 12.3209 13.5789 12.484ZM8.52805 10.6948C7.88395 10.1001 7.0966 9.90019 6.22234 10.0454C4.82962 10.2766 3.8636 11.6397 4.15837 12.9765C4.36505 13.9139 4.95717 14.5669 5.91725 14.8633C6.84699 15.1502 7.7134 14.9865 8.44732 14.3627C8.9267 13.9552 9.36543 13.5042 9.82268 13.073C10.0214 12.8856 10.2208 12.699 10.4211 12.5111C9.77653 11.8908 9.16362 11.2816 8.52805 10.6948ZM2.14399 11.3948C2.63313 9.68117 3.75255 8.56258 5.50502 8.14212C7.1716 7.74222 8.63718 8.19596 9.86027 9.38083C10.5231 10.0229 11.1768 10.6739 11.8349 11.3206C11.8845 11.3693 11.9367 11.4154 11.9948 11.4693C12.0538 11.414 12.1058 11.3672 12.1555 11.3184C12.8044 10.6807 13.4556 10.0454 14.101 9.40428C15.1157 8.39634 16.3458 7.90463 17.7788 8.02586C19.4468 8.16692 20.7181 8.98517 21.4783 10.4552C22.5393 12.5067 21.9409 14.8153 20.0557 16.1782C18.3934 17.38 15.9024 17.2539 14.3889 15.864C13.6238 15.1613 12.8989 14.4163 12.1555 13.6906C12.1056 13.6419 12.0538 13.5951 11.9948 13.5397C11.9367 13.5937 11.8846 13.6399 11.8349 13.6884C11.1059 14.401 10.3948 15.1324 9.645 15.8232C7.57285 17.7326 4.13719 17.2503 2.67421 14.861C2.3316 14.3015 2.10822 13.703 2.03535 13.052C2.03204 13.0221 2.01217 12.9941 2 12.9652C2 12.6581 2 12.351 2 12.0438C2.0474 11.8273 2.08325 11.6077 2.14399 11.3948Z" fill="#2C2044"/>
</svg>
