<svg width="24" height="24" viewBox="0 0 24 24" fill="none" xmlns="http://www.w3.org/2000/svg">
<path d="M13 2C14.6569 2 16 3.34315 16 5V6H14V5C14 4.44772 13.5523 4 13 4H12C12 5.10457 11.1046 6 10 6H8C6.89543 6 6 5.10457 6 4H5C4.44772 4 4 4.44772 4 5V19C4 19.5523 4.44772 20 5 20H13C13.5523 20 14 19.5523 14 19V17H16V19C16 20.6569 14.6569 22 13 22H5C3.34315 22 2 20.6569 2 19V5C2 3.34315 3.34315 2 5 2H13Z" fill="#2C2044"/>
<path d="M9 17C9.55228 17 10 17.4477 10 18C10 18.5523 9.55228 19 9 19C8.44772 19 8 18.5523 8 18C8 17.4477 8.44772 17 9 17Z" fill="#2C2044"/>
<path d="M11 7C10.4477 7 10 7.44772 10 8V9H22V8C22 7.44772 21.5523 7 21 7H11Z" fill="#2C2044"/>
<path fill-rule="evenodd" clip-rule="evenodd" d="M22 15V10.125H10V15C10 15.5523 10.4477 16 11 16H21C21.5523 16 22 15.5523 22 15ZM17 13.5C17 13.2239 17.2239 13 17.5 13H19.5C19.7761 13 20 13.2239 20 13.5C20 13.7761 19.7761 14 19.5 14H17.5C17.2239 14 17 13.7761 17 13.5Z" fill="#2C2044"/>
</svg>
