<svg width="24" height="24" viewBox="0 0 24 24" fill="none" xmlns="http://www.w3.org/2000/svg">
<path fill-rule="evenodd" clip-rule="evenodd" d="M14.5001 2C16.433 2.00012 18.0001 3.56708 18.0001 5.5C18.0001 6.83357 17.2536 7.9922 16.1563 8.58301L16.7999 8.99121L17.3526 8.2832C18.2993 7.09989 20.0275 6.9038 21.2149 7.85059L21.2169 7.85254C22.399 8.79857 22.5991 10.5287 21.6485 11.7178L21.6475 11.7188L20.5333 13.0195C20.192 13.4174 19.5964 13.4726 19.1876 13.1445C18.7697 12.8091 18.7025 12.1987 19.0372 11.7803L20.086 10.4688C20.3445 10.1454 20.2909 9.67283 19.9678 9.41406C19.6444 9.15641 19.1726 9.20922 18.9141 9.53223L17.4522 11.293L14.9952 9.77637L13.6163 11.9277L16.9962 12.4473C17.6467 12.5472 18.2077 12.9611 18.4942 13.5537C18.7805 14.1465 18.7568 14.8431 18.4307 15.415L17.8897 16.3633L17.8887 16.3643L15.8887 19.8643C15.1329 21.1857 13.4503 21.6375 12.1358 20.8867L12.1339 20.8857C10.8171 20.1313 10.3613 18.4529 11.1134 17.1357L11.128 17.1084L10.379 16.9932L7.81355 20.9854C6.99283 22.2618 5.29187 22.6335 4.01374 21.8125C2.73793 20.9917 2.36566 19.2907 3.18659 18.0127L5.74421 14.0322L2.98835 14C2.43616 13.9934 1.9936 13.5405 2.00007 12.9883C2.00663 12.4361 2.45965 11.9936 3.01179 12L6.98835 12.0469L8.41316 9.84473L7.5362 9.23145L7.14851 9.71777L7.14753 9.71875C6.19629 10.9066 4.46568 11.0924 3.28327 10.1475L3.2823 10.1465C2.10138 9.20104 1.9012 7.47208 2.85261 6.28223L5.29206 3.2334L5.42195 3.08691C6.09864 2.39123 7.19269 2.27671 8.003 2.84473L8.5782 3.24805L8.57722 3.24902L11.0391 4.9707C11.2942 3.28893 12.7471 2.00016 14.5001 2ZM4.86921 19.0938C4.64563 19.442 4.74693 19.9058 5.0948 20.1299C5.44314 20.3536 5.90696 20.2525 6.13093 19.9043L8.23054 16.6367C8.17082 16.6197 8.10861 16.6013 8.04597 16.5781L8.04206 16.5762C7.88642 16.5182 7.70054 16.4341 7.50788 16.3096L7.50691 16.3086C7.43517 16.2621 7.36925 16.2148 7.31062 16.1689L7.17585 16.0557L7.17878 16.0586C7.17642 16.0566 7.16814 16.0499 7.15925 16.042C7.14969 16.0335 7.1354 16.0201 7.11921 16.0049L7.12019 16.0039C7.05157 15.9395 6.99661 15.8793 6.96003 15.8379L4.86921 19.0938ZM4.41413 7.53125C4.15571 7.85457 4.20922 8.32621 4.5323 8.58496C4.85558 8.84316 5.3273 8.79168 5.58601 8.46875L7.14558 6.51758L11.2266 9.30078L8.37116 13.5928C8.36952 13.5953 8.36697 13.5981 8.3653 13.6006C8.36214 13.6057 8.35952 13.612 8.35652 13.6172C8.33422 13.6547 8.31497 13.6939 8.29987 13.7334C8.28168 13.7815 8.268 13.8329 8.25984 13.8857C8.25385 13.9247 8.25197 13.9637 8.25202 14.002C8.25205 14.0087 8.25182 14.0157 8.25202 14.0225C8.2526 14.0421 8.25577 14.0617 8.25788 14.0811C8.2613 14.1122 8.26529 14.1434 8.27253 14.1738C8.27643 14.1901 8.28319 14.2058 8.28816 14.2217C8.29743 14.2516 8.30644 14.2819 8.31941 14.3105C8.32645 14.3259 8.33577 14.3406 8.34382 14.3555C8.35814 14.382 8.37311 14.4088 8.3907 14.4336C8.40375 14.4519 8.42001 14.4683 8.43464 14.4854C8.45211 14.5058 8.46846 14.5282 8.48835 14.5469C8.49105 14.5494 8.4944 14.5522 8.49714 14.5547C8.5268 14.5816 8.55914 14.6074 8.59382 14.6299C8.64041 14.6599 8.6904 14.6835 8.7403 14.7021C8.77423 14.7147 8.81043 14.7248 8.84675 14.7324C8.86039 14.7353 8.87502 14.7382 8.88874 14.7402L14.3077 15.5752L12.8497 18.1279C12.6446 18.4872 12.7692 18.9447 13.128 19.1504C13.4874 19.3554 13.9469 19.2313 14.1524 18.8721L16.6934 14.4238L10.2598 13.4346L13.2716 8.77832L6.85456 4.48242L4.41413 7.53125ZM14.5001 4C13.6718 4.00018 13.0001 4.67168 13.0001 5.5C13.0001 6.32832 13.6718 6.99982 14.5001 7C15.3284 6.99988 16.0001 6.32835 16.0001 5.5C16.0001 4.67165 15.3284 4.00012 14.5001 4Z" fill="#2C2044"/>
</svg>
