<svg width="24" height="24" viewBox="0 0 24 24" fill="none" xmlns="http://www.w3.org/2000/svg">
<path d="M11 8C11.5523 8 12 7.55228 12 7C12 6.44772 11.5523 6 11 6C10.4477 6 10 6.44772 10 7C10 7.55228 10.4477 8 11 8Z" fill="#2C2044"/>
<path fill-rule="evenodd" clip-rule="evenodd" d="M17 11.35C17 12.26 16.26 13 15.35 13H8.65C7.74 13 7 12.26 7 11.35V4.65C7.01 3.74 7.75 3 8.65 3H15.35C16.26 3 17 3.74 17 4.65V11.35ZM15 5H9V9.63C9.42 9.81 10.61 9.97 11.79 8.79C12.97 7.61 14.09 7.25 15 7.25V5Z" fill="#2C2044"/>
<path d="M19.88 19.0001V14.0001C19.88 13.6101 19.62 13.2501 19.22 13.0901C18.81 12.9301 18.34 12.9901 18.02 13.2601C11.77 18.1801 6.4 13.6001 6.06 13.3101L6.05 13.3001C5.73 13.0101 5.25 12.9201 4.82 13.0701C4.4 13.2301 4.12 13.5901 4.12 14.0001V19.0001C3.51 19.0001 3 19.4501 3 20.0001C3 20.5501 3.51 21.0001 4.12 21.0001H6.37C6.99 21.0001 7.49 20.5501 7.49 20.0001C7.49 19.4501 6.98 19.0001 6.37 19.0001V16.0001C8.71 17.2801 12.92 18.6801 17.62 16.0101V19.0001C17 19.0001 16.5 19.4501 16.5 20.0001C16.5 20.5501 17.01 21.0001 17.62 21.0001H19.87C20.49 21.0001 20.99 20.5501 20.99 20.0001C21 19.4501 20.49 19.0001 19.88 19.0001Z" fill="#2C2044"/>
</svg>
