<svg width="24" height="24" viewBox="0 0 24 24" fill="none" xmlns="http://www.w3.org/2000/svg">
<path fill-rule="evenodd" clip-rule="evenodd" d="M16 13.0029H13V16.0029C13 16.5559 12.553 17.0029 12 17.0029C11.447 17.0029 11 16.5559 11 16.0029V13.0029H8C7.447 13.0029 7 12.5559 7 12.0029C7 11.4499 7.447 11.0029 8 11.0029H11V8.00288C11 7.44988 11.447 7.00288 12 7.00288C12.553 7.00288 13 7.44988 13 8.00288V11.0029H16C16.553 11.0029 17 11.4499 17 12.0029C17 12.5559 16.553 13.0029 16 13.0029ZM12 1.99988C6.478 1.99988 2 6.47788 2 11.9999C2 17.5229 6.478 21.9999 12 21.9999C17.522 21.9999 22 17.5229 22 11.9999C22 6.47788 17.522 1.99988 12 1.99988ZM12 3.99988C7.5824 3.99988 4 7.58228 4 11.9999C4 16.4183 7.5824 19.9999 12 19.9999C16.4176 19.9999 20 16.4183 20 11.9999C20 7.58228 16.4176 3.99988 12 3.99988Z" fill="#2C2044"/>
</svg>
