<svg width="24" height="24" viewBox="0 0 24 24" fill="none" xmlns="http://www.w3.org/2000/svg">
<path d="M12.1963 5.26587C12.6406 5.35671 12.9755 5.74976 12.9756 6.22095C12.9756 6.69218 12.6407 7.08518 12.1963 7.17603L12 7.19653H6.33008L5.82617 7.20435C4.90703 7.28395 4.16576 7.9719 4.00684 8.86548L3.9834 9.04712C3.97682 9.12362 3.97559 9.22556 3.97559 9.55103V17.3616L6.49902 14.8391L6.6875 14.6692C7.65956 13.8769 9.09406 13.9333 10 14.8391L10.501 15.3401L12.499 13.342L12.6875 13.1721C13.6596 12.38 15.0941 12.4363 16 13.342L20.0205 17.3625L20.0244 17.1418V11.4709C20.0245 10.9325 20.4616 10.4954 21 10.4954C21.5384 10.4954 21.9755 10.9325 21.9756 11.4709V17.1418C21.9756 17.2844 21.9763 17.4073 21.9746 17.5168L21.96 17.8137C21.8037 19.6178 20.4531 21.0719 18.6992 21.384L18.3428 21.4309C18.1613 21.4466 17.9564 21.4465 17.6709 21.4465H6.33008C6.18751 21.4465 6.06458 21.4473 5.95508 21.4456L5.65723 21.4309C3.73278 21.2642 2.20769 19.7382 2.04102 17.8137C2.02531 17.6322 2.02441 17.4274 2.02441 17.1418V9.55103C2.02441 9.26529 2.0253 9.0598 2.04102 8.87817L2.08789 8.52271C2.3999 6.76874 3.85307 5.41826 5.65723 5.26196L5.95508 5.24731C6.06459 5.24559 6.1875 5.24536 6.33008 5.24536H12L12.1963 5.26587ZM8.62012 16.219C8.41512 16.0141 8.0839 16.0141 7.87891 16.219L4.91699 19.1799C5.18397 19.3494 5.4932 19.4597 5.82617 19.4885L6.33008 19.4954H11.8965L9.8457 17.4446C9.83362 17.4337 9.82122 17.423 9.80957 17.4114C9.79761 17.3994 9.7866 17.3867 9.77539 17.3743L8.62012 16.219ZM14.6201 14.7219C14.4153 14.5172 14.0839 14.5175 13.8789 14.7219L11.8809 16.72L14.6562 19.4954H17.6709C17.9965 19.4954 18.0983 19.4951 18.1748 19.4885L18.3564 19.4651C18.6192 19.4183 18.8631 19.3191 19.0801 19.1819L14.6201 14.7219ZM8 8.47192C9.10455 8.47195 10 9.36737 10 10.4719C9.99999 11.5765 9.10454 12.4719 8 12.4719C6.89544 12.4719 6.00001 11.5765 6 10.4719C6 9.36735 6.89543 8.47192 8 8.47192ZM18 2.99536C18.5383 2.99561 18.9756 3.43262 18.9756 3.97095V5.98755H21.0068C21.5452 5.98755 21.9823 6.42479 21.9824 6.96313C21.9824 7.50161 21.5453 7.93872 21.0068 7.93872H18.9756V9.97095C18.9755 10.5092 18.5382 10.9463 18 10.9465C17.4616 10.9465 17.0245 10.5093 17.0244 9.97095V7.93872H15.0068C14.4684 7.9387 14.0312 7.5016 14.0312 6.96313C14.0314 6.42481 14.4685 5.98757 15.0068 5.98755H17.0244V3.97095C17.0244 3.43247 17.4615 2.99536 18 2.99536Z" fill="#2C2044"/>
</svg>
