<svg width="24" height="24" viewBox="0 0 24 24" fill="none" xmlns="http://www.w3.org/2000/svg">
<path d="M15.5333 5.33333H16.4246C15.1325 4.47367 13.6044 4 12 4C7.58172 4 4 7.58172 4 12C4 16.4183 7.58172 20 12 20C15.0363 20 17.7679 18.2941 19.1268 15.6387C19.3783 15.147 19.9809 14.9524 20.4725 15.204C20.9642 15.4556 21.1588 16.0581 20.9072 16.5497C19.2096 19.8672 15.7945 22 12 22C6.47715 22 2 17.5228 2 12C2 6.47715 6.47715 2 12 2C14.2159 2 16.319 2.72493 18.0333 4.02417V2.83333C18.0333 2.3731 18.4064 2 18.8667 2C19.3269 2 19.7 2.3731 19.7 2.83333V6.16667C19.7 6.6269 19.3269 7 18.8667 7H15.5333C15.0731 7 14.7 6.6269 14.7 6.16667C14.7 5.70643 15.0731 5.33333 15.5333 5.33333Z" fill="#2C2044"/>
<path d="M22 12C22 10.9649 21.8424 9.9498 21.536 8.98118C21.3694 8.45461 20.8075 8.16276 20.281 8.32932C19.7544 8.49588 19.4625 9.05777 19.6291 9.58434C19.874 10.3584 20 11.1701 20 12C20 12.5523 20.4477 13 21 13C21.5523 13 22 12.5523 22 12Z" fill="#2C2044"/>
<path fill-rule="evenodd" clip-rule="evenodd" d="M7.80005 14.4575V9.03363C7.80005 8.73823 8.06461 8.5 8.39267 8.5H10.5176C11.6182 8.5 12.5135 9.30616 12.5135 10.2972C12.5135 10.7797 12.2825 11.2147 11.9146 11.517C12.3259 11.8863 12.5791 12.3868 12.5791 12.9367C12.5791 14.0688 11.5061 14.9912 10.1896 14.9912H8.39267C8.06461 14.9912 7.80005 14.7529 7.80005 14.4575ZM10.2025 10.8823H10.6764C11.0341 10.8823 11.3262 10.6193 11.3262 10.2972C11.3262 9.89505 10.9621 9.56725 10.5155 9.56725H8.98318V10.8822H10.1896L10.2025 10.8823ZM8.98529 11.9495V13.9239H10.1896C10.8542 13.9239 11.3939 13.4818 11.3939 12.9367C11.3939 12.3942 10.8593 11.9537 10.199 11.9495H8.98529Z" fill="#2C2044"/>
<path d="M15.0085 15.25C16.1577 15.25 16.8 14.5925 16.8 13.8266C16.8 12.967 15.9993 12.6763 15.3521 12.4412C14.913 12.2818 14.5445 12.148 14.5445 11.8797C14.5445 11.701 14.7087 11.5605 15.1013 11.5605C15.4232 11.5605 15.6531 11.6605 15.8793 11.7588L15.9078 11.7712C16.1077 11.8605 16.3004 11.8988 16.4432 11.6499L16.6145 11.3499C16.7215 11.1648 16.7001 11.0052 16.4931 10.8711C16.2504 10.7179 15.708 10.5328 15.1155 10.5328C14.0806 10.5328 13.2954 11.0882 13.2954 11.9307C13.2954 12.7862 14.1027 13.0933 14.7514 13.34C15.1869 13.5057 15.5509 13.6442 15.5509 13.9031C15.5509 14.0819 15.3796 14.2223 15.0085 14.2223C14.633 14.2223 14.3448 14.0752 14.1658 13.9839C14.1339 13.9676 14.1054 13.953 14.0806 13.9414C13.845 13.8266 13.6808 13.8393 13.5381 14.0244L13.3168 14.3117C13.1312 14.5479 13.2383 14.6883 13.3882 14.7968C13.6594 14.9883 14.2947 15.25 15.0085 15.25Z" fill="#2C2044"/>
</svg>
