<svg width="24" height="24" viewBox="0 0 24 24" fill="none" xmlns="http://www.w3.org/2000/svg">
<path d="M8.00001 7C8.00001 6.44772 8.44772 6 9.00001 6H10C10.5523 6 11 6.44772 11 7C11 7.55228 10.5523 8 10 8H9.00001C8.44772 8 8.00001 7.55228 8.00001 7Z" fill="#2C2044"/>
<path d="M13 7C13 6.44772 13.4477 6 14 6H15C15.5523 6 16 6.44772 16 7C16 7.55228 15.5523 8 15 8H14C13.4477 8 13 7.55228 13 7Z" fill="#2C2044"/>
<path d="M8.00001 10C8.00001 9.44772 8.44772 9 9.00001 9H10C10.5523 9 11 9.44772 11 10C11 10.5523 10.5523 11 10 11H9.00001C8.44772 11 8.00001 10.5523 8.00001 10Z" fill="#2C2044"/>
<path d="M13 10C13 9.44772 13.4477 9 14 9H15C15.5523 9 16 9.44772 16 10C16 10.5523 15.5523 11 15 11H14C13.4477 11 13 10.5523 13 10Z" fill="#2C2044"/>
<path d="M8.00001 13C8.00001 12.4477 8.44772 12 9.00001 12H10C10.5523 12 11 12.4477 11 13C11 13.5523 10.5523 14 10 14H9.00001C8.44772 14 8.00001 13.5523 8.00001 13Z" fill="#2C2044"/>
<path d="M13 13C13 12.4477 13.4477 12 14 12H15C15.5523 12 16 12.4477 16 13C16 13.5523 15.5523 14 15 14H14C13.4477 14 13 13.5523 13 13Z" fill="#2C2044"/>
<path d="M11 16C9.89544 16 9.00001 16.8954 9.00001 18V20H11V18H13V20H15V18C15 16.8954 14.1046 16 13 16H11Z" fill="#2C2044"/>
<path fill-rule="evenodd" clip-rule="evenodd" d="M7.56811 2H16.4319C16.6843 1.99997 16.9301 1.99994 17.1382 2.01695C17.3668 2.03563 17.6366 2.07969 17.908 2.21799C18.2843 2.40974 18.5903 2.7157 18.782 3.09202C18.9203 3.36345 18.9644 3.63318 18.9831 3.86178C19.0001 4.06994 19 4.31574 19 4.56812L19 21C19 21.5523 18.5523 22 18 22H6.00001C5.44772 22 5.00001 21.5523 5.00001 21L5 4.56811C4.99997 4.31573 4.99994 4.06993 5.01695 3.86178C5.03563 3.63318 5.07969 3.36345 5.21799 3.09202C5.40974 2.7157 5.7157 2.40974 6.09202 2.21799C6.36345 2.07969 6.63318 2.03563 6.86178 2.01695C7.06993 1.99994 7.31573 1.99997 7.56811 2ZM7.01145 4.01145L7.01031 4.02464C7.00078 4.14122 7.00001 4.30348 7.00001 4.60001V20H17V4.60001C17 4.30348 16.9992 4.14122 16.9897 4.02464L16.9886 4.01145L16.9754 4.01031C16.8588 4.00078 16.6965 4.00001 16.4 4.00001H7.60001C7.30348 4.00001 7.14122 4.00078 7.02464 4.01031L7.01145 4.01145Z" fill="#2C2044"/>
</svg>
