<svg width="24" height="24" viewBox="0 0 24 24" fill="none" xmlns="http://www.w3.org/2000/svg">
<path fill-rule="evenodd" clip-rule="evenodd" d="M20 5C21.1046 5 22 5.89543 22 7V17C22 18.0544 21.1841 18.9182 20.1493 18.9945L20 19H4C2.89543 19 2 18.1046 2 17V7C2 5.89543 2.89543 5 4 5H20ZM18 7H6C6 8.05436 5.18412 8.91817 4.14926 8.99451L4 9V15C5.05436 15 5.91817 15.8159 5.99451 16.8507L6 17H18C18 15.9456 18.8159 15.0818 19.8507 15.0055L20 15V9C18.9456 9 18.0818 8.18412 18.0055 7.14926L18 7ZM12 9C13.6569 9 15 10.3431 15 12C15 13.6569 13.6569 15 12 15C10.3431 15 9 13.6569 9 12C9 10.3431 10.3431 9 12 9ZM17 11C17.5523 11 18 11.4477 18 12C18 12.5523 17.5523 13 17 13C16.4477 13 16 12.5523 16 12C16 11.4477 16.4477 11 17 11ZM7 11C7.55228 11 8 11.4477 8 12C8 12.5523 7.55228 13 7 13C6.44772 13 6 12.5523 6 12C6 11.4477 6.44772 11 7 11Z" fill="#2C2044"/>
</svg>
