<svg width="24" height="24" viewBox="0 0 24 24" fill="none" xmlns="http://www.w3.org/2000/svg">
<path fill-rule="evenodd" clip-rule="evenodd" d="M3.39332 18.9688C1.13246 15.8997 1.78769 11.5789 4.85682 9.318L11.4917 4.43043C14.5609 2.16957 18.8817 2.8248 21.1425 5.89393C22.3757 7.568 22.0183 9.92481 20.3443 11.158L8.65739 19.7671C6.98332 21.0003 4.62651 20.6429 3.39332 18.9688ZM7.41695 9.91616L8.71195 8.9622C8.71384 9.15626 8.72338 9.35297 8.74181 9.54997C8.84527 10.6564 9.25381 11.9908 10.4226 12.8166C10.8736 13.1353 11.4976 13.028 11.8163 12.5769C12.135 12.1259 12.0277 11.5019 11.5767 11.1832C11.093 10.8414 10.8115 10.2023 10.7331 9.36376C10.6555 8.53413 10.8014 7.72398 10.9403 7.33941C10.9433 7.33107 10.9462 7.3227 10.9489 7.31433L12.2208 6.3774C12.2042 6.67969 12.209 6.99481 12.2432 7.31351C12.3548 8.35334 12.7947 9.51966 13.9226 10.3165C14.3737 10.6352 14.9977 10.5279 15.3164 10.0768C15.635 9.62578 15.5277 9.00178 15.0767 8.68309C14.5521 8.31245 14.3021 7.7552 14.2318 7.10013C14.1597 6.42866 14.2925 5.74886 14.4403 5.3394C14.4556 5.29688 14.4679 5.25401 14.4773 5.21101C16.3258 4.78313 18.3354 5.4554 19.5323 7.08012C20.1103 7.86487 19.9428 8.96966 19.1581 9.54774L7.4712 18.1568C6.68645 18.7349 5.58166 18.5674 5.00358 17.7826C3.59996 15.8772 3.77887 13.2925 5.30207 11.5995C5.31226 11.7206 5.32589 11.8421 5.34319 11.9633C5.49078 12.9976 5.93701 14.2069 7.03039 14.9546C7.48627 15.2664 8.10856 15.1496 8.42032 14.6937C8.73208 14.2378 8.61525 13.6155 8.15937 13.3038C7.71445 12.9995 7.43007 12.4302 7.32314 11.6808C7.22482 10.9918 7.30307 10.313 7.41695 9.91616Z" fill="#2C2044"/>
</svg>
