<svg width="24" height="24" viewBox="0 0 24 24" fill="none" xmlns="http://www.w3.org/2000/svg">
<path fill-rule="evenodd" clip-rule="evenodd" d="M8.09473 5.13068C8.49167 3.33954 10.0894 2 12 2C13.9106 2 15.5083 3.33954 15.9053 5.13069C16.2222 5.19273 16.5247 5.28757 16.816 5.43597C17.5686 5.81947 18.1805 6.43139 18.564 7.18404C18.8113 7.66937 18.9099 8.18608 18.9558 8.74817C19 9.28936 19 9.95372 19 10.7587V11L19.4319 11C19.6843 11 19.9301 10.9999 20.1382 11.0169C20.3668 11.0356 20.6366 11.0797 20.908 11.218C21.2843 11.4097 21.5903 11.7157 21.782 12.092C21.9203 12.3634 21.9644 12.6332 21.9831 12.8618C22.0001 13.0699 22 13.3157 22 13.5681V16.4319C22 16.6843 22.0001 16.9301 21.9831 17.1382C21.9644 17.3668 21.9203 17.6366 21.782 17.908C21.5903 18.2843 21.2843 18.5903 20.908 18.782C20.6366 18.9203 20.3668 18.9644 20.1382 18.9831C19.9301 19.0001 19.6843 19 19.4319 19L18.8497 19C18.7878 19.2826 18.6976 19.5539 18.564 19.816C18.1805 20.5686 17.5686 21.1805 16.816 21.564C16.3306 21.8113 15.8139 21.9099 15.2518 21.9558C14.7106 22 14.0463 22 13.2413 22H10.7587C9.95372 22 9.28937 22 8.74818 21.9558C8.18608 21.9099 7.66938 21.8113 7.18404 21.564C6.43139 21.1805 5.81947 20.5686 5.43598 19.816C5.30243 19.5539 5.21226 19.2826 5.15033 19L4.56809 19C4.31571 19 4.06993 19.0001 3.86178 18.9831C3.63318 18.9644 3.36345 18.9203 3.09202 18.782C2.7157 18.5903 2.40974 18.2843 2.21799 17.908C2.07969 17.6366 2.03563 17.3668 2.01695 17.1382C1.99994 16.9301 1.99997 16.6843 2 16.4319V13.5681C1.99997 13.3157 1.99994 13.0699 2.01695 12.8618C2.03563 12.6332 2.07969 12.3634 2.21799 12.092C2.40974 11.7157 2.7157 11.4097 3.09202 11.218C3.36345 11.0797 3.63318 11.0356 3.86178 11.0169C4.06993 10.9999 4.31572 11 4.56811 11C4.57873 11 4.58936 11 4.60001 11H5.00001L5 10.7587C4.99999 9.95373 4.99998 9.28937 5.0442 8.74817C5.09012 8.18608 5.18869 7.66937 5.43598 7.18404C5.81947 6.43139 6.4314 5.81947 7.18404 5.43597C7.4753 5.28757 7.77785 5.19273 8.09473 5.13068ZM10.2673 5.00041C10.425 4.99999 10.5887 5 10.7587 5H13.2413C13.4113 5 13.575 4.99999 13.7327 5.00041C13.3869 4.40238 12.7405 4 12 4C11.2596 4 10.6131 4.40238 10.2673 5.00041ZM5.00001 13H4.60001C4.30348 13 4.14122 13.0008 4.02464 13.0103C4.02 13.0107 4.0156 13.0111 4.01145 13.0114C4.01107 13.0156 4.01069 13.02 4.01031 13.0246C4.00078 13.1412 4.00001 13.3035 4.00001 13.6V16.4C4.00001 16.6965 4.00078 16.8588 4.01031 16.9754C4.01069 16.98 4.01107 16.9844 4.01145 16.9886C4.0156 16.9889 4.02 16.9893 4.02464 16.9897C4.14122 16.9992 4.30348 17 4.60001 17H5.00163C5 16.7623 5 16.5096 5 16.2413L5.00001 13ZM7.00001 10.8C7.00001 9.94342 7.00078 9.36113 7.03756 8.91104C7.07338 8.47262 7.1383 8.24842 7.21799 8.09202C7.40974 7.71569 7.7157 7.40973 8.09202 7.21799C8.24842 7.1383 8.47263 7.07337 8.91104 7.03755C9.36113 7.00078 9.94343 7 10.8 7H13.2C14.0566 7 14.6389 7.00078 15.089 7.03755C15.5274 7.07337 15.7516 7.1383 15.908 7.21799C16.2843 7.40973 16.5903 7.71569 16.782 8.09202C16.8617 8.24842 16.9266 8.47262 16.9625 8.91104C16.9992 9.36113 17 9.94342 17 10.8V16.2C17 17.0566 16.9992 17.6389 16.9625 18.089C16.9266 18.5274 16.8617 18.7516 16.782 18.908C16.5903 19.2843 16.2843 19.5903 15.908 19.782C15.7516 19.8617 15.5274 19.9266 15.089 19.9624C14.6389 19.9992 14.0566 20 13.2 20H10.8C9.94343 20 9.36113 19.9992 8.91104 19.9624C8.47263 19.9266 8.24842 19.8617 8.09202 19.782C7.7157 19.5903 7.40974 19.2843 7.21799 18.908C7.1383 18.7516 7.07338 18.5274 7.03756 18.089C7.00078 17.6389 7.00001 17.0566 7.00001 16.2V10.8ZM19 13V16.2413C19 16.5096 19 16.7623 18.9984 17H19.4C19.6965 17 19.8588 16.9992 19.9754 16.9897C19.98 16.9893 19.9844 16.9889 19.9886 16.9885C19.9889 16.9844 19.9893 16.98 19.9897 16.9754C19.9992 16.8588 20 16.6965 20 16.4V13.6C20 13.3035 19.9992 13.1412 19.9897 13.0246C19.9893 13.02 19.9889 13.0156 19.9885 13.0114C19.9844 13.0111 19.98 13.0107 19.9754 13.0103C19.8588 13.0008 19.6965 13 19.4 13H19ZM9.00001 12C9.00001 11.4477 9.44772 11 10 11H14C14.5523 11 15 11.4477 15 12C15 12.5523 14.5523 13 14 13H10C9.44772 13 9.00001 12.5523 9.00001 12Z" fill="#2C2044"/>
</svg>
