<svg width="24" height="24" viewBox="0 0 24 24" fill="none" xmlns="http://www.w3.org/2000/svg">
<path fill-rule="evenodd" clip-rule="evenodd" d="M4.56811 2C4.57873 2 4.58936 2.00001 4.60001 2.00001L13.4319 2C13.6843 1.99997 13.9301 1.99994 14.1382 2.01695C14.3668 2.03563 14.6366 2.07969 14.908 2.21799C15.2843 2.40974 15.5903 2.7157 15.782 3.09202C15.9203 3.36345 15.9644 3.63318 15.9831 3.86178C16.0001 4.06994 16 4.31574 16 4.56812L16 6.00001L19.4319 6C19.6843 5.99997 19.9301 5.99994 20.1382 6.01695C20.3668 6.03563 20.6366 6.07969 20.908 6.21799C21.2843 6.40974 21.5903 6.7157 21.782 7.09202C21.9203 7.36345 21.9644 7.63318 21.9831 7.86178C22.0001 8.06993 22 8.31571 22 8.56809L22 21C22 21.5523 21.5523 22 21 22H3.00001C2.44772 22 2.00001 21.5523 2.00001 21V4.60001C2.00001 4.58936 2 4.57873 2 4.56811C1.99997 4.31572 1.99994 4.06993 2.01695 3.86178C2.03563 3.63318 2.07969 3.36345 2.21799 3.09202C2.40974 2.7157 2.7157 2.40974 3.09202 2.21799C3.36345 2.07969 3.63318 2.03563 3.86178 2.01695C4.06993 1.99994 4.31572 1.99997 4.56811 2ZM16 8.00001V20H20V8.60001C20 8.30348 19.9992 8.14122 19.9897 8.02464C19.9893 8.02 19.9889 8.0156 19.9885 8.01145C19.9844 8.01107 19.98 8.01069 19.9754 8.01031C19.8588 8.00078 19.6965 8.00001 19.4 8.00001H16ZM14 20V4.60001C14 4.30348 13.9992 4.14122 13.9897 4.02464C13.9893 4.02 13.9889 4.0156 13.9886 4.01145C13.9844 4.01107 13.98 4.01069 13.9754 4.01031C13.8588 4.00078 13.6965 4.00001 13.4 4.00001H4.60001C4.30348 4.00001 4.14122 4.00078 4.02464 4.01031C4.02 4.01069 4.0156 4.01107 4.01145 4.01145C4.01107 4.0156 4.01069 4.02 4.01031 4.02464C4.00078 4.14122 4.00001 4.30348 4.00001 4.60001V20H14Z" fill="#2C2044"/>
<path fill-rule="evenodd" clip-rule="evenodd" d="M5.00001 7C5.00001 6.44772 5.44772 6 6.00001 6H7.00001C7.55229 6 8.00001 6.44772 8.00001 7C8.00001 7.55228 7.55229 8 7.00001 8H6.00001C5.44772 8 5.00001 7.55228 5.00001 7ZM10 7C10 6.44772 10.4477 6 11 6H12C12.5523 6 13 6.44772 13 7C13 7.55228 12.5523 8 12 8H11C10.4477 8 10 7.55228 10 7ZM5.00001 10C5.00001 9.44772 5.44772 9 6.00001 9H7.00001C7.55229 9 8.00001 9.44772 8.00001 10C8.00001 10.5523 7.55229 11 7.00001 11H6.00001C5.44772 11 5.00001 10.5523 5.00001 10ZM10 10C10 9.44772 10.4477 9 11 9H12C12.5523 9 13 9.44772 13 10C13 10.5523 12.5523 11 12 11H11C10.4477 11 10 10.5523 10 10ZM5.00001 13C5.00001 12.4477 5.44772 12 6.00001 12H7.00001C7.55229 12 8.00001 12.4477 8.00001 13C8.00001 13.5523 7.55229 14 7.00001 14H6.00001C5.44772 14 5.00001 13.5523 5.00001 13ZM10 13C10 12.4477 10.4477 12 11 12H12C12.5523 12 13 12.4477 13 13C13 13.5523 12.5523 14 12 14H11C10.4477 14 10 13.5523 10 13Z" fill="#2C2044"/>
<path d="M19 11C19 11.5523 18.5523 12 18 12C17.4477 12 17 11.5523 17 11C17 10.4477 17.4477 10 18 10C18.5523 10 19 10.4477 19 11Z" fill="#2C2044"/>
<path d="M19 14C19 14.5523 18.5523 15 18 15C17.4477 15 17 14.5523 17 14C17 13.4477 17.4477 13 18 13C18.5523 13 19 13.4477 19 14Z" fill="#2C2044"/>
<path d="M19 17C19 17.5523 18.5523 18 18 18C17.4477 18 17 17.5523 17 17C17 16.4477 17.4477 16 18 16C18.5523 16 19 16.4477 19 17Z" fill="#2C2044"/>
<path fill-rule="evenodd" clip-rule="evenodd" d="M6.00001 18C6.00001 16.8954 6.89544 16 8.00001 16H10C11.1046 16 12 16.8954 12 18V20H10V18H8.00001V20H6.00001V18Z" fill="#2C2044"/>
</svg>
