<svg width="24" height="24" viewBox="0 0 24 24" fill="none" xmlns="http://www.w3.org/2000/svg">
<path fill-rule="evenodd" clip-rule="evenodd" d="M10.9998 2C10.4475 2 9.9998 2.44772 9.9998 3H6.23446C5.49585 3 4.93258 3.66089 5.04962 4.39016L6.88375 15.8182C6.88128 15.8316 6.87908 15.845 6.87714 15.8586L6.16286 20.8586C6.07679 21.461 6.54426 22 7.15281 22H16.8468C17.4553 22 17.9228 21.461 17.8367 20.8586L17.1225 15.8586C17.1123 15.7878 17.095 15.7196 17.0711 15.6547L17.3066 14.2422L20.1962 13.0038C20.6279 12.8188 20.9381 12.4296 21.0221 11.9674L21.8979 7.15044C22.0542 6.29106 21.394 5.5 20.5205 5.5H18.7636L18.9474 4.39728C19.0693 3.66584 18.5052 3 17.7637 3H13.9998C13.9998 2.44772 13.5521 2 12.9998 2H10.9998ZM18.4303 7.5L17.6971 11.8989L19.112 11.2925L19.8016 7.5H18.4303ZM8.73439 17H15.2652L15.6938 20H8.30582L8.73439 17ZM16.8193 5L15.1527 15H8.77803L8.61753 14H8.9998C9.55209 14 9.9998 13.5523 9.9998 13C9.9998 12.4477 9.55209 12 8.9998 12H8.29655L8.13605 11H8.9998C9.55209 11 9.9998 10.5523 9.9998 10C9.9998 9.44772 9.55209 9 8.9998 9H7.81507L7.65457 8H8.9998C9.55209 8 9.9998 7.55228 9.9998 7C9.9998 6.44772 9.55209 6 8.9998 6H7.33358L7.17309 5H16.8193Z" fill="#2C2044"/>
</svg>
