<svg width="24" height="24" viewBox="0 0 24 24" fill="none" xmlns="http://www.w3.org/2000/svg">
<path fill-rule="evenodd" clip-rule="evenodd" d="M21.3988 5.57834L12.3848 2.07339C12.1407 1.97554 11.8778 1.97554 11.6337 2.07339L2.61971 5.57834C2.24413 5.72957 2 6.06761 2 6.45013V17.5521C2 17.9346 2.24413 18.2727 2.61032 18.4239L11.6243 21.9288C11.7464 21.9733 11.8684 22 11.9999 22C12.1219 22 12.2534 21.9733 12.3755 21.9288L12.3661 21.911C12.5914 21.8488 12.9576 21.7064 13.5773 21.4663L21.3894 18.4239C21.765 18.2816 21.9997 17.9346 21.9997 17.5521V6.45013C22.0091 6.06761 21.765 5.72957 21.3988 5.57834ZM18.4787 6.47682L12.0093 8.99433L9.58676 8.05137L15.8684 5.4538L18.4787 6.47682ZM5.53047 6.47682L11.9999 3.9593L13.305 4.46636L7.0328 7.06394L5.53047 6.47682ZM7.13608 12.606C7.68068 12.606 8.12199 12.1879 8.12199 11.672V9.51028L11.014 10.6401V19.6604L3.98119 16.9205V7.90014L6.14079 8.74525V11.672C6.14079 12.179 6.5821 12.606 7.13608 12.606ZM12.9952 19.6604V10.6401L20.0279 7.90014V16.9205L12.9952 19.6604Z" fill="#2C2044"/>
</svg>
