<svg width="24" height="24" viewBox="0 0 24 24" fill="none" xmlns="http://www.w3.org/2000/svg">
<path fill-rule="evenodd" clip-rule="evenodd" d="M4.18012 5.22471L11.2429 2.12693C11.6663 1.95769 12.2467 1.95769 12.6701 2.12693L19.782 5.21185C20.4841 5.49245 20.9932 6.24702 20.9931 6.99571L20.9996 9.08136C20.9996 10.1413 20.1357 11.0045 19.0748 11.0045H18.9963V16H19.182C20.2135 16 21.0027 16.886 21.0027 17.9199V20.0025C21.5541 20.0029 22.001 20.4505 22.001 21.0025C22.001 21.5547 21.5536 22.0025 21.0018 22.0025H3.00015C2.44832 22.0025 2.00098 21.5547 2.00098 21.0025C2.00098 20.4502 2.44832 20.0025 3.00015 20.0025H3.00271V17.9199C3.00271 16.8861 3.79188 16 4.82343 16H5.00706V11.0045H4.93076C3.86986 11.0045 3.00603 10.1413 3.00604 9.08445L2.99959 6.9988C2.99959 6.24702 3.50866 5.49246 4.18012 5.22471ZM19.002 20.0025H5.00198V17.9961H19.002V20.0025ZM15.0103 11.0045H16.9963V16H15.0103V11.0045ZM13.0103 16V11.0045H11.0031V16H13.0103ZM7.00706 11.0045H9.00312V16H7.00706V11.0045ZM11.9557 3.998L5.00068 7.047L5.00768 9.004H18.9977L18.9887 7.047L11.9557 3.998Z" fill="#2C2044"/>
</svg>
