<svg width="24" height="24" viewBox="0 0 24 24" fill="none" xmlns="http://www.w3.org/2000/svg">
<path fill-rule="evenodd" clip-rule="evenodd" d="M12 2C6.47715 2 2 6.47715 2 12C2 17.5228 6.47715 22 12 22C17.5228 22 22 17.5228 22 12C22 9.34784 20.9464 6.8043 19.0711 4.92893C17.1957 3.05357 14.6522 2 12 2ZM4 12C4 7.58172 7.58172 4 12 4C13.7767 3.99779 15.5025 4.59302 16.9 5.69L5.69 16.9C4.59302 15.5025 3.99779 13.7767 4 12ZM12 20C10.2233 20.0022 8.49755 19.407 7.1 18.31L18.31 7.1C19.407 8.49755 20.0022 10.2233 20 12C20 14.1217 19.1571 16.1566 17.6569 17.6569C16.1566 19.1571 14.1217 20 12 20Z" fill="#2C2044"/>
</svg>
