<svg width="24" height="24" viewBox="0 0 24 24" fill="none" xmlns="http://www.w3.org/2000/svg">
<path d="M10.707 17.707C10.3409 18.0731 9.76191 18.0957 9.36914 17.7754L9.29297 17.707L4.42773 12.8417C4.38422 12.7982 4.34993 12.7649 4.32715 12.7421C4.31583 12.7308 4.30756 12.7216 4.30176 12.7158L4.29492 12.7089L4.29297 12.7079L4.29297 12.707L4.22656 12.6337C4.0808 12.4558 4 12.232 4 11.9999C4.00006 11.7348 4.10549 11.4804 4.29297 11.2929L9.29297 6.29284C9.68346 5.90247 10.3165 5.90247 10.707 6.29284C11.0975 6.68333 11.0974 7.31638 10.707 7.70692L7.41406 10.9999L20 10.9999C20.5522 10.9999 20.9999 11.4477 21 11.9999C21 12.5522 20.5523 12.9999 20 12.9999L7.41406 12.9999L10.707 16.2929L10.7754 16.3691C11.0957 16.7618 11.073 17.3409 10.707 17.707Z" fill="#2C2044"/>
</svg>
