<svg width="24" height="24" viewBox="0 0 24 24" fill="none" xmlns="http://www.w3.org/2000/svg">
<path fill-rule="evenodd" clip-rule="evenodd" d="M4 3C4.55228 3 5 3.44772 5 4L5 8.00838L7.97001 6.15212C8.40033 5.88317 8.96388 5.97917 9.28088 6.37542L10.716 8.16929L15.614 5H15C14.4477 5 14 4.55228 14 4C14 3.44772 14.4477 3 15 3L18.9991 3C19.1385 3 19.2749 3.02905 19.399 3.08306C19.545 3.14643 19.6773 3.24519 19.7817 3.37631C19.8004 3.39977 19.8181 3.42418 19.8348 3.44951C19.8513 3.47446 19.8665 3.5 19.8806 3.52604C20.0325 3.80759 20.036 4.13506 19.9117 4.41132L18.4191 7.89392C18.2016 8.40155 17.6137 8.6367 17.1061 8.41915C16.5985 8.20159 16.3633 7.61371 16.5809 7.10608L16.7881 6.62242L11.0433 10.3397C10.6122 10.6186 10.0399 10.5258 9.71914 10.1248L8.27519 8.31988L5.03001 10.3481C5.02007 10.3543 5.01007 10.3603 5 10.3662L5 14H8V13C8 12.4477 8.44772 12 9 12H13V11C13 10.4477 13.4477 10 14 10H19C19.5523 10 20 10.4477 20 11V19C20.5523 19 21 19.4477 21 20C21 20.5523 20.5523 21 20 21L4 21C3.96548 21 3.93137 20.9983 3.89776 20.9948C3.3935 20.9436 3 20.5178 3 20V4C3 3.44772 3.44772 3 4 3ZM13 19V14H10V19H13ZM18 19V12H15V19H18ZM5 16H8V19H5L5 16Z" fill="#2C2044"/>
</svg>
