<svg width="24" height="24" viewBox="0 0 24 24" fill="none" xmlns="http://www.w3.org/2000/svg">
<path fill-rule="evenodd" clip-rule="evenodd" d="M15.9447 3C14.4222 3 13.1697 3.72449 12.1879 4.88982L12 5.122L11.8121 4.88982C10.8303 3.72449 9.57783 3 8.05532 3C4.68495 3 2 5.96507 2 9.58049C2 11.9536 3.00673 13.6012 5.28509 15.7264L5.84286 16.2342C6.05304 16.4223 6.32027 16.6605 6.54782 16.8634C6.75996 17.0525 6.93784 17.211 7.00254 17.2694L9.90586 19.8961C10.9492 20.8211 11.1382 20.9228 11.4055 20.9521L11.7048 20.9808C11.803 20.9945 11.898 21 12 21L12.1683 20.9936L12.6491 20.9447C12.982 20.89 13.2925 20.6328 15.5181 18.6132L17.2496 17.0438C17.6384 16.6958 18.3703 16.0397 18.6235 15.8052C20.9487 13.6509 22 11.9656 22 9.58049C22 5.96507 19.315 3 15.9447 3ZM15.9447 5C18.1638 5 20 7.0278 20 9.58049C20 11.2048 19.2832 12.4215 17.5026 14.1144L17.013 14.5674L12.9872 18.205C12.9865 18.2056 12.9858 18.2062 12.9851 18.2069L14.9487 12.3162L14.9796 12.2019C15.1071 11.5923 14.6424 11 14 11H11.5L13.2105 6.89474C13.3565 6.64889 13.5259 6.40577 13.7174 6.17847C14.3513 5.42612 15.0879 5 15.9447 5ZM10.9347 7.15667L10.8887 7.06885C10.7221 6.76436 10.5192 6.45934 10.2826 6.17847C9.64872 5.42612 8.91207 5 8.05532 5C5.83623 5 4 7.0278 4 9.58049C4 11.3367 4.81063 12.5926 6.90009 14.495C7.06561 14.6457 7.50404 15.0365 7.86015 15.3539L10.9087 18.1108L12.612 13H10C9.32607 13 8.85695 12.3525 9.03811 11.7257L9.07692 11.6154L10.9347 7.15667Z" fill="#2C2044"/>
</svg>
