<svg width="24" height="24" viewBox="0 0 24 24" fill="none" xmlns="http://www.w3.org/2000/svg">
<path d="M8 12C8.55228 12 9 12.4477 9 13L9 18C9 18.5523 8.55228 19 8 19C7.44771 19 7 18.5523 7 18L7 13C7 12.4477 7.44772 12 8 12Z" fill="#2C2044"/>
<path d="M13 13C13 12.4477 12.5523 12 12 12C11.4477 12 11 12.4477 11 13V18C11 18.5523 11.4477 19 12 19C12.5523 19 13 18.5523 13 18V13Z" fill="#2C2044"/>
<path fill-rule="evenodd" clip-rule="evenodd" d="M8.86667 2C7.38759 2 6.11428 2.87509 5.53425 4.13568C3.57054 4.20538 2 5.81928 2 7.8C2 8.77461 2.38106 9.66069 3 10.3165V18C3 20.2091 4.79086 22 7 22H14C16.2091 22 18 20.2091 18 18V16H19C20.6569 16 22 14.6569 22 13V12C22 10.3431 20.6569 9 19 9H18.9097C18.9686 8.76537 19 8.51971 19 8.26666C19 6.8826 18.0627 5.71746 16.7883 5.3713C16.6379 3.48437 15.0589 2 13.1333 2C12.3374 2 11.6006 2.25409 11 2.68435C10.3994 2.25409 9.66263 2 8.86667 2ZM18 11V14H19C19.5523 14 20 13.5523 20 13V12C20 11.4477 19.5523 11 19 11H18ZM16.6801 9C16.8778 8.81658 17 8.55553 17 8.26666C17 7.71438 16.5523 7.26666 16 7.26666C15.9529 7.26666 15.9071 7.26985 15.8627 7.27589C15.5361 7.32032 15.2085 7.2009 14.9871 6.95666C14.7657 6.71242 14.6788 6.37475 14.755 6.054C14.7843 5.93069 14.8 5.80117 14.8 5.66667C14.8 4.74619 14.0538 4 13.1333 4C12.5888 4 12.1053 4.2601 11.7995 4.66708C11.6106 4.91849 11.3145 5.06641 11 5.06641C10.6855 5.06641 10.3894 4.91849 10.2005 4.66708C9.89474 4.2601 9.41122 4 8.86667 4C8.04773 4 7.36493 4.59164 7.22598 5.37098C7.17821 5.63888 7.02333 5.87574 6.79707 6.02692C6.5708 6.1781 6.2927 6.23055 6.02692 6.17215C5.9118 6.14686 5.7914 6.13333 5.66667 6.13333C4.74619 6.13333 4 6.87953 4 7.8C4 8.27087 4.19434 8.69581 4.51 9H16.6801ZM5 11V18C5 19.1046 5.89543 20 7 20H14C15.1046 20 16 19.1046 16 18V11H5Z" fill="#2C2044"/>
</svg>
