<svg width="24" height="24" viewBox="0 0 24 24" fill="none" xmlns="http://www.w3.org/2000/svg">
<path fill-rule="evenodd" clip-rule="evenodd" d="M2 3.88085C2 3.35486 2.39086 2.92847 2.87302 2.92847H8.11111C9.78245 2.92847 11.2732 3.92225 12.0027 5.41107C12.7212 3.95008 14.1795 2.92847 15.9048 2.92847H21.0476C21.5736 2.92847 22 3.35486 22 3.88085V17.3729C22 17.427 21.9955 17.48 21.9868 17.5316C21.9955 17.5833 22 17.6363 22 17.6904V19.5951C22 20.6471 21.1472 21.4999 20.0952 21.4999H3.90476C2.85279 21.4999 2 20.6471 2 19.5951V17.6904C2 17.6375 2.00431 17.5856 2.0126 17.5351C2.00432 17.4824 2 17.4282 2 17.3729V3.88085ZM3.90476 18.3253V19.5951H10.6629C10.4599 18.8875 9.81589 18.3253 8.98413 18.3253H3.90476ZM13.4885 19.5951H20.0952V18.3253H15.0476C14.3371 18.3253 13.6849 18.8392 13.4885 19.5951ZM10.7302 16.9106V7.47873C10.7302 6.06821 9.60527 4.83323 8.11111 4.83323H3.74603V16.4205H8.98413C9.61301 16.4205 10.2117 16.5976 10.7302 16.9106ZM13.4286 16.8259C13.9098 16.5676 14.4588 16.4205 15.0476 16.4205H20.0952V4.83323H15.9048C14.5799 4.83323 13.4286 5.97387 13.4286 7.47873V16.8259Z" fill="#2C2044"/>
</svg>
