<svg width="24" height="24" viewBox="0 0 24 24" fill="none" xmlns="http://www.w3.org/2000/svg">
<path d="M17.6569 8.29289C17.2964 7.93241 16.7291 7.90468 16.3368 8.2097L16.2426 8.29289L13.9749 10.5607L11.7071 8.29289L11.6129 8.2097C11.2206 7.90468 10.6534 7.93241 10.2929 8.29289C9.90237 8.68342 9.90237 9.31658 10.2929 9.70711L12.5607 11.9749L10.2929 14.2426C9.90237 14.6332 9.90237 15.2663 10.2929 15.6569C10.6534 16.0173 11.2206 16.0451 11.6129 15.74L11.7071 15.6569L13.9749 13.3891L16.2426 15.6569L16.3368 15.74C16.7291 16.0451 17.2964 16.0173 17.6569 15.6569C18.0474 15.2663 18.0474 14.6332 17.6569 14.2426L15.3891 11.9749L17.6569 9.70711C18.0474 9.31658 18.0474 8.68342 17.6569 8.29289Z" fill="#2C2044"/>
<path fill-rule="evenodd" clip-rule="evenodd" d="M18.1867 4C20.2927 4 22 5.79086 22 8V16C22 18.2091 20.2927 20 18.1867 20H10.1033C9.16936 20 8.2679 19.6405 7.56987 18.9896L3.27992 14.9896C1.70586 13.522 1.56408 10.9937 2.96324 9.34254C3.06251 9.22541 3.16825 9.11449 3.27992 9.01036L7.56987 5.01036C8.2679 4.35951 9.16936 4 10.1033 4H18.1867ZM18.1867 6H10.1033C9.73176 6 9.36764 6.12669 9.06136 6.36448L8.93379 6.47315L4.64383 10.4731C4.58949 10.5238 4.53781 10.578 4.48908 10.6355C3.81604 11.4298 3.8468 12.6518 4.52484 13.4057L4.64383 13.5269L8.93379 17.5269C9.22251 17.7961 9.57628 17.9564 9.94466 17.9923L10.1033 18H18.1867C19.1196 18 19.9203 17.2067 19.9944 16.159L20 16V8C20 6.9282 19.2437 6.08387 18.3256 6.00588L18.1867 6Z" fill="#2C2044"/>
</svg>
