<svg width="24" height="24" viewBox="0 0 24 24" fill="none" xmlns="http://www.w3.org/2000/svg">
<path fill-rule="evenodd" clip-rule="evenodd" d="M12 2C13.6569 2 15 3.34315 15 5V19C15 20.6569 13.6569 22 12 22C10.3431 22 9 20.6569 9 19V5C9 3.34315 10.3431 2 12 2ZM12 4C11.4872 4 11.0645 4.38604 11.0067 4.88338L11 5V19C11 19.5523 11.4477 20 12 20C12.5128 20 12.9355 19.614 12.9933 19.1166L13 19V5C13 4.44772 12.5523 4 12 4Z" fill="#2C2044"/>
<path fill-rule="evenodd" clip-rule="evenodd" d="M22 10C22 8.34315 20.6569 7 19 7C17.3431 7 16 8.34315 16 10V19C16 20.6569 17.3431 22 19 22C20.6569 22 22 20.6569 22 19V10ZM18.0067 9.88338C18.0645 9.38604 18.4872 9 19 9C19.5523 9 20 9.44772 20 10V19L19.9933 19.1166C19.9355 19.614 19.5128 20 19 20C18.4477 20 18 19.5523 18 19V10L18.0067 9.88338Z" fill="#2C2044"/>
<path fill-rule="evenodd" clip-rule="evenodd" d="M8 15C8 13.3431 6.65685 12 5 12C3.34315 12 2 13.3431 2 15V19C2 20.6569 3.34315 22 5 22C6.65685 22 8 20.6569 8 19V15ZM4.00673 14.8834C4.06449 14.386 4.48716 14 5 14C5.55228 14 6 14.4477 6 15V19L5.99327 19.1166C5.93551 19.614 5.51284 20 5 20C4.44772 20 4 19.5523 4 19V15L4.00673 14.8834Z" fill="#2C2044"/>
</svg>
