<svg width="24" height="24" viewBox="0 0 24 24" fill="none" xmlns="http://www.w3.org/2000/svg">
<path d="M9.97339 6.25026L8.66649 7.54789L8.48112 7.36251C8.15671 7.03811 7.58204 7.03811 7.25764 7.36251C6.91469 7.69619 6.91469 8.25232 7.25764 8.58599L8.05475 9.38311C8.21232 9.54995 8.43477 9.64264 8.66649 9.64264C8.89821 9.64264 9.11139 9.54995 9.27823 9.39238L11.1969 7.47374C11.3637 7.3069 11.4471 7.09372 11.4471 6.862C11.4471 6.63028 11.3544 6.40783 11.1969 6.25026C10.8725 5.91658 10.2978 5.91658 9.97339 6.25026Z" fill="#2C2044"/>
<path d="M12.8375 9.01206H16.3514C16.8334 9.01206 17.2227 8.62278 17.2227 8.1408C17.2227 7.65882 16.8334 7.26953 16.3514 7.26953H12.8375C12.3555 7.26953 11.9662 7.65882 11.9662 8.1408C11.9662 8.62278 12.3648 9.01206 12.8375 9.01206Z" fill="#2C2044"/>
<path d="M12.8375 13.2479H16.3514C16.8334 13.2479 17.2227 12.8586 17.2227 12.3766C17.2227 11.8947 16.8334 11.5054 16.3514 11.5054H12.8375C12.3555 11.5054 11.9662 11.8947 11.9662 12.3766C11.9662 12.8586 12.3648 13.2479 12.8375 13.2479Z" fill="#2C2044"/>
<path d="M12.8375 15.7505H16.3792C16.8519 15.7505 17.2412 16.1398 17.2412 16.6218C17.2412 17.1037 16.8519 17.493 16.3699 17.493H12.8375C12.3555 17.493 11.9662 17.1037 11.9662 16.6218C11.9662 16.1398 12.3555 15.7505 12.8375 15.7505Z" fill="#2C2044"/>
<path d="M8.66648 12.1079L9.97338 10.8103C10.2978 10.4766 10.8724 10.4766 11.1969 10.8103C11.3544 10.9679 11.4471 11.1903 11.4471 11.4221C11.4471 11.6538 11.3637 11.867 11.2061 12.0338L9.28749 13.9524C9.12065 14.11 8.90747 14.2027 8.67575 14.2027C8.44403 14.2027 8.22158 14.11 8.06401 13.9524L7.26689 13.1553C6.93321 12.8216 6.93321 12.2655 7.26689 11.9318C7.5913 11.6074 8.16596 11.6074 8.49037 11.9318L8.66648 12.1079Z" fill="#2C2044"/>
<path d="M9.97339 15.0465L8.66649 16.3534L8.48112 16.1681C8.15671 15.8436 7.58204 15.8436 7.25764 16.1681C6.91469 16.5017 6.91469 17.0579 7.25764 17.3915L8.05475 18.1886C8.21232 18.3462 8.43477 18.4389 8.66649 18.4389C8.89821 18.4389 9.11139 18.3462 9.27823 18.1886L11.1969 16.27C11.3637 16.1032 11.4471 15.89 11.4471 15.6583C11.4471 15.4265 11.3544 15.2134 11.1969 15.0465C10.8725 14.7221 10.2978 14.7221 9.97339 15.0465Z" fill="#2C2044"/>
<path fill-rule="evenodd" clip-rule="evenodd" d="M6.32791 3H17.6729C18.9705 3 20.0272 4.05664 20.0272 5.35427V18.6457C20.0272 19.9434 18.9705 21 17.6729 21H6.32791C5.03028 21 3.97363 19.9434 3.97363 18.6457V5.35427C3.97363 4.05664 5.03028 3 6.32791 3ZM18.1642 18.6457V5.35427C18.1642 5.08548 17.9417 4.86303 17.6729 4.86303H6.32791C6.05911 4.86303 5.83666 5.08548 5.83666 5.35427V18.6457C5.83666 18.9145 6.05911 19.137 6.32791 19.137H17.6729C17.9417 19.137 18.1642 18.9145 18.1642 18.6457Z" fill="#2C2044"/>
</svg>
