<svg width="24" height="24" viewBox="0 0 24 24" fill="none" xmlns="http://www.w3.org/2000/svg">
<path fill-rule="evenodd" clip-rule="evenodd" d="M12 2C17.522 2 22 6.478 22 12C22 17.522 17.522 22 12 22C6.478 22 2 17.522 2 12C2 6.478 6.478 2 12 2ZM12 4C7.58255 4 4 7.58255 4 12C4 16.4174 7.58255 20 12 20C16.4174 20 20 16.4174 20 12C20 7.58255 16.4174 4 12 4ZM9.1129 7.7097L9.20711 7.79289L12 10.585L14.7929 7.79289C15.1834 7.40237 15.8166 7.40237 16.2071 7.79289C16.5976 8.18342 16.5976 8.81658 16.2071 9.20711L13.415 12L16.2071 14.7929C16.5976 15.1834 16.5976 15.8166 16.2071 16.2071C15.8466 16.5676 15.2794 16.5953 14.8871 16.2903L14.7929 16.2071L12 13.415L9.20711 16.2071C8.81658 16.5976 8.18342 16.5976 7.79289 16.2071C7.40237 15.8166 7.40237 15.1834 7.79289 14.7929L10.585 12L7.79289 9.20711C7.40237 8.81658 7.40237 8.18342 7.79289 7.79289C8.15338 7.43241 8.72061 7.40468 9.1129 7.7097Z" fill="#2C2044"/>
</svg>
