<svg width="24" height="24" viewBox="0 0 24 24" fill="none" xmlns="http://www.w3.org/2000/svg">
<path fill-rule="evenodd" clip-rule="evenodd" d="M22 7C22 5.34315 20.6569 4 19 4H5C3.34315 4 2 5.34315 2 7V17C2 18.6569 3.34315 20 5 20H12.3414C12.1203 19.3744 12 18.7013 12 18H5L4.88338 17.9933C4.38604 17.9355 4 17.5128 4 17V11H20V12.3414C20.7452 12.6048 21.4229 13.0113 22 13.5278V7ZM4 9H20V7C20 6.48716 19.614 6.06449 19.1166 6.00673L19 6H5C4.48716 6 4.06449 6.38604 4.00673 6.88338L4 7V9Z" fill="#2C2044"/>
<path d="M7 14C6.44772 14 6 14.4477 6 15C6 15.5523 6.44772 16 7 16H9C9.55228 16 10 15.5523 10 15C10 14.4477 9.55228 14 9 14H7Z" fill="#2C2044"/>
<path d="M19.1583 14.7507C19.5508 14.4399 20.1227 14.4658 20.4853 14.8284L20.563 14.9156L20.6287 15.0092C20.8678 15.3949 20.82 15.9079 20.4853 16.2426L19.0718 17.6561L20.4853 19.0711C20.8758 19.4616 20.8758 20.0948 20.4853 20.4853C20.0948 20.8758 19.4616 20.8758 19.0711 20.4853L17.6576 19.0704L16.2426 20.4853L16.1554 20.563C15.7629 20.8738 15.1911 20.8479 14.8284 20.4853L14.7507 20.3981C14.4399 20.0055 14.4658 19.4337 14.8284 19.0711L16.2433 17.6561L14.8284 16.2426C14.4379 15.8521 14.4379 15.219 14.8284 14.8284C15.219 14.4379 15.8521 14.4379 16.2426 14.8284L17.6576 16.2419L19.0711 14.8284L19.1583 14.7507Z" fill="#2C2044"/>
</svg>
