<svg width="24" height="24" viewBox="0 0 24 24" fill="none" xmlns="http://www.w3.org/2000/svg">
<path fill-rule="evenodd" clip-rule="evenodd" d="M7 4C7 3.44772 7.44772 3 8 3C8.55228 3 9 3.44772 9 4V5H15V4C15 3.44772 15.4477 3 16 3C16.5523 3 17 3.44772 17 4V5H18C19.6569 5 21 6.34315 21 8V18C21 19.6569 19.6569 21 18 21H6C4.34315 21 3 19.6569 3 18V8C3 6.34315 4.34315 5 6 5H7V4ZM18 7H6C5.48716 7 5.06449 7.38604 5.00673 7.88338L5 8V10H19V8C19 7.48716 18.614 7.06449 18.1166 7.00673L18 7ZM19 12H5V18C5 18.5128 5.38604 18.9355 5.88338 18.9933L6 19H18C18.5128 19 18.9355 18.614 18.9933 18.1166L19 18V12Z" fill="#2C2044"/>
</svg>
