<svg width="24" height="24" viewBox="0 0 24 24" fill="none" xmlns="http://www.w3.org/2000/svg">
<path d="M7 14C6.44772 14 6 14.4477 6 15C6 15.5523 6.44772 16 7 16H9C9.55228 16 10 15.5523 10 15C10 14.4477 9.55228 14 9 14H7Z" fill="#2C2044"/>
<path fill-rule="evenodd" clip-rule="evenodd" d="M22 7C22 5.34315 20.6569 4 19 4H5C3.34315 4 2 5.34315 2 7V17C2 18.6569 3.34315 20 5 20H19C20.6569 20 22 18.6569 22 17V7ZM4 17V11H20V17L19.9933 17.1166C19.9355 17.614 19.5128 18 19 18H5L4.88338 17.9933C4.38604 17.9355 4 17.5128 4 17ZM4 9H20V7C20 6.48716 19.614 6.06449 19.1166 6.00673L19 6H5C4.48716 6 4.06449 6.38604 4.00673 6.88338L4 7V9Z" fill="#2C2044"/>
</svg>
