<svg width="24" height="24" viewBox="0 0 24 24" fill="none" xmlns="http://www.w3.org/2000/svg">
<path fill-rule="evenodd" clip-rule="evenodd" d="M3.22123 13.2418L5 13.6911L5 17.0199C5 18.9286 5.99869 20.2323 7.39264 21.0027C8.72712 21.7402 10.4215 22 12.0109 22C13.6 22 15.2908 21.7403 16.6215 20.9984C18.0132 20.2224 19 18.9123 19 17V13.7049L20.7769 13.2581C20.9984 13.202 21.2021 13.099 21.3767 12.9598C21.551 12.8208 21.6923 12.649 21.7957 12.4581C21.8992 12.2673 21.9638 12.0594 21.9885 11.847C22.0133 11.6346 21.998 11.4186 21.9429 11.2112L20.3839 5.52277C20.2893 5.15362 20.07 4.81556 19.7457 4.58357L19.6995 4.55056L15.5674 2.25264C15.3188 2.09239 15.0276 2.00225 14.724 2.00028H9.29183C8.99158 1.99465 8.70009 2.07509 8.44763 2.22656L4.30341 4.53261L4.25986 4.56332C3.93104 4.79524 3.7096 5.13626 3.61571 5.50851L2.05932 11.1872L2.05751 11.1939C2.00234 11.4009 1.98681 11.6164 2.01115 11.8285C2.03549 12.0406 2.09963 12.2482 2.20236 12.4388C2.30515 12.6295 2.44564 12.8013 2.61916 12.9406C2.79288 13.0801 2.99572 13.1837 3.21658 13.2406L3.22123 13.2418ZM8.39622 4.54395L5.51431 6.14759L4.07615 11.3949L5 11.6283L5 10C5 9.44771 5.44772 9 6 9C6.55229 9 7 9.44772 7 10L7 17.0199C7 18.0913 7.50131 18.7776 8.36007 19.2523C9.27831 19.7598 10.5894 20 12.0109 20C13.4326 20 14.7363 19.7597 15.6475 19.2516C16.4976 18.7776 17 18.0877 17 17L17 10C17 9.44772 17.4477 9 18 9C18.5523 9 19 9.44772 19 10V11.6427L19.9237 11.4104L18.4859 6.16408L15.584 4.55032C15.5469 4.83708 15.4756 5.11909 15.371 5.39017C15.1962 5.84342 14.932 6.25688 14.5942 6.60596C14.2563 6.95504 13.8517 7.23263 13.4044 7.4222C12.9571 7.61178 12.4763 7.70946 11.9905 7.70946C11.5047 7.70946 11.0239 7.61178 10.5766 7.4222C10.1293 7.23263 9.7247 6.95504 9.38686 6.60596C9.04902 6.25688 8.78482 5.84342 8.60998 5.39017C8.50464 5.11708 8.43303 4.83291 8.39622 4.54395ZM10.3686 4.00028C10.3686 4.01116 10.3684 4.02208 10.3681 4.03303C10.3609 4.25057 10.3976 4.46731 10.476 4.67037C10.5543 4.87343 10.6727 5.05867 10.824 5.21507C10.9754 5.37147 11.1567 5.49583 11.357 5.58077C11.5574 5.66569 11.7729 5.70946 11.9905 5.70946C12.2082 5.70946 12.4236 5.66569 12.624 5.58077C12.8244 5.49583 13.0056 5.37147 13.157 5.21507C13.3084 5.05867 13.4267 4.87343 13.5051 4.67037C13.5834 4.46731 13.6201 4.25057 13.613 4.03303C13.6126 4.02208 13.6124 4.01116 13.6124 4.00028H10.3686Z" fill="#2C2044"/>
</svg>
