<svg width="24" height="24" viewBox="0 0 24 24" fill="none" xmlns="http://www.w3.org/2000/svg">
<path fill-rule="evenodd" clip-rule="evenodd" d="M12 2C12.5523 2 13 2.44772 13 3V4.09668C14.4314 4.29149 15.5646 4.77488 16.4004 5.49121C17.5211 6.45184 18 7.74141 18 9C18 9.55226 17.5523 10 17 10C16.4477 10 16 9.55226 16 9C16 8.25879 15.7285 7.54905 15.0996 7.00977C14.6557 6.62924 13.9833 6.29086 13 6.11914V11.1777L14.2295 11.4678C15.3544 11.7325 16.2988 12.199 16.9707 12.8984C17.6591 13.6152 18 14.5145 18 15.5C18 16.7202 17.5071 17.8785 16.5244 18.7168C15.6496 19.4629 14.4499 19.9026 13 19.9844V21C13 21.5523 12.5523 22 12 22C11.4477 22 11 21.5523 11 21V19.8877C9.53767 19.6605 8.39529 19.0984 7.56445 18.3164C6.47682 17.2927 6.00002 15.9647 6 14.7646C6.00003 14.2124 6.44773 13.7646 7 13.7646C7.55227 13.7646 7.99997 14.2124 8 14.7646C8.00002 15.4469 8.27329 16.2371 8.93555 16.8604C9.38373 17.2821 10.0474 17.6607 11 17.8574V12.7627L9.77051 12.4736C9.76651 12.4727 9.76276 12.4707 9.75879 12.4697C7.41176 11.9544 6.00007 10.2682 6 8.42871C6 7.00586 6.67994 5.85996 7.72559 5.10156C8.62523 4.44907 9.77583 4.09059 11 4.01465V3C11 2.44772 11.4477 2 12 2ZM13 17.9805C14.0486 17.9031 14.7684 17.5851 15.2256 17.1953C15.7427 16.7543 16 16.162 16 15.5C16 15.003 15.8405 14.6084 15.5293 14.2842C15.2013 13.9427 14.6453 13.6209 13.7705 13.415L13 13.2334V17.9805ZM11 6.02246C10.1317 6.0947 9.40833 6.3516 8.89941 6.7207C8.32031 7.14085 8 7.70887 8 8.42871C8.00007 9.15222 8.57628 10.1724 10.21 10.5225L10.2129 10.5234C10.2184 10.5246 10.224 10.5251 10.2295 10.5264L11 10.707V6.02246Z" fill="#2C2044"/>
</svg>
