<svg width="24" height="24" viewBox="0 0 24 24" fill="none" xmlns="http://www.w3.org/2000/svg">
<path fill-rule="evenodd" clip-rule="evenodd" d="M3.99486 2.17737C4.14489 2.07134 4.32035 2.01114 4.5 1.99996C4.62287 1.99231 4.74771 2.00758 4.8677 2.0468L7.62499 2.94805H10.217L12.9743 2.0468C13.2697 1.95024 13.5945 1.99882 13.8471 2.17737C14.0998 2.35593 14.2495 2.59579 14.2495 2.90116L14.2495 9.9626L19.5268 11.6503C19.7566 11.763 19.9314 11.9606 20.0126 12.1996L21.9503 17.8996C22.0448 18.1777 22.0031 18.483 21.8373 18.727L19.8997 21.5769C19.72 21.8412 19.4175 22 19.0936 22H10.3855C10.3778 22 10.3702 22 10.3625 22H6.50793C6.50495 22 6.50196 22 6.49896 22C6.49597 22 6.49298 22 6.48999 22H4.56132C2.62566 22 1.65628 19.7051 3.02501 18.363C3.1168 18.273 3.1168 18.127 3.02501 18.037L2.75025 17.7676C1.9707 17.0032 1.77744 15.8354 2.27047 14.8685L2.72599 13.9751C2.96527 13.5059 3.54721 13.3157 4.02579 13.5503C4.50436 13.7849 4.69834 14.3556 4.45905 14.8248L4.00354 15.7182C3.88349 15.9536 3.93055 16.238 4.12036 16.4241L4.39512 16.6935C5.24361 17.5255 5.24361 18.8745 4.39511 19.7065C4.24703 19.8517 4.35191 20.1 4.56132 20.1H5.53015V12.0115L4.16786 11.4178C3.818 11.2654 3.59252 10.9252 3.59252 10.5497L3.59252 2.94805C3.59252 2.64268 3.74222 2.35593 3.99486 2.17737ZM6.91004 10.5337C6.89781 10.5281 6.88543 10.5227 6.87293 10.5175C6.84781 10.5066 6.82226 10.4955 6.79625 10.4841L5.53015 9.93235L5.53015 4.2661L7.16141 4.7993C7.2602 4.83159 7.36365 4.84805 7.46778 4.84805H10.3742C10.4784 4.84805 10.5818 4.83159 10.6806 4.7993L12.3118 4.2661V9.93235L11.0458 10.4841C10.0731 10.908 9.7383 11.0463 9.40495 11.1015C9.08458 11.1546 8.75741 11.1546 8.43705 11.1015C8.11704 11.0485 7.79573 10.919 6.91004 10.5337ZM7.46778 12.813V20.1H9.40541V15.35C9.40541 14.8253 9.83916 14.4 10.3742 14.4C10.9093 14.4 11.343 14.8253 11.343 15.35V18.7705L13.2566 16.9102C13.4428 16.7292 13.5714 16.6042 13.7071 16.4904C14.4918 15.8322 15.4704 15.4371 16.5002 15.3628C16.6783 15.35 16.8594 15.35 17.1215 15.35L17.1559 15.35C17.691 15.35 18.1247 15.7753 18.1247 16.3C18.1247 16.8247 17.691 17.25 17.1559 17.25C16.8467 17.25 16.7407 17.2506 16.6424 17.2577C16.0246 17.3023 15.4374 17.5393 14.9666 17.9342C14.8917 17.997 14.816 18.0698 14.5964 18.2832L12.7276 20.1H18.5751L19.9622 18.0596L18.3014 13.1737L13.2563 11.5999L11.8327 12.2204C11.7961 12.2363 11.76 12.2521 11.7244 12.2676C10.9015 12.6265 10.332 12.8749 9.72759 12.975C9.19364 13.0634 8.64836 13.0634 8.11441 12.975C7.89878 12.9393 7.6876 12.8847 7.46778 12.813ZM6.76253 7.09807C7.14093 6.72712 7.75435 6.7272 8.13264 7.09825L8.13949 7.10497C8.51779 7.47602 8.51771 8.07752 8.13931 8.44847C7.76091 8.81942 7.14749 8.81934 6.7692 8.44829L6.76235 8.44157C6.38405 8.07052 6.38414 7.46902 6.76253 7.09807ZM9.66898 7.09807C10.0474 6.72712 10.6608 6.7272 11.0391 7.09825L11.0459 7.10497C11.4242 7.47602 11.4241 8.07752 11.0458 8.44847C10.6674 8.81942 10.0539 8.81934 9.67564 8.44829L9.66879 8.44157C9.2905 8.07052 9.29058 7.46902 9.66898 7.09807Z" fill="#2C2044"/>
</svg>
