<svg width="24" height="24" viewBox="0 0 24 24" fill="none" xmlns="http://www.w3.org/2000/svg">
<path d="M19.5469 5.89453C19.716 5.36901 20.28 5.08008 20.8057 5.24902C21.3312 5.41805 21.6209 5.98119 21.4521 6.50684L16.9521 20.5068C16.7832 21.0324 16.22 21.322 15.6943 21.1533C15.1685 20.9843 14.8789 20.4203 15.0479 19.8945L19.5469 5.89453Z" fill="#2C2044"/>
<path d="M8 4C9.65449 4 11.1441 4.41284 12.2432 5.27637C13.3685 6.16071 14 7.45523 14 9C14 9.55228 13.5523 10 13 10C12.4477 10 12 9.55228 12 9C12 8.04491 11.6313 7.33929 11.0068 6.84863C10.3559 6.33729 9.3453 6 8 6C6.73941 6 6.02397 6.41077 5.61523 6.86035C5.18496 7.33366 5 7.95482 5 8.5C5 9.00264 5.15683 9.36776 5.45703 9.66797C5.78313 9.99407 6.34257 10.3053 7.24219 10.5303L9.22363 11.0264C10.5628 11.2976 11.7334 11.7768 12.5889 12.5107C13.4766 13.2725 14 14.2909 14 15.5C14 16.5678 13.6991 17.7207 12.8467 18.6104C11.984 19.5105 10.6922 20 9 20C7.34551 20 5.85587 19.5872 4.75684 18.7236C3.63149 17.8393 3 16.5448 3 15C3 14.4477 3.44772 14 4 14C4.55228 14 5 14.4477 5 15C5 15.9551 5.3687 16.6607 5.99316 17.1514C6.64414 17.6627 7.6547 18 9 18C10.3076 18 11.016 17.6308 11.4033 17.2266C11.8009 16.8116 12 16.2138 12 15.5C12 14.9276 11.7732 14.4462 11.2861 14.0283C10.7725 13.5878 9.95283 13.2103 8.80371 12.9805L8.78027 12.9756L8.75781 12.9697L6.75781 12.4697C5.65756 12.1947 4.71684 11.7559 4.04297 11.082C3.34317 10.3822 3 9.49736 3 8.5C3 7.5452 3.31508 6.41633 4.13477 5.51465C4.97603 4.58925 6.26063 4 8 4Z" fill="#2C2044"/>
</svg>
