<svg width="24" height="24" viewBox="0 0 24 24" fill="none" xmlns="http://www.w3.org/2000/svg">
<path fill-rule="evenodd" clip-rule="evenodd" d="M12 4C7.582 4 4 7.582 4 12C4 16.418 7.582 20 12 20C16.418 20 20 16.418 20 12C20 7.582 16.418 4 12 4ZM12 2C14.652 2 17.195 3.053 19.071 4.929C20.946 6.804 22 9.348 22 12C22 17.523 17.522 22 12 22C6.478 22 2 17.523 2 12C2 6.477 6.478 2 12 2ZM8.70711 12.2929C8.31658 11.9024 7.68342 11.9024 7.29289 12.2929C6.90237 12.6834 6.90237 13.3166 7.29289 13.7071L9.79289 16.2071C10.1834 16.5976 10.8166 16.5976 11.2071 16.2071L16.7071 10.7071C17.0976 10.3166 17.0976 9.68342 16.7071 9.29289C16.3166 8.90237 15.6834 8.90237 15.2929 9.29289L10.5 14.0858L8.70711 12.2929Z" fill="#2C2044"/>
</svg>
