<svg width="24" height="24" viewBox="0 0 24 24" fill="none" xmlns="http://www.w3.org/2000/svg">
<path d="M6.85714 9.48531C6.85714 9.05253 7.20798 8.7017 7.64076 8.7017H12.5497C12.9825 8.7017 13.3333 9.05253 13.3333 9.48531C13.3333 9.91809 12.9825 10.2689 12.5497 10.2689H7.64076C7.20798 10.2689 6.85714 9.91809 6.85714 9.48531Z" fill="#2C2044"/>
<path d="M6.85714 12.6198C6.85714 12.187 7.20798 11.8362 7.64076 11.8362H12.5497C12.9825 11.8362 13.3333 12.187 13.3333 12.6198C13.3333 13.0526 12.9825 13.4034 12.5497 13.4034H7.64076C7.20798 13.4034 6.85714 13.0526 6.85714 12.6198Z" fill="#2C2044"/>
<path fill-rule="evenodd" clip-rule="evenodd" d="M10.0952 4C12.3471 4 14.3843 4.80105 15.8517 6.09392C19.3822 6.85329 22 9.63089 22 12.9412C22 14.9138 21.0704 16.6972 19.5721 17.9772L19.5717 20.1913C19.5716 20.8072 18.9111 21.1974 18.3717 20.9003L16.2021 19.7057C15.4738 19.8931 14.7028 19.9937 13.9048 19.9937C11.6529 19.9937 9.61572 19.1927 8.14829 17.8998C8.03046 17.8744 7.91364 17.8468 7.79791 17.8171L5.62832 19.0117C5.08886 19.3087 4.42844 18.9185 4.42833 18.3027L4.42795 16.0885C2.92959 14.8086 2 13.0251 2 11.0525C2 7.15753 5.62436 4 10.0952 4ZM18.1905 11.0525C18.1905 14.5527 15.2637 17.4574 11.4259 18.0103C12.1872 18.2781 13.0237 18.4265 13.9048 18.4265C14.5506 18.4265 15.1822 18.3465 15.7861 18.1911L16.4266 18.0262L17.7132 18.7347C17.8211 18.7941 17.9532 18.7161 17.9532 18.5929L17.9531 17.2699L18.5008 16.8021L18.6773 16.6453C19.7701 15.6365 20.381 14.3265 20.381 12.9412C20.381 11.1012 19.2969 9.44892 17.6214 8.44986C17.9886 9.25514 18.1905 10.1333 18.1905 11.0525ZM10.0952 5.56723C6.48273 5.56723 3.61905 8.06206 3.61905 11.0525C3.61905 12.4378 4.22992 13.7478 5.3227 14.7567L5.49923 14.9134L6.04687 15.3813L6.04682 16.7043C6.04682 16.8274 6.17892 16.9055 6.28682 16.8461L7.57343 16.1376L8.21391 16.3024C8.8178 16.4579 9.44937 16.5379 10.0952 16.5379C13.7078 16.5379 16.5714 14.043 16.5714 11.0525C16.5714 8.06206 13.7078 5.56723 10.0952 5.56723Z" fill="#2C2044"/>
</svg>
