<svg width="24" height="24" viewBox="0 0 24 24" fill="none" xmlns="http://www.w3.org/2000/svg">
<path d="M12 4C14.2041 4 16.2001 4.89139 17.647 6.33333H16.8059C16.3608 6.33333 16 6.70643 16 7.16667C16 7.6269 16.3608 8 16.8059 8H20.0296C20.4747 8 20.8355 7.6269 20.8355 7.16667V3.83333C20.8355 3.3731 20.4747 3 20.0296 3C19.5845 3 19.2237 3.3731 19.2237 3.83333V5.08486C17.4033 3.1838 14.8399 2 12 2C6.47715 2 2 6.47715 2 12C2 12.4111 2.02481 12.8164 2.073 13.2145C2.12867 13.6742 2.53286 14 2.99596 14C3.63222 14 4.09601 13.3974 4.036 12.764C4.01218 12.5125 4 12.2577 4 12C4 7.58172 7.58172 4 12 4Z" fill="#2C2044"/>
<path d="M12 20C16.4183 20 20 16.4183 20 12C20 11.7423 19.9878 11.4875 19.964 11.236C19.904 10.6026 20.3678 10 21.004 10C21.4671 10 21.8713 10.3258 21.927 10.7855C21.9752 11.1836 22 11.5889 22 12C22 17.5228 17.5228 22 12 22C9.10259 22 6.49299 20.7678 4.66667 18.7988V20.1667C4.66667 20.6269 4.29357 21 3.83333 21C3.3731 21 3 20.6269 3 20.1667V16.8333C3 16.3731 3.3731 16 3.83333 16H7.16667C7.6269 16 8 16.3731 8 16.8333C8 17.2936 7.6269 17.6667 7.16667 17.6667H6.35298C7.79991 19.1086 9.79586 20 12 20Z" fill="#2C2044"/>
<path fill-rule="evenodd" clip-rule="evenodd" d="M6.5 12.06C6.5 9 8.99 6.5 12.06 6.5C15.12 6.5 17.62 9 17.62 12.06C17.62 15.12 15.12 17.62 12.06 17.62C9 17.62 6.5 15.12 6.5 12.06ZM8.94 10.39C8.67 10.89 8.5 11.45 8.5 12.06C8.5 12.67 8.67 13.23 8.94 13.73C9.25 13.62 9.57 13.53 9.89 13.45C9.82 13 9.79 12.53 9.79 12.06C9.79 11.59 9.82 11.13 9.89 10.67C9.57 10.59 9.25 10.5 8.94 10.39ZM10.79 10.84C10.73 11.24 10.7 11.65 10.7 12.06C10.7 12.48 10.73 12.89 10.79 13.29C11.21 13.23 11.65 13.2 12.08 13.2C12.51 13.2 12.93 13.22 13.35 13.28C13.41 12.88 13.44 12.47 13.44 12.06C13.44 11.65 13.41 11.24 13.35 10.84H13.32C12.91 10.89 12.5 10.92 12.07 10.92C11.64 10.92 11.21 10.9 10.79 10.84ZM12.06 10.01C12.44 10.01 12.81 9.99 13.17 9.94C13.05 9.46 12.89 9 12.69 8.56C12.6812 8.55875 12.6725 8.5575 12.6638 8.55625C12.4633 8.52755 12.2708 8.5 12.06 8.5C11.84 8.5 11.63 8.52 11.43 8.56C11.23 9.01 11.07 9.47 10.95 9.94C11.32 9.99 11.68 10.01 12.06 10.01ZM14.07 9.78C14.26 9.73 14.45 9.68 14.64 9.62C14.41 9.38 14.13 9.17 13.84 9L13.86 9.05C13.94 9.29 14.01 9.53 14.07 9.78ZM10.05 9.78C10.12 9.51 10.2 9.25 10.29 8.99C9.99 9.17 9.72 9.37 9.48 9.62C9.66999 9.68 9.86001 9.73 10.05 9.78ZM10.06 14.35H10.05C9.86 14.4 9.67 14.45 9.49 14.51C9.73 14.76 10 14.97 10.3 15.14C10.21 14.88 10.13 14.61 10.06 14.35ZM11.43 15.56C11.64 15.59 11.85 15.62 12.06 15.62C12.28 15.62 12.49 15.6 12.69 15.56C12.89 15.12 13.05 14.65 13.17 14.18C12.8 14.13 12.45 14.11 12.07 14.11C11.69 14.11 11.32 14.13 10.95 14.18C11.07 14.65 11.23 15.11 11.43 15.56ZM14.04 14.45C13.98 14.68 13.91 14.91 13.83 15.13L13.84 15.12C14.14 14.95 14.41 14.74 14.65 14.49C14.4926 14.4403 14.3283 14.3974 14.1685 14.3558C14.1355 14.3471 14.1026 14.3386 14.07 14.33L14.04 14.45ZM14.2415 13.4304C14.561 13.5103 14.8805 13.6002 15.19 13.71C15.45 13.22 15.62 12.66 15.62 12.05C15.62 11.44 15.46 10.88 15.19 10.38C14.88 10.49 14.56 10.58 14.24 10.66C14.31 11.12 14.34 11.58 14.34 12.05C14.34 12.5167 14.3104 12.9736 14.2415 13.4304Z" fill="#2C2044"/>
</svg>
