<svg width="24" height="24" viewBox="0 0 24 24" fill="none" xmlns="http://www.w3.org/2000/svg">
<path fill-rule="evenodd" clip-rule="evenodd" d="M12 2C17.523 2 22 6.478 22 12C22 17.522 17.523 22 12 22C6.477 22 2 17.522 2 12C2 6.478 6.477 2 12 2ZM12 4C7.589 4 4 7.589 4 12C4 16.411 7.589 20 12 20C16.411 20 20 16.411 20 12C20 7.589 16.411 4 12 4ZM15 14H12C11.447 14 11 13.553 11 13V8C11 7.447 11.447 7 12 7C12.553 7 13 7.447 13 8V12H15C15.553 12 16 12.447 16 13C16 13.553 15.553 14 15 14Z" fill="#2C2044"/>
</svg>
