<svg width="24" height="24" viewBox="0 0 24 24" fill="none" xmlns="http://www.w3.org/2000/svg">
<path fill-rule="evenodd" clip-rule="evenodd" d="M14.7241 2.00052C15.0275 2.00257 15.3185 2.09241 15.5669 2.25247L19.6997 4.55032L19.7456 4.58353C20.0699 4.81552 20.2888 5.15386 20.3833 5.52298L21.9429 11.2115C21.9979 11.4188 22.0125 11.6349 21.9878 11.8472C21.9631 12.0596 21.8988 12.2678 21.7954 12.4585C21.692 12.6492 21.5506 12.8206 21.3765 12.9595C21.202 13.0987 20.9983 13.2022 20.7769 13.2583L18.9995 13.7046V17.0005C18.9994 18.9125 18.0131 20.2226 16.6216 20.9986C15.291 21.7405 13.5994 22.0005 12.0103 22.0005C10.421 22.0005 8.7265 21.74 7.39211 21.0025C5.99835 20.2321 4.99955 18.9286 4.99954 17.0201V13.6909L3.22122 13.2417L3.21633 13.2408C2.99548 13.1838 2.79239 13.0804 2.61868 12.9409C2.44517 12.8016 2.30447 12.6297 2.20169 12.439C2.099 12.2484 2.03561 12.0407 2.01126 11.8286C1.98691 11.6166 2.00198 11.4009 2.05715 11.1939L2.05911 11.187L3.61575 5.50833C3.70969 5.13621 3.93059 4.79487 4.2593 4.56302L4.30325 4.53275L8.44778 2.22708C8.70021 2.07566 8.99133 1.9949 9.29153 2.00052H14.7241ZM9.10891 19.5796C9.93325 19.8634 10.9404 20.0005 12.0103 20.0005C13.4319 20.0005 14.7358 19.7595 15.647 19.2515C16.497 18.7775 16.9994 18.088 16.9995 17.0005V10.0005C16.9995 9.4483 17.4473 9.00063 17.9995 9.00052C18.5518 9.00052 18.9995 9.44823 18.9995 10.0005V11.6431L19.9234 11.4107L18.4859 6.16458L17.2857 5.49661L9.10891 19.5796ZM5.51418 6.14798L4.07571 11.3951L4.99954 11.6284V10.0005C4.99954 9.4483 5.44735 9.00063 5.99954 9.00052C6.55182 9.00052 6.99954 9.44823 6.99954 10.0005V17.0201C6.99954 17.6135 7.15388 18.0885 7.43704 18.4751L14.0698 7.0513C13.8618 7.19724 13.639 7.32272 13.4038 7.42239C12.9566 7.61188 12.4754 7.7095 11.9898 7.7095C11.5043 7.70944 11.0237 7.61181 10.5767 7.42239C10.1294 7.23282 9.7241 6.95507 9.38626 6.60599C9.04851 6.25695 8.78469 5.84333 8.60989 5.39017C8.5046 5.11722 8.43284 4.83327 8.39602 4.54446L5.51418 6.14798ZM10.3677 4.03275C10.3606 4.25028 10.3978 4.46738 10.4761 4.67044C10.5544 4.87346 10.6724 5.05899 10.8238 5.21536C10.9751 5.37172 11.1566 5.49568 11.357 5.5806C11.5572 5.66545 11.7723 5.70944 11.9898 5.7095C12.2074 5.7095 12.4232 5.66551 12.6236 5.5806C12.8239 5.49568 13.0054 5.37172 13.1568 5.21536C13.3081 5.05899 13.4261 4.87346 13.5044 4.67044C13.5827 4.46738 13.6199 4.25028 13.6128 4.03275C13.6125 4.02197 13.6118 4.01123 13.6118 4.00052H10.3687C10.3687 4.01123 10.368 4.02197 10.3677 4.03275Z" fill="#2C2044"/>
</svg>
