<svg width="24" height="24" viewBox="0 0 24 24" fill="none" xmlns="http://www.w3.org/2000/svg">
<path d="M13.5016 2C14.6058 2.00048 15.5016 2.89573 15.5016 4V4.77246C15.5024 4.77483 15.504 4.77953 15.5084 4.78613C15.5198 4.80299 15.5433 4.826 15.5788 4.84375L16.0065 5.0752C16.1466 5.15642 16.285 5.24175 16.4196 5.33105C16.4523 5.35262 16.4836 5.36096 16.5036 5.3623C16.5107 5.36277 16.5157 5.36274 16.5182 5.3623L17.1354 5.00684L17.318 4.91309C18.2424 4.49832 19.3493 4.84286 19.8668 5.73926L21.3668 8.33691L21.4606 8.51855C21.8485 9.38166 21.5739 10.4046 20.8063 10.958L20.6344 11.0693L20.0094 11.4297C20.0134 11.4273 20.01 11.4275 20.0026 11.4424C19.9939 11.4601 19.9847 11.4905 19.987 11.5293L20.0016 12C20.0016 12.1011 19.9987 12.2014 19.9948 12.3008C19.9933 12.3385 20.0021 12.3684 20.0104 12.3848C20.0173 12.3982 20.0204 12.398 20.0163 12.3955L20.7243 12.8037C21.6797 13.3562 22.0071 14.5791 21.4557 15.5352L19.9547 18.1338C19.4025 19.0901 18.1797 19.418 17.2233 18.8662L16.6588 18.54C16.6625 18.5419 16.6598 18.5388 16.6432 18.54C16.633 18.5408 16.6196 18.5437 16.6051 18.5488L16.5573 18.5732C16.2468 18.7889 15.9195 18.9835 15.5788 19.1543C15.5432 19.1721 15.5198 19.196 15.5084 19.2129C15.504 19.2195 15.5024 19.2242 15.5016 19.2266V20C15.5016 21.1043 14.6058 21.9995 13.5016 22H10.5016C9.39703 22 8.5016 21.1046 8.5016 20V19.2266C8.50171 19.2313 8.5032 19.227 8.49379 19.2129C8.48825 19.2046 8.47968 19.1945 8.4684 19.1846L8.42445 19.1553C8.28258 19.0843 8.14242 19.0096 8.00551 18.9307L7.60219 18.6816C7.56934 18.66 7.53739 18.6518 7.51723 18.6504C7.51011 18.65 7.5051 18.65 7.50258 18.6504L6.77895 19.0684C5.82247 19.621 4.59904 19.2934 4.04652 18.3369L2.54652 15.7383C1.99452 14.782 2.32189 13.5593 3.27797 13.0068L3.99281 12.5938L4.00063 12.5801C4.00951 12.5618 4.0186 12.5304 4.01625 12.4912C4.00646 12.3285 4.0016 12.1647 4.0016 12C4.0016 11.7775 4.00996 11.5568 4.02797 11.3389C4.03121 11.299 4.0232 11.2667 4.0143 11.248L4.00649 11.2344L3.36781 10.8662C2.41093 10.3141 2.08301 9.09054 2.63539 8.13379L4.13539 5.53613C4.68761 4.57991 5.91036 4.25188 6.86684 4.80371L7.64809 5.25391C7.65058 5.2543 7.65554 5.25429 7.66274 5.25391C7.68222 5.25279 7.71322 5.24602 7.74574 5.22559L8.07973 5.02637C8.19278 4.96277 8.30809 4.90193 8.42445 4.84375L8.4684 4.81445C8.47968 4.80453 8.48825 4.79441 8.49379 4.78613C8.50323 4.77193 8.5017 4.76769 8.5016 4.77246V4C8.5016 2.89543 9.39703 2 10.5016 2H13.5016ZM10.5016 4.77246C10.5016 5.5664 10.0403 6.21685 9.44008 6.56641L9.31899 6.63281C9.1445 6.72006 8.97444 6.81571 8.8102 6.91895C8.20011 7.30242 7.36612 7.39974 6.64906 6.98633L5.86781 6.53613L4.36684 9.13379L5.00649 9.50293L5.14223 9.58789C5.79526 10.037 6.07919 10.8013 6.02113 11.5039C6.00762 11.6675 6.0016 11.8329 6.0016 12C6.0016 12.1249 6.00497 12.2486 6.01235 12.3711C6.05383 13.0602 5.76648 13.803 5.1266 14.2422L4.99379 14.3252L4.27797 14.7383L5.77797 17.3369L6.5016 16.9189L6.64125 16.8457C7.34099 16.5109 8.12681 16.6323 8.70278 17.0117L9.00453 17.1982C9.10719 17.2575 9.2126 17.313 9.31899 17.3662L9.44106 17.4326C10.0409 17.7823 10.5016 18.433 10.5016 19.2266V20H13.5016V19.2266C13.5016 18.3799 14.0248 17.6969 14.6823 17.3672L14.8717 17.2676C15.0592 17.165 15.2408 17.0522 15.4157 16.9307C16.034 16.5013 16.9088 16.3745 17.6588 16.8076L18.2233 17.1338L19.7233 14.5352L19.0163 14.127C18.2999 13.713 17.9678 12.942 17.9967 12.2207C17.9997 12.1471 18.0016 12.0735 18.0016 12L17.9909 11.6475C17.9474 10.9125 18.2783 10.1195 19.0104 9.69727L19.6354 9.33691L18.1354 6.73926L17.5182 7.09473C16.7835 7.51863 15.928 7.40495 15.3131 6.99707C15.2122 6.93012 15.1086 6.86652 15.0036 6.80566L14.6832 6.63281C14.0252 6.3033 13.5016 5.61929 13.5016 4.77246V4H10.5016V4.77246ZM12.0006 8C14.2096 8.00015 16.0006 9.79096 16.0006 12C16.0006 14.209 14.2096 15.9998 12.0006 16C9.79149 16 8.00063 14.2091 8.00063 12C8.00063 9.79086 9.79149 8 12.0006 8ZM12.0006 10C10.8961 10 10.0006 10.8954 10.0006 12C10.0006 13.1046 10.8961 14 12.0006 14C13.1051 13.9998 14.0006 13.1045 14.0006 12C14.0006 10.8955 13.1051 10.0002 12.0006 10Z" fill="#2C2044"/>
</svg>
