<svg width="24" height="24" viewBox="0 0 24 24" fill="none" xmlns="http://www.w3.org/2000/svg">
<path fill-rule="evenodd" clip-rule="evenodd" d="M8 2C9.10457 2 10 2.89543 10 4V7C10 8.10457 9.10457 9 8 9L7.65503 9.0007C8.56657 12.6004 11.4005 15.434 15.0003 16.3452L15 16C15 14.8954 15.8954 14 17 14H20C21.1046 14 22 14.8954 22 16V18C22 20.2091 20.2091 22 18 22L17.8373 21.9968L17.5 22C9.04527 22 2.17159 15.2307 2.00316 6.8163L2 6.5C2 6.38579 2.00124 6.27188 2.00369 6.15826L2 6C2 3.8578 3.68397 2.10892 5.80036 2.0049L6 2H8ZM7 4L5.98284 4.00014L5.89855 4.00248L5.7409 4.01646C4.86097 4.12958 4.16295 4.81375 4.02448 5.65011L4.00517 5.80861L3.99946 5.95335L4.00323 6.20151L3.9999 6.48L4.00276 6.77628L4.01282 7.09447C4.31472 14.0741 9.91171 19.6649 16.8509 19.9856L17.1673 19.9965L17.4807 20.0001L17.8772 19.9972L18 20.0001L18.1567 19.994C19.0842 19.9222 19.8343 19.2175 19.9759 18.3112L19.9945 18.1493L20 18V17C20 16.4872 19.614 16.0645 19.1166 16.0067L19 16H18C17.5687 16 17.2012 16.273 17.0598 16.6543L17.0254 16.7672C16.8341 17.8904 15.6602 18.5753 14.5095 18.2841C10.1978 17.1927 6.80804 13.8032 5.71623 9.49166C5.43071 8.36412 6.16034 7.20221 7.25372 6.96753C7.64735 6.86459 7.94641 6.52779 7.99352 6.1145L8 6V5C8 4.48716 7.61396 4.06449 7.11662 4.00673L7 4Z" fill="#2C2044"/>
</svg>
