<svg width="24" height="24" viewBox="0 0 24 24" fill="none" xmlns="http://www.w3.org/2000/svg">
<path d="M7.78768 8.19502C8.35509 7.72259 9.13449 7.46429 10.0013 7.46429C10.9857 7.46429 11.8948 7.803 12.3241 8.10393L12.3266 8.10566C12.5252 8.24855 12.6638 8.42692 12.708 8.64618C12.7513 8.86159 12.6945 9.07244 12.5946 9.26457L12.3239 9.7911C12.186 10.0581 11.9932 10.2226 11.7434 10.2542C11.5208 10.2824 11.3077 10.1952 11.1448 10.1144L11.1009 10.0932C10.7427 9.92034 10.4252 9.76978 9.97872 9.76978C9.69613 9.76978 9.53425 9.82672 9.44992 9.88643C9.37625 9.93858 9.34798 10.0012 9.34798 10.0805C9.34798 10.1916 9.4091 10.3023 9.61347 10.4365C9.82076 10.5726 10.1137 10.6919 10.469 10.8352L10.4852 10.8417C10.9867 11.044 11.5895 11.287 12.0642 11.6799C12.558 12.0887 12.9161 12.6613 12.9161 13.5008C12.9161 14.2379 12.6369 14.9301 12.1029 15.4372C11.5684 15.9446 10.7951 16.2516 9.83193 16.2516C8.64475 16.2516 7.5859 15.7718 7.11448 15.4021L7.11208 15.4003C6.98175 15.2955 6.82706 15.1433 6.77112 14.9256C6.7118 14.6946 6.77816 14.4544 6.95103 14.2097L7.30044 13.706C7.43733 13.5089 7.6123 13.3654 7.84269 13.3307C8.06107 13.2979 8.27708 13.3716 8.48109 13.4818C8.5241 13.5042 8.57182 13.5312 8.61941 13.5582L8.6222 13.5598C8.90505 13.7201 9.30983 13.9461 9.83193 13.9461C10.0948 13.9461 10.2517 13.8903 10.3358 13.8302C10.4112 13.7762 10.4401 13.7118 10.4401 13.6354C10.4401 13.5333 10.382 13.4243 10.1769 13.287C9.97102 13.1491 9.68008 13.0251 9.32792 12.8764L9.31233 12.8698C8.80925 12.6573 8.20432 12.4017 7.72774 12.0004C7.23322 11.5839 6.87195 11.0069 6.87195 10.1702C6.87195 9.35422 7.2167 8.67042 7.78768 8.19502Z" fill="#2C2044"/>
<path d="M15.6519 8.29994C15.8089 8.18716 15.997 8.14088 16.2004 8.14088H16.5015C16.7461 8.14088 16.9838 8.21433 17.129 8.41029C17.2744 8.60662 17.2753 8.85625 17.202 9.09286L17.201 9.09623L14.982 15.9167C14.9198 16.1022 14.8184 16.2638 14.6612 16.3767C14.5041 16.4894 14.3161 16.5357 14.1127 16.5357H13.8116C13.5671 16.5357 13.3301 16.4624 13.1849 16.2687C13.0387 16.0735 13.0374 15.8255 13.1116 15.5919L13.1121 15.5904L15.3303 8.76221L15.331 8.7599C15.3933 8.57439 15.4947 8.41278 15.6519 8.29994Z" fill="#2C2044"/>
<path fill-rule="evenodd" clip-rule="evenodd" d="M12 2C17.5228 2 22 6.47715 22 12C22 17.5228 17.5228 22 12 22C6.47715 22 2 17.5228 2 12C2 6.47715 6.47715 2 12 2ZM12 4C16.4183 4 20 7.58172 20 12C20 16.4183 16.4183 20 12 20C7.58172 20 4 16.4183 4 12C4 7.58172 7.58172 4 12 4Z" fill="#2C2044"/>
</svg>
