<svg width="24" height="24" viewBox="0 0 24 24" fill="none" xmlns="http://www.w3.org/2000/svg">
<path d="M15.4004 18.2305C15.889 18.2305 16.2852 18.6267 16.2852 19.1152C16.2852 19.6038 15.889 20 15.4004 20C14.9119 20 14.5157 19.6038 14.5157 19.1152C14.5157 18.6267 14.9119 18.2305 15.4004 18.2305Z" fill="#2C2044"/>
<path fill-rule="evenodd" clip-rule="evenodd" d="M17.8233 9C18.9704 9 19.9004 9.9301 19.9004 11.0771L19.9932 19.9229C19.9932 21.0699 19.0631 22 17.9161 22H13.0704C11.9233 22 10.9932 21.0699 10.9932 19.9229L10.9004 11.0771C10.9004 9.93012 11.8306 9.00003 12.9776 9H17.8233ZM12.9776 10.3848C12.5953 10.3848 12.2852 10.6948 12.2852 11.0771L12.378 19.9229C12.378 20.3052 12.688 20.6152 13.0704 20.6152H17.9161C18.2984 20.6152 18.6085 20.3052 18.6085 19.9229L18.5157 11.0771C18.5157 10.6948 18.2057 10.3848 17.8233 10.3848H17.1309C17.1308 11.1494 16.5108 11.7695 15.7462 11.7695H15.0538C14.2893 11.7693 13.6691 11.1493 13.669 10.3848H12.9776Z" fill="#2C2044"/>
<path fill-rule="evenodd" clip-rule="evenodd" d="M1.47564 12.6143C1.68914 12.1656 2.22607 11.9742 2.67486 12.1875C3.12361 12.401 3.31496 12.9389 3.10162 13.3877C2.78842 14.0465 2.70521 14.8152 2.92193 15.5713C3.379 17.165 5.00289 18.1079 6.59967 17.7373L5.40924 17.2637C5.07634 17.1308 4.91366 16.7531 5.04596 16.4199C5.1788 16.0867 5.55727 15.924 5.89068 16.0566L8.68267 17.167C9.37878 17.4439 9.56919 18.3398 9.04595 18.876L6.94732 21.0273C6.69655 21.2841 6.28424 21.2888 6.0274 21.0381C5.77065 20.7873 5.76594 20.375 6.01666 20.1182L6.54693 19.5742C4.17706 19.8922 1.86915 18.4342 1.19049 16.0674C0.848335 14.8736 0.981292 13.6539 1.47564 12.6143ZM7.84576 18.2441L7.85357 18.2363L7.84088 18.2314C7.84253 18.2356 7.84416 18.2399 7.84576 18.2441Z" fill="#2C2044"/>
<path d="M10.8233 1C11.9704 1 12.9004 1.9301 12.9004 3.07715V8H11.5157V3.07715C11.5157 2.6948 11.2056 2.38477 10.8233 2.38477H10.1309C10.1308 3.1494 9.5108 3.76953 8.74615 3.76953H8.05474C7.29012 3.7695 6.67006 3.14938 6.66998 2.38477H5.9776C5.59527 2.3848 5.28521 2.69482 5.28521 3.07715V11.9229C5.28521 12.3052 5.59527 12.6152 5.9776 12.6152H9.90045V14H5.9776C4.83057 14 3.90045 13.0699 3.90045 11.9229V3.07715C3.90045 1.93012 4.83057 1.00003 5.9776 1H10.8233Z" fill="#2C2044"/>
<path d="M8.78521 10C9.27378 10 9.66998 10.3962 9.66998 10.8848C9.66994 11.3733 9.27375 11.7695 8.78521 11.7695C8.29666 11.7695 7.90049 11.3733 7.90045 10.8848C7.90045 10.3962 8.29664 10 8.78521 10Z" fill="#2C2044"/>
<path fill-rule="evenodd" clip-rule="evenodd" d="M16.9073 2.46973C17.1535 2.20866 17.566 2.1962 17.8272 2.44238C18.0879 2.68858 18.0994 3.10024 17.8536 3.36133L17.3106 3.93848C19.6955 3.59699 22.0273 5.0574 22.71 7.43848C23.052 8.63211 22.9192 9.85208 22.4249 10.8916C22.2114 11.3401 21.6744 11.5305 21.2256 11.3174C20.777 11.1038 20.5865 10.567 20.7999 10.1182C21.113 9.45949 21.1952 8.69059 20.9786 7.93457C20.5249 6.35246 18.9215 5.41291 17.336 5.76172L18.5108 6.20508C18.846 6.3322 19.0154 6.70744 18.8887 7.04297C18.7618 7.3784 18.3864 7.54733 18.0508 7.4209L15.2393 6.35938C14.5386 6.09453 14.3329 5.20138 14.8467 4.65625L16.9073 2.46973ZM16.0499 5.27539L16.0626 5.28027C16.0609 5.27614 16.0593 5.27175 16.0577 5.26758L16.0499 5.27539Z" fill="#2C2044"/>
</svg>
