<svg width="24" height="24" viewBox="0 0 24 24" fill="none" xmlns="http://www.w3.org/2000/svg">
<path fill-rule="evenodd" clip-rule="evenodd" d="M19.0004 4C20.6573 4 22.0004 5.34315 22.0004 7V17C22.0004 18.6569 20.6573 20 19.0004 20H8.00043C6.34358 20 5.00043 18.6569 5.00043 17L4.99998 8.268L2.31366 5.72636C1.91251 5.34676 1.89503 4.71384 2.27462 4.31268C2.4635 4.11308 2.72618 4 3.00098 4H19.0004ZM5.51343 6L6.99993 7.40693L7.00043 17C7.00043 17.5128 7.38648 17.9355 7.88381 17.9933L8.00043 18H19.0004C19.5133 18 19.9359 17.614 19.9937 17.1166L20.0004 17V7C20.0004 6.48716 19.6144 6.06449 19.1171 6.00673L19.0004 6H5.51343ZM17.0004 8C17.5527 8 18.0004 8.44772 18.0004 9C18.0004 9.55228 17.5527 10 17.0004 10H10.0004C9.44815 10 9.00043 9.55228 9.00043 9C9.00043 8.44772 9.44815 8 10.0004 8H17.0004ZM17.0004 11C17.5527 11 18.0004 11.4477 18.0004 12C18.0004 12.5523 17.5527 13 17.0004 13H10.0004C9.44815 13 9.00043 12.5523 9.00043 12C9.00043 11.4477 9.44815 11 10.0004 11H17.0004ZM13.0004 14C13.5527 14 14.0004 14.4477 14.0004 15C14.0004 15.5523 13.5527 16 13.0004 16H10.0004C9.44815 16 9.00043 15.5523 9.00043 15C9.00043 14.4477 9.44815 14 10.0004 14H13.0004Z" fill="#2C2044"/>
</svg>
