<svg width="24" height="24" viewBox="0 0 24 24" fill="none" xmlns="http://www.w3.org/2000/svg">
<path fill-rule="evenodd" clip-rule="evenodd" d="M8 4C10.2091 4 12 5.79086 12 8C12 9.11894 11.5393 10.1294 10.7988 10.8555C12.1272 11.7543 13 13.2754 13 15C13 17.6753 10.8989 19.8595 8.25684 19.9932L8 20H3L2.89746 19.9951C2.39333 19.9438 2 19.5177 2 19V5C2 4.44772 2.44772 4 3 4H8ZM4 18H8C9.65685 18 11 16.6569 11 15C11 13.3431 9.65685 12 8 12H4V18ZM4 10H8C9.10457 10 10 9.10457 10 8C10 6.89543 9.10457 6 8 6H4V10Z" fill="#2C2044"/>
<path d="M18 8C20.0677 8 22 9.26791 22 11.5C22 12.0523 21.5523 12.5 21 12.5C20.4477 12.5 20 12.0523 20 11.5C20 10.7321 19.3609 10 18 10C17.0671 10 16.5985 10.2187 16.3682 10.4277C16.1547 10.6214 16 10.9397 16 11.5C16 11.8832 16.0758 12.1139 16.2373 12.2998C16.4177 12.5072 16.8246 12.7941 17.7695 13.0186C17.7744 13.0194 17.7796 13.0206 17.7852 13.0215C17.8253 13.0278 17.8824 13.0368 17.9531 13.0488C18.0948 13.0729 18.2932 13.1086 18.5195 13.1543C18.9608 13.2433 19.554 13.3792 20.0527 13.5586C21.412 14.0477 22 15.369 22 16.5C22 17.6889 21.5733 18.6425 20.7334 19.2568C19.951 19.8291 18.9517 20 18 20C16.9961 20 16.006 19.7574 15.2432 19.1641C14.4474 18.5451 14 17.6202 14 16.5C14 15.9477 14.4477 15.5 15 15.5C15.5523 15.5 16 15.9477 16 16.5C16 17.0463 16.1952 17.3716 16.4707 17.5859C16.7793 17.8259 17.2896 18 18 18C18.7626 18 19.2637 17.854 19.5527 17.6426C19.7843 17.4732 20 17.1762 20 16.5C20 15.9645 19.7308 15.5693 19.376 15.4414C19.0179 15.3126 18.5397 15.1981 18.124 15.1143C17.9218 15.0735 17.7443 15.042 17.6182 15.0205C17.5552 15.0098 17.5052 15.0014 17.4717 14.9961C17.4631 14.9947 17.4556 14.9932 17.4492 14.9922C17.4433 14.9915 17.4375 14.9901 17.4316 14.9893H17.4238C17.4089 14.987 17.3945 14.9823 17.3799 14.9795C17.368 14.9772 17.3557 14.9764 17.3438 14.9736C17.3391 14.9726 17.3347 14.9708 17.3301 14.9697C17.3245 14.9684 17.319 14.9673 17.3135 14.9658C16.1529 14.691 15.2904 14.259 14.7275 13.6113C14.1391 12.9341 14 12.1644 14 11.5C14 10.5604 14.2737 9.62856 15.0244 8.94727C15.7584 8.28129 16.7901 8 18 8Z" fill="#2C2044"/>
</svg>
