<svg width="24" height="24" viewBox="0 0 24 24" fill="none" xmlns="http://www.w3.org/2000/svg">
<path d="M12 4C14.2041 4 16.2001 4.89139 17.647 6.33333H16.8059C16.3608 6.33333 16 6.70643 16 7.16667C16 7.6269 16.3608 8 16.8059 8H20.0296C20.4747 8 20.8355 7.6269 20.8355 7.16667V3.83333C20.8355 3.3731 20.4747 3 20.0296 3C19.5845 3 19.2237 3.3731 19.2237 3.83333V5.08486C17.4033 3.1838 14.8399 2 12 2C6.47715 2 2 6.47715 2 12C2 12.4111 2.02481 12.8164 2.073 13.2145C2.12867 13.6742 2.53286 14 2.99596 14C3.63222 14 4.09601 13.3974 4.036 12.764C4.01218 12.5125 4 12.2577 4 12C4 7.58172 7.58172 4 12 4Z" fill="#2C2044"/>
<path d="M12 20C16.4183 20 20 16.4183 20 12C20 11.7423 19.9878 11.4875 19.964 11.236C19.904 10.6026 20.3678 10 21.004 10C21.4671 10 21.8713 10.3258 21.927 10.7855C21.9752 11.1836 22 11.5889 22 12C22 17.5228 17.5228 22 12 22C9.10259 22 6.49299 20.7678 4.66667 18.7988V20.1667C4.66667 20.6269 4.29357 21 3.83333 21C3.3731 21 3 20.6269 3 20.1667V16.8333C3 16.3731 3.3731 16 3.83333 16H7.16667C7.6269 16 8 16.3731 8 16.8333C8 17.2936 7.6269 17.6667 7.16667 17.6667H6.35298C7.79991 19.1086 9.79586 20 12 20Z" fill="#2C2044"/>
<path fill-rule="evenodd" clip-rule="evenodd" d="M7.80005 14.4575V9.03363C7.80005 8.73823 8.06461 8.5 8.39267 8.5H10.5176C11.6182 8.5 12.5135 9.30616 12.5135 10.2972C12.5135 10.7797 12.2825 11.2147 11.9146 11.517C12.3259 11.8863 12.5791 12.3868 12.5791 12.9367C12.5791 14.0688 11.5061 14.9912 10.1896 14.9912H8.39267C8.06461 14.9912 7.80005 14.7529 7.80005 14.4575ZM10.2025 10.8823H10.6764C11.0341 10.8823 11.3262 10.6193 11.3262 10.2972C11.3262 9.89505 10.9621 9.56725 10.5155 9.56725H8.98318V10.8822H10.1896L10.2025 10.8823ZM8.98529 11.9495V13.9239H10.1896C10.8542 13.9239 11.3939 13.4818 11.3939 12.9367C11.3939 12.3942 10.8593 11.9537 10.199 11.9495H8.98529Z" fill="#2C2044"/>
<path d="M15.0085 15.25C16.1577 15.25 16.8 14.5925 16.8 13.8266C16.8 12.967 15.9993 12.6763 15.3521 12.4412C14.913 12.2818 14.5445 12.148 14.5445 11.8797C14.5445 11.701 14.7087 11.5605 15.1013 11.5605C15.4232 11.5605 15.6531 11.6605 15.8793 11.7588L15.9078 11.7712C16.1077 11.8605 16.3004 11.8988 16.4432 11.6499L16.6145 11.3499C16.7215 11.1648 16.7001 11.0052 16.4931 10.8711C16.2504 10.7179 15.708 10.5328 15.1155 10.5328C14.0806 10.5328 13.2954 11.0882 13.2954 11.9307C13.2954 12.7862 14.1027 13.0933 14.7514 13.34C15.1869 13.5057 15.5509 13.6442 15.5509 13.9031C15.5509 14.0819 15.3796 14.2223 15.0085 14.2223C14.633 14.2223 14.3448 14.0752 14.1658 13.9839C14.1339 13.9676 14.1054 13.953 14.0806 13.9414C13.845 13.8266 13.6808 13.8393 13.5381 14.0244L13.3168 14.3117C13.1312 14.5479 13.2383 14.6883 13.3882 14.7968C13.6594 14.9883 14.2947 15.25 15.0085 15.25Z" fill="#2C2044"/>
</svg>
