<svg width="24" height="24" viewBox="0 0 24 24" fill="none" xmlns="http://www.w3.org/2000/svg">
<path d="M12 2C17.5228 2 22 6.47715 22 12C22 17.5228 17.5228 22 12 22C6.47715 22 2 17.5228 2 12C2 6.47715 6.47715 2 12 2ZM12 4C7.58172 4 4 7.58172 4 12C4 16.4183 7.58172 20 12 20C16.4183 20 20 16.4183 20 12C20 7.58172 16.4183 4 12 4ZM8.29297 8.29297C8.65908 7.92685 9.23809 7.90426 9.63086 8.22461L9.70703 8.29297L12 10.5859L14.293 8.29297L14.3691 8.22461C14.7619 7.90428 15.3409 7.92686 15.707 8.29297C16.0729 8.6591 16.0957 9.23817 15.7754 9.63086L15.707 9.70703L13.4141 12L15.707 14.293L15.7754 14.3691C16.0955 14.7619 16.0731 15.341 15.707 15.707C15.341 16.0731 14.7619 16.0955 14.3691 15.7754L14.293 15.707L12 13.4141L9.70703 15.707L9.63086 15.7754C9.23817 16.0957 8.6591 16.0729 8.29297 15.707C7.92686 15.3409 7.90428 14.7619 8.22461 14.3691L8.29297 14.293L10.5859 12L8.29297 9.70703L8.22461 9.63086C7.90426 9.23809 7.92685 8.65908 8.29297 8.29297Z" fill="#2C2044"/>
</svg>
