<svg width="24" height="24" viewBox="0 0 24 24" fill="none" xmlns="http://www.w3.org/2000/svg">
<path d="M11.9636 3.23087C11.7997 2.70346 11.2393 2.40877 10.7119 2.57265C10.1845 2.73654 9.88979 3.29695 10.0537 3.82435C10.2488 4.45217 10.2328 4.90296 10.1289 5.2841C10.0175 5.69263 9.78593 6.09563 9.4216 6.61087C9.10273 7.0618 9.20979 7.68585 9.66073 8.00472C10.1117 8.32359 10.7357 8.21652 11.0546 7.76559C11.4526 7.20277 11.8522 6.56675 12.0584 5.81013C12.2722 5.0261 12.2603 4.18561 11.9636 3.23087Z" fill="#2C2044"/>
<path d="M17.375 5.38684C17.4323 5.21071 17.5468 5.03239 17.7585 4.89154C17.9728 4.74898 18.3493 4.60406 18.9908 4.60997C19.5431 4.61506 19.9949 4.17149 20 3.61923C20.0051 3.06697 19.5615 2.61515 19.0093 2.61006C18.0556 2.60127 17.2651 2.81764 16.6508 3.22632C16.0338 3.63672 15.6579 4.19959 15.473 4.76857C15.3816 5.04955 15.3472 5.35464 15.3267 5.59865C15.3172 5.71156 15.3063 5.88277 15.296 6.04451C15.288 6.16956 15.2804 6.28934 15.2741 6.37164C15.2337 6.89753 15.1636 7.30958 15.0061 7.61753C14.7694 8.08023 13.9584 8.56651 12.6266 8.60771C12.0745 8.62479 11.6409 9.08613 11.658 9.63815C11.675 10.1902 12.1364 10.6238 12.6884 10.6068C14.2831 10.5574 16.0496 9.96915 16.7866 8.5284C17.1383 7.841 17.2254 7.08347 17.2682 6.52459C17.2815 6.35138 17.2887 6.23006 17.2953 6.11994C17.3021 6.00528 17.3082 5.90275 17.3197 5.76642C17.3385 5.54283 17.3597 5.4339 17.375 5.38684Z" fill="#2C2044"/>
<path d="M7.00962 2.94957C6.45736 2.94448 6.00554 3.38805 6.00045 3.94031C5.99536 4.49257 6.43893 4.9444 6.99119 4.94949L7.00119 4.94958C7.55345 4.95467 8.00527 4.5111 8.01036 3.95884C8.01545 3.40658 7.57188 2.95476 7.01962 2.94967L7.00962 2.94957Z" fill="#2C2044"/>
<path d="M20.0096 6.61071C19.4573 6.60562 19.0055 7.0492 19.0004 7.60146C18.9954 8.15372 19.4389 8.60554 19.9912 8.61062L20.0012 8.61071C20.5535 8.6158 21.0053 8.17222 21.0104 7.61996C21.0154 7.0677 20.5719 6.61588 20.0196 6.6108L20.0096 6.61071Z" fill="#2C2044"/>
<path fill-rule="evenodd" clip-rule="evenodd" d="M7.7788 9.15107C7.53373 8.906 7.17925 8.8053 6.84194 8.88493C6.50463 8.96455 6.23261 9.21316 6.12301 9.54195L2.58748 20.1486C2.4677 20.5079 2.56122 20.9041 2.82905 21.1719C3.09689 21.4397 3.49305 21.5332 3.85239 21.4135L14.459 17.8779C14.7878 17.7683 15.0364 17.4963 15.116 17.159C15.1956 16.8217 15.0949 16.4672 14.8499 16.2221L7.7788 9.15107ZM6.67978 14.1962L7.50871 11.7094L12.2915 16.4922L9.79304 17.3251L6.67978 14.1962ZM5.97179 16.3202L7.67436 18.0313L5.1173 18.8836L5.97179 16.3202Z" fill="#2C2044"/>
<path d="M19.0004 10.1097C17.2109 10.1097 15.9568 10.7334 14.8767 11.8496C14.4926 12.2465 14.503 12.8795 14.8999 13.2636C15.2968 13.6477 15.9298 13.6373 16.3139 13.2404C17.0439 12.486 17.7899 12.1097 19.0004 12.1097C19.5527 12.1097 20.0004 11.662 20.0004 11.1097C20.0004 10.5574 19.5527 10.1097 19.0004 10.1097Z" fill="#2C2044"/>
<path d="M19.0097 14.9603C18.4574 14.9552 18.0056 15.3988 18.0004 15.951C17.9953 16.5033 18.4389 16.9551 18.9912 16.9602L19.0012 16.9603C19.5534 16.9654 20.0053 16.5219 20.0104 15.9696C20.0155 15.4174 19.5719 14.9655 19.0197 14.9604L19.0097 14.9603Z" fill="#2C2044"/>
</svg>
