<svg width="24" height="24" viewBox="0 0 24 24" fill="none" xmlns="http://www.w3.org/2000/svg">
<path fill-rule="evenodd" clip-rule="evenodd" d="M13.796 6.82559C13.5681 6.75899 13.3023 6.75008 12.3919 6.75008H11.0909V10.2501H16.6649L15.2662 8.23069C14.7612 7.50158 14.6061 7.29365 14.4221 7.14812C14.2374 7.00204 14.0247 6.89244 13.796 6.82559ZM19.0403 10.5247L16.779 7.25997C16.7566 7.22755 16.7344 7.19554 16.7126 7.16395C16.3041 6.57351 15.9959 6.12791 15.5766 5.79617C15.2072 5.50402 14.7817 5.28482 14.3243 5.15112C13.8049 4.9993 13.2487 4.99962 12.5118 5.00004C12.4723 5.00007 12.4324 5.00009 12.3919 5.00009L9.29898 5.00009C8.67117 5.00008 8.1497 5.00007 7.72032 5.03133C7.27185 5.06397 6.85834 5.13397 6.4583 5.3067C5.83236 5.57697 5.29861 6.01216 4.91873 6.56201C4.67595 6.9134 4.53623 7.29448 4.42904 7.7149C4.32642 8.11742 4.2407 8.6125 4.1375 9.20855L3.93592 10.3727C3.78513 10.4116 3.63589 10.4642 3.48911 10.5362C2.97595 10.7878 2.55873 11.1894 2.29726 11.6833C2.12199 12.0144 2.05716 12.3585 2.02779 12.7044C1.99997 13.0321 1.99999 13.4301 2 13.8913L2 15.0029C1.99998 15.2238 1.99995 15.4388 2.01541 15.621C2.03239 15.821 2.07245 16.057 2.19817 16.2945C2.37249 16.6238 2.65063 16.8915 2.99274 17.0593C3.23949 17.1803 3.4847 17.2188 3.69251 17.2352C3.77953 17.242 3.87378 17.2457 3.97252 17.2477C4.34624 18.2684 5.35708 19 6.54544 19C7.7329 19 8.74311 18.2695 9.11751 17.25H14.8824C15.2568 18.2695 16.267 19 17.4545 19C18.6419 19 19.6521 18.2696 20.0265 17.25C20.0299 17.25 20.0334 17.25 20.0368 17.2501C20.1649 17.2503 20.3212 17.2506 20.4662 17.2285C21.2441 17.1099 21.8543 16.5226 21.9775 15.7738C22.0005 15.6343 22.0002 15.4838 22 15.3605C21.9999 15.3484 21.9999 15.3366 21.9999 15.325C21.9999 15.2976 21.9999 15.2706 21.9999 15.244C22 14.6718 22.0001 14.282 21.9439 13.9406C21.6838 12.36 20.5559 11.0673 19.0403 10.5247ZM20.0265 15.5C20.0993 15.5 20.1419 15.4998 20.1739 15.499C20.1763 15.4989 20.1785 15.4989 20.1805 15.4988C20.1805 15.4988 20.1806 15.4948 20.1807 15.4925C20.1817 15.4581 20.1817 15.4111 20.1817 15.325C20.1817 14.6413 20.1789 14.4013 20.1482 14.2144C19.9633 13.0912 19.0481 12.2103 17.8811 12.0324C17.6869 12.0028 17.4376 12 16.7272 12H5.81817C5.29403 12 4.9556 12.0007 4.69802 12.021C4.45106 12.0404 4.3595 12.0734 4.31455 12.0954C4.14349 12.1793 4.00442 12.3132 3.91726 12.4778C3.89436 12.5211 3.86011 12.6092 3.83993 12.8469C3.81888 13.0948 3.81818 13.4206 3.81818 13.925V14.975C3.81818 15.2345 3.81888 15.3765 3.82754 15.4785C3.82789 15.4825 3.82824 15.4864 3.82858 15.49C3.83236 15.4903 3.83635 15.4907 3.84057 15.491C3.87859 15.494 3.92194 15.496 3.97435 15.4973C4.34953 14.4792 5.35901 13.75 6.54544 13.75C7.7329 13.75 8.74311 14.4805 9.11751 15.5H14.8824C15.2568 14.4805 16.267 13.75 17.4545 13.75C18.6419 13.75 19.6522 14.4805 20.0265 15.5ZM9.2727 10.2501V6.75008C8.63532 6.75014 8.19947 6.75143 7.85744 6.77633C7.51613 6.80118 7.33504 6.84615 7.20249 6.90338C6.88952 7.03852 6.62265 7.25612 6.43271 7.53104C6.35227 7.64746 6.2764 7.81201 6.19483 8.13195C6.11053 8.46259 6.03556 8.89204 5.92536 9.52843L5.8004 10.2501L9.2727 10.2501ZM6.54544 15.5C6.04336 15.5 5.63635 15.8918 5.63635 16.375C5.63635 16.8583 6.04336 17.25 6.54544 17.25C7.04751 17.25 7.45452 16.8583 7.45452 16.375C7.45452 15.8918 7.04751 15.5 6.54544 15.5ZM17.4545 15.5C16.9524 15.5 16.5454 15.8918 16.5454 16.375C16.5454 16.8583 16.9524 17.25 17.4545 17.25C17.9565 17.25 18.3636 16.8583 18.3636 16.375C18.3636 15.8918 17.9565 15.5 17.4545 15.5Z" fill="#2C2044"/>
</svg>
