<svg width="24" height="24" viewBox="0 0 24 24" fill="none" xmlns="http://www.w3.org/2000/svg">
<path d="M9 9H13C13.5523 9 14 9.44772 14 10C14 10.5523 13.5523 11 13 11H9C8.4477 11 8 10.5523 8 10C8 9.44772 8.4477 9 9 9Z" fill="#2C2044"/>
<path d="M10 12H9C8.4477 12 8 12.4477 8 13C8 13.5523 8.4477 14 9 14H10C10.5523 14 11 13.5523 11 13C11 12.4477 10.5523 12 10 12Z" fill="#2C2044"/>
<path fill-rule="evenodd" clip-rule="evenodd" d="M18.0325 5C18.0325 3.34314 16.6893 2 15.0325 2H14.9098L6.858 4.004L6.82373 4.00509C5.24892 4.09634 4 5.40232 4 7V19C4 20.6569 5.34314 22 7 22H14.9477C15.0138 22 15.0784 21.9936 15.1409 21.9814C15.7395 22.0635 16.3682 21.8744 16.8284 21.4142L19.4142 18.8284C19.7893 18.4534 20 17.9446 20 17.4142L19.9999 17.3938L20 17.3793V8.06897C20 6.79615 19.1835 5.72415 18.0325 5.25452V5ZM16.0325 5C16.0325 4.48715 15.6464 4.06449 15.1491 4.00673L15.133 4.005L11.1378 5H16.0325ZM6 8.06897V18.931C6 19.4991 6.5508 20 7.275 20H13.4142V16.4142C13.4142 15.8619 13.8619 15.4142 14.4142 15.4142H18V8.06897C18 7.50088 17.4492 7 16.7249 7H7.24C6.53821 7 6 7.49711 6 8.06897ZM15.4142 17.4142V20L18 17.4142H15.4142Z" fill="#2C2044"/>
</svg>
