<svg width="24" height="24" viewBox="0 0 24 24" fill="none" xmlns="http://www.w3.org/2000/svg">
<path fill-rule="evenodd" clip-rule="evenodd" d="M18.6543 2.00391C20.2394 2.08421 21.5 3.39489 21.5 5V14L21.4961 14.1543C21.4184 15.6883 20.1883 16.9184 18.6543 16.9961L18.5 17H16.5V19L16.4961 19.1543C16.4184 20.6883 15.1883 21.9184 13.6543 21.9961L13.5 22H4.5L4.3457 21.9961C2.81166 21.9184 1.58163 20.6883 1.50391 19.1543L1.5 19V10C1.5 8.39489 2.76055 7.08421 4.3457 7.00391L4.5 7H6.5V5C6.5 3.39489 7.76055 2.08421 9.3457 2.00391L9.5 2H18.5L18.6543 2.00391ZM4.5 9C3.94772 9 3.5 9.44772 3.5 10V19C3.5 19.5523 3.94772 20 4.5 20H13.5C14.0523 20 14.5 19.5523 14.5 19V10C14.5 9.44772 14.0523 9 13.5 9H4.5ZM9.5 4C8.94772 4 8.5 4.44772 8.5 5V7H13.5L13.6543 7.00391C15.2394 7.08421 16.5 8.39489 16.5 10V15H18.5C19.0523 15 19.5 14.5523 19.5 14V5C19.5 4.44772 19.0523 4 18.5 4H9.5Z" fill="#2C2044"/>
</svg>
