<svg width="24" height="24" viewBox="0 0 24 24" fill="none" xmlns="http://www.w3.org/2000/svg">
<path fill-rule="evenodd" clip-rule="evenodd" d="M11 10.2629V9.42103C11 8.78364 11.2835 8.27471 11.5827 7.91079C11.8785 7.55112 12.2421 7.26828 12.5336 7.06206C12.6977 6.94593 12.834 6.7747 12.9165 6.56372C12.9992 6.35241 13.0215 6.1169 12.9788 5.88915C12.936 5.66157 12.8317 5.45989 12.6872 5.30687C12.5433 5.15447 12.367 5.05775 12.1841 5.01923C12.0017 4.98082 11.812 4.99993 11.6363 5.07699C11.4598 5.15441 11.2996 5.28971 11.1828 5.47483C11.0656 5.66046 11 5.8843 11 6.11765C11 6.66994 10.5523 7.11765 10 7.11765C9.44772 7.11765 9 6.66994 9 6.11765C9 5.51334 9.16899 4.91833 9.49137 4.40747C9.81408 3.8961 10.2786 3.48855 10.833 3.24541C11.3882 3.00191 12.0027 2.93715 12.5963 3.06216C13.1893 3.18706 13.7258 3.49372 14.1412 3.93363C14.5561 4.37293 14.8328 4.9259 14.9444 5.51989C15.0559 6.11371 14.9991 6.72978 14.779 7.29236C14.5588 7.85528 14.1823 8.34551 13.6887 8.69476C13.4456 8.86676 13.2536 9.0278 13.1275 9.18116C13.0048 9.33029 13 9.40356 13 9.42103V10.2629C13.0753 10.3055 13.1484 10.3533 13.2189 10.4064L21.1968 16.4026C22.7386 17.5615 21.9123 20 19.9778 20H4.02219C2.08767 20 1.26141 17.5615 2.80325 16.4026L10.7811 10.4064C10.8516 10.3533 10.9247 10.3055 11 10.2629ZM19.499 17.6383C19.6526 17.7537 19.5709 17.9981 19.3788 17.9981H4.62116C4.42906 17.9981 4.34744 17.7537 4.50099 17.6383L11.6996 12.2277C11.8775 12.0939 12.1225 12.0939 12.3004 12.2277L19.499 17.6383Z" fill="#2C2044"/>
</svg>
