<svg width="24" height="24" viewBox="0 0 24 24" fill="none" xmlns="http://www.w3.org/2000/svg">
<path d="M13.5384 7.03241C14.814 8.35482 15.6 10.1824 15.6 12.1984C15.6 14.2156 14.8128 16.0432 13.536 17.3668C13.0764 17.8432 13.0896 18.6028 13.5672 19.0636C14.0436 19.5232 14.8032 19.51 15.264 19.0324C16.9524 17.2828 18 14.8672 18 12.1984C18 9.53082 16.9536 7.11641 15.2664 5.36681C14.8068 4.89041 14.046 4.87601 13.5696 5.33561C13.092 5.79521 13.0788 6.55601 13.5384 7.03241Z" fill="#2C2044"/>
<path d="M9.96839 9.46482C10.6788 10.1764 11.1192 11.158 11.1192 12.2416C11.1192 13.3252 10.68 14.3068 9.96839 15.0184C9.50039 15.4864 9.5004 16.2472 9.9696 16.7152C10.4376 17.1832 11.1984 17.1832 11.6664 16.7152C12.8112 15.5692 13.5192 13.9876 13.5192 12.2416C13.5192 10.4956 12.8112 8.91402 11.6652 7.76801C11.1972 7.30001 10.4364 7.30001 9.96839 7.76801C9.50039 8.23601 9.50039 8.99682 9.96839 9.46482Z" fill="#2C2044"/>
<path d="M6.33956 11.836C6.44036 11.9404 6.50036 12.0844 6.50036 12.2416C6.50036 12.4 6.44036 12.544 6.33956 12.6472C5.87756 13.1224 5.88838 13.882 6.36358 14.344C6.83758 14.806 7.59839 14.7952 8.06039 14.3212C8.57759 13.7884 8.90037 13.054 8.90037 12.2416C8.90037 11.4304 8.57759 10.6948 8.06039 10.1632C7.59839 9.68802 6.83758 9.67722 6.36358 10.1392C5.88838 10.6012 5.87756 11.362 6.33956 11.836Z" fill="#2C2044"/>
</svg>
