<svg width="24" height="24" viewBox="0 0 24 24" fill="none" xmlns="http://www.w3.org/2000/svg">
<path d="M21.0039 10C21.4669 10 21.8709 10.3256 21.9268 10.7852C21.975 11.1833 22 11.5889 22 12C22 17.5228 17.5228 22 12 22C9.10269 22 6.49331 20.7677 4.66699 18.7988V20.167C4.66682 20.6271 4.29314 21 3.83301 21C3.37303 20.9998 3.00018 20.627 3 20.167V16.833C3.00018 16.373 3.37303 16.0002 3.83301 16H7.16699C7.62697 16.0002 7.99982 16.373 8 16.833C8 17.2931 7.62708 17.6668 7.16699 17.667H6.35254C7.79947 19.1089 9.79586 20 12 20C16.4183 20 20 16.4183 20 12C20 11.7424 19.9877 11.4877 19.9639 11.2363C19.9039 10.6029 20.3677 10.0001 21.0039 10ZM11.9902 7C12.34 7.00008 12.4999 7.17507 12.5 7.49219V7.99609C13.1497 8.07266 13.6297 8.31269 13.9297 8.52051C14.2197 8.7065 14.2496 9.01357 14.0996 9.3418L13.8604 9.85547C13.6904 10.2164 13.4402 10.2602 13.1104 10.0635C12.8304 9.88842 12.4298 9.72461 12.0098 9.72461C11.6498 9.72469 11.25 9.89942 11.25 10.3369C11.25 10.6929 11.7266 10.9028 12.3145 11.1621C13.2623 11.5803 14.4999 12.127 14.5 13.6191C14.5 14.7789 13.78 15.7851 12.5 16.0039V16.3984C12.4999 16.7921 12.34 16.9999 11.9902 17H11.9297C11.57 16.9999 11.4102 16.8249 11.4102 16.5078V16.0039C10.6602 15.8836 10.1095 15.5556 9.76953 15.293C9.48999 15.0851 9.47015 14.7681 9.66992 14.4619L9.96973 13.9805C10.1797 13.6522 10.4302 13.63 10.7402 13.8379C11.0602 14.0567 11.52 14.2871 12 14.2871C12.36 14.2871 12.75 14.1335 12.75 13.6631C12.75 13.3315 12.2836 13.1142 11.7041 12.8447C10.754 12.4029 9.5 11.8195 9.5 10.3584C9.5002 9.13326 10.3003 8.25805 11.4102 8.02832V7.60156C11.4102 7.20793 11.57 7.00012 11.9297 7H11.9902ZM12 2C14.8399 2 17.4033 3.1839 19.2236 5.08496V3.83301C19.2238 3.37301 19.5844 3.00015 20.0293 3C20.4743 3 20.8358 3.37292 20.8359 3.83301V7.16699C20.8358 7.62708 20.4743 8 20.0293 8H16.8057C16.3608 7.99986 16.0002 7.62699 16 7.16699C16 6.70684 16.3607 6.33315 16.8057 6.33301H17.6475C16.2005 4.89106 14.2041 4 12 4C7.58172 4 4 7.58172 4 12C4 12.2576 4.01233 12.5123 4.03613 12.7637C4.09614 13.3971 3.63229 13.9999 2.99609 14C2.53312 14 2.12908 13.6744 2.07324 13.2148C2.02504 12.8167 2 12.4111 2 12C2 6.47715 6.47715 2 12 2Z" fill="#2C2044"/>
</svg>
