<svg width="24" height="24" viewBox="0 0 24 24" fill="none" xmlns="http://www.w3.org/2000/svg">
<path d="M19.9995 20C19.9995 20.5177 19.6062 20.9438 19.1021 20.9951L18.9995 21H4.99951C4.44737 20.9998 3.99951 20.5522 3.99951 20C3.99951 19.4478 4.44737 19.0002 4.99951 19H18.9995L19.1021 19.0049C19.6062 19.0562 19.9995 19.4823 19.9995 20Z" fill="#2C2044"/>
<path d="M16.7065 11.293C17.0727 11.6591 17.0953 12.2381 16.7749 12.6309L16.7065 12.707L12.814 16.5996C12.7794 16.6342 12.753 16.6615 12.7349 16.6797C12.7258 16.6887 12.718 16.6956 12.7134 16.7002L12.7085 16.7051L12.7075 16.707L12.6333 16.7734C12.4554 16.9192 12.2315 17 11.9995 17C11.7344 16.9999 11.4799 16.8945 11.2925 16.707L7.29248 12.707C6.90216 12.3165 6.90216 11.6835 7.29248 11.293C7.68295 10.9025 8.31601 10.9026 8.70654 11.293L10.9995 13.5859V4C10.9995 3.44782 11.4474 3.00017 11.9995 3C12.5518 3 12.9995 3.44772 12.9995 4L12.9995 13.5859L15.2925 11.293L15.3687 11.2246C15.7614 10.9043 16.3404 10.927 16.7065 11.293Z" fill="#2C2044"/>
</svg>
