<svg width="24" height="24" viewBox="0 0 24 24" fill="none" xmlns="http://www.w3.org/2000/svg">
<path d="M17.7073 13.293C18.0734 13.6591 18.096 14.2381 17.7756 14.6309L17.7073 14.707L12.842 19.5723C12.7985 19.6158 12.7651 19.6501 12.7424 19.6729C12.731 19.6842 12.7218 19.6924 12.716 19.6982L12.7092 19.7051L12.7082 19.707L12.7072 19.707L12.634 19.7734C12.456 19.9192 12.2322 20 12.0002 20C11.735 19.9999 11.4806 19.8945 11.2931 19.707L6.29309 14.707C5.90272 14.3165 5.90272 13.6835 6.29309 13.293C6.68358 12.9025 7.31663 12.9026 7.70716 13.293L11.0002 16.5859L11.0002 4C11.0002 3.44779 11.448 3.00013 12.0002 3C12.5525 3 13.0002 3.44772 13.0002 4L13.0002 16.5859L16.2932 13.293L16.3694 13.2246C16.7621 12.9043 17.3411 12.927 17.7073 13.293Z" fill="#2C2044"/>
</svg>
