<svg width="24" height="24" viewBox="0 0 24 24" fill="none" xmlns="http://www.w3.org/2000/svg">
<path fill-rule="evenodd" clip-rule="evenodd" d="M19.6816 2.00879C20.9893 2.00023 21.3465 3.08555 21.4863 4L22.9766 13C23.1615 14.2112 22.2304 14.9998 21.0127 15H16.0215L17.5117 18.1562C17.5199 18.1686 18.4989 19.6604 17.0146 20.6562C15.5336 21.6499 14.0527 20.1748 14.0342 20.1562L8.58203 14.7852L8.4502 14.6387C8.16036 14.2828 8.00007 13.8352 8 13.3711V5.07031L8.00391 4.94531C8.04248 4.32449 8.36661 3.75396 8.88477 3.40625L10.4805 2.33594C10.8067 2.1171 11.19 2.00011 11.582 2H19.499L19.6816 2.00879ZM11.8867 4C11.6884 4.00003 11.4948 4.05943 11.3301 4.16992L10.4297 4.77344C10.1532 4.95916 9.98733 5.2704 9.9873 5.60352V12.9521C9.9873 13.2199 10.0944 13.4771 10.2852 13.665L15.4219 18.7236C15.4857 18.7803 15.5665 18.7098 15.5293 18.6328L13.1299 13.6709C12.9801 13.3605 13.2061 13.0002 13.5508 13H20.4219C20.7309 12.9997 20.9653 12.7218 20.9141 12.417L19.5693 4.41699C19.5289 4.17633 19.3202 4.00014 19.0762 4H11.8867Z" fill="#2C2044"/>
<path d="M5 4C5.55228 4 6 4.44772 6 5V13C6 13.5523 5.55228 14 5 14H3C2.44772 14 2 13.5523 2 13V5C2 4.44772 2.44772 4 3 4H5Z" fill="#2C2044"/>
</svg>
