<svg width="24" height="24" viewBox="0 0 24 24" fill="none" xmlns="http://www.w3.org/2000/svg">
<path d="M10 11C10.5522 11 10.9998 11.4479 11 12V16.7998L10.9951 16.9023C10.9439 17.4066 10.5177 17.7998 10 17.7998C9.48226 17.7998 9.05613 17.4066 9.00488 16.9023L9 16.7998V12C9.00021 11.4479 9.44785 11 10 11Z" fill="#2C2044"/>
<path d="M14 11C14.5522 11 14.9998 11.4479 15 12V16.7998L14.9951 16.9023C14.9439 17.4066 14.5177 17.7998 14 17.7998C13.4823 17.7998 13.0561 17.4066 13.0049 16.9023L13 16.7998V12C13.0002 11.4479 13.4478 11 14 11Z" fill="#2C2044"/>
<path fill-rule="evenodd" clip-rule="evenodd" d="M14.2041 2.01074C15.2128 2.113 16 2.96435 16 4H17.5L17.7559 4.0127C19.0164 4.14082 20 5.20566 20 6.5C20 7.31742 19.6066 8.04182 19 8.49805V19L18.9961 19.1543C18.9184 20.6883 17.6883 21.9184 16.1543 21.9961L16 22H8L7.8457 21.9961C6.31166 21.9184 5.08163 20.6883 5.00391 19.1543L5 19V8.49805C4.39341 8.04182 4 7.31742 4 6.5C4 5.20566 4.98361 4.14082 6.24414 4.0127L6.5 4H8C8 2.89543 8.89543 2 10 2H14L14.2041 2.01074ZM7 19C7 19.5523 7.44772 20 8 20H16C16.5523 20 17 19.5523 17 19V9H7V19ZM6.5 6C6.22386 6 6 6.22386 6 6.5C6 6.77614 6.22386 7 6.5 7H17.5C17.7761 7 18 6.77614 18 6.5C18 6.22386 17.7761 6 17.5 6H6.5Z" fill="#2C2044"/>
</svg>
