<svg width="24" height="24" viewBox="0 0 24 24" fill="none" xmlns="http://www.w3.org/2000/svg">
<path d="M15.706 9.70349C16.097 9.31212 16.097 8.67953 15.706 8.28816C15.315 7.89678 14.6831 7.89678 14.2922 8.28816L8.29251 14.2938C7.90152 14.6852 7.90152 15.3177 8.29251 15.7092C8.48749 15.9043 8.74348 16.0025 8.99946 16.0025C9.25545 16.0025 9.51143 15.9043 9.70642 15.7092L15.706 9.70349Z" fill="#2C2044"/>
<path d="M14.4984 12.9985C15.3264 12.9985 15.9984 13.6705 15.9984 14.4985C15.9984 15.3265 15.3264 15.9985 14.4984 15.9985C13.6704 15.9985 12.9984 15.3265 12.9984 14.4985C12.9984 13.6705 13.6704 12.9985 14.4984 12.9985Z" fill="#2C2044"/>
<path d="M10.9993 9.49902C10.9993 8.67102 10.3273 7.99902 9.49927 7.99902C8.67127 7.99902 7.99927 8.67102 7.99927 9.49902C7.99927 10.327 8.67127 10.999 9.49927 10.999C10.3273 10.999 10.9993 10.327 10.9993 9.49902Z" fill="#2C2044"/>
<path fill-rule="evenodd" clip-rule="evenodd" d="M19.071 4.92952C17.195 3.05351 14.652 1.99951 12 1.99951C6.47799 1.99951 2 6.47752 2 11.9995C2 17.5225 6.47799 21.9995 12 21.9995C17.522 21.9995 22 17.5225 22 11.9995C22 9.34852 20.946 6.80452 19.071 4.92952ZM3.99999 11.9995C3.99999 7.58152 7.58199 3.99952 12 3.99952C16.418 3.99952 20 7.58152 20 11.9995C20 16.4185 16.418 19.9996 12 19.9996C7.58199 19.9996 3.99999 16.4185 3.99999 11.9995Z" fill="#2C2044"/>
</svg>
