<svg width="24" height="24" viewBox="0 0 24 24" fill="none" xmlns="http://www.w3.org/2000/svg">
<path fill-rule="evenodd" clip-rule="evenodd" d="M19 4C20.6569 4 22 5.34315 22 7V17C22 18.6569 20.6569 20 19 20H5C3.34315 20 2 18.6569 2 17V7C2 5.34315 3.34315 4 5 4H19ZM19 6H5C4.48716 6 4.06449 6.38604 4.00673 6.88338L4 7V17C4 17.5128 4.38604 17.9355 4.88338 17.9933L5 18H19C19.5128 18 19.9355 17.614 19.9933 17.1166L20 17V7C20 6.48716 19.614 6.06449 19.1166 6.00673L19 6ZM16 14C16.5523 14 17 14.4477 17 15C17 15.5523 16.5523 16 16 16H14C13.4477 16 13 15.5523 13 15C13 14.4477 13.4477 14 14 14H16ZM9.94731 13C10.7246 13 11.4246 13.4215 11.7183 14.0665L11.9288 14.5288C12.1284 14.967 11.8938 15.4674 11.4048 15.6463C11.3639 15.6612 11.3218 15.6736 11.279 15.6834C10.3527 15.8945 9.42633 16 8.49999 16C7.57365 16 6.64731 15.8945 5.72096 15.6834C5.20905 15.5667 4.89956 15.1003 5.02972 14.6415C5.04061 14.6031 5.05445 14.5654 5.07115 14.5288L5.28169 14.0665C5.57542 13.4215 6.2754 13 7.05267 13H9.94731ZM17 11C17.5523 11 18 11.4477 18 12C18 12.5523 17.5523 13 17 13H14C13.4477 13 13 12.5523 13 12C13 11.4477 13.4477 11 14 11H17ZM8.5 8C9.32843 8 10 8.67157 10 9.5V10.5C10 11.3284 9.32843 12 8.5 12C7.67157 12 7 11.3284 7 10.5V9.5C7 8.67157 7.67157 8 8.5 8ZM17 8C17.5523 8 18 8.44772 18 9C18 9.55228 17.5523 10 17 10H14C13.4477 10 13 9.55228 13 9C13 8.44772 13.4477 8 14 8H17Z" fill="#2C2044"/>
</svg>
