<svg width="24" height="24" viewBox="0 0 24 24" fill="none" xmlns="http://www.w3.org/2000/svg">
<path d="M9 16C8.44772 16 8 16.4477 8 17C8 17.5523 8.44772 18 9 18H11C11.5523 18 12 17.5523 12 17C12 16.4477 11.5523 16 11 16H9Z" fill="#2C2044"/>
<path d="M8 13C8 12.4477 8.44772 12 9 12H15C15.5523 12 16 12.4477 16 13C16 13.5523 15.5523 14 15 14H9C8.44772 14 8 13.5523 8 13Z" fill="#2C2044"/>
<path fill-rule="evenodd" clip-rule="evenodd" d="M17 2C18.6569 2 20 3.34315 20 5V19C20 20.6569 18.6569 22 17 22H7C5.34315 22 4 20.6569 4 19V7.28942C4 6.74922 4.21852 6.23199 4.60584 5.85543L7.98925 2.56601C8.36257 2.20306 8.86272 2 9.3834 2H17ZM10.9566 4C10.9853 4.13517 11 4.27393 11 4.41421V8C11 8.55228 10.5523 9 10 9H6.41421C6.2722 9 6.13364 8.9852 6 8.95705V19C6 19.5128 6.38604 19.9355 6.88338 19.9933L7 20H17C17.5128 20 17.9355 19.614 17.9933 19.1166L18 19V5C18 4.44772 17.5523 4 17 4H10.9566ZM9 4.41421V7H6.41421L9 4.41421Z" fill="#2C2044"/>
</svg>
