<svg width="24" height="24" viewBox="0 0 24 24" fill="none" xmlns="http://www.w3.org/2000/svg">
<path fill-rule="evenodd" clip-rule="evenodd" d="M13 2C14.6569 2 16 3.34315 16 5V5.00369H16.6984C17.654 5.00369 18.5395 5.48536 19.0546 6.24946L20.0537 7.8477C20.5585 8.65539 20.932 9.5381 21.16 10.4629L21.7409 12.8182C21.9148 13.5234 22.0027 14.247 22.0027 14.9732V17C22.0027 18.6569 20.6596 20 19.0027 20H18.8293C18.4174 21.1652 17.3061 22 15.9999 22C14.6937 22 13.5826 21.1652 13.1707 20H10.8293C10.4175 21.1652 9.30621 22 8 22C6.67525 22 5.55106 21.1413 5.15361 19.9502C3.36276 19.657 2 18.1057 2 16.2308V6C2 3.79086 3.79086 2 6 2H13ZM14 11V5C14 4.44772 13.5523 4 13 4H6C4.89543 4 4 4.89543 4 6V13H12C13.0544 13 13.9182 12.1841 13.9945 11.1493L14 11ZM16 7.00369V11.0013C16 13.2104 14.2091 15.0013 12 15.0013L4 15.0007V16.2308C4 17.0132 4.50306 17.674 5.20466 17.9087C5.64116 16.7914 6.72815 16 8 16C9.30624 16 10.4175 16.8348 10.8293 18H13.1707C13.5825 16.8348 14.6937 16 15.9999 16C17.3062 16 18.4175 16.8348 18.8293 18H19.0027C19.555 18 20.0027 17.5523 20.0027 17V15.0035H18C17.4477 15.0035 17 14.5558 17 14.0035V10.0035C17 9.45119 17.4477 9.00347 18 9.00347H18.4165C18.3972 8.97141 18.3776 8.9395 18.3577 8.90774L17.4398 7.43813C17.2833 7.16865 17.0005 7.00369 16.6984 7.00369H16ZM8 18C8.55232 18 9.00003 18.4477 9.00003 18.9999C9.00003 19.5522 8.55228 20 8 20C7.44773 20 7 19.5522 7 18.9999C7 18.4477 7.4477 18 8 18ZM17 18.9999C17 18.4477 16.5523 18 15.9999 18C15.4477 18 15 18.4477 15 18.9999C15 19.5523 15.4477 20 15.9999 20C16.5522 20 17 19.5522 17 18.9999Z" fill="#2C2044"/>
</svg>
