<svg width="24" height="24" viewBox="0 0 24 24" fill="none" xmlns="http://www.w3.org/2000/svg">
<path fill-rule="evenodd" clip-rule="evenodd" d="M22.7278 16.7638L21.1928 15.206V9.8794L22.0246 9.57789C22.4208 9.43719 22.6782 9.05528 22.6782 8.63317C22.6782 8.21106 22.4208 7.82915 22.0246 7.67839L12.1808 4.0603C11.9629 3.9799 11.7252 3.9799 11.4975 4.0603L1.65362 7.67839C1.26739 7.8191 1 8.201 1 8.62312C1 9.04523 1.25748 9.42714 1.65362 9.57789L5.04053 10.8543V14.7638C5.04053 14.9749 5.09995 15.1658 5.21879 15.3467C5.29802 15.4573 5.72386 16.0302 6.74389 16.5427C8.02141 17.196 9.69507 17.5276 11.6955 17.5276C13.696 17.5276 15.3795 17.196 16.6769 16.5427C17.7167 16.0201 18.1525 15.4573 18.2317 15.3568C18.3505 15.1859 18.4198 14.9749 18.4198 14.7638V10.8945L19.1923 10.6131V15.206L17.6573 16.7638C17.4691 16.9548 17.3701 17.206 17.3701 17.4774C17.3701 17.7387 17.479 18 17.6573 18.191L19.1923 19.7487V20.995C19.1923 21.5477 19.6379 22 20.1826 22C20.7273 22 21.173 21.5477 21.173 20.995V19.7487L22.708 18.191C22.8961 18 22.9951 17.7487 22.9951 17.4774C23.0249 17.206 22.9159 16.9447 22.7278 16.7638ZM18.7566 8.62312L11.7153 11.196L4.88208 8.63317L11.8342 6.0804L18.7566 8.62312ZM7.03109 11.598L11.4281 13.2462C11.5668 13.2864 11.7252 13.3166 12.0421 13.2261L16.4392 11.6181V14.3216C14.3793 15.99 8.68493 15.7688 7.03109 14.3417V11.598ZM20.6184 17.4774L20.1925 17.9095L19.7667 17.4774L20.1925 17.0452L20.6184 17.4774Z" fill="#2C2044"/>
</svg>
