<svg width="24" height="24" viewBox="0 0 24 24" fill="none" xmlns="http://www.w3.org/2000/svg">
<path fill-rule="evenodd" clip-rule="evenodd" d="M20.9129 3.1797C22.3708 4.63759 22.4163 6.97296 21.0496 8.48576L20.9129 8.6294L9.82707 19.7152L9.63993 19.8968C7.68406 21.7276 4.92357 22.4418 2.31613 21.7765L2.25675 21.5237C1.69875 18.9918 2.42403 16.3454 4.19577 14.4527L4.37738 14.2655L15.4632 3.1797L15.6068 3.04298C17.0708 1.72045 19.3053 1.72046 20.7693 3.04298L20.9129 3.1797ZM5.79159 15.6797C4.6327 16.8388 4.02742 18.4138 4.07768 20.0149C5.67896 20.0653 7.25372 19.46 8.41286 18.301L16.5639 10.15L13.9427 7.52868L5.79159 15.6797ZM19.4987 4.59392C18.7748 3.8703 17.6013 3.87028 16.8774 4.59392L15.5592 5.91214L18.1805 8.53341L19.4987 7.21518C20.2224 6.49123 20.2225 5.31778 19.4987 4.59392Z" fill="#2C2044"/>
</svg>
