<svg width="24" height="24" viewBox="0 0 24 24" fill="none" xmlns="http://www.w3.org/2000/svg">
<path fill-rule="evenodd" clip-rule="evenodd" d="M17 2C18.5977 2 19.9037 3.24892 19.9949 4.82373L20 5V8C20 8.55228 19.5523 9 19 9C18.4872 9 18.0645 8.61396 18.0067 8.11662L18 8V5C18 4.48716 17.614 4.06449 17.1166 4.00673L17 4H10.9566C10.9853 4.13517 11 4.27393 11 4.41421V8C11 8.55228 10.5523 9 10 9H6.41421C6.2722 9 6.13364 8.9852 6 8.95705V19C6 19.5128 6.38604 19.9355 6.88338 19.9933L7 20H8C8.55228 20 9 20.4477 9 21C9 21.5128 8.61396 21.9355 8.11662 21.9933L8 22H7C5.40232 22 4.09634 20.7511 4.00509 19.1763L4 19V7.82843C4 7.09908 4.26559 6.39712 4.7432 5.85184L4.87868 5.70711L7.70711 2.87868C8.22283 2.36295 8.90699 2.05439 9.63029 2.00654L9.82843 2H17ZM6.41421 7L9 4.41421V7H6.41421Z" fill="#2C2044"/>
<path fill-rule="evenodd" clip-rule="evenodd" d="M21.1314 15.0626C22.2895 13.9045 22.2895 12.0268 21.1314 10.8686C19.9732 9.71046 18.0955 9.71046 16.9374 10.8686L11.5192 16.2868C10.7536 17.0523 9.15592 20.0481 10.5539 21.4461C11.9519 22.8441 14.9477 21.2464 15.7132 20.4808L21.1314 15.0626ZM12.9353 17.7028L16.111 14.526L17.473 15.888L14.2972 19.0647L14.2302 19.1244C13.969 19.3378 13.3408 19.685 12.7703 19.8643C12.5704 19.9271 12.4085 19.9646 12.284 19.9875L12.1251 20.0121L11.9909 20.0253L11.9716 20.0297C11.9733 20.0266 11.9743 20.0139 11.9761 19.9914C11.9836 19.9003 12.0041 19.6484 12.1357 19.2297C12.333 18.6022 12.7333 17.9048 12.9353 17.7028ZM18.4442 12.2046L18.3535 12.2847L17.5373 13.1012L18.8981 14.463L19.7153 13.6465C20.0625 13.2994 20.0892 12.7532 19.7954 12.3754L19.7153 12.2847C19.3682 11.9375 18.8219 11.9108 18.4442 12.2046Z" fill="#2C2044"/>
</svg>
