<svg width="24" height="24" viewBox="0 0 24 24" fill="none" xmlns="http://www.w3.org/2000/svg">
<path d="M16 4H15C15 5.10457 14.1046 6 13 6H11C9.89543 6 9 5.10457 9 4H8C7.44771 4 7 4.44772 7 5V19C7 19.5523 7.44772 20 8 20C8.55228 20 9 20.4477 9 21C9 21.5523 8.55228 22 8 22C6.34315 22 5 20.6569 5 19V5C5 3.34315 6.34315 2 8 2H16C17.6569 2 19 3.34315 19 5V8C19 8.55228 18.5523 9 18 9C17.4477 9 17 8.55228 17 8V5C17 4.44772 16.5523 4 16 4Z" fill="#2C2044"/>
<path fill-rule="evenodd" clip-rule="evenodd" d="M21.1314 15.0626C22.2895 13.9045 22.2895 12.0268 21.1314 10.8686C19.9732 9.71046 18.0955 9.71046 16.9374 10.8686L11.5192 16.2868C10.7536 17.0523 9.15593 20.0481 10.5539 21.4461C11.9519 22.8441 14.9477 21.2464 15.7132 20.4808L21.1314 15.0626ZM12.9353 17.7028L16.111 14.526L17.473 15.888L14.2972 19.0647L14.2302 19.1244C13.969 19.3378 13.3408 19.685 12.7703 19.8643C12.5704 19.9271 12.4085 19.9646 12.284 19.9875L12.1251 20.0121L11.9909 20.0253L11.9716 20.0297C11.9733 20.0266 11.9743 20.0142 11.9761 19.9921L11.9762 19.9907C11.9837 19.8991 12.0044 19.6474 12.1357 19.2297C12.333 18.6022 12.7333 17.9048 12.9353 17.7028ZM18.4442 12.2046L18.3535 12.2847L17.5373 13.1012L18.8981 14.463L19.7153 13.6465C20.0625 13.2994 20.0892 12.7532 19.7954 12.3754L19.7153 12.2847C19.3682 11.9375 18.8219 11.9108 18.4442 12.2046Z" fill="#2C2044"/>
</svg>
