<svg width="24" height="24" viewBox="0 0 24 24" fill="none" xmlns="http://www.w3.org/2000/svg">
<path fill-rule="evenodd" clip-rule="evenodd" d="M10.9853 3.83173L4.62136 10.1956C3.44979 11.3672 3.44979 13.2667 4.62136 14.4383L6.74268 16.5596H15.228L19.4706 12.317C21.0327 10.7549 21.0327 8.22225 19.4706 6.66016L16.6422 3.83173C15.0801 2.26963 12.5474 2.26963 10.9853 3.83173ZM15.2279 5.24594C14.4469 4.46489 13.1806 4.46489 12.3995 5.24594L10.2782 7.36724L15.9351 13.0241L18.0564 10.9028C18.8374 10.1217 18.8374 8.85542 18.0564 8.07437L15.2279 5.24594ZM6.03557 11.6099L8.86397 8.78146L14.5208 14.4383L14.3995 14.5596L7.57111 14.5596L6.03557 13.0241C5.64505 12.6336 5.64505 12.0004 6.03557 11.6099Z" fill="#2C2044"/>
<path d="M17 18C17 17.4478 17.4477 17 18 17H20C20.5523 17 21 17.4478 21 18C21 18.5523 20.5523 19 20 19H18C17.4477 19 17 18.5523 17 18Z" fill="#2C2044"/>
<path d="M3 20C3 19.4478 3.50368 19 4.125 19H10.875C11.4963 19 12 19.4478 12 20C12 20.5523 11.4963 21 10.875 21H4.125C3.50368 21 3 20.5523 3 20Z" fill="#2C2044"/>
</svg>
