<svg width="24" height="24" viewBox="0 0 24 24" fill="none" xmlns="http://www.w3.org/2000/svg">
<path d="M13.574 13.1141L16.074 15.1761C16.318 15.3781 16.318 15.7581 16.062 15.9581L13.562 17.8961C13.238 18.1461 12.756 17.9181 12.756 17.5001V16.5001H8.74597C8.19397 16.5001 7.74597 16.0521 7.74597 15.5001C7.74597 14.9481 8.19397 14.5001 8.74597 14.5001H12.756V13.5001C12.756 13.0801 13.244 12.8441 13.574 13.1141Z" fill="#2C2044"/>
<path fill-rule="evenodd" clip-rule="evenodd" d="M8 3C7.4 3 7 3.4 7 4V5H6C4.3 5 3 6.3 3 8V18C3 19.7 4.3 21 6 21H18C19.7 21 21 19.7 21 18V8C21 6.3 19.7 5 18 5H17V4C17 3.4 16.6 3 16 3C15.4 3 15 3.4 15 4V5H9V4C9 3.4 8.6 3 8 3ZM6 7H18.1C18.6 7.1 19 7.5 19 8V10H5V7.9C5.1 7.4 5.5 7 6 7ZM5 12H19V18.1C18.9 18.6 18.5 19 18 19H5.9C5.4 18.9 5 18.5 5 18V12Z" fill="#2C2044"/>
</svg>
