<svg width="24" height="24" viewBox="0 0 24 24" fill="none" xmlns="http://www.w3.org/2000/svg">
<path fill-rule="evenodd" clip-rule="evenodd" d="M16.9747 2.77716C16.9915 2.85052 17 2.92555 17 3.00082L17.0008 4.00416C19.6669 4.00894 21 4.00756 21 4C21.5749 4 22 4.46547 22 5.0006V19.0006C22 19.5672 21.5491 20.0012 21 20.0012L17 20.001V20.9994C17 21.552 16.5523 22 16 22C15.9244 22 15.8489 21.9914 15.7752 21.9744L2.77524 18.9739C2.32146 18.8692 2 18.4649 2 17.9989V5.98394C2 5.5175 2.3221 5.11293 2.77647 5.00866L15.7765 2.02554C16.3148 1.90201 16.8512 2.23852 16.9747 2.77716ZM15 4.25687L4 6.78105V17.2029L15 19.7417V4.25687ZM20 6.0012L17 6.001V7.9988H18C18.5523 7.9988 19 8.44678 19 8.9994C19 9.51254 18.614 9.93547 18.1166 9.99327L18 10H17V10.9988H18C18.5523 10.9988 19 11.4468 19 11.9994C19 12.5125 18.614 12.9355 18.1166 12.9933L18 13H17V13.9988H18C18.5523 13.9988 19 14.4468 19 14.9994C19 15.5125 18.614 15.9355 18.1166 15.9933L18 16H17V17.999L20 18V6.0012ZM10.2191 8.36405C10.5641 7.93253 11.1934 7.86257 11.6247 8.20778C12.056 8.553 12.1259 9.18267 11.7809 9.61419L9.88 11.991L11.7809 14.3677C12.1259 14.7992 12.056 15.4288 11.6247 15.7741C11.2266 16.0927 10.6598 16.0576 10.3036 15.7109L10.2191 15.6178L8.6 13.592L7.78087 14.6172C7.4624 15.0155 6.9017 15.1058 6.47812 14.8458L6.37531 14.7735C5.94404 14.4282 5.87412 13.7986 6.21913 13.3671L7.32 11.991L6.21913 10.6148C5.87412 10.1833 5.94404 9.5536 6.37531 9.20838C6.77339 8.88972 7.34022 8.92482 7.69642 9.27151L7.78087 9.36465L8.6 10.389L10.2191 8.36405Z" fill="#2C2044"/>
</svg>
