<svg width="24" height="24" viewBox="0 0 24 24" fill="none" xmlns="http://www.w3.org/2000/svg">
<path d="M13.293 6.29298C13.6591 5.92686 14.2381 5.90427 14.6309 6.22462L14.707 6.29298L19.5723 11.1583C19.6158 11.2018 19.6501 11.2351 19.6729 11.2579C19.6842 11.2692 19.6924 11.2784 19.6982 11.2842L19.7051 11.2911L19.707 11.2921V11.293L19.7734 11.3663C19.9192 11.5442 20 11.768 20 12.0001C19.9999 12.2652 19.8945 12.5196 19.707 12.7071L14.707 17.7072C14.3165 18.0975 13.6835 18.0975 13.293 17.7072C12.9025 17.3167 12.9026 16.6836 13.293 16.2931L16.5859 13.0001H4C3.44779 13.0001 3.00013 12.5523 3 12.0001C3 11.4478 3.44772 11.0001 4 11.0001H16.5859L13.293 7.70706L13.2246 7.63089C12.9043 7.23815 12.927 6.65911 13.293 6.29298Z" fill="#2C2044"/>
</svg>
