<svg width="24" height="24" viewBox="0 0 24 24" fill="none" xmlns="http://www.w3.org/2000/svg">
<path fill-rule="evenodd" clip-rule="evenodd" d="M17 12C19.2091 12 21 13.7909 21 16C21 18.2091 19.2091 20 17 20C15.1362 20 13.57 18.7252 13.126 17H5C4.44772 17 4 16.5523 4 16C4 15.4477 4.44772 15 5 15H13.126C13.57 13.2748 15.1362 12 17 12ZM17 14C15.8954 14 15 14.8954 15 16C15 17.1046 15.8954 18 17 18C18.1046 18 19 17.1046 19 16C19 14.8954 18.1046 14 17 14Z" fill="#2C2044"/>
<path fill-rule="evenodd" clip-rule="evenodd" d="M7 4C8.86384 4 10.43 5.27477 10.874 7H19L19.1025 7.00488C19.6067 7.05621 20 7.48232 20 8C20 8.51768 19.6067 8.94379 19.1025 8.99512L19 9H10.874C10.43 10.7252 8.86384 12 7 12C4.79086 12 3 10.2091 3 8C3 5.79086 4.79086 4 7 4ZM7 6C5.89543 6 5 6.89543 5 8C5 9.10457 5.89543 10 7 10C8.10457 10 9 9.10457 9 8C9 6.89543 8.10457 6 7 6Z" fill="#2C2044"/>
</svg>
