<svg width="24" height="24" viewBox="0 0 24 24" fill="none" xmlns="http://www.w3.org/2000/svg">
<path fill-rule="evenodd" clip-rule="evenodd" d="M20.9708 3.12102C21.1856 3.33583 21.2911 3.63664 21.2576 3.93856L20.5505 10.3025C20.508 10.6846 20.2503 11.0085 19.8876 11.1357C19.5249 11.263 19.1213 11.171 18.8495 10.8992L10.364 19.3846C9.97349 19.7751 9.34033 19.7751 8.94981 19.3845C8.55929 18.994 8.55931 18.3608 8.94984 17.9703L13.1927 13.7276L9.65714 10.1921C9.26661 9.8016 9.26661 9.16844 9.65714 8.77791L13.1927 5.24239C12.9208 4.97058 12.8288 4.56697 12.9561 4.20423C13.0833 3.8415 13.4072 3.58381 13.7893 3.54135L20.1532 2.83425C20.4552 2.8007 20.756 2.90622 20.9708 3.12102ZM14.6069 6.65661L11.7785 9.48502L14.6069 12.3134L17.4353 9.48503L14.6069 6.65661ZM18.7925 8.01376L19.1318 4.96005L16.078 5.29936L18.7925 8.01376Z" fill="#2C2044"/>
<path d="M6.00019 3.9997C6.55248 3.9997 7.00019 4.44742 7.00019 4.9997C7.55248 4.9997 8.00019 5.44742 8.00019 5.9997C8.00019 6.55199 7.55248 6.9997 7.00019 6.9997C7.00019 7.55199 6.55248 7.9997 6.00019 7.9997C5.44791 7.9997 5.00019 7.55199 5.00019 6.9997C4.44791 6.9997 4.00019 6.55199 4.00019 5.9997C4.00019 5.44742 4.44791 4.9997 5.00019 4.9997C5.00019 4.44742 5.44791 3.9997 6.00019 3.9997Z" fill="#2C2044"/>
<path d="M8.51631 10.7032C8.62462 11.2447 8.2734 11.7716 7.73184 11.8799L4.19631 12.587C3.65475 12.6953 3.12792 12.3441 3.01961 11.8025C2.9113 11.2609 3.26252 10.7341 3.80408 10.6258L7.33961 9.91871C7.88117 9.8104 8.408 10.1616 8.51631 10.7032Z" fill="#2C2044"/>
<path d="M9.78739 13.1812C10.0892 13.6438 9.95885 14.2634 9.4963 14.5652L7.54661 15.8372C7.08407 16.139 6.46446 16.0087 6.16268 15.5461C5.8609 15.0836 5.99123 14.464 6.45377 14.1622L8.40346 12.8901C8.86601 12.5884 9.48561 12.7187 9.78739 13.1812Z" fill="#2C2044"/>
<path d="M5.00019 16.9997C5.55248 16.9997 6.00019 17.4474 6.00019 17.9997C6.55248 17.9997 7.00019 18.4474 7.00019 18.9997C7.00019 19.552 6.55248 19.9997 6.00019 19.9997C6.00019 20.552 5.55248 20.9997 5.00019 20.9997C4.44791 20.9997 4.00019 20.552 4.00019 19.9997C3.44791 19.9997 3.00019 19.552 3.00019 18.9997C3.00019 18.4474 3.44791 17.9997 4.00019 17.9997C4.00019 17.4474 4.44791 16.9997 5.00019 16.9997Z" fill="#2C2044"/>
</svg>
