<svg width="24" height="24" viewBox="0 0 24 24" fill="none" xmlns="http://www.w3.org/2000/svg">
<path fill-rule="evenodd" clip-rule="evenodd" d="M21.6588 9.23723C21.4405 9.07619 21.1607 9.04119 20.915 9.13221L19.1136 9.78336V4.8402C19.1136 4.37809 18.7451 4 18.2948 4H14.8693C14.419 4 14.0505 4.37809 14.0505 4.8402V11.6038L12.2627 12.2479V9.92339C12.2627 9.64333 12.1262 9.38427 11.9011 9.22323C11.6759 9.06919 11.3893 9.03418 11.1368 9.13921L9.9768 9.61532V4.8402C9.9768 4.37809 9.60833 4 9.15797 4H5.71887C5.26851 4 4.90003 4.37809 4.90003 4.8402V11.6878L2.51859 12.661C2.20471 12.7871 2 13.0951 2 13.4382V20.1598C2 20.6219 2.36847 21 2.81883 21H21.1812C21.6315 21 22 20.6219 22 20.1598V9.92339C22 9.65033 21.8704 9.39127 21.6588 9.23723ZM7.11088 18.6615H7.7523V19.3196H7.11088V18.6615ZM11.6827 18.6615H12.3241V19.3196H11.6827V18.6615ZM16.2477 18.6615H16.8891V19.3196H16.2477V18.6615ZM17.7148 16.9741H15.4289C14.9785 16.9741 14.61 17.3521 14.61 17.8142V19.3196H13.9686V17.8142C13.9686 17.3521 13.6001 16.9741 13.1498 16.9741H10.8639C10.4135 16.9741 10.045 17.3521 10.045 17.8142V19.3196H9.40362V17.8142C9.40362 17.3521 9.03514 16.9741 8.58478 16.9741H6.28523C5.83487 16.9741 5.46639 17.3521 5.46639 17.8142V19.3196H3.64449V14.0124L10.6114 11.1627V13.4382C10.6114 13.7113 10.741 13.9703 10.9594 14.1244C11.1778 14.2854 11.4575 14.3204 11.7032 14.2294L20.3623 11.1067V19.3126H18.5404V17.8072C18.5336 17.3521 18.1651 16.9741 17.7148 16.9741ZM17.4623 6.34555H15.6745V5.6874H17.4623V6.34555ZM17.4623 8.03295V10.3715L15.6745 11.0157V8.03295H17.4623ZM8.32549 6.34555H6.5377V5.6874H8.32549V6.34555ZM8.32549 8.03295V10.2875L6.5377 11.0157V8.03295H8.32549Z" fill="#2C2044"/>
</svg>
