<svg width="24" height="24" viewBox="0 0 24 24" fill="none" xmlns="http://www.w3.org/2000/svg">
<path d="M9.40408 3.23791L9.46916 3.16409C10.6672 1.76634 12.7716 1.60446 14.1693 2.80254C14.2557 2.87659 14.3382 2.955 14.4166 3.03744L14.5978 3.24016L14.7067 3.3336L14.8808 3.49779L15.045 3.67193L21.7194 11.1806C22.127 11.6392 22.0857 12.3415 21.6271 12.7492C21.2037 13.1255 20.5727 13.1193 20.1575 12.7553L20.0584 12.6569L19.7778 12.3411L19.2661 11.8246C19.0932 11.9356 18.8875 12 18.6667 12C18.053 12 17.5556 11.5025 17.5556 10.8889V10.0976L17.3822 9.92255L17.2881 9.79548L13.0587 4.85903C12.4185 4.41174 11.5693 4.42018 10.9408 4.85907L6.44445 9.86562V18.6667C6.44445 19.2803 6.94191 19.7778 7.55556 19.7778H12C12.6137 19.7778 13.1111 20.2752 13.1111 20.8889C13.1111 21.5025 12.6137 22 12 22H7.55556C5.71461 22 4.22222 20.5076 4.22222 18.6667L4.22222 12.34L3.94158 12.6569C3.53389 13.1156 2.83159 13.1569 2.37294 12.7492C1.94957 12.3729 1.88181 11.7455 2.19454 11.2905L2.28067 11.1806L8.95501 3.67193C9.09568 3.51367 9.24592 3.36897 9.40408 3.23791Z" fill="#2C2044"/>
<path fill-rule="evenodd" clip-rule="evenodd" d="M16.9966 13.6103C15.8824 12.9247 14.4111 12.8732 13.2255 13.8906C11.8064 15.1083 11.5934 17.175 12.724 18.6361C13.2253 19.284 14.3297 20.33 15.1206 21.0572L15.1447 21.0793C15.3162 21.2371 15.4904 21.3972 15.6525 21.5234C15.8367 21.6667 16.0627 21.8133 16.353 21.9036C16.7664 22.0321 17.2282 22.0321 17.6416 21.9036C17.9319 21.8133 18.1579 21.6667 18.3421 21.5234C18.5043 21.3972 18.6784 21.2371 18.8499 21.0793L18.874 21.0572C19.665 20.33 20.7693 19.284 21.2707 18.6361C22.3915 17.1876 22.2197 15.1013 20.7576 13.8809C19.5668 12.8869 18.1086 12.9257 16.9966 13.6103ZM16.1514 15.7768C15.7003 15.2472 15.0993 15.2109 14.6726 15.5771C14.1433 16.0313 14.082 16.76 14.4815 17.2762C14.8439 17.7446 15.792 18.6558 16.6246 19.4213C16.814 19.5953 16.9187 19.6906 16.9973 19.7538C17.0759 19.6906 17.1807 19.5953 17.37 19.4213C18.2026 18.6558 19.1507 17.7446 19.5132 17.2762C19.9224 16.7473 19.8534 16.0207 19.3336 15.5869C18.8787 15.2072 18.2859 15.2571 17.8432 15.7768C17.6321 16.0247 17.3229 16.1675 16.9973 16.1675C16.6717 16.1675 16.3625 16.0247 16.1514 15.7768Z" fill="#2C2044"/>
</svg>
