<svg width="24" height="24" viewBox="0 0 24 24" fill="none" xmlns="http://www.w3.org/2000/svg">
<path d="M13.0001 6.5C13.0001 7.05228 12.5524 7.5 12.0001 7.5C11.4478 7.5 11.0001 7.05228 11.0001 6.5C11.0001 5.94772 11.4478 5.5 12.0001 5.5C12.5524 5.5 13.0001 5.94772 13.0001 6.5Z" fill="#2C2044"/>
<path d="M15.5001 8.5C16.0524 8.5 16.5001 8.05228 16.5001 7.5C16.5001 6.94772 16.0524 6.5 15.5001 6.5C14.9478 6.5 14.5001 6.94772 14.5001 7.5C14.5001 8.05228 14.9478 8.5 15.5001 8.5Z" fill="#2C2044"/>
<path d="M9.50012 7.5C9.50012 8.05228 9.05241 8.5 8.50012 8.5C7.94784 8.5 7.50012 8.05228 7.50012 7.5C7.50012 6.94772 7.94784 6.5 8.50012 6.5C9.05241 6.5 9.50012 6.94772 9.50012 7.5Z" fill="#2C2044"/>
<path fill-rule="evenodd" clip-rule="evenodd" d="M3.00012 10C3.00012 6.13401 6.13413 3 10.0001 3H14.0001C17.8661 3 21.0001 6.13401 21.0001 10C21.0001 10.5523 20.5524 11 20.0001 11H4.00012C3.44784 11 3.00012 10.5523 3.00012 10ZM10.0001 5H14.0001C16.4191 5 18.4368 6.71776 18.9001 9H5.10014C5.56341 6.71776 7.58116 5 10.0001 5Z" fill="#2C2044"/>
<path fill-rule="evenodd" clip-rule="evenodd" d="M21.0001 16C21.0001 18.7614 18.7615 21 16.0001 21L8.00012 21C5.2387 21 3.00012 18.7614 3.00012 16C3.00012 15.4477 3.44784 15 4.00012 15L20.0001 15C20.5524 15 21.0001 15.4477 21.0001 16ZM8.00012 19C6.6939 19 5.58266 18.1652 5.17083 17L18.8294 17C18.4176 18.1652 17.3063 19 16.0001 19L8.00012 19Z" fill="#2C2044"/>
<path d="M16.9063 13.7557C17.3124 13.4308 17.8778 13.3928 18.3238 13.6604L19.4857 14.3575C19.9592 14.6416 20.5735 14.4881 20.8576 14.0145C21.1418 13.5409 20.9882 12.9267 20.5146 12.6425L19.3528 11.9454C18.1899 11.2477 16.7158 11.3468 15.6569 12.194C15.2338 12.5325 14.6403 12.5582 14.1894 12.2577L13.9856 12.1218C12.7833 11.3203 11.217 11.3203 10.0147 12.1218L9.81089 12.2577C9.36004 12.5582 8.76651 12.5325 8.34339 12.194C7.28447 11.3468 5.81037 11.2477 4.64754 11.9454L3.48566 12.6425C3.01208 12.9267 2.85851 13.5409 3.14266 14.0145C3.42681 14.4881 4.04107 14.6416 4.51465 14.3575L5.67653 13.6604C6.12251 13.3928 6.68787 13.4308 7.094 13.7557C8.19722 14.6383 9.74476 14.7054 10.9203 13.9218L11.1241 13.7859C11.6546 13.4322 12.3457 13.4322 12.8762 13.7859L13.08 13.9218C14.2555 14.7054 15.8031 14.6383 16.9063 13.7557Z" fill="#2C2044"/>
</svg>
