<svg width="24" height="24" viewBox="0 0 24 24" fill="none" xmlns="http://www.w3.org/2000/svg">
<path fill-rule="evenodd" clip-rule="evenodd" d="M3.002 13.9868C3.51484 13.9868 3.93751 14.3729 3.99527 14.8702L4.002 14.9868V18L4.00749 18.1493C4.08002 19.1324 4.86323 19.9179 5.84535 19.994L6.002 20H9.00875L9.12538 20.0067C9.62271 20.0645 10.0088 20.4872 10.0088 21C10.0088 21.5128 9.62271 21.9355 9.12538 21.9933L9.00875 22H6.002L5.80236 21.9951C3.75424 21.8944 2.11109 20.2533 2.00721 18.206L2.002 18V14.9868L2.00873 14.8702C2.06649 14.3729 2.48916 13.9868 3.002 13.9868ZM21.002 13.9868C21.5148 13.9868 21.9375 14.3729 21.9953 14.8702L22.002 14.9868V18C22.002 20.1422 20.318 21.8911 18.2016 21.9951L18.002 22H14.9952C14.443 22 13.9952 21.5523 13.9952 21C13.9952 20.4872 14.3813 20.0645 14.8786 20.0067L14.9952 20H18.002C19.0564 20 19.9202 19.1841 19.9965 18.1493L20.002 18V14.9868C20.002 14.4345 20.4497 13.9868 21.002 13.9868ZM9.80853 14.1749C10.2004 14.7134 10.8957 15 12 15C13.0333 15 13.7132 14.7614 14.1164 14.3187L14.2046 14.2129C14.5394 13.7736 15.1669 13.6889 15.6061 14.0237C16.0454 14.3584 16.1301 14.9859 15.7954 15.4252C14.9844 16.4894 13.6872 17 12 17C10.3043 17 8.99956 16.4622 8.19147 15.3518C7.86647 14.9053 7.96501 14.2799 8.41155 13.9549C8.85809 13.6299 9.48354 13.7284 9.80853 14.1749ZM9 8C9.55228 8 10 8.44772 10 9V10C10 10.5523 9.55228 11 9 11C8.44772 11 8 10.5523 8 10V9C8 8.44772 8.44772 8 9 8ZM15 8C15.5523 8 16 8.44772 16 9V10C16 10.5523 15.5523 11 15 11C14.4477 11 14 10.5523 14 10V9C14 8.44772 14.4477 8 15 8ZM9.00675 2C9.55904 2 10.0068 2.44772 10.0068 3C10.0068 3.51284 9.62072 3.93551 9.12338 3.99327L9.00675 4H6C4.94564 4 4.08183 4.81588 4.00549 5.85074L4 6V9.01317C4 9.56546 3.55228 10.0132 3 10.0132C2.48716 10.0132 2.06449 9.62713 2.00673 9.12979L2 9.01317V6C2 3.8578 3.68397 2.10892 5.80036 2.0049L6 2H9.00675ZM18 2L18.1996 2.0049C20.2478 2.10557 21.8909 3.74669 21.9948 5.79396L22 6V9.01317L21.9933 9.12979C21.9355 9.62713 21.5128 10.0132 21 10.0132C20.4872 10.0132 20.0645 9.62713 20.0067 9.12979L20 9.01317V6L19.9945 5.85074C19.922 4.86762 19.1388 4.08214 18.1567 4.00604L18 4H14.9932L14.8766 3.99327C14.3793 3.93551 13.9932 3.51284 13.9932 3C13.9932 2.48716 14.3793 2.06449 14.8766 2.00673L14.9932 2H18Z" fill="#2C2044"/>
</svg>
