<svg width="24" height="24" viewBox="0 0 24 24" fill="none" xmlns="http://www.w3.org/2000/svg">
<path fill-rule="evenodd" clip-rule="evenodd" d="M8.46429 4C8.21442 4 7.97106 4.1009 7.78878 4.28649C7.6059 4.4727 7.50001 4.72903 7.50001 5C7.50001 5.27097 7.6059 5.5273 7.78878 5.71351C7.97106 5.8991 8.21442 6 8.46429 6H10.6343C10.5619 5.82865 10.4786 5.65116 10.3836 5.47527C9.89769 4.57581 9.27398 4 8.46429 4ZM11 8V11H4.60001C4.30348 11 4.14122 10.9992 4.02464 10.9897C4.02 10.9893 4.0156 10.9889 4.01145 10.9886C4.01107 10.9844 4.01069 10.98 4.01031 10.9754C4.00078 10.8588 4.00001 10.6965 4.00001 10.4V8.6C4.00001 8.30347 4.00078 8.14122 4.01031 8.02463C4.01069 8.01999 4.01107 8.0156 4.01145 8.01145C4.0156 8.01107 4.02 8.01068 4.02464 8.0103C4.14122 8.00078 4.30348 8 4.60001 8H11ZM5.66953 6C5.55822 5.68133 5.50001 5.34339 5.50001 5C5.50001 4.21011 5.80802 3.44902 6.36188 2.88508C6.91635 2.32053 7.67224 2 8.46429 2C10.259 2 11.3725 3.21845 12 4.27223C12.6275 3.21845 13.741 2 15.5357 2C16.3278 2 17.0837 2.32053 17.6381 2.88508C18.192 3.44902 18.5 4.21011 18.5 5C18.5 5.34339 18.4418 5.68133 18.3305 6L19.4319 6C19.6843 5.99997 19.9301 5.99994 20.1382 6.01695C20.3668 6.03562 20.6366 6.07969 20.908 6.21799C21.2843 6.40973 21.5903 6.7157 21.782 7.09202C21.9203 7.36344 21.9644 7.63318 21.9831 7.86177C22.0001 8.06992 22 8.31571 22 8.56808V10.4319C22 10.6843 22.0001 10.9301 21.9831 11.1382C21.9644 11.3668 21.9203 11.6366 21.782 11.908C21.5903 12.2843 21.2843 12.5903 20.908 12.782C20.6366 12.9203 20.3668 12.9644 20.1382 12.9831C20.0938 12.9867 20.0476 12.9895 20 12.9918V17.8386C20 18.3657 20 18.8205 19.9694 19.195C19.9371 19.5904 19.8658 19.9836 19.673 20.362C19.3854 20.9265 18.9265 21.3854 18.362 21.673C17.9836 21.8658 17.5904 21.9371 17.195 21.9694C16.8205 22 16.3657 22 15.8386 22H8.16144C7.6343 22 7.17954 22 6.80498 21.9694C6.40963 21.9371 6.01641 21.8658 5.63803 21.673C5.07355 21.3854 4.61461 20.9265 4.32699 20.362C4.13419 19.9836 4.06288 19.5904 4.03057 19.195C3.99997 18.8205 3.99999 18.3657 4 17.8385L4.00001 12.9918C3.95241 12.9895 3.90624 12.9867 3.86178 12.9831C3.63318 12.9644 3.36345 12.9203 3.09202 12.782C2.7157 12.5903 2.40974 12.2843 2.21799 11.908C2.07969 11.6366 2.03563 11.3668 2.01695 11.1382C1.99994 10.9301 1.99997 10.6843 2 10.4319L2.00001 8.6C2.00001 8.58936 2 8.57872 2 8.5681C1.99997 8.31572 1.99994 8.06993 2.01695 7.86177C2.03563 7.63318 2.07969 7.36344 2.21799 7.09202C2.40974 6.71569 2.7157 6.40973 3.09202 6.21799C3.36345 6.07969 3.63318 6.03562 3.86178 6.01695C4.06993 5.99994 4.31572 5.99997 4.56811 6C4.57873 6 4.58936 6 4.60001 6H5.66953ZM6.00001 13V17.8C6.00001 18.3766 6.00078 18.7488 6.02393 19.0322C6.04613 19.3038 6.08381 19.4045 6.109 19.454C6.20487 19.6422 6.35785 19.7951 6.54601 19.891C6.59546 19.9162 6.69618 19.9539 6.96784 19.9761C7.25118 19.9992 7.62345 20 8.20001 20H11V13H6.00001ZM13 13V20H15.8C16.3766 20 16.7488 19.9992 17.0322 19.9761C17.3038 19.9539 17.4046 19.9162 17.454 19.891C17.6422 19.7951 17.7951 19.6422 17.891 19.454C17.9162 19.4045 17.9539 19.3038 17.9761 19.0322C17.9992 18.7488 18 18.3766 18 17.8V13H13ZM19.4 11C19.6965 11 19.8588 10.9992 19.9754 10.9897C19.98 10.9893 19.9844 10.9889 19.9886 10.9885C19.9889 10.9844 19.9893 10.98 19.9897 10.9754C19.9992 10.8588 20 10.6965 20 10.4V8.6C20 8.30347 19.9992 8.14122 19.9897 8.02463C19.9893 8.01999 19.9889 8.0156 19.9885 8.01145C19.9844 8.01106 19.98 8.01068 19.9754 8.0103C19.8588 8.00078 19.6965 8 19.4 8H13V11H19.4ZM15.5357 6C15.7856 6 16.0289 5.8991 16.2112 5.71351C16.3941 5.5273 16.5 5.27097 16.5 5C16.5 4.72903 16.3941 4.4727 16.2112 4.28649C16.0289 4.1009 15.7856 4 15.5357 4C14.726 4 14.1023 4.57581 13.6165 5.47527C13.5214 5.65116 13.4381 5.82865 13.3658 6H15.5357Z" fill="#2C2044"/>
</svg>
