<svg width="24" height="24" viewBox="0 0 24 24" fill="none" xmlns="http://www.w3.org/2000/svg">
<path fill-rule="evenodd" clip-rule="evenodd" d="M18.5185 4C19.3367 4 20 4.66328 20 5.48148V9.51852C20 10.3367 19.3367 11 18.5185 11H14.4815C13.6633 11 13 10.3367 13 9.51852V5.48148C13 4.66328 13.6633 4 14.4815 4H18.5185ZM17.999 6H14.999V9H17.999V6Z" fill="#2C2044"/>
<path fill-rule="evenodd" clip-rule="evenodd" d="M9.51852 4C10.3367 4 11 4.66328 11 5.48148V9.51852C11 10.3367 10.3367 11 9.51852 11H5.48148C4.66328 11 4 10.3367 4 9.51852V5.48148C4 4.66328 4.66328 4 5.48148 4H9.51852ZM9 6H6V9H9V6Z" fill="#2C2044"/>
<path fill-rule="evenodd" clip-rule="evenodd" d="M18.5185 13C19.3367 13 20 13.6633 20 14.4815V18.5185C20 19.3367 19.3367 20 18.5185 20H14.4815C13.6633 20 13 19.3367 13 18.5185V14.4815C13 13.6633 13.6633 13 14.4815 13H18.5185ZM17.999 14.999H14.999V17.999H17.999V14.999Z" fill="#2C2044"/>
<path fill-rule="evenodd" clip-rule="evenodd" d="M9.51852 13C10.3367 13 11 13.6633 11 14.4815V18.5185C11 19.3367 10.3367 20 9.51852 20H5.48148C4.66328 20 4 19.3367 4 18.5185V14.4815C4 13.6633 4.66328 13 5.48148 13H9.51852ZM9 14.999H6V17.999H9V14.999Z" fill="#2C2044"/>
</svg>
