<svg width="24" height="24" viewBox="0 0 24 24" fill="none" xmlns="http://www.w3.org/2000/svg">
<path d="M13.3408 6.53719C12.884 5.83384 12.2746 5.23879 11.5595 4.79903C12.1132 3.16896 13.6566 1.99609 15.4738 1.99609C17.7565 1.99609 19.6069 3.84653 19.6069 6.12917V7.7824C19.6069 8.94371 19.128 9.99315 18.3568 10.7439C18.3085 10.791 18.259 10.8369 18.2084 10.8816C17.4797 11.525 16.5224 11.9154 15.4738 11.9154C15.0392 11.9154 14.6202 11.8484 14.2267 11.724C14.2395 11.569 14.246 11.4124 14.246 11.2542V9.60096L14.2455 9.52655C14.2455 9.52655 15.0165 9.91549 15.4738 9.91549C16.6519 9.91549 17.6069 8.96047 17.6069 7.7824V6.12917C17.6069 4.9511 16.6519 3.99609 15.4738 3.99609C14.2958 3.99609 13.3408 4.9511 13.3408 6.12917V6.53719Z" fill="#2C2044"/>
<path d="M13.0366 14.7422C13.4978 14.158 13.8458 13.4803 14.0474 12.7422H18.2084C18.4703 12.7422 18.7275 12.768 18.9766 12.8176C20.1242 13.0458 21.0985 13.777 21.5545 14.7991L21.9523 15.6908C22.3294 16.5361 21.8861 17.5011 20.9621 17.8462C20.8848 17.8751 20.8054 17.899 20.7245 17.9178C19.2969 18.2499 17.8693 18.4465 16.4417 18.5077L16.0634 17.6598C15.8778 17.2437 15.637 16.865 15.3523 16.5281C15.3928 16.5284 15.4333 16.5285 15.4738 16.5285C16.9518 16.5285 18.4337 16.3692 19.9217 16.0482L19.728 15.614C19.5257 15.1604 18.9666 14.7422 18.2084 14.7422H13.0366Z" fill="#2C2044"/>
<path fill-rule="evenodd" clip-rule="evenodd" d="M11.4959 14.2156C12.267 13.4648 12.746 12.4154 12.746 11.2541V9.60085C12.746 7.31821 10.8956 5.46777 8.61292 5.46777C6.33028 5.46777 4.47984 7.31821 4.47984 9.60085V11.2541C4.47984 12.4154 4.9588 13.4648 5.72995 14.2156C5.77828 14.2627 5.82775 14.3086 5.87832 14.3532C6.60701 14.9967 7.56436 15.3871 8.61292 15.3871C9.66145 15.3871 10.6188 14.9967 11.3475 14.3532C11.3981 14.3086 11.4476 14.2627 11.4959 14.2156ZM10.746 9.60085C10.746 8.42278 9.79099 7.46777 8.61292 7.46777C7.43485 7.46777 6.47984 8.42278 6.47984 9.60085V11.2541C6.47984 12.4321 7.43485 13.3871 8.61292 13.3871C9.79099 13.3871 10.746 12.4321 10.746 11.2541V9.60085Z" fill="#2C2044"/>
<path fill-rule="evenodd" clip-rule="evenodd" d="M14.6936 18.2708C14.2376 17.2487 13.2633 16.5175 12.1157 16.2892C11.8666 16.2397 11.6094 16.2139 11.3475 16.2139H5.87833C5.61647 16.2139 5.35924 16.2397 5.11018 16.2892C3.9625 16.5175 2.98825 17.2487 2.53224 18.2708L2.13443 19.1625C2.10288 19.2332 2.07672 19.3058 2.05615 19.3799C1.81024 20.2648 2.39497 21.1645 3.3622 21.3895C5.11243 21.7966 6.86267 22.0002 8.61291 22.0002C10.3631 22.0002 12.1134 21.7966 13.8636 21.3895C13.9445 21.3707 14.0239 21.3467 14.1012 21.3179C15.0252 20.9728 15.4685 20.0078 15.0914 19.1625L14.6936 18.2708ZM11.3475 18.2139C12.1057 18.2139 12.6647 18.6321 12.8671 19.0857L13.0608 19.5199C11.5728 19.8409 10.0909 20.0002 8.61291 20.0002C7.13496 20.0002 5.65307 19.8409 4.16499 19.5199L4.35871 19.0857C4.56107 18.6321 5.12011 18.2139 5.87833 18.2139H11.3475Z" fill="#2C2044"/>
</svg>
