<svg width="24" height="24" viewBox="0 0 24 24" fill="none" xmlns="http://www.w3.org/2000/svg">
<path d="M10.421 15.5C9.83969 15.5 9.36841 15.9477 9.36841 16.5C9.36841 17.0523 9.83969 17.5 10.421 17.5H14.6316C15.2129 17.5 15.6842 17.0523 15.6842 16.5C15.6842 15.9477 15.2129 15.5 14.6316 15.5H10.421Z" fill="#2C2044"/>
<path fill-rule="evenodd" clip-rule="evenodd" d="M19.9899 21.0818L20.7292 12.5252C21.3369 11.9492 21.7129 11.1527 21.7129 10.2727C21.7129 9.63553 21.5158 9.04209 21.1763 8.54445C21.6893 7.98541 22 7.25445 22 6.45455C22 4.69735 20.5006 3.27285 18.651 3.27273C18.0399 2.4999 17.0671 2 15.9713 2C14.7808 2 13.7354 2.59007 13.1414 3.47914C12.7719 3.34575 12.371 3.27273 11.9522 3.27273C10.8277 3.27273 9.83269 3.79914 9.22526 4.60671L8.87543 4.0311C7.85807 2.35708 5.60485 1.78351 3.84272 2.75001C2.08059 3.71651 1.47684 5.85708 2.49421 7.5311L4.26063 10.4377C4.2333 10.4795 4.21281 10.527 4.20067 10.5805C4.17941 10.6742 4.1721 10.7726 4.18082 10.8736L5.06288 21.0818C5.10771 21.6007 5.56402 22 6.11198 22H18.9408C19.4887 22 19.945 21.6007 19.9899 21.0818ZM19.6077 10.2727L19.6076 10.2826C18.6117 10.4566 17.4426 10.5945 16.1561 10.6855C16.5056 9.8506 16.7369 8.9415 16.7369 8C16.7369 7.44772 16.2656 7 15.6842 7C15.1029 7 14.6316 7.44772 14.6316 8C14.6316 8.92801 14.2941 9.89039 13.7808 10.7949C13.5212 10.8008 13.2586 10.8049 12.9935 10.8072L11.1266 7.73527C11.1173 7.7021 11.1062 7.66912 11.0931 7.63645L10.7882 6.87403C10.7371 6.74631 10.7082 6.60597 10.7082 6.45454C10.7082 5.80184 11.2651 5.27273 11.9522 5.27273C12.1116 5.27273 12.2593 5.30024 12.3937 5.34876L13.1963 5.63842C13.6635 5.80704 14.1911 5.64033 14.4589 5.23947L14.9189 4.55086C15.143 4.21546 15.5314 4 15.9713 4C16.3769 4 16.7371 4.18232 16.9677 4.47388L17.2834 4.87327C17.4823 5.12471 17.794 5.27267 18.125 5.27269L18.6508 5.27273C19.3378 5.27277 19.8947 5.80187 19.8947 6.45455C19.8947 6.7531 19.7809 7.02144 19.5894 7.23019L19.0679 7.79851C18.7591 8.13494 18.7225 8.625 18.978 8.99953L19.4096 9.63223C19.5348 9.81572 19.6077 10.0331 19.6077 10.2727ZM8.85654 8.00001L8.24881 7.00001H6.44157C6.15089 7.00001 5.91525 6.77616 5.91525 6.50001C5.91525 6.22387 6.15089 6.00001 6.44157 6.00001H7.64107L7.05223 5.0311C6.61621 4.31366 5.65054 4.06785 4.89535 4.48206C4.14015 4.89628 3.8814 5.81366 4.31741 6.5311L6.71275 10.4725C7.8533 10.6181 9.14907 10.722 10.5419 10.7732L9.46428 9.00001H7.4942C7.20352 9.00001 6.96788 8.77616 6.96788 8.50001C6.96788 8.22387 7.20352 8.00001 7.4942 8.00001H8.85654ZM6.48325 13.0736C6.45576 12.7554 6.74478 12.4946 7.07859 12.5313C8.71281 12.7105 10.572 12.8091 12.5263 12.8091C14.4807 12.8091 16.3399 12.7105 17.9742 12.5312C18.308 12.4946 18.597 12.7554 18.5695 13.0736L18.0107 19.5409C17.9883 19.8004 17.7601 20 17.4861 20H7.56663C7.29265 20 7.06449 19.8004 7.04208 19.5409L6.48325 13.0736Z" fill="#2C2044"/>
</svg>
