<svg width="24" height="24" viewBox="0 0 24 24" fill="none" xmlns="http://www.w3.org/2000/svg">
<path fill-rule="evenodd" clip-rule="evenodd" d="M12.0031 22C11.4509 22 11.0031 21.5523 11.0031 21C11.0031 20.4477 11.4509 20 12.0031 20L17.0031 20L17.0031 18.8975L16.3303 18.7813L16.1311 18.7363C15.2203 18.4836 14.6167 17.6209 14.6906 16.6787L14.716 16.4766L15.7893 10.5732C15.9738 9.55797 16.8963 8.85528 17.9045 8.91895C17.3952 6.12156 14.9475 4.00012 12.0031 4C9.05925 4.00016 6.61249 6.12116 6.10276 8.91797C7.09166 8.87976 7.98671 9.57448 8.16819 10.5732L9.24045 16.4766L9.26682 16.6787C9.34083 17.6209 8.73707 18.4835 7.82639 18.7363L7.62717 18.7813L6.19651 10.9102L5.21115 11.0791C4.39487 11.219 3.85224 11.9927 4.00022 12.8076L4.53732 15.7598C4.68577 16.5742 5.46735 17.1217 6.28342 16.9824L7.26877 16.8135L7.62717 18.7813L6.64084 18.9502L6.46311 18.9756C4.68288 19.1882 3.01209 18.018 2.60275 16.2725L2.56565 16.0967L2.02951 13.1455C1.7366 11.5334 2.6011 9.99076 4.03147 9.35937C4.35807 5.24098 7.80084 2.00017 12.0031 2C16.2135 2.00013 19.6625 5.25321 19.9778 9.38282C21.3773 10.0283 22.2173 11.553 21.9279 13.1455L21.3918 16.0967L21.3547 16.2725C21.0654 17.5059 20.1457 18.4494 19.0031 18.8232L19.0031 21C19.0031 21.5523 18.5554 22 18.0031 22L12.0031 22ZM18.0031 17C18.0054 17 18.0077 17.001 18.01 17.001C18.6948 16.9639 19.2923 16.4612 19.4201 15.7598L19.9563 12.8076C20.1043 11.9927 19.5627 11.2189 18.7463 11.0791L17.76 10.9102L16.6877 16.8135L17.6731 16.9824C17.7668 16.9985 17.8604 17.0044 17.9524 17.0029C17.9692 17.0021 17.9861 17 18.0031 17Z" fill="#2C2044"/>
</svg>
