<svg width="24" height="24" viewBox="0 0 24 24" fill="none" xmlns="http://www.w3.org/2000/svg">
<path fill-rule="evenodd" clip-rule="evenodd" d="M12 2.00049C13.933 2.00049 15.5 3.56749 15.5 5.50049C15.5 7.08584 14.4455 8.42359 13 8.854V10.4332L16.75 10.433C18.1307 10.433 19.5 11.6193 19.5 13V14.1455C20.9457 14.5758 22 15.9145 22 17.5C22 19.433 20.433 21 18.5 21C16.567 21 15 19.433 15 17.5C15 15.9145 16.0543 14.5758 17.5 14.1455V13C17.5 12.7239 17.0262 12.433 16.75 12.433H7C6.72386 12.433 6.5 12.6569 6.5 12.933V14.0785C7.94566 14.5089 9 15.8476 9 17.433C9 19.366 7.433 20.933 5.5 20.933C3.567 20.933 2 19.366 2 17.433C2 15.8476 3.05434 14.5089 4.5 14.0785V12.933C4.5 11.5523 5.61929 10.433 7 10.433L11 10.4332V8.854C9.5545 8.42359 8.50002 7.08584 8.50002 5.50049C8.50002 3.56749 10.067 2.00049 12 2.00049ZM5.5 15.933C4.67157 15.933 4 16.6046 4 17.433C4 18.2614 4.67157 18.933 5.5 18.933C6.32843 18.933 7 18.2614 7 17.433C7 16.6046 6.32843 15.933 5.5 15.933ZM18.5 16C17.6716 16 17 16.6716 17 17.5C17 18.3284 17.6716 19 18.5 19C19.3284 19 20 18.3284 20 17.5C20 16.6716 19.3284 16 18.5 16ZM12 4.00049C11.1716 4.00049 10.5 4.67206 10.5 5.50049C10.5 6.32892 11.1716 7.00049 12 7.00049C12.8284 7.00049 13.5 6.32892 13.5 5.50049C13.5 4.67206 12.8284 4.00049 12 4.00049Z" fill="#2C2044"/>
</svg>
