<svg width="24" height="24" viewBox="0 0 24 24" fill="none" xmlns="http://www.w3.org/2000/svg">
<path fill-rule="evenodd" clip-rule="evenodd" d="M5.76602 16H4C2.89543 16 2 15.1046 2 14V9C2 7.89543 2.89543 7 4 7H5.70403L7.25666 6.0291C8.90749 4.9968 10.9227 4.72587 12.7873 5.28555L13.3717 5.46094C14.9317 5.92919 16 7.36578 16 8.99531C16 9.05451 15.9983 9.11332 15.9949 9.17167L15.99 9.21842L16.6517 8.23678C17.4811 7.00437 19.1184 6.6418 20.3832 7.37957L20.5393 7.47754C20.6746 7.56871 20.8017 7.67155 20.9192 7.78487C22.1624 8.98443 22.3603 10.9059 21.3877 12.3339L19.0172 15.8144C18.0859 17.1818 16.5391 18 14.8853 18H10.9443C10.168 18 9.40248 17.8192 8.7082 17.4719L5.76602 16ZM5 9H4V14H5V9ZM7 14.3801L9.60263 15.6821C9.94977 15.8557 10.3266 15.96 10.7121 15.99L10.9443 15.999H14.8853C15.8776 15.999 16.8057 15.508 17.3644 14.6876L19.7349 11.2071C20.1587 10.585 20.0724 9.74784 19.5308 9.22523C19.4972 9.19283 19.4609 9.16342 19.4222 9.13735C19.0553 8.89018 18.5576 8.98738 18.3106 9.35444L16.8295 11.5552C16.6436 11.8313 16.3327 11.9969 16 11.9969H13L12.8668 11.9899C11.6683 11.8612 11.7126 9.99583 13 9.99583L13.1166 9.9891C13.614 9.9313 14 9.50841 14 8.99531C14 8.24946 13.511 7.59191 12.797 7.3776L12.2127 7.2022C10.8991 6.80794 9.47955 6.99879 8.31666 7.72598L7 8.54807V14.3801Z" fill="#2C2044"/>
</svg>
