<svg width="24" height="24" viewBox="0 0 24 24" fill="none" xmlns="http://www.w3.org/2000/svg">
<path d="M12 16C12.5522 16.0001 13 16.4478 13 17C13 17.5522 12.5522 17.9999 12 18C11.4478 17.9999 11 17.5522 11 17C11 16.4478 11.4478 16.0001 12 16Z" fill="#2C2044"/>
<path d="M12 6.25C13.1167 6.25006 14.0047 6.76515 14.5947 7.44238C15.1673 8.09984 15.5 8.95396 15.5 9.75C15.5 10.5586 15.2929 11.2061 14.959 11.7441C14.6404 12.2573 14.2274 12.6315 13.9131 12.9102C13.2297 13.5161 13 13.7316 13 14.25C13 14.8022 12.5522 15.2499 12 15.25C11.4478 15.2499 11 14.8022 11 14.25C11 12.7014 12.0204 11.9163 12.5869 11.4141C12.8974 11.1388 13.1097 10.9313 13.2598 10.6895C13.3944 10.4725 13.5 10.191 13.5 9.75C13.5 9.4778 13.3703 9.0813 13.0869 8.75586C12.8208 8.45044 12.4584 8.25005 12 8.25C11.6695 8.25002 11.2986 8.32824 10.9775 8.47363C10.6498 8.62215 10.4485 8.80526 10.3564 8.95801L10.2998 9.04297C9.99588 9.44846 9.42788 9.56566 8.98438 9.29883C8.51138 9.01384 8.35864 8.39883 8.64355 7.92578L8.78906 7.70898C9.14971 7.22338 9.65257 6.87879 10.1523 6.65234C10.7302 6.39059 11.3822 6.25002 12 6.25Z" fill="#2C2044"/>
<path fill-rule="evenodd" clip-rule="evenodd" d="M12 2C17.5228 2 22 6.47715 22 12C22 17.5228 17.5228 22 12 22C6.47715 22 2 17.5228 2 12C2 6.47715 6.47715 2 12 2ZM12 4C7.58172 4 4 7.58172 4 12C4 16.4183 7.58172 20 12 20C16.4183 20 20 16.4183 20 12C20 7.58172 16.4183 4 12 4Z" fill="#2C2044"/>
</svg>
