<svg width="24" height="24" viewBox="0 0 24 24" fill="none" xmlns="http://www.w3.org/2000/svg">
<path fill-rule="evenodd" clip-rule="evenodd" d="M9.40408 3.23791L9.46916 3.16409C10.6672 1.76634 12.7716 1.60446 14.1693 2.80254C14.2557 2.87659 14.3382 2.955 14.4166 3.03744L14.5978 3.24016L14.7067 3.3336L14.8808 3.49779L15.045 3.67193L21.7194 11.1806C22.127 11.6392 22.0857 12.3415 21.6271 12.7492C21.2037 13.1255 20.5727 13.1193 20.1575 12.7553L20.0584 12.6569L19.7778 12.3411L19.7778 18.6667C19.7778 20.4419 18.3901 21.893 16.6403 21.9943L16.4445 22H7.55557C5.78037 22 4.32928 20.6123 4.22789 18.8625L4.22223 18.6667L4.22222 12.34L3.94158 12.6569C3.53389 13.1156 2.83159 13.1569 2.37294 12.7492C1.94957 12.3729 1.88181 11.7455 2.19454 11.2905L2.28067 11.1806L8.95501 3.67193C9.09568 3.51367 9.24592 3.36897 9.40408 3.23791ZM10.9408 4.8592L6.71194 9.79561C6.57385 9.95671 6.48551 10.1531 6.45569 10.361L6.44445 10.5187V18.6668C6.44445 19.2366 6.87338 19.7062 7.42598 19.7704L7.55556 19.7779L8.66666 19.7769L8.66667 16.3633C8.66667 14.5881 10.0544 13.137 11.8041 13.0356L12 13.03C13.7752 13.03 15.2263 14.4177 15.3277 16.1675L15.3333 16.3633L15.3333 19.7769L16.4444 19.7779C17.0143 19.7779 17.4839 19.349 17.5481 18.7964L17.5556 18.6668V10.5187C17.5556 10.3065 17.4948 10.0999 17.3822 9.92268L17.2881 9.79561L13.0587 4.85916C12.4185 4.41187 11.5693 4.42031 10.9408 4.8592ZM12 15.252C11.4302 15.252 10.9605 15.6809 10.8964 16.2335L10.8889 16.3631V19.7776H13.1111V16.3631C13.1111 15.8371 12.7456 15.3965 12.2548 15.2813L12.1296 15.2594L12 15.252Z" fill="#2C2044"/>
</svg>
