<svg width="24" height="24" viewBox="0 0 24 24" fill="none" xmlns="http://www.w3.org/2000/svg">
<path d="M18.2583 1.80005C19.7725 1.80026 20.9995 3.028 20.9995 4.54224V8.65845C20.9993 10.1725 19.7723 11.3994 18.2583 11.3997H14.1421C12.6279 11.3997 11.4001 10.1726 11.3999 8.65845V4.54224C11.3999 3.02787 12.6277 1.80005 14.1421 1.80005H18.2583ZM16.1997 3.00024C14.4119 3.00046 12.9604 4.45261 12.9604 6.24048V6.51587C12.7385 6.71378 12.6002 7.00175 12.6001 7.31958V7.92017C12.6002 8.51409 13.0862 9.00024 13.6802 9.00024H14.0405C14.4363 9.00001 14.7603 8.6754 14.7603 8.27954V6.96021C14.7603 6.56435 14.4363 6.24071 14.0405 6.24048H13.6802C13.7282 4.8906 14.8079 3.72019 16.1997 3.71997C17.5917 3.71997 18.7202 4.84848 18.7202 6.24048H18.3599C17.964 6.24061 17.6401 6.56428 17.6401 6.96021V8.39966C17.6401 8.79558 17.964 9.00016 18.3599 9.00024V9.47974H16.1997C16.0019 9.47995 15.8403 9.64222 15.8403 9.84009C15.8404 10.0379 16.0019 10.2002 16.1997 10.2004H18.3599C18.7559 10.2004 19.0806 9.87574 19.0806 9.47974V8.9397C19.5002 8.78968 19.8002 8.50792 19.8003 8.04028V7.31958C19.8002 7.00175 19.6618 6.71378 19.4399 6.51587V6.1438C19.3858 4.39789 17.9576 3.00024 16.1997 3.00024Z" fill="#2C2044"/>
<path d="M18 17.1471C19.4619 17.1471 20.7 15.962 20.7 14.5V12.6H18.8824V14.5C18.8824 14.9873 18.4873 15.3824 18 15.3824H5.64706C5.15975 15.3824 4.76471 14.9873 4.76471 14.5V7.4412C4.76471 6.95389 5.15975 6.55885 5.64706 6.55885H10.2V4.79414H5.64706C4.18513 4.79414 3 5.97927 3 7.4412V14.5C3 15.962 4.18513 17.1471 5.64706 17.1471H10.0588V19.2353H8.29412C7.80681 19.2353 7.41176 19.6304 7.41176 20.1177C7.41176 20.605 7.80681 21 8.29412 21H15.3529C15.8403 21 16.2353 20.605 16.2353 20.1177C16.2353 19.6304 15.8403 19.2353 15.3529 19.2353H13.5882V17.1471H18Z" fill="#2C2044"/>
</svg>
