<svg width="24" height="24" viewBox="0 0 24 24" fill="none" xmlns="http://www.w3.org/2000/svg">
<path fill-rule="evenodd" clip-rule="evenodd" d="M21.3436 18.8455C20.8863 20.8415 18.986 22.1726 16.954 21.9197L16.7508 21.8884L15.7655 21.7146L15.5663 21.6687C14.6559 21.411 14.0495 20.544 14.119 19.6003L14.1434 19.3972L15.3592 12.5037C15.5393 11.4841 16.4626 10.7829 17.4735 10.8572L17.6756 10.8816L17.9999 10.9392V9.99976C17.9996 6.68636 15.3133 3.99988 11.9999 3.99976C8.68655 4.00003 6.00013 6.68645 5.99986 9.99976L5.99986 10.9568L6.42368 10.8816L6.62681 10.8572C7.63779 10.7827 8.56106 11.484 8.74107 12.5037L9.95689 19.3972L9.9813 19.6003C10.0508 20.5442 9.44373 21.4112 8.53306 21.6687L8.33384 21.7146L7.34946 21.8884L7.14536 21.9187C5.1134 22.1715 3.21302 20.8414 2.75571 18.8455L2.71567 18.6433L2.19419 15.6892C1.9037 14.0414 2.66723 12.4514 3.99986 11.6101L3.99986 9.99976C4.00013 5.58188 7.58198 2.00003 11.9999 1.99976C16.4179 1.99988 19.9996 5.58179 19.9999 9.99976V11.5505C21.394 12.374 22.2029 14.0006 21.9051 15.6892L21.3846 18.6433L21.3436 18.8455ZM17.0975 19.9187C18.1852 20.1105 19.223 19.3843 19.4149 18.2966L19.9354 15.3416C20.127 14.2539 19.401 13.2169 18.3133 13.0251L17.329 12.8513L16.1131 19.7449L17.0975 19.9187ZM4.6854 18.2966C4.87739 19.384 5.91433 20.1102 7.00181 19.9187L7.98716 19.7458L6.77134 12.8513L5.78696 13.0251C4.69942 13.217 3.97239 14.254 4.16392 15.3416L4.6854 18.2966Z" fill="#2C2044"/>
</svg>
