<svg width="24" height="24" viewBox="0 0 24 24" fill="none" xmlns="http://www.w3.org/2000/svg">
<path d="M20 9.58008C19.9998 6.89987 18.0478 5 15.9443 5C15.1395 5.0001 14.4103 5.3568 13.7178 6.17871L13.5547 6.37988C13.175 6.84907 12.6036 7.12207 12 7.12207C11.3964 7.12207 10.825 6.84907 10.4453 6.37988L10.2822 6.17871L10.1523 6.0293C9.49871 5.31306 8.81015 5.0001 8.05566 5C5.95224 5 4.0002 6.89987 4 9.58008C4 10.4497 4.17607 11.1202 4.54004 11.7812C4.92645 12.4829 5.56848 13.2533 6.63184 14.2471L7.18945 14.7549H7.18848L8.3418 15.7842L8.34473 15.7861L9.06543 16.4199C9.915 17.154 11.0905 18.1414 11.998 18.8984C13.2612 17.8428 15.0708 16.3187 15.9062 15.5615L15.916 15.5537L17.2646 14.3379L17.6494 13.9736C19.4856 12.1954 20 11.0559 20 9.58008ZM21.9873 10.0195C21.8634 12.178 20.803 13.785 18.623 15.8047L17.25 17.0439C16.3763 17.8358 14.525 19.3939 13.2715 20.4414L13.1289 20.5498C12.4502 21.0211 11.5492 21.0214 10.8701 20.5508L10.7275 20.4434C9.52649 19.4417 7.79531 17.9864 7.00293 17.2695L5.84277 16.2344L5.28516 15.7266C3.1493 13.7343 2.13075 12.1616 2.01172 10.0176L2 9.58008C2.0002 5.96485 4.68542 3 8.05566 3L8.33789 3.00879C9.73346 3.09273 10.8921 3.79722 11.8125 4.88965L12 5.12207L12.1875 4.88965C13.1692 3.7244 14.422 3.00011 15.9443 3L16.2588 3.00879C19.4802 3.18623 21.9998 6.0779 22 9.58008L21.9873 10.0195Z" fill="#2C2044"/>
</svg>
