<svg width="24" height="24" viewBox="0 0 24 24" fill="none" xmlns="http://www.w3.org/2000/svg">
<path d="M10.2803 3C10.23 3.2095 10.2002 3.42742 10.2002 3.65234V6.59961H8.98535C7.97275 6.59961 7.15527 5.7958 7.15527 4.7998H6.24023C5.73393 4.7998 5.3252 5.2022 5.3252 5.7002V18.2998C5.3252 18.7978 5.73393 19.2002 6.24023 19.2002H13.5605C14.0666 19.2 14.4756 18.7977 14.4756 18.2998L14.5137 12.5996H16.3438L16.3047 18.2998C16.3047 19.7937 15.0792 20.9998 13.5605 21H6.24023C4.72133 21 3.49512 19.7938 3.49512 18.2998V5.7002C3.49512 4.2122 4.72133 3 6.24023 3H10.2803Z" fill="#2C2044"/>
<path d="M9.91504 16.2783C10.4204 16.2783 10.8301 16.6817 10.8301 17.1787C10.83 17.6757 10.4203 18.0781 9.91504 18.0781C9.40976 18.0781 9.00011 17.6757 9 17.1787C9 16.6817 9.4097 16.2783 9.91504 16.2783Z" fill="#2C2044"/>
<path d="M18.2578 1.7998C19.7722 1.7998 21 3.02765 21 4.54199V8.6582C20.9999 10.1725 19.7721 11.4004 18.2578 11.4004H14.1416C12.6274 11.4002 11.3995 10.1724 11.3994 8.6582V4.54199C11.3994 3.02775 12.6274 1.79997 14.1416 1.7998H18.2578ZM16.2002 3C14.4122 3 12.96 4.45223 12.96 6.24023V6.51562C12.738 6.71362 12.6006 7.00231 12.6006 7.32031V7.91992C12.6006 8.51379 13.0859 8.99978 13.6797 9H14.04C14.4359 9 14.7596 8.67615 14.7598 8.28027V6.95996C14.7597 6.56398 14.436 6.24023 14.04 6.24023H13.6797C13.7277 4.89023 14.8082 3.71973 16.2002 3.71973C17.5921 3.71978 18.7197 4.84827 18.7197 6.24023H18.3604C17.9644 6.24023 17.6397 6.56398 17.6396 6.95996V8.40039C17.6399 8.79613 17.9645 9 18.3604 9V9.48047H16.2002C16.0022 9.48047 15.8399 9.64191 15.8398 9.83984C15.8398 10.0378 16.0022 10.2002 16.2002 10.2002H18.3604C18.7561 10.2001 19.0798 9.87617 19.0801 9.48047V8.94043C19.5001 8.79043 19.7998 8.50802 19.7998 8.04004V7.32031C19.7998 7.00231 19.6624 6.71362 19.4404 6.51562V6.14355C19.3862 4.39779 17.958 3.00005 16.2002 3Z" fill="#2C2044"/>
</svg>
