<svg width="24" height="24" viewBox="0 0 24 24" fill="none" xmlns="http://www.w3.org/2000/svg">
<path d="M14.7585 15.0665C14.5068 14.4215 13.9068 14 13.2405 14H10.7594C10.0932 14 9.49322 14.4215 9.24145 15.0665L9.06098 15.5288C9.04667 15.5654 9.03481 15.6031 9.02547 15.6415C8.91391 16.1003 9.28744 16.485 9.61797 16.6834C10.1695 17.0145 11.206 17.4763 12 17.4763C12.7619 17.4763 13.0257 17.3636 13.6942 17.0782C13.7223 17.0661 13.7512 17.0538 13.7808 17.0412C13.9998 16.9479 14.4413 16.6656 14.4908 16.6298C14.8154 16.3952 15.1101 15.967 14.939 15.5288L14.7585 15.0665Z" fill="#2C2044"/>
<path d="M14 10.0833C14 8.93274 13.1046 8 12 8C10.8954 8 10 8.93274 10 10.0833V10.9167C10 12.0673 10.8954 13 12 13C13.1046 13 14 12.0673 14 10.9167V10.0833Z" fill="#2C2044"/>
<path fill-rule="evenodd" clip-rule="evenodd" d="M12.2674 21.9635L13.3685 21.6572C17.2939 20.5646 20 17.2921 20 13.0947V6.50863C20 6.05069 19.6324 5.50674 19 5.50674C17.2566 5.50674 14.7146 4.58524 12.745 2.3348C12.5642 2.12825 12.3159 2.01665 12 2C11.6881 2.01526 11.4401 2.12686 11.2561 2.3348C9.30164 4.54254 6.72801 5.50674 5 5.50674C4.40574 5.50674 4 6.00769 4 6.50863V13.0947C4 17.2921 6.70507 20.5646 10.6304 21.6572L11.7326 21.9635C11.9076 22.0122 12.0924 22.0122 12.2674 21.9635ZM18 7.44493V13.0947C18 16.2974 15.987 18.8487 12.8333 19.7265L11.9998 19.9584L11.165 19.7263C8.01228 18.8488 6 16.2977 6 13.0947V7.44233C8.02725 7.17226 10.226 6.11045 11.9965 4.44352C13.7692 6.13187 15.9533 7.1814 18 7.44493Z" fill="#2C2044"/>
</svg>
