<svg width="24" height="24" viewBox="0 0 24 24" fill="none" xmlns="http://www.w3.org/2000/svg">
<path d="M12 9.5C12.5177 9.5 12.9438 9.89333 12.9951 10.3975L13 10.5V16.5C13 17.0523 12.5523 17.5 12 17.5C11.4477 17.5 11 17.0523 11 16.5V10.5L11.0049 10.3975C11.0562 9.89333 11.4823 9.5 12 9.5Z" fill="#2C2044"/>
<path d="M12 6.5C12.5521 6.50013 12.9999 6.94791 13 7.5C12.9999 8.05209 12.5521 8.49987 12 8.5C11.4479 8.49984 11.0001 8.05207 11 7.5C11.0001 6.94793 11.4479 6.50016 12 6.5Z" fill="#2C2044"/>
<path fill-rule="evenodd" clip-rule="evenodd" d="M12 2C17.5228 2 22 6.47715 22 12C22 17.5228 17.5228 22 12 22C6.47715 22 2 17.5228 2 12C2 6.47715 6.47715 2 12 2ZM12 4C7.58172 4 4 7.58172 4 12C4 16.4183 7.58172 20 12 20C16.4183 20 20 16.4183 20 12C20 7.58172 16.4183 4 12 4Z" fill="#2C2044"/>
</svg>
