<svg width="24" height="24" viewBox="0 0 24 24" fill="none" xmlns="http://www.w3.org/2000/svg">
<path d="M20 4C21.1046 4 22 4.89543 22 6V13C22 13.5523 21.5523 14 21 14C20.4477 14 20 13.5523 20 13V8C18.9457 8 18.0823 7.18419 18.0059 6.14941L18 6H6C6 7.0543 5.18419 7.91771 4.14941 7.99414L4 8V14C5.0543 14 5.91771 14.8158 5.99414 15.8506L6 16H12C12.5523 16 13 16.4477 13 17C13 17.5523 12.5523 18 12 18H4C2.89543 18 2 17.1046 2 16V6C2 4.89543 2.89543 4 4 4H20Z" fill="#2C2044"/>
<path d="M12 8C13.6569 8 15 9.34315 15 11C15 12.6569 13.6569 14 12 14C10.3431 14 9 12.6569 9 11C9 9.34315 10.3431 8 12 8Z" fill="#2C2044"/>
<path d="M18.7775 14.74V18.46L20.1375 17.25C20.4475 16.96 20.9575 16.96 21.2675 17.25C21.5775 17.54 21.5775 18.01 21.2675 18.3L18.5475 20.78C18.2375 21.07 17.7275 21.07 17.4175 20.78L14.7275 18.3C14.5775 18.16 14.4975 17.97 14.4975 17.78C14.4975 17.59 14.5675 17.4 14.7275 17.26C15.0375 16.97 15.5475 16.97 15.8575 17.26L17.1775 18.47L17.1775 14.74C17.1775 14.33 17.5375 14 17.9775 14C18.4175 14 18.7775 14.33 18.7775 14.74Z" fill="#2C2044"/>
</svg>
