<svg width="24" height="24" viewBox="0 0 24 24" fill="none" xmlns="http://www.w3.org/2000/svg">
<path fill-rule="evenodd" clip-rule="evenodd" d="M13.7577 2.00293L14.8504 2.01481L15.4818 2.03268L16.1228 2.05975C17.1878 2.10875 17.9138 2.27775 18.5508 2.52475C19.2078 2.77975 19.7658 3.12275 20.3208 3.67775C20.8778 4.23475 21.2198 4.79175 21.4758 5.44975C21.6981 6.02215 21.8572 6.66826 21.9218 7.56742L21.9613 8.37332C21.9845 8.95334 21.9948 9.45231 21.9983 10.6751L21.9953 13.9779L21.9875 14.6975L21.9737 15.284L21.9398 16.1228C21.8918 17.1878 21.7228 17.9138 21.4758 18.5498C21.2198 19.2078 20.8778 19.7658 20.3208 20.3218C19.7658 20.8778 19.2078 21.2198 18.5508 21.4748C17.9775 21.6971 17.3321 21.8562 16.4324 21.9215L15.6266 21.9612C15.0468 21.9845 14.5475 21.9947 13.3245 21.9983L10.0217 21.9953L9.30203 21.9875L8.71555 21.9736L7.87681 21.9398C6.81281 21.8908 6.08581 21.7218 5.44881 21.4748C4.79181 21.2198 4.23381 20.8778 3.67881 20.3218C3.12181 19.7658 2.77981 19.2078 2.52481 18.5498C2.27781 17.9138 2.10881 17.1878 2.06081 16.1228L2.01791 14.9822L2.00184 13.488L2 12.5465L2.00301 10.242L2.01176 9.3303L2.02586 8.72963L2.06081 7.87675C2.10881 6.81275 2.27781 6.08575 2.52481 5.44975C2.77981 4.79175 3.12181 4.23475 3.67881 3.67775C4.23381 3.12275 4.79181 2.77975 5.44881 2.52475C6.08581 2.27775 6.81281 2.10875 7.87681 2.05975L9.01741 2.01764L10.2419 2.00293H13.7577ZM13.736 4.00281L9.85147 4.00552L9.0912 4.01628L7.96881 4.05763C7.18883 4.09355 6.662 4.19942 6.17247 4.38924C5.73973 4.5572 5.42651 4.75848 5.09302 5.09196C4.75801 5.42697 4.55774 5.73877 4.38915 6.17379C4.19945 6.66224 4.09391 7.18813 4.0587 7.9685L4.02194 8.88315L4.01167 9.3495L4.003 10.2446L4.00173 13.4665L4.01649 14.907L4.05878 16.0327C4.0939 16.8119 4.19927 17.3368 4.38967 17.827C4.55805 18.2615 4.75827 18.5734 5.09429 18.9088C5.42622 19.2413 5.7383 19.4418 6.17186 19.61C6.60754 19.779 7.07221 19.8814 7.71646 19.9272L8.56124 19.967L9.32376 19.9876L10.0235 19.9953L14.0119 19.9951L14.6499 19.9881L14.9991 19.981L15.5281 19.9637L16.2876 19.9267C16.9325 19.8799 17.3908 19.7794 17.8271 19.6103C18.2613 19.4418 18.5734 19.2413 18.9079 18.9063C19.2414 18.5733 19.4422 18.2609 19.6115 17.8257C19.7802 17.3911 19.8823 16.9281 19.9275 16.2834L19.9671 15.4383L19.9876 14.6758L19.9953 13.9761L19.9951 9.98791L19.9855 9.20339L19.9733 8.73333L19.9637 8.47116L19.927 7.71072C19.8807 7.067 19.7804 6.60872 19.6119 6.17492C19.4425 5.73945 19.2417 5.42706 18.9066 5.09196C18.5731 4.75848 18.2599 4.5572 17.8278 4.38947C17.3371 4.19924 16.8113 4.09355 16.0328 4.05773L15.0889 4.02081L14.8286 4.01469L13.736 4.00281ZM11.9998 6.99975C14.7612 6.99975 16.9998 9.23831 16.9998 11.9998C16.9998 14.7612 14.7612 16.9998 11.9998 16.9998C9.23837 16.9998 6.99981 14.7612 6.99981 11.9998C6.99981 9.23831 9.23837 6.99975 11.9998 6.99975ZM11.9998 8.99975C10.3429 8.99975 8.99981 10.3429 8.99981 11.9998C8.99981 13.6566 10.3429 14.9998 11.9998 14.9998C13.6567 14.9998 14.9998 13.6566 14.9998 11.9998C14.9998 10.3429 13.6567 8.99975 11.9998 8.99975ZM17 5.99995C17.5525 5.99995 18 6.44745 18 6.99995C18 7.55245 17.5525 7.99995 17 7.99995C16.4483 7.99995 16 7.55245 16 6.99995C16 6.44745 16.4483 5.99995 17 5.99995Z" fill="#2C2044"/>
</svg>
