<svg width="24" height="24" viewBox="0 0 24 24" fill="none" xmlns="http://www.w3.org/2000/svg">
<path d="M11.7071 9.29289C11.3166 8.90237 10.6834 8.90237 10.2929 9.29289L9 10.5858L8.70711 10.2929C8.31658 9.90237 7.68342 9.90237 7.29289 10.2929C6.90237 10.6834 6.90237 11.3166 7.29289 11.7071L8.29289 12.7071C8.68342 13.0976 9.31658 13.0976 9.70711 12.7071L11.7071 10.7071C12.0976 10.3166 12.0976 9.68342 11.7071 9.29289Z" fill="#2C2044"/>
<path d="M11.7071 15.7071C12.0976 15.3166 12.0976 14.6834 11.7071 14.2929C11.3166 13.9024 10.6834 13.9024 10.2929 14.2929L9 15.5858L8.70711 15.2929C8.31658 14.9024 7.68342 14.9024 7.29289 15.2929C6.90237 15.6834 6.90237 16.3166 7.29289 16.7071L8.29289 17.7071C8.68342 18.0976 9.31658 18.0976 9.70711 17.7071L11.7071 15.7071Z" fill="#2C2044"/>
<path d="M14 10C13.4477 10 13 10.4477 13 11C13 11.5523 13.4477 12 14 12H16C16.5523 12 17 11.5523 17 11C17 10.4477 16.5523 10 16 10H14Z" fill="#2C2044"/>
<path d="M17 16C17 15.4477 16.5523 15 16 15H14C13.4477 15 13 15.4477 13 16C13 16.5523 13.4477 17 14 17H16C16.5523 17 17 16.5523 17 16Z" fill="#2C2044"/>
<path fill-rule="evenodd" clip-rule="evenodd" d="M7.17071 4C7.58254 2.83481 8.69378 2 10 2H14C15.3062 2 16.4175 2.83481 16.8293 4H17C18.6569 4 20 5.34315 20 7V19C20 20.6569 18.6569 22 17 22H7C5.34315 22 4 20.6569 4 19V7C4 5.34315 5.34315 4 7 4H7.17071ZM10 4H14C14.5523 4 15 4.44772 15 5V6H9V5C9 4.44772 9.44772 4 10 4ZM7 6C6.44772 6 6 6.44772 6 7V19C6 19.5523 6.44772 20 7 20H17C17.5523 20 18 19.5523 18 19V7C18 6.44772 17.5523 6 17 6V7C17 7.55228 16.5523 8 16 8H8C7.44772 8 7 7.55228 7 7L7 6Z" fill="#2C2044"/>
</svg>
