<svg width="24" height="24" viewBox="0 0 24 24" fill="none" xmlns="http://www.w3.org/2000/svg">
<path d="M12.9875 5.75981C12.9875 6.30315 12.539 6.75162 11.9957 6.75162C11.4955 6.75162 11.0643 6.36352 11.0039 5.83743V3.99181C11.0039 3.44847 11.4523 3 11.9957 3C12.539 3 12.9875 3.44847 12.9875 3.99181V5.75981Z" fill="#2C2044"/>
<path fill-rule="evenodd" clip-rule="evenodd" d="M11.6852 7.53634C13.2462 7.46734 14.7124 7.99343 15.799 9.01974C16.9116 10.0892 17.4894 11.4691 17.4722 12.9956C17.4722 14.6946 16.6615 16.2987 15.2988 17.3164V19.3949C15.2988 20.6627 14.2208 21.7235 12.9444 21.7235H11.0211C9.72746 21.7235 8.66666 20.6799 8.66666 19.3949V17.2819C7.31263 16.2211 6.51918 14.5997 6.55368 12.9007C6.55368 10.0633 8.81327 7.70883 11.6852 7.53634ZM11.0384 19.7399H12.9616C13.2117 19.7399 13.3842 19.5329 13.4015 19.3345V17.7476H10.633V19.3604C10.633 19.5674 10.8141 19.7399 11.0384 19.7399ZM11.0039 15.2034C11.0039 14.6601 11.4523 14.2116 11.9957 14.2116C12.5476 14.2116 12.9875 14.6601 12.9875 15.2034V15.764H14.0742C15.0056 15.1258 15.5403 14.0823 15.5144 12.9438C15.5144 11.9952 15.1177 11.0723 14.4364 10.4169C13.7723 9.78731 12.9271 9.45096 11.9698 9.45096H11.7542C9.96032 9.55445 8.51142 11.0637 8.48555 12.8748C8.48555 14.0564 9.02889 15.1258 9.9517 15.764H11.0039V15.2034Z" fill="#2C2044"/>
<path d="M18.9728 8.89895L20.2492 7.69153L20.2579 7.68291C20.646 7.29481 20.646 6.68248 20.2579 6.29438C19.8698 5.90628 19.2574 5.90628 18.878 6.29438L17.6274 7.51042C17.2393 7.89852 17.2393 8.51085 17.6274 8.89895C17.7999 9.07144 18.0673 9.18355 18.3087 9.18355C18.5416 9.17493 18.809 9.06281 18.9728 8.89895Z" fill="#2C2044"/>
<path d="M5.10478 6.32918L6.2777 7.54523C6.6658 7.9247 6.6658 8.53703 6.28633 8.91651C6.11384 9.08899 5.84648 9.20111 5.605 9.20111C5.36351 9.20111 5.09616 9.08899 4.92367 8.91651L3.71625 7.70909C3.52652 7.52798 3.42302 7.27787 3.42302 7.01914C3.42302 6.76041 3.52652 6.51892 3.71625 6.32918C4.0871 5.95834 4.72531 5.95834 5.10478 6.32918Z" fill="#2C2044"/>
<path d="M4.79431 13.2803H2.99181C2.44847 13.2803 2 13.7288 2 14.2721C2 14.8068 2.43122 15.2294 2.99181 15.2294H4.79431C5.33764 15.2294 5.78611 14.781 5.78611 14.2376C5.77749 13.7115 5.33764 13.2803 4.79431 13.2803Z" fill="#2C2044"/>
<path d="M19.2057 13.2803H21.0082C21.5515 13.2803 22 13.7288 22 14.2721C22 14.8155 21.5515 15.2639 21.0082 15.2639H19.2057C18.6624 15.2639 18.2139 14.8155 18.2139 14.2721C18.2139 13.7288 18.6624 13.2803 19.2057 13.2803Z" fill="#2C2044"/>
</svg>
