<svg width="24" height="24" viewBox="0 0 24 24" fill="none" xmlns="http://www.w3.org/2000/svg">
<path d="M2.00509 5.82373C2.09634 4.24892 3.40232 3 5 3H11L11.1763 3.00509C12.7511 3.09634 14 4.40232 14 6V7L13.9933 7.11662C13.9355 7.61396 13.5128 8 13 8C12.4477 8 12 7.55228 12 7V6L11.9933 5.88338C11.9355 5.38604 11.5128 5 11 5H5L4.88338 5.00673C4.38604 5.06449 4 5.48716 4 6V18L4.00673 18.1166C4.06449 18.614 4.48716 19 5 19H11L11.1166 18.9933C11.614 18.9355 12 18.5128 12 18V17L12.0067 16.8834C12.0645 16.386 12.4872 16 13 16C13.5523 16 14 16.4477 14 17V18L13.9949 18.1763C13.9037 19.7511 12.5977 21 11 21H5L4.82373 20.9949C3.24892 20.9037 2 19.5977 2 18V6L2.00509 5.82373Z" fill="#2C2044"/>
<path d="M16.295 8.71L18.595 11H9.00499C8.4527 11 8.00499 11.4477 8.00499 12C8.00499 12.5523 8.4527 13 9.00499 13H18.595L16.295 15.29C16.0413 15.5437 15.9423 15.9134 16.0351 16.2599C16.128 16.6064 16.3986 16.877 16.7451 16.9699C17.0916 17.0627 17.4613 16.9637 17.715 16.71L21.715 12.71C21.806 12.6149 21.8774 12.5028 21.925 12.38C22.025 12.1365 22.025 11.8635 21.925 11.62C21.8774 11.4972 21.806 11.3851 21.715 11.29L17.715 7.29C17.5272 7.10069 17.2716 6.9942 17.005 6.9942C16.7383 6.9942 16.4828 7.10069 16.295 7.29C16.1057 7.47777 15.9992 7.73336 15.9992 8C15.9992 8.26664 16.1057 8.52223 16.295 8.71Z" fill="#2C2044"/>
</svg>
