<svg width="24" height="24" viewBox="0 0 24 24" fill="none" xmlns="http://www.w3.org/2000/svg">
<path d="M20.4853 10.5853C22.4379 8.63272 22.4379 5.46689 20.4853 3.51427C18.5327 1.56165 15.3669 1.56165 13.4142 3.51427L9.67669 7.25183C7.83564 9.09288 7.83564 12.0778 9.67668 13.9188L10.5858 14.828C10.9763 15.2185 11.6095 15.2185 12 14.828C12.3906 14.4375 12.3906 13.8043 12 13.4138L11.0909 12.5046C10.0309 11.4446 10.0309 9.72604 11.0909 8.66605L14.8285 4.92848C16 3.75691 17.8995 3.75691 19.0711 4.92848C20.2427 6.10006 20.2427 7.99955 19.0711 9.17112L16.5962 11.646C16.2057 12.0365 16.2057 12.6697 16.5962 13.0602C16.9868 13.4507 17.6199 13.4507 18.0104 13.0602L20.4853 10.5853Z" fill="#2C2044"/>
<path d="M3.51476 13.4137C1.56214 15.3663 1.56214 18.5321 3.51476 20.4848C5.46738 22.4374 8.63321 22.4374 10.5858 20.4848L14.3234 16.7472C16.1644 14.9061 16.1644 11.9212 14.3234 10.0802L13.4143 9.17104C13.0237 8.78052 12.3906 8.78052 12 9.17104C11.6095 9.56157 11.6095 10.1947 12 10.5853L12.9092 11.4944C13.9692 12.5544 13.9692 14.273 12.9092 15.333L9.17161 19.0705C8.00004 20.2421 6.10055 20.2421 4.92897 19.0705C3.7574 17.899 3.7574 15.9995 4.92897 14.8279L7.40385 12.353C7.79437 11.9625 7.79437 11.3293 7.40385 10.9388C7.01332 10.5483 6.38016 10.5483 5.98963 10.9388L3.51476 13.4137Z" fill="#2C2044"/>
</svg>
