<svg width="24" height="24" viewBox="0 0 24 24" fill="none" xmlns="http://www.w3.org/2000/svg">
<path fill-rule="evenodd" clip-rule="evenodd" d="M12 2C16.4231 2 20 5.64086 20 10.1215C20 12.6301 18.248 15.8491 14.7795 19.8844L14.4595 20.2536L14.141 20.6137L14.1495 20.6224L13.4731 21.3579C12.7634 22.1297 11.5861 22.2169 10.7462 21.5588L10.6165 21.4487L9.54053 20.2536C6.07329 16.289 4.22189 13.0964 4.01877 10.5789L4.00455 10.3449L4 10.1215C4 5.64086 7.57689 2 12 2ZM12 4C8.69014 4 6 6.73715 6 10.122C6 11.9351 7.40723 14.5923 10.2513 18.0049L10.8015 18.6536L11.3853 19.3199C11.4854 19.4324 11.5869 19.5456 11.6899 19.6596L12 20L12.3101 19.6596C15.9067 15.6779 17.7847 12.5804 17.9825 10.4824L17.9959 10.2944L18 10.122C18 6.73714 15.3099 4 12 4ZM12 6C14.2097 6 16 7.79142 16 10C16 12.2086 14.2097 14 12 14C9.79031 14 8 12.2086 8 10C8 7.79142 9.7903 6 12 6ZM12 8C10.8952 8 10 8.89571 10 10C10 11.1043 10.8952 12 12 12C13.1048 12 14 11.1043 14 10C14 8.8957 13.1049 8 12 8Z" fill="#2C2044"/>
</svg>
