<svg width="24" height="24" viewBox="0 0 24 24" fill="none" xmlns="http://www.w3.org/2000/svg">
<path fill-rule="evenodd" clip-rule="evenodd" d="M5 5.6V13.5L2.11389 18.0528C1.75958 18.7177 2.27486 19.5 3.0671 19.5H20.9329C21.7251 19.5 22.2404 18.7177 21.8861 18.0528L19 13.5V5.6C19 4.99249 18.5523 4.5 18 4.5H6C5.44772 4.5 5 4.99249 5 5.6ZM7.5 6.5C7.22386 6.5 7 6.72386 7 7V13C7 13.2761 7.22386 13.5 7.5 13.5H16.5C16.7761 13.5 17 13.2761 17 13V7C17 6.72386 16.7761 6.5 16.5 6.5H7.5ZM14.6786 17.5H19L17.6827 15.5H6.31731L5 17.5H9.32144L9.44244 17.1838C9.59869 16.7754 10.0374 16.5 10.5315 16.5H13.4685C13.9626 16.5 14.4013 16.7754 14.5576 17.1838L14.6786 17.5Z" fill="#2C2044"/>
</svg>
