<svg width="24" height="24" viewBox="0 0 24 24" fill="none" xmlns="http://www.w3.org/2000/svg">
<path fill-rule="evenodd" clip-rule="evenodd" d="M16.9954 6.78311C16.8818 4.12231 14.6888 2 12 2C9.23858 2 7 4.23858 7 7V8.12602C5.27477 8.57006 4 10.1362 4 12V18L4.0049 18.1996C4.10892 20.316 5.8578 22 8 22H16L16.1996 21.9951C18.316 21.8911 20 20.1422 20 18V17.8293C21.1652 17.4175 22 16.3062 22 15C22 13.6938 21.1652 12.5825 20 12.1707V12L19.9951 11.8004C19.9078 10.0251 18.6633 8.55411 17 8.12602V7L16.9954 6.78311ZM15 8V7C15 5.34315 13.6569 4 12 4C10.4023 4 9.09634 5.24892 9.00509 6.82373L9 7V8H15ZM8 10C6.94564 10 6.08183 10.8159 6.00549 11.8507L6 12V18C6 19.0544 6.81588 19.9182 7.85074 19.9945L8 20H16C17.0544 20 17.9182 19.1841 17.9945 18.1493L18 18H13C11.3431 18 10 16.6569 10 15C10 13.3431 11.3431 12 13 12H18C18 10.9456 17.1841 10.0818 16.1493 10.0055L16 10H8ZM20 15C20 15.5523 19.5523 16 19 16C18.4477 16 18 15.5523 18 15C18 14.4477 18.4477 14 19 14C19.5523 14 20 14.4477 20 15ZM13 16C13.5523 16 14 15.5523 14 15C14 14.4477 13.5523 14 13 14C12.4477 14 12 14.4477 12 15C12 15.5523 12.4477 16 13 16ZM17 15C17 15.5523 16.5523 16 16 16C15.4477 16 15 15.5523 15 15C15 14.4477 15.4477 14 16 14C16.5523 14 17 14.4477 17 15Z" fill="#2C2044"/>
</svg>
