<svg width="24" height="24" viewBox="0 0 24 24" fill="none" xmlns="http://www.w3.org/2000/svg">
<path fill-rule="evenodd" clip-rule="evenodd" d="M17.2021 11.3287C15.9 12.5278 14.6681 12.6762 14.6681 12.6762C14.6688 12.6734 16.8837 4.83525 17.3827 3.11005C17.7791 1.73899 17.0895 1.95307 16.5207 2.12962C16.4905 2.13901 16.4606 2.1483 16.4312 2.15724C15.8109 2.3454 15.5173 2.89228 15.2069 3.88526C13.8499 8.22224 12.7818 9.57252 12.0074 9.28146C11.6446 9.14505 12.0499 7.87705 12.4619 6.58787C12.8566 5.3528 13.2576 4.09827 12.9953 3.80069C12.5307 3.27354 11.573 3.30173 11.3906 3.61253C11.2949 3.77536 11.3239 3.93085 11.3564 4.10524C11.386 4.26369 11.4184 4.43774 11.3629 4.64708C11.3176 4.81838 11.154 5.2842 10.9657 5.82061C10.6707 6.66124 10.3147 7.67527 10.2572 8.00095C10.2498 8.04267 10.2382 8.09924 10.2242 8.16803C10.0586 8.97762 9.54732 11.4787 11.441 11.3612C12.6552 11.2857 13.4869 10.3245 13.5752 10.0574C13.196 11.2054 12.6539 13.0582 12.6539 13.0582C12.6539 13.0582 10.1683 13.7086 8.18705 15.8785C6.61391 17.6009 5.50141 21.3114 7.85101 21.9026C11.1139 22.7237 12.8398 18.1543 13.8022 15.6066C13.917 15.3028 14.0209 15.0277 14.1152 14.7939C14.603 14.6803 16.8924 13.8736 17.2021 11.3287ZM8.93724 17.775C8.21533 18.8476 7.72575 21.3311 9.66724 19.5178C10.0652 19.1464 11.14 17.856 12 15.2231C12 15.2231 10.3077 15.7383 8.93724 17.775Z" fill="#2C2044"/>
</svg>
