<svg width="24" height="24" viewBox="0 0 24 24" fill="none" xmlns="http://www.w3.org/2000/svg">
<path d="M21.9949 5.82373C21.9037 4.24892 20.5977 3 19 3H10L9.82373 3.00509C8.24892 3.09634 7 4.40232 7 6V7L7.00673 7.11662C7.06449 7.61396 7.48716 8 8 8C8.55228 8 9 7.55228 9 7V6L9.00673 5.88338C9.06449 5.38604 9.48716 5 10 5H19L19.1166 5.00673C19.614 5.06449 20 5.48716 20 6V18L19.9933 18.1166C19.9355 18.614 19.5128 19 19 19H10L9.88338 18.9933C9.38604 18.9355 9 18.5128 9 18V17L8.99327 16.8834C8.93551 16.386 8.51284 16 8 16C7.44772 16 7 16.4477 7 17V18L7.00509 18.1763C7.09634 19.7511 8.40232 21 10 21H19L19.1763 20.9949C20.7511 20.9037 22 19.5977 22 18V6L21.9949 5.82373Z" fill="#2C2044"/>
<path d="M10.9942 16C10.9942 15.7334 11.1007 15.4778 11.29 15.29L13.59 13H3C2.44772 13 2 12.5523 2 12C2 11.4477 2.44772 11 3 11H13.59L11.29 8.71C11.0363 8.45634 10.9373 8.08663 11.0301 7.74012C11.123 7.39362 11.3936 7.12297 11.7401 7.03012C12.0866 6.93728 12.4563 7.03634 12.71 7.29L16.71 11.29C16.801 11.3851 16.8724 11.4972 16.92 11.62C17.02 11.8635 17.02 12.1365 16.92 12.38C16.8724 12.5028 16.801 12.6149 16.71 12.71L12.71 16.71C12.5222 16.8993 12.2666 17.0058 12 17.0058C11.7334 17.0058 11.4778 16.8993 11.29 16.71C11.1007 16.5222 10.9942 16.2666 10.9942 16Z" fill="#2C2044"/>
</svg>
