<svg width="24" height="24" viewBox="0 0 24 24" fill="none" xmlns="http://www.w3.org/2000/svg">
<path d="M8 7C9.10457 7 10 6.10457 10 5C10 3.89543 9.10457 3 8 3C6.89543 3 6 3.89543 6 5C6 6.10457 6.89543 7 8 7Z" fill="#2C2044"/>
<path fill-rule="evenodd" clip-rule="evenodd" d="M11.8722 6.21813L9.79371 9.90003C8.77891 8.6442 6.81296 8.7441 5.94946 10.1996L2.35228 16.2628C1.3929 17.8799 2.50037 20 4.37837 20H19.6217C21.4761 20 22.5879 17.9269 21.6744 16.3089L15.9777 6.21809C15.0608 4.59395 12.7891 4.59398 11.8722 6.21813ZM8.45091 11.1781C8.23283 10.8107 7.71819 10.8107 7.50016 11.1782L3.90298 17.2414C3.67387 17.6276 3.94149 18.125 4.37837 18.125H19.6217C20.0531 18.125 20.3215 17.6387 20.1034 17.2523L14.4067 7.16154C14.191 6.77948 13.659 6.77949 13.4433 7.16155L9.84739 13.5314L8.45091 11.1781Z" fill="#2C2044"/>
</svg>
