<svg width="24" height="24" viewBox="0 0 24 24" fill="none" xmlns="http://www.w3.org/2000/svg">
<path d="M9.6 11C10.1523 11 10.6 11.4477 10.6 12V17C10.6 17.5523 10.1523 18 9.6 18C9.04772 18 8.6 17.5523 8.6 17L8.6 12C8.6 11.4477 9.04772 11 9.6 11Z" fill="#2C2044"/>
<path d="M14.4 11C14.9523 11 15.4 11.4477 15.4 12L15.4 17C15.4 17.5523 14.9523 18 14.4 18C13.8477 18 13.4 17.5523 13.4 17L13.4 12C13.4 11.4477 13.8477 11 14.4 11Z" fill="#2C2044"/>
<path fill-rule="evenodd" clip-rule="evenodd" d="M8.6 5C8.6 3.34315 9.94314 2 11.6 2L12.4 2C14.0569 2 15.4 3.34315 15.4 5V7.625H16.8C17.9533 7.625 19 8.51658 19 9.75V18.75C19 19.9834 17.9533 20.875 16.8 20.875H15.4V21C15.4 21.5523 14.9523 22 14.4 22C13.8477 22 13.4 21.5523 13.4 21V20.875H10.6V21C10.6 21.5523 10.1523 22 9.6 22C9.04772 22 8.6 21.5523 8.6 21V20.875H7.2C6.04675 20.875 5 19.9834 5 18.75V9.75C5 8.51658 6.04675 7.625 7.2 7.625H8.6L8.6 5ZM7.2 9.625C7.12403 9.625 7.0682 9.6533 7.03541 9.68404C7.00373 9.71374 7 9.73716 7 9.75V18.75C7 18.7628 7.00373 18.7863 7.03541 18.816C7.0682 18.8467 7.12403 18.875 7.2 18.875L9.6 18.875H14.4L16.8 18.875C16.876 18.875 16.9318 18.8467 16.9646 18.816C16.9963 18.7863 17 18.7628 17 18.75V9.75C17 9.73716 16.9963 9.71374 16.9646 9.68404C16.9318 9.6533 16.876 9.625 16.8 9.625H7.2ZM13.4 7.625H10.6V5C10.6 4.44771 11.0477 4 11.6 4H12.4C12.9523 4 13.4 4.44772 13.4 5V7.625Z" fill="#2C2044"/>
</svg>
