<svg width="24" height="24" viewBox="0 0 24 24" fill="none" xmlns="http://www.w3.org/2000/svg">
<path fill-rule="evenodd" clip-rule="evenodd" d="M14.0342 2.84371C14.051 2.82688 15.5327 1.34943 17.0146 2.34371C18.501 3.34094 17.5172 4.83545 17.5117 4.84371L16.0215 7.99996H21.0127C22.2304 8.00012 23.1615 8.78871 22.9766 9.99996L21.4863 19C21.3465 19.9144 20.9893 20.9997 19.6816 20.9912L19.499 21H11.582C11.19 20.9998 10.8067 20.8828 10.4805 20.664L8.88477 19.5937C8.36661 19.246 8.0425 18.6755 8.00391 18.0546L8 17.9296V9.62887C8.00007 9.16473 8.16038 8.71714 8.4502 8.36129L8.58203 8.2148L14.0342 2.84371ZM15.5293 4.36715C15.5665 4.29011 15.4857 4.21957 15.4219 4.27633L10.2852 9.33492C10.0944 9.52286 9.9873 9.78004 9.9873 10.0478V17.3964C9.98735 17.7295 10.1532 18.0408 10.4297 18.2265L11.3301 18.83C11.4948 18.9405 11.6884 18.9999 11.8867 19H19.0762C19.3202 18.9998 19.5288 18.8236 19.5693 18.583L20.9141 10.583C20.9653 10.2781 20.7309 10.0002 20.4219 9.99996H13.5508C13.2061 9.99977 12.9802 9.63948 13.1299 9.32906L15.5293 4.36715Z" fill="#2C2044"/>
<path d="M5 8.99996C5.55228 8.99996 6 9.44768 6 9.99996V18C5.99997 18.5522 5.55226 19 5 19H3C2.44774 19 2.00003 18.5522 2 18V9.99996C2 9.44768 2.44772 8.99996 3 8.99996H5Z" fill="#2C2044"/>
</svg>
