<svg width="24" height="24" viewBox="0 0 24 24" fill="none" xmlns="http://www.w3.org/2000/svg">
<path fill-rule="evenodd" clip-rule="evenodd" d="M12 2C14.6888 2 16.8818 4.12231 16.9954 6.78311L17 7C17 7.55228 16.5523 8 16 8C15.4872 8 15.0645 7.61396 15.0067 7.11662L15 7C15 5.46149 13.8419 4.19348 12.3499 4.02018L12.1763 4.00509L12 4C10.4023 4 9.09634 5.24892 9.00509 6.82373L9 7V10H17C18.5977 10 19.9037 11.2489 19.9949 12.8237L20 13V19C20 20.5977 18.7511 21.9037 17.1763 21.9949L17 22H7C5.40232 22 4.09634 20.7511 4.00509 19.1763L4 19V13C4 11.4023 5.24892 10.0963 6.82373 10.0051L7 10V7C7 4.23858 9.23858 2 12 2ZM17 12H7C6.48716 12 6.06449 12.386 6.00673 12.8834L6 13V19C6 19.5128 6.38604 19.9355 6.88338 19.9933L7 20H17C17.5128 20 17.9355 19.614 17.9933 19.1166L18 19V13C18 12.4872 17.614 12.0645 17.1166 12.0067L17 12ZM12 14C12.5523 14 13 14.4477 13 15V17C13 17.5523 12.5523 18 12 18C11.4477 18 11 17.5523 11 17V15C11 14.4477 11.4477 14 12 14Z" fill="#2C2044"/>
</svg>
