<svg width="24" height="24" viewBox="0 0 24 24" fill="none" xmlns="http://www.w3.org/2000/svg">
<path fill-rule="evenodd" clip-rule="evenodd" d="M7.79999 17.0604V11.9981C7.79999 11.7223 8.04691 11.5 8.3531 11.5H10.3364C11.3636 11.5 12.1992 12.2524 12.1992 13.1774C12.1992 13.6277 11.9836 14.0337 11.6402 14.3159C12.0241 14.6606 12.2605 15.1277 12.2605 15.6409C12.2605 16.6975 11.2589 17.5584 10.0302 17.5584H8.3531C8.04691 17.5584 7.79999 17.3361 7.79999 17.0604ZM10.0423 13.7234H10.4846C10.8184 13.7234 11.091 13.478 11.091 13.1774C11.091 12.8021 10.7512 12.4961 10.3344 12.4961H8.90424V13.7234H10.0302L10.0423 13.7234ZM8.90622 14.7196V16.5623H10.0302C10.6505 16.5623 11.1542 16.1496 11.1542 15.6409C11.1542 15.1346 10.6552 14.7234 10.039 14.7196H8.90622Z" fill="#2C2044"/>
<path d="M14.5278 17.8C15.6004 17.8 16.2 17.1864 16.2 16.4714C16.2 15.6692 15.4527 15.3979 14.8485 15.1785C14.4387 15.0297 14.0948 14.9048 14.0948 14.6544C14.0948 14.4876 14.248 14.3565 14.6145 14.3565C14.9149 14.3565 15.1295 14.4498 15.3407 14.5415L15.3672 14.5531C15.5538 14.6365 15.7337 14.6722 15.8669 14.4399L16.0268 14.1599C16.1267 13.9871 16.1067 13.8382 15.9135 13.7131C15.687 13.5701 15.1807 13.3973 14.6278 13.3973C13.6618 13.3973 12.929 13.9156 12.929 14.702C12.929 15.5004 13.6825 15.787 14.2879 16.0173C14.6944 16.172 15.0342 16.3012 15.0342 16.5429C15.0342 16.7098 14.8743 16.8408 14.5278 16.8408C14.1774 16.8408 13.9084 16.7036 13.7414 16.6183C13.7117 16.6031 13.6849 16.5895 13.6618 16.5787C13.442 16.4714 13.2887 16.4834 13.1555 16.6561L12.949 16.9242C12.7758 17.1447 12.8757 17.2757 13.0156 17.377C13.2687 17.5557 13.8617 17.8 14.5278 17.8Z" fill="#2C2044"/>
<path fill-rule="evenodd" clip-rule="evenodd" d="M17 4.25C17 4.91756 16.508 5.96675 15.5239 6.78579C19.1746 8.54283 21 12.8799 21 16C21 20 18 22 12 22C6 22 3 20 3 16C3 12.9214 4.77709 8.65806 8.33127 6.85731C7.44376 6.13323 7 5.16403 7 4.25C7 2.58598 8.47077 2.06276 11.4123 2.00546L12 2C15.3333 2 17 3.02137 17 4.25ZM9.00493 4.35406C9.08372 5.18624 10.1065 6 12 6L12.2074 5.99446C13.5733 5.92139 14.602 5.14038 14.907 4.56399L14.939 4.497L14.8689 4.45974L14.7306 4.39725C14.1479 4.15447 13.2146 4 12 4L11.4161 4.00596C10.2151 4.03163 9.4282 4.13947 9.002 4.313L9.00493 4.35406ZM5 16C5 12 8 8 12 8C16 8 19 12 19 16C19 18.684 17.0259 20 12 20C6.97407 20 5 18.684 5 16Z" fill="#2C2044"/>
</svg>
