<svg width="24" height="24" viewBox="0 0 24 24" fill="none" xmlns="http://www.w3.org/2000/svg">
<path fill-rule="evenodd" clip-rule="evenodd" d="M17.2291 4.80565C15.3019 1.82837 11.1133 1.18214 8.27256 3.05159C7.58188 3.50164 6.99146 4.10172 6.54586 4.80565C6.18938 5.35956 6 6.00579 6 6.68664V14.1875C6.04456 15.5954 7.03602 18.1572 10.3112 18.9535V19.9228H9.19718C8.64018 19.9228 8.19458 20.3844 8.19458 20.9614C8.19458 21.5384 8.64018 22 9.19718 22H14.5667C15.1237 22 15.5693 21.5384 15.5693 20.9614C15.5693 20.3844 15.1237 19.9228 14.5667 19.9228H13.4527V18.9535C16.7278 18.1572 17.7193 15.5839 17.7638 14.1529V6.68664C17.7638 6.00579 17.5745 5.34802 17.2291 4.80565ZM11.8819 17.084C11.0241 17.084 10.1664 16.8417 9.44226 16.3916C8.97438 16.0916 8.57334 15.6877 8.30598 15.18C8.228 15.0415 8.10546 14.3375 8.01634 14.2683L8.4508 14.5683C8.6179 14.6837 8.81842 14.7414 9.0078 14.7414C9.33086 14.7414 9.64278 14.5799 9.8433 14.2799C10.1552 13.8067 10.0327 13.1605 9.57594 12.8374L8.0052 11.7526V10.7833L8.3951 11.0949C8.58448 11.2449 8.79614 11.3141 9.01894 11.3141C9.31972 11.3141 9.60936 11.1756 9.80988 10.9218C10.1552 10.4717 10.0772 9.81393 9.64278 9.46774L8.01634 8.14066V7.28671L8.41738 7.59829C8.59562 7.7483 8.81842 7.81754 9.03008 7.81754C9.33086 7.81754 9.63164 7.67906 9.82102 7.41365C10.1552 6.96359 10.0772 6.30582 9.63164 5.95963L8.77386 5.27878C10.6231 3.46702 14.1099 3.70936 15.5581 5.95963C15.6918 6.16735 15.7586 6.42122 15.7586 6.69818V6.7328H11.7817C11.2247 6.7328 10.7791 7.19439 10.7791 7.77138C10.7791 8.34837 11.2247 8.80997 11.7817 8.80997H15.7586V9.69854H11.7817C11.2247 9.69854 10.7791 10.1601 10.7791 10.7371C10.7791 11.3141 11.2247 11.7757 11.7817 11.7757H15.7586V12.6643H11.7817C11.2247 12.6643 10.7791 13.1259 10.7791 13.7029C10.7791 14.2799 11.2247 14.7414 11.7817 14.7414H15.625C15.6138 14.7414 15.3353 15.3761 15.2908 15.4338C15.1014 15.7223 14.8563 15.9762 14.5889 16.1955C13.8314 16.7955 12.8511 17.0956 11.8819 17.084Z" fill="#2C2044"/>
</svg>
