<svg width="24" height="24" viewBox="0 0 24 24" fill="none" xmlns="http://www.w3.org/2000/svg">
<path d="M8 9C8 8.44772 8.44772 8 9 8H15C15.5523 8 16 8.44772 16 9C16 9.55228 15.5523 10 15 10H9C8.44772 10 8 9.55228 8 9Z" fill="#2C2044"/>
<path d="M8 13C8 12.4477 8.44772 12 9 12H15C15.5523 12 16 12.4477 16 13C16 13.5523 15.5523 14 15 14H9C8.44772 14 8 13.5523 8 13Z" fill="#2C2044"/>
<path fill-rule="evenodd" clip-rule="evenodd" d="M22 11C22 6.02944 17.5228 2 12 2C6.47715 2 2 6.02944 2 11C2 13.5173 3.14832 15.7932 4.99923 17.4266L4.99971 20.281C4.99984 21.0479 5.82757 21.5292 6.49415 21.1501L9.16212 19.6324C10.0618 19.8716 11.0142 20 12 20C17.5228 20 22 15.9706 22 11ZM4 11C4 7.18374 7.53749 4 12 4C16.4625 4 20 7.18374 20 11C20 14.8163 16.4625 18 12 18C11.2022 18 10.422 17.8979 9.67601 17.6996L8.88483 17.4892L7.2979 18.392C7.16457 18.4678 6.99901 18.3715 6.99901 18.2181L6.99908 16.524L6.32258 15.927L6.10451 15.727C4.7546 14.4396 4 12.7678 4 11Z" fill="#2C2044"/>
</svg>
