<svg width="24" height="24" viewBox="0 0 24 24" fill="none" xmlns="http://www.w3.org/2000/svg">
<path fill-rule="evenodd" clip-rule="evenodd" d="M5 4H19C20.6569 4 22 5.34315 22 7V15C22 16.6569 20.6569 18 19 18H14V19H16C16.5523 19 17 19.4477 17 20C17 20.5523 16.5523 21 16 21H8C7.44772 21 7 20.5523 7 20C7 19.4477 7.44772 19 8 19H10V18H5C3.34315 18 2 16.6569 2 15V7C2 5.34315 3.34315 4 5 4ZM19 6H5C4.44772 6 4 6.44772 4 7V15C4 15.5523 4.44772 16 5 16H19C19.5523 16 20 15.5523 20 15V7C20 6.44772 19.5523 6 19 6Z" fill="#2C2044"/>
</svg>
