<svg width="24" height="24" viewBox="0 0 24 24" fill="none" xmlns="http://www.w3.org/2000/svg">
<path fill-rule="evenodd" clip-rule="evenodd" d="M12 10C14.2092 10 16 11.7909 16 14C16 16.2091 14.2092 18 12 18C9.79089 18 8.00002 16.2091 8.00002 14C8.00002 11.7909 9.79089 10 12 10ZM12 12C10.8955 12 10 12.8954 10 14C10 15.1046 10.8955 16 12 16C13.1046 16 14 15.1046 14 14C14 12.8954 13.1046 12 12 12Z" fill="#2C2044"/>
<path fill-rule="evenodd" clip-rule="evenodd" d="M10 2C11.4037 2 11.3205 4 10 4C8.29322 4 5.63436 4 5.60842 4L7.65822 7.28125C8.61105 6.66424 9.7028 6.24408 10.877 6.0791L13.2051 2.45898C13.3661 2.20877 13.629 2.04488 13.9199 2.00781L14.0459 2H20.6162L20.7559 2.00977C21.4378 2.10247 21.8397 2.86522 21.4883 3.49023L18.3272 9.10742C19.3748 10.4602 20 12.1566 20 14C20 18.4183 16.4183 22 12 22C7.58175 22 4.00002 18.4183 4.00002 14C4.00002 11.9104 4.80137 10.008 6.1133 8.58301L2.95607 3.53027C2.5661 2.90593 2.96305 2.10718 3.66115 2.00977L3.80471 2H10ZM12 8C8.68632 8.00002 6.00002 10.6863 6.00002 14C6.00002 17.3137 8.68632 20 12 20C15.3137 20 18 17.3137 18 14C18 10.6863 15.3137 8 12 8ZM13.2432 6.0957C14.5882 6.30554 15.8215 6.85162 16.8565 7.64355L18.9072 4H14.5918L13.2432 6.0957Z" fill="#2C2044"/>
</svg>
