<svg width="24" height="24" viewBox="0 0 24 24" fill="none" xmlns="http://www.w3.org/2000/svg">
<path d="M12.5329 15.7257C12.5329 16.8247 11.7199 17.768 10.2655 17.768C9.36221 17.768 8.55825 17.3925 8.21499 17.1178C8.02529 16.9621 7.88979 16.7606 8.12466 16.4217L8.40469 16.0096C8.58535 15.744 8.79312 15.7257 9.09122 15.8905C9.12268 15.9072 9.15871 15.928 9.19914 15.9514C9.42564 16.0825 9.7903 16.2935 10.2655 16.2935C10.7353 16.2935 10.9521 16.092 10.9521 15.8356C10.9521 15.464 10.4914 15.2653 9.94017 15.0276C9.11926 14.6736 8.09756 14.233 8.09756 13.0057C8.09756 11.7968 9.09122 11 10.401 11C11.1508 11 11.8373 11.2656 12.1445 11.4854C12.4064 11.6777 12.4335 11.9067 12.298 12.1723L12.0812 12.6027C11.9006 12.9599 11.6567 12.9049 11.4037 12.7767C11.3917 12.7708 11.3797 12.7649 11.3677 12.759C11.0814 12.6179 10.7904 12.4745 10.383 12.4745C9.88614 12.4745 9.67838 12.676 9.67838 12.9324C9.67838 13.3174 10.1447 13.5093 10.7004 13.7381C11.5195 14.0753 12.5329 14.4925 12.5329 15.7257Z" fill="#2C2044"/>
<path d="M14.196 17.6337C14.1157 17.8779 13.9551 18 13.6902 18H13.4493C13.1281 18 12.9836 17.8046 13.0799 17.4953L14.8544 11.9189C14.9347 11.6747 15.0953 11.5526 15.3603 11.5526H15.6012C15.9224 11.5526 16.0669 11.7479 15.9706 12.0654L14.196 17.6337Z" fill="#2C2044"/>
<path fill-rule="evenodd" clip-rule="evenodd" d="M17 4.25C17 4.91756 16.508 5.96675 15.5239 6.78579C19.1746 8.54283 21 12.8799 21 16C21 20 18 22 12 22C6 22 3 20 3 16C3 12.9214 4.77709 8.65806 8.33127 6.85731C7.44376 6.13323 7 5.16403 7 4.25C7 2.58598 8.47077 2.06276 11.4123 2.00546L12 2C15.3333 2 17 3.02137 17 4.25ZM9.00493 4.35406C9.08372 5.18624 10.1065 6 12 6L12.2074 5.99446C13.5733 5.92139 14.602 5.14038 14.907 4.56399L14.939 4.497L14.8689 4.45974L14.7306 4.39725C14.1479 4.15447 13.2146 4 12 4L11.4161 4.00596C10.2151 4.03163 9.4282 4.13947 9.002 4.313L9.00493 4.35406ZM5 16C5 12 8 8 12 8C16 8 19 12 19 16C19 18.684 17.0259 20 12 20C6.97407 20 5 18.684 5 16Z" fill="#2C2044"/>
</svg>
