<svg width="24" height="24" viewBox="0 0 24 24" fill="none" xmlns="http://www.w3.org/2000/svg">
<path d="M11.8395 1.10283C12.4469 1.09737 12.9438 1.58538 12.9493 2.20189L12.9484 5.10999L14.3188 3.85441C14.6053 3.60107 15.0024 3.51538 15.3574 3.62315L15.4883 3.67269C18.6932 5.0872 20.191 8.1246 19.9881 12.6076C19.7835 14.7624 18.6073 16.5262 16.5373 17.8436C16.0714 18.1402 15.4533 18.0028 15.1568 17.5369C14.8602 17.071 14.9976 16.4529 15.4635 16.1564C17.0351 15.1561 17.8537 13.9286 17.9936 12.4681C18.1433 9.13924 17.2476 6.98232 15.305 5.8244L15.1954 5.76199L12.7927 7.96694C12.3769 8.34818 11.7473 8.3494 11.3307 7.98912L11.2386 7.89957C11.0525 7.69668 10.9493 7.43142 10.9493 7.15616L10.9484 3.69699L10.7353 3.82455C7.28611 5.91266 5.73616 8.6455 5.96322 12.0633L5.98552 12.3419C6.31877 14.2604 7.13115 15.4753 8.43212 16.098C8.93029 16.3364 9.14085 16.9335 8.90242 17.4317C8.664 17.9299 8.06687 18.1404 7.5687 17.902C5.64023 16.979 4.45252 15.2027 4.00469 12.6069C3.53513 7.62541 6.05016 3.78039 11.417 1.19031C11.5462 1.13621 11.6877 1.10419 11.8395 1.10283Z" fill="#2C2044"/>
<path d="M7.00041 19C6.44813 19 6.00041 19.4477 6.00041 20C6.00041 20.5523 6.44813 21 7.00041 21H17.0004C17.5527 21 18.0004 20.5523 18.0004 20C18.0004 19.4477 17.5527 19 17.0004 19H7.00041Z" fill="#2C2044"/>
<path d="M9.00041 22C8.44813 22 8.00041 22.4477 8.00041 23C8.00041 23.5523 8.44813 24 9.00041 24H15.0004C15.5527 24 16.0004 23.5523 16.0004 23C16.0004 22.4477 15.5527 22 15.0004 22H9.00041Z" fill="#2C2044"/>
<path d="M12.081 16C13.812 16 15.2152 14.4991 15.2152 12.6477C15.2152 10.7963 13.812 9.29541 12.081 9.29541C10.3501 9.29541 8.94685 10.7963 8.94685 12.6477C8.94685 14.4991 10.3501 16 12.081 16Z" fill="#2C2044"/>
</svg>
