<svg width="24" height="24" viewBox="0 0 24 24" fill="none" xmlns="http://www.w3.org/2000/svg">
<path fill-rule="evenodd" clip-rule="evenodd" d="M12 2C15.3333 2 17 3.02137 17 4.25C17 4.91761 16.5079 5.96693 15.5237 6.78601C19.1743 8.54207 21 12.8796 21 16C21 20 18 22 12 22C6 22 3 20 3 16C3 12.9209 4.77767 8.65667 8.33301 6.85643C7.4442 6.13419 7 5.16448 7 4.25C7 2.63966 8.37741 2.09771 11.1322 2.01248L11.4123 2.00546L12 2ZM12 8C8 8 5 12 5 16C5 18.684 6.97407 20 12 20C17.0259 20 19 18.684 19 16C19 12 16 8 12 8ZM12 10C12.5523 10 13 10.4477 13 11V13H15C15.5523 13 16 13.4477 16 14C16 14.5523 15.5523 15 15 15H13V17C13 17.5523 12.5523 18 12 18C11.4477 18 11 17.5523 11 17V15H9C8.44772 15 8 14.5523 8 14C8 13.4477 8.44772 13 9 13L11 12.999V11C11 10.4477 11.4477 10 12 10ZM12 4L11.4161 4.00596L10.891 4.02358C10.0642 4.06248 9.47755 4.14849 9.10678 4.27413L9.002 4.313L9.00493 4.35406C9.08043 5.15157 10.0229 5.93216 11.7678 5.99582L12 6L12.2074 5.99446C13.4974 5.92545 14.4867 5.22498 14.8495 4.66179L14.907 4.56399L14.939 4.497L14.8689 4.45974L14.7306 4.39725C14.1479 4.15447 13.2146 4 12 4Z" fill="#2C2044"/>
</svg>
