<svg width="24" height="24" viewBox="0 0 24 24" fill="none" xmlns="http://www.w3.org/2000/svg">
<path d="M19.1025 16.5049C19.6067 16.5562 20 16.9823 20 17.5C20 18.0177 19.6067 18.4438 19.1025 18.4951L19 18.5H5C4.44772 18.5 4 18.0523 4 17.5C4 16.9477 4.44772 16.5 5 16.5H19L19.1025 16.5049Z" fill="#2C2044"/>
<path d="M19.1025 11.0049C19.6067 11.0562 20 11.4823 20 12C20 12.5177 19.6067 12.9438 19.1025 12.9951L19 13H5C4.44772 13 4 12.5523 4 12C4 11.4477 4.44772 11 5 11H19L19.1025 11.0049Z" fill="#2C2044"/>
<path d="M19.1025 5.50488C19.6067 5.55621 20 5.98232 20 6.5C20 7.01768 19.6067 7.44379 19.1025 7.49512L19 7.5H5C4.44772 7.5 4 7.05228 4 6.5C4 5.94772 4.44772 5.5 5 5.5H19L19.1025 5.50488Z" fill="#2C2044"/>
</svg>
