<svg width="24" height="24" viewBox="0 0 24 24" fill="none" xmlns="http://www.w3.org/2000/svg">
<path fill-rule="evenodd" clip-rule="evenodd" d="M12.0004 2C17.5231 2 22.0008 6.14583 22 11.26C22 16.3742 17.5223 20.5192 11.9996 20.5192C11.1445 20.5192 10.3152 20.4188 9.52369 20.2321L9.13113 20.1317L5.72599 22V18.4692C3.45339 16.7717 2 14.1725 2 11.2592C2 6.145 6.47769 2 12.0004 2ZM12.0004 4C7.549 4 4 7.28575 4 11.2592C4 13.3573 4.98896 15.3177 6.69613 16.6911L6.92285 16.8668L7.72599 17.4667L7.725 18.622L8.86161 17.9983L9.98271 18.2855C10.6379 18.44 11.3133 18.5192 11.9996 18.5192C16.451 18.5192 20 15.2334 20 11.2597C20.0006 7.28633 16.4517 4 12.0004 4ZM18.4599 8.66583L12.993 14.4675L10.447 11.7525L5.47764 14.4683L10.9454 8.66583L13.5538 11.3817L18.4599 8.66583Z" fill="#2C2044"/>
</svg>
