<svg width="24" height="24" viewBox="0 0 24 24" fill="none" xmlns="http://www.w3.org/2000/svg">
<path d="M12 11C12.5523 11 13 11.4477 13 12V13H14C14.5523 13 15 13.4477 15 14C15 14.5523 14.5523 15 14 15H13V16C13 16.5523 12.5523 17 12 17C11.4477 17 11 16.5523 11 16V15H10C9.44772 15 9 14.5523 9 14C9 13.4477 9.44772 13 10 13H11V12C11 11.4477 11.4477 11 12 11Z" fill="#2C2044"/>
<path fill-rule="evenodd" clip-rule="evenodd" d="M8 7V6C8 4.34315 9.34315 3 11 3H13C14.6569 3 16 4.34315 16 6V7H19C20.6569 7 22 8.34315 22 10V18C22 19.6569 20.6569 21 19 21H5C3.34315 21 2 19.6569 2 18V10C2 8.34315 3.34315 7 5 7H8ZM10 6C10 5.44772 10.4477 5 11 5H13C13.5523 5 14 5.44772 14 6V7H10V6ZM4 10C4 9.44772 4.44772 9 5 9H19C19.5523 9 20 9.44772 20 10V18C20 18.5523 19.5523 19 19 19H5C4.44772 19 4 18.5523 4 18V10Z" fill="#2C2044"/>
</svg>
