<svg width="24" height="24" viewBox="0 0 24 24" fill="none" xmlns="http://www.w3.org/2000/svg">
<path fill-rule="evenodd" clip-rule="evenodd" d="M15.5076 11.9889C18.1123 11.816 20.1716 9.6485 20.1716 7C20.1716 4.23858 17.933 2 15.1716 2C12.5231 2 10.3555 4.05924 10.1827 6.66398L5.17157 13.6795L5.17157 14C5.17157 14.4631 5.27653 14.9018 5.46395 15.2934L4.87868 15.8787C3.70711 17.0503 3.70711 18.9497 4.87868 20.1213L5.05025 20.2929C6.22182 21.4645 8.12132 21.4645 9.29289 20.2929L12.4645 17.1213C12.855 16.7308 13.4882 16.7308 13.8787 17.1213L14.0503 17.2929C14.4408 17.6834 14.4408 18.3166 14.0503 18.7071L12.4645 20.2929C12.0739 20.6834 12.0739 21.3166 12.4645 21.7071C12.855 22.0976 13.4882 22.0976 13.8787 21.7071L15.4645 20.1213C16.636 18.9497 16.636 17.0503 15.4645 15.8787L15.2929 15.7071C14.1213 14.5355 12.2218 14.5355 11.0503 15.7071L7.87868 18.8787C7.48816 19.2692 6.85499 19.2692 6.46447 18.8787L6.29289 18.7071C5.90237 18.3166 5.90237 17.6834 6.29289 17.2929L6.87816 16.7076C7.26979 16.895 7.70843 17 8.17157 17L8.49204 17L15.5076 11.9889ZM18.1716 7C18.1716 8.65685 16.8284 10 15.1716 10C13.5147 10 12.1716 8.65685 12.1716 7C12.1716 5.34315 13.5147 4 15.1716 4C16.8284 4 18.1716 5.34315 18.1716 7ZM10.7421 9.32168L9.35724 11.2605C9.70459 11.9558 10.2158 12.467 10.911 12.8143L12.8499 11.4294C11.9514 10.9575 11.2141 10.2202 10.7421 9.32168ZM7.20822 14.2692L8.10112 13.0191C8.40151 13.419 8.75253 13.7701 9.15248 14.0704L7.90241 14.9634C7.5665 14.8697 7.30187 14.6051 7.20822 14.2692Z" fill="#2C2044"/>
</svg>
