<svg width="24" height="24" viewBox="0 0 24 24" fill="none" xmlns="http://www.w3.org/2000/svg">
<path d="M10.264 17.768C11.72 17.768 12.532 16.824 12.532 15.726L12.534 15.724C12.534 14.4912 11.5239 14.0748 10.7043 13.737L10.702 13.736L10.6902 13.7312C10.1394 13.5033 9.68 13.3133 9.68 12.93C9.68 12.674 9.888 12.472 10.384 12.472C10.79 12.472 11.082 12.614 11.368 12.756L11.404 12.774C11.658 12.902 11.902 12.958 12.082 12.6L12.298 12.17C12.434 11.906 12.406 11.676 12.144 11.484C11.836 11.264 11.15 10.998 10.4 10.998C9.09 10.998 8.096 11.776 8.096 13.004C8.096 14.2308 9.116 14.6712 9.93559 15.025L9.93947 15.0267C10.4908 15.2644 10.95 15.4624 10.95 15.834C10.95 16.09 10.738 16.292 10.264 16.292C9.79 16.292 9.424 16.082 9.198 15.95C9.18275 15.9417 9.16809 15.9333 9.154 15.9252C9.13115 15.9122 9.10979 15.8999 9.09 15.89C8.792 15.726 8.584 15.744 8.404 16.01L8.124 16.422C7.888 16.76 8.024 16.962 8.214 17.118C8.556 17.392 9.36 17.768 10.264 17.768Z" fill="#2C2044"/>
<path d="M13.69 18C13.956 18 14.116 17.878 14.196 17.634L15.97 12.066C16.066 11.75 15.922 11.554 15.6 11.554H15.36C15.094 11.554 14.934 11.676 14.854 11.92L13.08 17.496C12.984 17.804 13.128 18 13.45 18H13.69Z" fill="#2C2044"/>
<path fill-rule="evenodd" clip-rule="evenodd" d="M15.52 6.79C16.51 5.97 17 4.92 17 4.25C17 3.02 15.33 2 12 2L11.41 2.01C8.47 2.06 7 2.59 7 4.25C7 5.16 7.44 6.13 8.33 6.86C4.78 8.66 3 12.92 3 16C3 20 6 22 12 22C13.5155 22 14.8377 21.8711 15.971 21.6133C16.7044 22.4627 17.7892 23 19 23C21.21 23 23 21.21 23 19C23 17.5131 22.1898 16.2164 20.9865 15.5269C20.8139 12.4556 18.9889 8.45315 15.52 6.79ZM18.9323 15.0006C18.4965 11.3568 15.7253 8 12 8C8 8 5 12 5 16C5 18.68 6.97 20 12 20C13.1922 20 14.2144 19.9232 15.0747 19.7738C15.0257 19.5234 15 19.2647 15 19C15 16.8126 16.7535 15.0367 18.9323 15.0006ZM14.91 4.56C14.6 5.14 13.57 5.92 12.21 5.99L12 6C10.11 6 9.08 5.19 9 4.35V4.31C9.43 4.14 10.22 4.03 11.42 4.01L12 4C13.21 4 14.15 4.15 14.73 4.4L14.87 4.46L14.94 4.5L14.91 4.56ZM19.128 20.638L20.786 18.274L20.788 18.276C21.212 17.672 20.298 17.032 19.876 17.636L18.554 19.518L18.012 19.094C17.426 18.642 16.748 19.52 17.326 19.972L18.33 20.758C18.582 20.954 18.944 20.9 19.128 20.638Z" fill="#2C2044"/>
</svg>
