<svg width="24" height="24" viewBox="0 0 24 24" fill="none" xmlns="http://www.w3.org/2000/svg">
<path d="M12.5 18.3983C12.5 18.7921 12.34 19 11.99 19H11.93C11.57 19 11.41 18.8249 11.41 18.5077V18.0044C10.66 17.884 10.11 17.5558 9.77 17.2932C9.49 17.0853 9.47 16.7681 9.67 16.4617L9.97 15.9803C10.18 15.6521 10.43 15.6302 10.74 15.8381C11.06 16.0569 11.52 16.2867 12 16.2867C12.36 16.2867 12.75 16.1335 12.75 15.663C12.75 15.3314 12.2835 15.1144 11.7039 14.8449C10.7538 14.403 9.5 13.8199 9.5 12.3589C9.5 11.1335 10.3 10.2582 11.41 10.0284V9.60175C11.41 9.20788 11.57 9 11.93 9H11.99C12.34 9 12.5 9.17505 12.5 9.49234V9.99562C13.15 10.0722 13.63 10.3129 13.93 10.5208C14.22 10.7068 14.25 11.0131 14.1 11.3414L13.86 11.8556C13.69 12.2166 13.44 12.2604 13.11 12.0635C12.83 11.8884 12.43 11.7243 12.01 11.7243C11.65 11.7243 11.25 11.8993 11.25 12.337C11.25 12.693 11.7262 12.9031 12.314 13.1624C13.2619 13.5806 14.5 14.1269 14.5 15.6193C14.5 16.779 13.78 17.7856 12.5 18.0044V18.3983Z" fill="#2C2044"/>
<path fill-rule="evenodd" clip-rule="evenodd" d="M17 4.25C17 4.91756 16.508 5.96675 15.5239 6.78579C19.1746 8.54283 21 12.8799 21 16C21 20 18 22 12 22C6 22 3 20 3 16C3 12.9214 4.77709 8.65806 8.33127 6.85731C7.44376 6.13323 7 5.16403 7 4.25C7 2.58598 8.47077 2.06276 11.4123 2.00546L12 2C15.3333 2 17 3.02137 17 4.25ZM9.00493 4.35406C9.08372 5.18624 10.1065 6 12 6L12.2074 5.99446C13.5733 5.92139 14.602 5.14038 14.907 4.56399L14.939 4.497L14.8689 4.45974L14.7306 4.39725C14.1479 4.15447 13.2146 4 12 4L11.4161 4.00596C10.2151 4.03163 9.4282 4.13947 9.002 4.313L9.00493 4.35406ZM5 16C5 12 8 8 12 8C16 8 19 12 19 16C19 18.684 17.0259 20 12 20C6.97407 20 5 18.684 5 16Z" fill="#2C2044"/>
</svg>
