<svg width="24" height="24" viewBox="0 0 24 24" fill="none" xmlns="http://www.w3.org/2000/svg">
<path d="M15.1965 3.00979C14.942 3.00979 14.6973 3.11746 14.5309 3.31321C14.3645 3.50897 14.2862 3.76346 14.3253 4.01794L14.7658 7.00326C14.8343 7.48287 15.2846 7.81566 15.7642 7.74715C16.2438 7.67863 16.5766 7.22838 16.5081 6.74878L16.4102 6.06362C18.2014 7.31648 19.5717 9.10767 20.296 11.1925C20.4526 11.6525 20.9616 11.8972 21.4216 11.7308C21.8816 11.5742 22.1263 11.0653 21.9599 10.6052C21.1377 8.24633 19.6206 6.22023 17.6337 4.76183H18.172C18.6614 4.76183 19.0529 4.37031 19.0529 3.88091C19.0529 3.39152 18.6614 3 18.172 3H15.1965V3.00979Z" fill="#2C2044"/>
<path d="M7.81638 17.9462C6.02519 16.6933 4.65488 14.9021 3.93057 12.8173C3.77396 12.3475 3.26499 12.1028 2.80496 12.2692C2.34492 12.4258 2.10023 12.9347 2.26662 13.3948C3.08881 15.7537 4.60594 17.7798 6.59289 19.2382H6.04476C5.55537 19.2382 5.16385 19.6297 5.16385 20.1191C5.16385 20.6085 5.55537 21 6.04476 21H9.03008C9.28457 21 9.52926 20.8923 9.69566 20.6966C9.86205 20.5008 9.94036 20.2463 9.90121 19.9918L9.46075 16.9967C9.39223 16.5171 8.94199 16.1843 8.46238 16.2529C7.98277 16.3214 7.64998 16.7716 7.7185 17.2512L7.81638 17.9462Z" fill="#2C2044"/>
<path d="M15.5293 14.2659C15.8816 14.6183 15.8816 15.186 15.5293 15.5285C15.1769 15.8809 14.6092 15.8809 14.2666 15.5285C13.9143 15.1762 13.9143 14.6085 14.2666 14.2659C14.619 13.9135 15.1867 13.9135 15.5293 14.2659Z" fill="#2C2044"/>
<path fill-rule="evenodd" clip-rule="evenodd" d="M5.54558 7.79608C4.24378 9.09788 4.24378 11.2023 5.54558 12.5041L11.5945 18.553C12.8963 19.8548 15.0007 19.8548 16.3025 18.553L18.5439 16.3116C19.8457 15.0098 19.8457 12.9054 18.5439 11.6036L12.495 5.55465C11.1932 4.25285 9.08881 4.25285 7.78701 5.55465L5.54558 7.79608ZM6.56352 9.33279C6.19158 9.93964 6.26988 10.7325 6.79843 11.2512L12.8474 17.3002C13.4542 17.907 14.4526 17.907 15.0594 17.3002L17.3009 15.0587C17.9077 14.4519 17.9077 13.4535 17.3009 12.8467L11.2519 6.79772C10.7332 6.27896 9.93057 6.20065 9.33351 6.56281C9.83269 7.08157 9.8229 7.91354 9.31393 8.42251L8.42323 9.31321C7.91426 9.82219 7.08228 9.83197 6.56352 9.33279Z" fill="#2C2044"/>
</svg>
