<svg width="24" height="24" viewBox="0 0 24 24" fill="none" xmlns="http://www.w3.org/2000/svg">
<path d="M14.9999 19C14.9999 20.6568 13.6568 22 11.9999 22C10.3431 22 8.99994 20.6569 8.99994 19H14.9999Z" fill="#2C2044"/>
<path fill-rule="evenodd" clip-rule="evenodd" d="M12.3603 2.00879C16.0588 2.19638 18.9999 5.25489 18.9999 9V11.5449L19.0078 11.7373C19.0879 12.6325 19.7579 12.5789 20.666 13.8174C21.6042 15.0971 20.7478 16.8837 19.204 16.9941L19.0527 17H4.94721L4.79584 16.9941C3.30165 16.8873 2.4514 15.2104 3.24896 13.9424L3.33393 13.8174C4.24195 12.579 4.91196 12.6325 4.99213 11.7373L4.99994 11.5449V9C4.99994 5.13401 8.13395 2.00001 11.9999 2L12.3603 2.00879ZM11.9999 4C9.32466 4.00001 7.14047 6.10112 7.00678 8.74316L6.99994 9V11.5449C6.99994 12.0359 6.92132 12.5593 6.66596 13.0713C6.41815 13.5681 6.08034 13.8943 5.86713 14.0859C5.49908 14.4166 5.31892 14.5293 5.06244 14.8486L4.94721 15H19.0527C18.7281 14.5574 18.5535 14.464 18.1328 14.0859C17.9195 13.8944 17.5818 13.5681 17.3339 13.0713C17.0785 12.5593 16.9999 12.0359 16.9999 11.5449V9C16.9999 6.32475 14.8988 4.14058 12.2568 4.00684L11.9999 4Z" fill="#2C2044"/>
</svg>
