<svg width="24" height="24" viewBox="0 0 24 24" fill="none" xmlns="http://www.w3.org/2000/svg">
<path fill-rule="evenodd" clip-rule="evenodd" d="M12 8C14.4853 8 16.5 10.0147 16.5 12.5C16.5 14.9853 14.4853 17 12 17C9.51472 17 7.5 14.9853 7.5 12.5C7.5 10.0147 9.51472 8 12 8ZM12 10C10.6193 10 9.5 11.1193 9.5 12.5C9.5 13.8807 10.6193 15 12 15C13.3807 15 14.5 13.8807 14.5 12.5C14.5 11.1193 13.3807 10 12 10Z" fill="#2C2044"/>
<path fill-rule="evenodd" clip-rule="evenodd" d="M14.1459 4C15.2822 4 16.321 4.64201 16.8292 5.65836L17 6H19C20.6569 6 22 7.34315 22 9V17C22 18.6569 20.6569 20 19 20H5C3.34315 20 2 18.6569 2 17V9C2 7.34315 3.34315 6 5 6H7L7.17082 5.65836C7.679 4.64201 8.71779 4 9.8541 4H14.1459ZM14.1459 6H9.8541C9.51742 6 9.20642 6.16909 9.02249 6.4446L8.95967 6.55279L8.23607 8H5C4.48716 8 4.06449 8.38604 4.00673 8.88338L4 9V17C4 17.5128 4.38604 17.9355 4.88338 17.9933L5 18H19C19.5128 18 19.9355 17.614 19.9933 17.1166L20 17V9C20 8.48716 19.614 8.06449 19.1166 8.00673L19 8H15.7639L15.0403 6.55279C14.8898 6.25165 14.5994 6.0491 14.2708 6.0078L14.1459 6Z" fill="#2C2044"/>
</svg>
