<svg width="24" height="24" viewBox="0 0 24 24" fill="none" xmlns="http://www.w3.org/2000/svg">
<path d="M12.1963 4.26562C12.6405 4.35644 12.9754 4.74967 12.9756 5.2207C12.9756 5.69192 12.6407 6.08492 12.1963 6.17578L12 6.19629H6.33008L5.82617 6.2041C4.90703 6.28371 4.16577 6.97166 4.00684 7.86523L3.9834 8.04688C3.9768 8.12341 3.97559 8.22485 3.97559 8.55078V16.3613L6.49902 13.8389L6.6875 13.6689C7.65956 12.8767 9.09406 12.933 10 13.8389L10.501 14.3398L12.499 12.3428L12.6875 12.1729C13.6596 11.3806 15.0941 11.437 16 12.3428L20.0205 16.3633L20.0244 16.1416V10.4707C20.0247 9.93245 20.4617 9.49515 21 9.49512C21.5383 9.49512 21.9753 9.93243 21.9756 10.4707V16.1416C21.9756 16.2843 21.9763 16.407 21.9746 16.5166L21.96 16.8135C21.8037 18.6175 20.453 20.0716 18.6992 20.3838L18.3428 20.4307C18.1612 20.4464 17.9564 20.4463 17.6709 20.4463H6.33008C6.1875 20.4463 6.06459 20.447 5.95508 20.4453L5.65723 20.4307C3.7328 20.264 2.20769 18.7379 2.04102 16.8135C2.02533 16.632 2.02441 16.4271 2.02441 16.1416V8.55078C2.02441 8.26504 2.0253 8.05956 2.04102 7.87793L2.08789 7.52246C2.39991 5.76849 3.85306 4.41801 5.65723 4.26172L5.95508 4.24707C6.06459 4.24534 6.1875 4.24512 6.33008 4.24512H12L12.1963 4.26562ZM8.62012 15.2188C8.41512 15.0139 8.0839 15.0139 7.87891 15.2188L4.91699 18.1797C5.184 18.3492 5.49314 18.4594 5.82617 18.4883L6.33008 18.4951H11.8965L9.85059 16.4492C9.8369 16.437 9.82271 16.4252 9.80957 16.4121C9.7959 16.3984 9.7832 16.3834 9.77051 16.3691L8.62012 15.2188ZM14.6201 13.7227C14.4152 13.5178 14.0839 13.5179 13.8789 13.7227L11.8809 15.7197L14.6562 18.4951H17.6709C17.9965 18.4951 18.0983 18.4949 18.1748 18.4883L18.3564 18.4648C18.619 18.4181 18.8623 18.3187 19.0791 18.1816L14.6201 13.7227ZM8 7.47168C9.10444 7.4717 9.99983 8.36727 10 9.47168C10 10.5762 9.10455 11.4717 8 11.4717C6.89543 11.4717 6 10.5762 6 9.47168C6.00017 8.36726 6.89554 7.47168 8 7.47168ZM20.292 3.29199C20.6808 2.90421 21.3137 2.90289 21.7051 3.28809C22.066 3.6436 22.096 4.20457 21.793 4.59375L21.71 4.6875L17.6797 8.70801C17.3162 9.07065 16.7402 9.09502 16.3477 8.78418L16.2539 8.69922L14.2822 6.68652C13.8981 6.2943 13.907 5.6678 14.3027 5.28711C14.6682 4.93567 15.2358 4.91696 15.623 5.22461L15.7158 5.30859L16.9785 6.59668L20.292 3.29199Z" fill="#2C2044"/>
</svg>
