<svg width="24" height="24" viewBox="0 0 24 24" fill="none" xmlns="http://www.w3.org/2000/svg">
<path fill-rule="evenodd" clip-rule="evenodd" d="M15.7471 6.55968V4.89729C16.294 4.88825 16.7354 4.46362 16.7354 3.94864C16.7354 3.42463 16.2844 3 15.7279 3H8.2721C7.71556 3 7.26456 3.42463 7.26456 3.94864C7.26456 4.46362 7.70596 4.87922 8.25291 4.89729V6.55064C6.38177 7.10176 5 8.72801 5 10.6614V17.6814C5 20.0575 7.06306 22 9.5867 22H14.4133C16.9369 22 18.9904 20.0575 19 17.6814V10.6614C19 8.72801 17.6182 7.10176 15.7471 6.55968ZM13.7224 4.90632V6.35188H10.2776V4.90632H13.7224ZM9.5867 8.24917H14.4133C15.6223 8.24917 16.6299 9.04422 16.8986 10.1013H7.10144C7.37012 9.04422 8.37766 8.24917 9.5867 8.24917ZM16.9753 12.0076V16.8141H7.02467V12.0076H16.9753ZM16.7162 18.7204C16.3036 19.5245 15.4304 20.0937 14.4133 20.0937H9.5867C8.56957 20.0937 7.69637 19.5245 7.28376 18.7204H16.7162Z" fill="#2C2044"/>
</svg>
