<svg width="24" height="24" viewBox="0 0 24 24" fill="none" xmlns="http://www.w3.org/2000/svg">
<path d="M15.2996 7.59996C15.4106 7.45193 15.6661 7.25285 15.9919 7.16699C16.286 7.08948 16.6103 7.10901 16.9449 7.3321C17.4044 7.63845 18.0253 7.51428 18.3316 7.05475C18.638 6.59522 18.5138 5.97435 18.0543 5.668C17.1889 5.09108 16.2631 5.02723 15.4823 5.23301C14.7331 5.43044 14.0886 5.88131 13.6996 6.39996C13.3682 6.84178 13.4578 7.46859 13.8996 7.79996C14.3414 8.13133 14.9682 8.04178 15.2996 7.59996Z" fill="#2C2044"/>
<path fill-rule="evenodd" clip-rule="evenodd" d="M20.288 3.7116C18.1205 1.54404 14.6062 1.54405 12.4386 3.71161L3.71161 12.4386C1.54405 14.6062 1.54405 18.1205 3.71161 20.288C5.87917 22.4556 9.39348 22.4556 11.561 20.288L20.288 11.561C22.4556 9.39347 22.4556 5.87916 20.288 3.7116ZM10.1468 18.8738L13.803 15.2176L8.78203 10.1966L5.12582 13.8528C3.73931 15.2393 3.73931 17.4873 5.12582 18.8738C6.51233 20.2603 8.76031 20.2603 10.1468 18.8738ZM18.8738 10.1468L15.2172 13.8034L10.1962 8.78239L13.8528 5.12582C15.2393 3.73931 17.4873 3.73931 18.8738 5.12582C20.2603 6.51233 20.2603 8.76031 18.8738 10.1468Z" fill="#2C2044"/>
</svg>
