<svg width="24" height="24" viewBox="0 0 24 24" fill="none" xmlns="http://www.w3.org/2000/svg">
<path d="M19.4366 4.04956C19.4366 4.62682 18.9724 5.09913 18.4027 5.09913C17.8329 5.09913 17.3687 4.62682 17.3687 4.04956C17.3687 3.4723 17.8329 3 18.4027 3C18.9724 3 19.4366 3.4723 19.4366 4.04956Z" fill="#2C2044"/>
<path d="M4.58075 8.38437C4.5913 8.91965 5.25602 9.19253 5.6464 8.81469L7.83046 6.70507H7.84101L8.06258 9.78029C8.10479 10.3156 8.7695 10.557 9.13878 10.1581L11.3756 7.79662H11.3861L12.0403 10.8613C12.1564 11.3861 12.8527 11.5331 13.1693 11.0817L15.0473 8.44735H15.0684L16.0497 11.3336C16.2291 11.8479 16.936 11.9109 17.1892 11.4386L18.7718 8.5523C19.3627 8.51032 19.7109 8.44735 19.7636 8.43685C20.2173 8.35288 20.5233 7.91207 20.4389 7.46076C20.3545 7.00944 19.9114 6.70507 19.4577 6.78904C19.4155 6.79953 13.1693 7.85959 4.23257 3.30449C3.81053 3.09458 3.30408 3.25201 3.09306 3.67183C2.88204 4.08116 3.04031 4.59545 3.46235 4.80536C3.81053 4.97329 4.15871 5.14122 4.49634 5.30915L4.58075 8.38437Z" fill="#2C2044"/>
<path d="M20.7767 11.6484C20.4601 11.302 19.9326 11.281 19.5844 11.5854C19.5422 11.6274 14.7837 15.7836 4.77081 16.5708C4.30656 16.6023 3.95838 17.0116 3.99003 17.4734C4.02169 17.9142 4.39097 18.2501 4.83411 18.2501H4.89742C5.26747 18.221 5.61056 18.183 5.95987 18.1443L6.04748 18.1346L7.74619 20.7166C8.04162 21.1679 8.74853 21.0524 8.87515 20.5277L9.62427 17.5889H9.63482L11.4496 20.0868C11.7661 20.5277 12.4625 20.3807 12.568 19.8454L13.2222 16.6653H13.2327L15.4062 18.9323C15.786 19.3207 16.4508 19.0898 16.4824 18.544L16.6934 15.3218C16.704 15.3218 16.7145 15.3113 16.7145 15.3113L19.0674 17.253C19.4894 17.5994 20.1225 17.2845 20.0909 16.7387L19.922 13.4536C20.2452 13.225 20.4706 13.0402 20.5982 12.9355C20.6581 12.8864 20.6965 12.8549 20.7134 12.8449C21.0615 12.5195 21.0932 11.9947 20.7767 11.6484Z" fill="#2C2044"/>
<path d="M8.24201 11.533C7.67225 11.533 7.20801 12.0053 7.20801 12.5825C7.20801 13.1598 7.67225 13.6321 8.24201 13.6321C8.81176 13.6321 9.276 13.1598 9.276 12.5825C9.276 12.0053 8.81176 11.533 8.24201 11.533Z" fill="#2C2044"/>
<path d="M19.7426 19.1003C19.7426 19.68 19.2796 20.1499 18.7086 20.1499C18.1375 20.1499 17.6746 19.68 17.6746 19.1003C17.6746 18.5207 18.1375 18.0508 18.7086 18.0508C19.2796 18.0508 19.7426 18.5207 19.7426 19.1003Z" fill="#2C2044"/>
</svg>
