<svg width="24" height="24" viewBox="0 0 24 24" fill="none" xmlns="http://www.w3.org/2000/svg">
<path fill-rule="evenodd" clip-rule="evenodd" d="M9.16964 3.17392C9.8929 2.44965 10.8939 2 12.0003 2C12.8474 2 13.5935 2.39479 14.113 2.92541C14.2615 3.07708 14.3979 3.24637 14.5169 3.42975L14.5358 3.42014C14.9465 3.21244 15.4932 3 16.0003 3C17.8425 3 19.3923 4.24453 19.8576 5.93856C20.1887 6.29622 20.4417 6.79169 20.5282 7.33577C20.5702 7.59978 20.5731 7.87474 20.5295 8.15151C20.812 8.32822 21 8.64216 21 9C21 9.55228 20.5523 10 20 10H19.6944C19.6942 10.0932 19.6875 10.1876 19.6739 10.2828L18.2453 20.2828C18.1046 21.2681 17.2607 22 16.2654 22H7.7346C6.7393 22 5.89545 21.2681 5.7547 20.2828L4.32613 10.2828C4.31252 10.1876 4.30583 10.0932 4.30565 10H4C3.44772 10 3 9.55228 3 9C3 8.69008 3.14098 8.4131 3.36231 8.22967C3.32921 7.93243 3.34019 7.62678 3.3887 7.33565C3.47573 6.81331 3.70003 6.23997 4.13237 5.78216C4.39558 5.50344 4.72107 5.2845 5.10017 5.15C5.20029 4.74215 5.38316 4.33619 5.68238 3.98087C6.21794 3.34489 7.01773 3 8.00026 3C8.40634 3 8.79919 3.0608 9.16964 3.17392ZM18.553 7.64987C18.5679 7.74356 18.5679 7.86159 18.5053 8H5.34916C5.33968 7.90879 5.33998 7.79355 5.3615 7.66435C5.39943 7.43669 5.48759 7.26003 5.58645 7.15534C5.66477 7.07241 5.7775 7 6 7C6.55228 7 6.99999 6.55229 7 6.00001C7 5.65906 7.09123 5.4128 7.21221 5.26913C7.30822 5.15511 7.50856 5 8.00026 5C8.35839 5 8.69172 5.09325 8.98046 5.25606C9.44263 5.51666 10.0279 5.37095 10.3139 4.92406C10.6709 4.36621 11.2931 4 12.0003 4C12.2154 4 12.4691 4.10521 12.6839 4.32459C12.9016 4.54686 13 4.80576 13 5C13 5.40446 13.2436 5.7691 13.6173 5.92388C13.991 6.07866 14.4211 5.9931 14.7071 5.70711C14.8634 5.5508 15.1352 5.35823 15.4385 5.20486C15.585 5.13073 15.7208 5.07508 15.8331 5.03969C15.9367 5.00704 15.9901 5.00121 15.9994 5.0002C16.0004 5.0002 16.001 5.00003 15.9994 5.0002C16.9811 5.0002 17.8004 5.7084 17.9685 6.64213C18.0147 6.89857 18.1591 7.12687 18.3711 7.27842C18.3703 7.27775 18.3707 7.27812 18.3711 7.27842C18.3767 7.28344 18.4139 7.31703 18.4569 7.38843C18.5025 7.46408 18.538 7.55515 18.553 7.64987ZM8 10L6.30602 10L7.7346 20H9L8 10ZM10 10L11 20H13L14 10H10ZM16 10L15 20L16.2654 20L17.694 10H16Z" fill="#2C2044"/>
</svg>
