<svg width="24" height="24" viewBox="0 0 24 24" fill="none" xmlns="http://www.w3.org/2000/svg">
<path d="M13.9706 10.2087C13.5466 9.89044 12.9164 9.94197 12.5631 10.3238L9.2336 13.9211L9.15239 14.0215C8.7437 14.6035 9.201 15.3974 10.0013 15.3974L11.8654 15.3964L9.89983 17.5241L9.81366 17.6325C9.56016 18.0072 9.64277 18.5025 10.0284 18.7916C10.4525 19.1097 11.0826 19.0578 11.4358 18.6759L14.7667 15.0733L14.8479 14.9729C15.2561 14.3909 14.7988 13.5974 13.9987 13.5974L12.1359 13.5964L14.0984 11.4762L14.1846 11.3678C14.4383 10.9933 14.356 10.498 13.9706 10.2087Z" fill="#2C2044"/>
<path fill-rule="evenodd" clip-rule="evenodd" d="M7 1C6.44772 1 6 1.44772 6 2V7H4C2.89543 7 2 7.89543 2 9V19C2 21.2091 3.79086 23 6 23H18C20.2091 23 22 21.2091 22 19V9C22 7.89543 21.1046 7 20 7H18V2C18 1.44772 17.5523 1 17 1C16.4477 1 16 1.44772 16 2V7H8V2C8 1.44772 7.55228 1 7 1ZM20 9V19C20 20.1046 19.1046 21 18 21H6C4.89543 21 4 20.1046 4 19V9H20Z" fill="#2C2044"/>
</svg>
