<svg width="24" height="24" viewBox="0 0 24 24" fill="none" xmlns="http://www.w3.org/2000/svg">
<path d="M19.4498 4.45013C19.4666 4.46668 19.4833 4.48329 19.5 4.49996L19.4 4.4C19.4167 4.41667 19.4333 4.43338 19.4498 4.45013Z" fill="#2C2044"/>
<path fill-rule="evenodd" clip-rule="evenodd" d="M21.9597 12.8983C22.5327 12.8665 22.9967 12.38 22.9 11.8C22.6025 9.02333 21.4199 6.44335 19.4498 4.45013C17.4566 2.48005 14.8766 1.2975 12.1 1C11.5 1 11 1.4 11 2V2.04999C5.96488 2.55581 2 6.83737 2 12C2 17.5 6.5 22 12 22C17.1973 22 21.5017 17.9817 21.9597 12.8983ZM19.9493 12.9H12C11.4 12.9 11 12.5 11 11.9V4.06264C7.06741 4.55863 4 7.93849 4 12C4 16.4 7.6 20 12 20C16.0959 20 19.4985 16.8805 19.9493 12.9ZM13.2 10.5C13.5 10.7 14.1 11 14.8 11L14.6 11.1C15.8 11.1 16.4 10.4 16.4 9.5C16.4 8.68051 15.7367 8.35847 15.1651 8.08094C15.1089 8.05367 15.0537 8.02684 15 8C14.9165 7.95826 14.833 7.92087 14.7532 7.88511C14.4505 7.74955 14.2 7.63739 14.2 7.4C14.2 7.2 14.5 7 14.8 7C15.1 7 15.4 7.1 15.6 7.2C15.8 7.3 16 7.4 16.1 7.1L16.3 6.8C16.4 6.6 16.4 6.4 16.2 6.3C16.1562 6.27082 16.1167 6.24164 16.078 6.21308C15.8517 6.0459 15.6541 5.9 14.8 5.9C13.8 5.9 13 6.4 13 7.4C13 8.31798 13.6741 8.64607 14.2489 8.92579C14.3002 8.95078 14.3508 8.97539 14.4 9C14.4835 9.04174 14.567 9.07913 14.6468 9.11489C14.9495 9.25045 15.2 9.36261 15.2 9.6C15.2 9.8 15 10 14.7 10C14.4558 10 14.2117 9.86753 14.0214 9.7643C13.9779 9.74069 13.9372 9.71861 13.9 9.7C13.7 9.5 13.5 9.5 13.4 9.7L13.2 10C12.9 10.2 13.1 10.4 13.2 10.5ZM17.9 10.6L19.3 6.3C19.4 6.1 19.3 5.9 19 5.9H18.8C18.6 5.9 18.4 6 18.4 6.2L17 10.5C16.9 10.7 17 10.9 17.3 10.9H17.5C17.7 10.9 17.9 10.8 17.9 10.6Z" fill="#2C2044"/>
</svg>
