<svg width="24" height="24" viewBox="0 0 24 24" fill="none" xmlns="http://www.w3.org/2000/svg">
<path d="M16.6985 17.3066H16.9977C17.2235 17.3066 17.4079 17.1222 17.4079 16.8964C17.4079 16.6144 17.1781 16.3846 16.8961 16.3846H15.9287V17.3066H16.6904L16.6985 17.3066Z" fill="#2C2044"/>
<path d="M15.9301 18.0548V19.4391H16.6904C17.1099 19.4391 17.4506 19.1291 17.4506 18.747C17.4506 18.3666 17.1131 18.0578 16.6963 18.0548H15.9301Z" fill="#2C2044"/>
<path fill-rule="evenodd" clip-rule="evenodd" d="M17 5H18C19.7 5 21 6.3 21 8V13.9996C22.2144 14.9118 23 16.3642 23 18C23 20.7614 20.7614 23 18 23C16.3642 23 14.9118 22.2144 13.9996 21H6C4.3 21 3 19.7 3 18V8C3 6.3 4.3 5 6 5H7V4C7 3.5 7.5 3 8 3C8.5 3 9 3.5 9 4V5H15V4C15 3.5 15.5 3 16 3C16.5 3 17 3.5 17 4V5ZM13.1 19C13.0344 18.6769 13 18.3425 13 18C13 15.2386 15.2386 13 18 13C18.3425 13 18.6769 13.0344 19 13.1V12H5V18C5 18.5 5.4 19 5.9 19H13.1ZM5 10H19V8C19 7.5 18.6 7 18.1 7H6C5.5 7 5 7.4 5 8V10ZM15.1818 16.0105V19.8132C15.1818 20.0203 15.3488 20.1874 15.5559 20.1874H16.6904C17.5215 20.1874 18.1989 19.5407 18.1989 18.747C18.1989 18.3614 18.039 18.0105 17.7794 17.7516C18.0117 17.5396 18.1575 17.2347 18.1575 16.8964C18.1575 16.2016 17.5923 15.6364 16.8975 15.6364H15.5559C15.3488 15.6364 15.1818 15.8034 15.1818 16.0105ZM20.8636 19.3708C20.8636 19.9079 20.4581 20.3688 19.7326 20.3688C19.282 20.3688 18.8809 20.1854 18.7097 20.0511C18.6151 19.975 18.5475 19.8766 18.6646 19.711L18.8043 19.5096C18.8944 19.3798 18.9981 19.3708 19.1468 19.4514C19.1624 19.4595 19.1802 19.4696 19.2001 19.4809C19.3131 19.5449 19.4955 19.6483 19.7326 19.6483C19.9669 19.6483 20.0751 19.5499 20.0751 19.4246C20.0751 19.243 19.8452 19.1459 19.5703 19.0297C19.1608 18.8567 18.6511 18.6414 18.6511 18.0417C18.6511 17.4509 19.1468 17.0616 19.8002 17.0616C20.1742 17.0616 20.5167 17.1914 20.6699 17.2988C20.8005 17.3928 20.8141 17.5046 20.7465 17.6344L20.6383 17.8448C20.5482 18.0193 20.4265 17.9925 20.3004 17.9298L20.2824 17.9211C20.1396 17.8522 19.9944 17.7821 19.7912 17.7821C19.5433 17.7821 19.4397 17.8806 19.4397 18.0059C19.4397 18.194 19.6723 18.2878 19.9495 18.3996C20.3581 18.5644 20.8636 18.7682 20.8636 19.3708Z" fill="#2C2044"/>
</svg>
