<svg width="24" height="24" viewBox="0 0 24 24" fill="none" xmlns="http://www.w3.org/2000/svg">
<path fill-rule="evenodd" clip-rule="evenodd" d="M15 2C16.6569 2 18 3.34315 18 5V6H19C20.6569 6 22 7.34315 22 9V14C22 15.6569 20.6569 17 19 17H18V19C18 20.6569 16.6569 22 15 22H9C7.34315 22 6 20.6569 6 19V17H5C3.34315 17 2 15.6569 2 14V9C2 7.34315 3.34315 6 5 6H6V5C6 3.34315 7.34315 2 9 2H15ZM16 14H8V19C8 19.5128 8.38604 19.9355 8.88338 19.9933L9 20H15C15.5128 20 15.9355 19.614 15.9933 19.1166L16 19V14ZM19 8H5C4.48716 8 4.06449 8.38604 4.00673 8.88338L4 9V14C4 14.5128 4.38604 14.9355 4.88338 14.9933L5 15H6V12H18V15H19C19.5128 15 19.9355 14.614 19.9933 14.1166L20 14V9C20 8.48716 19.614 8.06449 19.1166 8.00673L19 8ZM18 9C18.5523 9 19 9.44772 19 10C19 10.5523 18.5523 11 18 11C17.4477 11 17 10.5523 17 10C17 9.44772 17.4477 9 18 9ZM15 4H9C8.48716 4 8.06449 4.38604 8.00673 4.88338L8 5V6H16V5C16 4.48716 15.614 4.06449 15.1166 4.00673L15 4Z" fill="#2C2044"/>
</svg>
