<svg width="24" height="24" viewBox="0 0 24 24" fill="none" xmlns="http://www.w3.org/2000/svg">
<path fill-rule="evenodd" clip-rule="evenodd" d="M9.05412 10.8423C9.32759 10.6804 9.60967 10.5376 9.89859 10.4169C10.3331 10.2352 10.7831 10.1036 11.2426 10.0318C11.5048 9.99089 11.7701 9.96949 12.0373 9.96949C12.3031 9.96949 12.567 9.99067 12.8279 10.0312C13.2874 10.1026 13.7374 10.2339 14.172 10.4152C14.4623 10.5362 14.7457 10.6796 15.0204 10.8423C15.4654 11.1057 15.8876 11.4198 16.2794 11.7717C17.2386 12.6335 18.0153 13.7223 18.4971 14.8512C18.6481 15.2049 18.7701 15.5625 18.8597 15.9183C19.2347 17.4074 19.0422 18.865 18.0289 19.8695C16.3286 21.5552 14.8162 20.8907 13.5478 20.3335C12.9967 20.0914 12.4916 19.8695 12.0373 19.8695C11.5829 19.8695 11.0831 20.0966 10.5377 20.3444C9.28255 20.9147 7.7859 21.5948 6.0456 19.8695C5.03233 18.865 4.83985 17.4074 5.21488 15.9183C5.30448 15.5625 5.42646 15.2049 5.57738 14.8513C6.05902 13.7227 6.83537 12.6343 7.7942 11.7727C8.18622 11.4204 8.60875 11.106 9.05412 10.8423ZM15.877 18.9296C15.9913 18.9064 16.2391 18.8276 16.6208 18.4492C17.1074 17.9668 17.362 16.6835 16.248 14.8402C15.1948 13.0974 13.5017 11.9695 12.0373 11.9695C10.5729 11.9695 8.87976 13.0974 7.82655 14.8402C6.71254 16.6836 6.96716 17.9669 7.45367 18.4492C7.85674 18.8488 8.11514 18.9315 8.22873 18.955C8.35418 18.9809 8.52575 18.9794 8.82314 18.8872C9.08633 18.8057 9.31498 18.7021 9.64064 18.5545C9.75094 18.5045 9.87238 18.4495 10.0101 18.3886C10.4233 18.2057 11.1878 17.8695 12.0373 17.8695C12.873 17.8695 13.6328 18.1923 14.0501 18.3708C14.1872 18.4295 14.3088 18.4828 14.4197 18.5314C14.7506 18.6764 14.9869 18.7799 15.2567 18.861C15.5655 18.9538 15.7465 18.9561 15.877 18.9296Z" fill="#2C2044"/>
<path fill-rule="evenodd" clip-rule="evenodd" d="M8.91687 9.93445C9.19209 9.95071 9.47095 9.92417 9.74677 9.85027C10.1419 9.74438 10.4939 9.55115 10.7924 9.29206C11.1844 8.95176 11.4842 8.49785 11.6683 7.97898C11.9118 7.29304 11.9532 6.4936 11.7387 5.69307C11.7231 5.63498 11.7064 5.57757 11.6885 5.52087C11.5069 4.94396 11.2088 4.44009 10.8357 4.03758C10.0668 3.208 8.97908 2.80903 7.93504 3.08878C6.61822 3.44162 5.78112 4.76422 5.8045 6.26194C5.80954 6.58448 5.85448 6.91514 5.94313 7.24598C6.20221 8.2129 6.78382 8.99177 7.50669 9.45851C7.8359 9.67106 8.1944 9.81888 8.56508 9.89024C8.68132 9.91261 8.79876 9.92747 8.91687 9.93445ZM9.72684 7.44682C9.87308 7.14161 9.93824 6.70115 9.80683 6.21071C9.67541 5.72026 9.39875 5.37139 9.1195 5.18019C8.84481 4.99212 8.61378 4.97747 8.45267 5.02064C8.29157 5.0638 8.09881 5.19201 7.95497 5.49223C7.80873 5.79744 7.74356 6.2379 7.87498 6.72834C8.00639 7.21879 8.28305 7.56766 8.56231 7.75885C8.83699 7.94693 9.06802 7.96158 9.22913 7.91841C9.39024 7.87524 9.58299 7.74704 9.72684 7.44682Z" fill="#2C2044"/>
<path fill-rule="evenodd" clip-rule="evenodd" d="M6.83545 9.96291C6.34967 8.69559 5.21418 7.89123 4.08371 8.0116C3.97584 8.02308 3.86801 8.04298 3.7608 8.07171C2.42714 8.42907 1.69362 10.0161 2.12244 11.6165C2.39613 12.6379 3.07712 13.4179 3.88073 13.7557C4.33627 13.9472 4.83122 13.9966 5.31372 13.8673C6.31426 13.5992 6.97703 12.6389 7.06461 11.5002C7.09378 11.1211 7.05918 10.7222 6.95207 10.3224C6.91898 10.199 6.87994 10.079 6.83545 9.96291ZM4.97835 11.7219C5.06856 11.5267 5.11985 11.2119 5.02022 10.8401C4.92059 10.4683 4.71875 10.2212 4.54305 10.0973C4.3736 9.97782 4.28673 10.0013 4.27866 10.0035C4.27058 10.0056 4.18315 10.0288 4.09616 10.2171C4.00596 10.4122 3.95467 10.7271 4.0543 11.0989C4.15392 11.4707 4.35577 11.7177 4.53147 11.8417C4.70092 11.9612 4.78779 11.9377 4.79586 11.9355C4.80394 11.9333 4.89136 11.9101 4.97835 11.7219Z" fill="#2C2044"/>
<path fill-rule="evenodd" clip-rule="evenodd" d="M13.2344 4.0376C12.8613 4.44008 12.5632 4.94393 12.3816 5.5208C12.3637 5.57755 12.347 5.635 12.3314 5.69313C12.1169 6.49354 12.1583 7.29287 12.4016 7.97874C12.5858 8.49772 12.8855 8.95173 13.2776 9.29208C13.5761 9.55119 13.9281 9.74443 14.3233 9.85032C14.6006 9.92463 14.881 9.95105 15.1577 9.93423C15.2752 9.92709 15.3921 9.91216 15.5077 9.88977C15.8783 9.81805 16.2367 9.66989 16.5658 9.45703C17.2875 8.99013 17.8681 8.2119 18.1269 7.24604C18.2154 6.91576 18.2604 6.58566 18.2655 6.26364C18.2896 4.76525 17.4523 3.44181 16.135 3.08884C15.091 2.8091 14.0033 3.20805 13.2344 4.0376ZM15.5078 7.75891C15.787 7.56771 16.0637 7.21885 16.1951 6.7284C16.3265 6.23795 16.2613 5.7975 16.1151 5.49229C15.9713 5.19207 15.7785 5.06386 15.6174 5.02069C15.4563 4.97753 15.2253 4.99218 14.9506 5.18025C14.6713 5.37145 14.3947 5.72032 14.2632 6.21076C14.1318 6.70121 14.197 7.14167 14.3432 7.44688C14.4871 7.7471 14.6798 7.8753 14.8409 7.91847C15.002 7.96164 15.2331 7.94699 15.5078 7.75891Z" fill="#2C2044"/>
<path fill-rule="evenodd" clip-rule="evenodd" d="M17.2391 9.96287C17.1946 10.079 17.1555 10.1989 17.1224 10.3224C17.0155 10.7215 16.9809 11.1197 17.0098 11.4983C17.0967 12.6378 17.7597 13.599 18.7608 13.8673C19.2433 13.9966 19.7383 13.9472 20.1938 13.7557C20.9974 13.4179 21.6784 12.6379 21.9521 11.6165C22.3809 10.0161 21.6474 8.42907 20.3137 8.07171C20.2051 8.0426 20.0958 8.02256 19.9865 8.01114C18.8575 7.89326 17.7243 8.69717 17.2391 9.96287ZM19.543 11.8417C19.7188 11.7177 19.9206 11.4707 20.0202 11.0989C20.1199 10.7271 20.0686 10.4122 19.9784 10.2171C19.8914 10.0288 19.8044 10.0058 19.7963 10.0036C19.7882 10.0014 19.7009 9.97782 19.5315 10.0973C19.3558 10.2212 19.1539 10.4683 19.0543 10.8401C18.9547 11.2119 19.006 11.5267 19.0962 11.7219C19.1832 11.9101 19.2701 11.9332 19.2782 11.9354C19.2863 11.9375 19.3736 11.9612 19.543 11.8417Z" fill="#2C2044"/>
</svg>
