<svg width="24" height="24" viewBox="0 0 24 24" fill="none" xmlns="http://www.w3.org/2000/svg">
<path fill-rule="evenodd" clip-rule="evenodd" d="M17 5H18C19.7 5 21 6.3 21 8V13.9927C22.2163 14.9025 23 16.3553 23 18C23 20.7727 20.7727 23 18 23C16.3553 23 14.9025 22.2163 13.9927 21H6C4.3 21 3 19.7 3 18V8C3 6.3 4.3 5 6 5H7V4C7 3.5 7.5 3 8 3C8.5 3 9 3.5 9 4V5H15V4C15 3.5 15.5 3 16 3C16.5 3 17 3.5 17 4V5ZM13.0989 19C13.034 18.6771 13 18.3427 13 18C13 15.2273 15.2273 13 18 13C18.3427 13 18.6771 13.034 19 13.0989V12H5V18C5 18.5 5.4 19 5.9 19H13.0989ZM5 10H19V8C19 7.5 18.6 7 18.1 7H6C5.5 7 5 7.4 5 8V10ZM18.3636 21.1818V20.8636C19.2727 20.7273 19.8182 20.2273 19.8182 19.1364C19.8182 18.0601 18.9334 17.6475 18.2549 17.3311L18.2273 17.3182C18.1619 17.2891 18.0977 17.2624 18.036 17.2367C17.7113 17.1015 17.4545 16.9946 17.4545 16.7273C17.4545 16.4091 17.6818 16.2727 18 16.2727C18.3182 16.2727 18.5909 16.3636 18.8182 16.5C19.0455 16.6818 19.2273 16.6364 19.3636 16.3636L19.5455 16C19.6364 15.7727 19.6364 15.5455 19.4091 15.4091C19.1818 15.2727 18.8182 15.0909 18.3636 15.0455V14.6818C18.3636 14.4545 18.2727 14.3182 18 14.3182C17.7727 14.3182 17.6364 14.5 17.6364 14.7727V15.0909C16.8182 15.2727 16.2273 15.7727 16.2273 16.8182C16.2273 17.8636 17.1364 18.3182 17.8182 18.6364C17.9025 18.6738 17.9849 18.7055 18.0625 18.7354C18.3617 18.8504 18.5909 18.9386 18.5909 19.2273C18.5909 19.5909 18.3636 19.6818 18.0455 19.6818C17.7273 19.6818 17.3636 19.5455 17.1364 19.3636C16.9091 19.1818 16.7273 19.2273 16.5909 19.4545L16.3636 19.8182C16.2273 20.0455 16.2273 20.2727 16.4545 20.4091C16.6818 20.5909 17.0909 20.8182 17.6364 20.9091V21.2727C17.6364 21.5 17.7273 21.6364 18 21.6364C18.2273 21.6364 18.3636 21.4545 18.3636 21.1818Z" fill="#2C2044"/>
</svg>
