<svg width="24" height="24" viewBox="0 0 24 24" fill="none" xmlns="http://www.w3.org/2000/svg">
<path fill-rule="evenodd" clip-rule="evenodd" d="M15 7C15 4.23858 12.7614 2 10 2L9.78311 2.00462C7.12231 2.11818 5 4.31125 5 7V9C5 11.7614 7.23858 14 10 14L10.2169 13.9954C10.8543 13.9682 11.4608 13.8216 12.0146 13.5775C12.1567 11.5348 13.3213 9.77377 15 8.80269V7ZM10 4C8.40232 4 7.09634 5.24892 7.00509 6.82373L7 7V9C7 10.6569 8.34315 12 10 12C11.5977 12 12.9037 10.7511 12.9949 9.17627L13 9V7C13 5.34315 11.6569 4 10 4Z" fill="#2C2044"/>
<path d="M6.69182 15H12.083C12.2034 15.7179 12.4513 16.3926 12.8027 17H6.69182C5.74906 17 4.92182 17.4723 4.54056 18.1624L4.47035 18.3033L4.022 19.306C4.03392 19.3023 4.04277 19.3024 4.05474 19.304L4.10103 19.3132C6.0708 19.7714 8.03618 20 9.99997 20C11.8054 20 13.6121 19.8068 15.4223 19.4196C16.1668 19.7743 16.9958 19.9802 17.8709 19.9986C17.6685 20.5139 17.2371 20.9514 16.6395 21.1746C16.5459 21.2095 16.4499 21.2385 16.352 21.2612C14.4699 21.699 12.5878 21.9422 10.7058 21.9909L9.99997 22C7.88262 22 5.76527 21.7537 3.64792 21.2612C2.47782 20.989 1.77043 19.9006 2.06793 18.8301C2.09282 18.7405 2.12446 18.6527 2.16263 18.5671L2.64387 17.4884C3.31525 15.9836 4.91521 15 6.69182 15Z" fill="#2C2044"/>
<path d="M15 13C14.4477 13 14 13.4477 14 14C14 14.5523 14.4477 15 15 15H21C21.5523 15 22 14.5523 22 14C22 13.4477 21.5523 13 21 13H15Z" fill="#2C2044"/>
</svg>
