<svg width="24" height="24" viewBox="0 0 24 24" fill="none" xmlns="http://www.w3.org/2000/svg">
<path fill-rule="evenodd" clip-rule="evenodd" d="M17 5H18C19.7 5 21 6.3 21 8V13.9759C22.2209 14.88 23 16.3338 23 18C23 20.8 20.8 23 18 23C16.3338 23 14.88 22.2209 13.9759 21H6C4.3 21 3 19.7 3 18V8C3 6.3 4.3 5 6 5H7V4C7 3.5 7.5 3 8 3C8.5 3 9 3.5 9 4V5H15V4C15 3.5 15.5 3 16 3C16.5 3 17 3.5 17 4V5ZM13.0963 19C13.0331 18.6777 13 18.3433 13 18C13 15.2 15.2 13 18 13C18.3433 13 18.6777 13.0331 19 13.0963V12H5V18C5 18.5 5.4 19 5.9 19H13.0963ZM5 10H19V8C19 7.5 18.6 7 18.1 7H6C5.5 7 5 7.4 5 8V10ZM16.92 17.4999L16.8895 17.4874C16.4635 17.3133 16.12 17.1729 16.12 16.8799C16.12 16.6799 16.28 16.5299 16.67 16.5299C16.9568 16.5299 17.1984 16.6005 17.47 16.7499C17.67 16.8599 17.86 16.8999 18 16.6299L18.17 16.2999C18.28 16.0999 18.26 15.9199 18.05 15.7699C17.81 15.5999 17.27 15.3999 16.68 15.3999C15.66 15.3999 14.88 16.0099 14.88 16.9399C14.88 17.8699 15.68 18.2199 16.33 18.4899C16.76 18.6699 17.12 18.8299 17.12 19.1099C17.12 19.3099 16.95 19.4599 16.58 19.4599C16.21 19.4599 15.92 19.2999 15.74 19.1999C15.7282 19.192 15.7163 19.1857 15.7051 19.1797C15.6879 19.1705 15.6721 19.162 15.66 19.1499C15.43 19.0199 15.26 19.0399 15.12 19.2399L14.9 19.5599C14.72 19.8199 14.82 19.9799 14.97 20.0999C15.24 20.3099 15.87 20.5999 16.58 20.5999C17.72 20.5999 18.36 19.8699 18.36 19.0299C18.36 18.0848 17.5683 17.7632 16.93 17.504L16.92 17.4999ZM20.77 15.5199H20.58C20.37 15.5199 20.25 15.6099 20.18 15.7999L18.79 20.0899C18.71 20.3299 18.83 20.4799 19.08 20.4799H19.27C19.48 20.4799 19.6 20.3899 19.67 20.1999L21.06 15.9199C21.14 15.6799 21.02 15.5299 20.77 15.5299V15.5199Z" fill="#2C2044"/>
</svg>
