<svg width="24" height="24" viewBox="0 0 24 24" fill="none" xmlns="http://www.w3.org/2000/svg">
<path fill-rule="evenodd" clip-rule="evenodd" d="M15 7C15 4.23858 12.7614 2 10 2L9.78311 2.00462C7.12231 2.11818 5 4.31125 5 7V9C5 11.7614 7.23858 14 10 14L10.2169 13.9954C10.8543 13.9682 11.4608 13.8216 12.0146 13.5775C12.1567 11.5348 13.3213 9.77377 15 8.80269V7ZM10 4C8.40232 4 7.09634 5.24892 7.00509 6.82373L7 7V9C7 10.6569 8.34315 12 10 12C11.5977 12 12.9037 10.7511 12.9949 9.17627L13 9V7C13 5.34315 11.6569 4 10 4Z" fill="#2C2044"/>
<path d="M6.69182 15H12.083C12.2034 15.7179 12.4513 16.3926 12.8027 17H6.69228C5.74952 17 4.92228 17.4723 4.54102 18.1624L4.47081 18.3033L4.02246 19.306C4.03439 19.3023 4.04323 19.3024 4.0552 19.304L4.1015 19.3132C6.07126 19.7714 8.03664 20 10.0004 20C11.8057 20 13.6123 19.8068 15.4225 19.4197C16.1669 19.7744 16.9958 19.9802 17.8709 19.9986C17.6685 20.5139 17.2371 20.9514 16.6395 21.1746C16.5459 21.2095 16.4499 21.2385 16.352 21.2612C14.4699 21.699 12.5878 21.9422 10.7058 21.9909L9.99997 22C7.88262 22 5.76527 21.7537 3.64792 21.2612C2.47782 20.989 1.77043 19.9006 2.06793 18.8301C2.09282 18.7405 2.12446 18.6527 2.16263 18.5671L2.64387 17.4884C3.31525 15.9836 4.91521 15 6.69182 15Z" fill="#2C2044"/>
<path d="M19.5014 11.0939C19.894 10.783 20.4658 10.8089 20.8284 11.1716L20.9061 11.2588L20.9719 11.3524C21.211 11.738 21.1632 12.2511 20.8284 12.5858L19.4149 13.9993L20.8284 15.4142C21.219 15.8047 21.219 16.4379 20.8284 16.8284C20.4379 17.219 19.8047 17.219 19.4142 16.8284L18.0007 15.4135L16.5858 16.8284L16.4986 16.9061C16.106 17.217 15.5342 17.1911 15.1716 16.8284L15.0939 16.7412C14.783 16.3487 14.8089 15.7768 15.1716 15.4142L16.5865 13.9993L15.1716 12.5858C14.781 12.1953 14.781 11.5621 15.1716 11.1716C15.5621 10.781 16.1953 10.781 16.5858 11.1716L18.0007 12.5851L19.4142 11.1716L19.5014 11.0939Z" fill="#2C2044"/>
</svg>
