<svg width="24" height="24" viewBox="0 0 24 24" fill="none" xmlns="http://www.w3.org/2000/svg">
<path d="M6.4 6C6.17909 6 6 6.17909 6 6.4V7.6C6 7.82091 6.17909 8 6.4 8H7.6C7.82091 8 8 7.82091 8 7.6V6.4C8 6.17909 7.82091 6 7.6 6H6.4Z" fill="#2C2044"/>
<path fill-rule="evenodd" clip-rule="evenodd" d="M3 3.4C3 3.17909 3.17909 3 3.4 3H10.6C10.8209 3 11 3.17909 11 3.4V10.6C11 10.8209 10.8209 11 10.6 11H3.4C3.17909 11 3 10.8209 3 10.6V3.4ZM4.5 9.5V4.5H9.5V9.5H4.5Z" fill="#2C2044"/>
<path d="M6 16.4C6 16.1791 6.17909 16 6.4 16H7.6C7.82091 16 8 16.1791 8 16.4V17.6C8 17.8209 7.82091 18 7.6 18H6.4C6.17909 18 6 17.8209 6 17.6V16.4Z" fill="#2C2044"/>
<path fill-rule="evenodd" clip-rule="evenodd" d="M3 13.4C3 13.1791 3.17909 13 3.4 13H10.6C10.8209 13 11 13.1791 11 13.4V20.6C11 20.8209 10.8209 21 10.6 21H3.4C3.17909 21 3 20.8209 3 20.6V13.4ZM4.5 19.5V14.5H9.5V19.5H4.5Z" fill="#2C2044"/>
<path d="M16.4 6C16.1791 6 16 6.17909 16 6.4V7.6C16 7.82091 16.1791 8 16.4 8H17.6C17.8209 8 18 7.82091 18 7.6V6.4C18 6.17909 17.8209 6 17.6 6H16.4Z" fill="#2C2044"/>
<path fill-rule="evenodd" clip-rule="evenodd" d="M13.4 3C13.1791 3 13 3.17909 13 3.4V10.6C13 10.8209 13.1791 11 13.4 11H20.6C20.8209 11 21 10.8209 21 10.6V3.4C21 3.17909 20.8209 3 20.6 3H13.4ZM14.5 4.5V9.5H19.5V4.5H14.5Z" fill="#2C2044"/>
<path d="M13.4 13C13.1791 13 13 13.1791 13 13.4V14.6C13 14.8209 13.1791 15 13.4 15H14.6C14.8209 15 15 14.8209 15 14.6V13.4C15 13.1791 14.8209 13 14.6 13H13.4Z" fill="#2C2044"/>
<path d="M13 17.4C13 17.1791 13.1791 17 13.4 17H14.6C14.8209 17 15 17.1791 15 17.4V18.6C15 18.8209 14.8209 19 14.6 19H13.4C13.1791 19 13 18.8209 13 18.6V17.4Z" fill="#2C2044"/>
<path d="M17.4 13C17.1791 13 17 13.1791 17 13.4V14.6C17 14.8209 17.1791 15 17.4 15H18.6C18.8209 15 19 14.8209 19 14.6V13.4C19 13.1791 18.8209 13 18.6 13H17.4Z" fill="#2C2044"/>
<path d="M17 19.4C17 19.1791 17.1791 19 17.4 19H18.6C18.8209 19 19 19.1791 19 19.4V20.6C19 20.8209 18.8209 21 18.6 21H17.4C17.1791 21 17 20.8209 17 20.6V19.4Z" fill="#2C2044"/>
<path d="M19.4 15C19.1791 15 19 15.1791 19 15.4V16.6C19 16.8209 19.1791 17 19.4 17H20.6C20.8209 17 21 16.8209 21 16.6V15.4C21 15.1791 20.8209 15 20.6 15H19.4Z" fill="#2C2044"/>
<path d="M15 15.4C15 15.1791 15.1791 15 15.4 15H16.6C16.8209 15 17 15.1791 17 15.4V16.6C17 16.8209 16.8209 17 16.6 17H15.4C15.1791 17 15 16.8209 15 16.6V15.4Z" fill="#2C2044"/>
</svg>
