<svg width="24" height="24" viewBox="0 0 24 24" fill="none" xmlns="http://www.w3.org/2000/svg">
<path d="M7 12C7 12.5523 7.44772 13 8 13H16C16.5523 13 17 12.5523 17 12C17 11.4477 16.5523 11 16 11H8C7.44772 11 7 11.4477 7 12Z" fill="#2C2044"/>
<path fill-rule="evenodd" clip-rule="evenodd" d="M2 11.9999C2 6.47788 6.478 1.99988 12 1.99988C17.522 1.99988 22 6.47788 22 11.9999C22 17.5229 17.522 21.9999 12 21.9999C6.478 21.9999 2 17.5229 2 11.9999ZM4 11.9999C4 7.58228 7.5824 3.99988 12 3.99988C16.4176 3.99988 20 7.58228 20 11.9999C20 16.4183 16.4176 19.9999 12 19.9999C7.5824 19.9999 4 16.4183 4 11.9999Z" fill="#2C2044"/>
</svg>
