<svg width="24" height="24" viewBox="0 0 24 24" fill="none" xmlns="http://www.w3.org/2000/svg">
<path d="M12.0703 2.40039C17.1786 2.40056 21.29 6.60278 21.29 11.75C21.29 16.0958 18.3635 19.7625 14.3789 20.8047C13.7912 20.9584 13.1899 20.6062 13.0361 20.0186C12.8824 19.4308 13.2345 18.8295 13.8223 18.6758C16.8416 17.886 19.0898 15.0921 19.0898 11.75C19.0898 7.78473 15.9308 4.59978 12.0703 4.59961C8.20968 4.59961 5.0498 7.78463 5.0498 11.75C5.0498 14.4385 6.506 16.7732 8.64941 17.9941L8.65039 15L8.65625 14.8975C8.70746 14.3932 9.13262 14 9.65039 14C10.1682 14 10.5933 14.3932 10.6445 14.8975L10.6504 14.999L10.6514 20.5C10.6511 21.0521 10.2025 21.5 9.65039 21.5L4.65039 21.499C4.09834 21.4989 3.65065 21.052 3.65039 20.5C3.65039 19.9478 4.09818 19.5001 4.65039 19.5L6.91211 19.498C4.45912 17.8157 2.85059 14.9714 2.85059 11.75C2.85059 6.60267 6.96184 2.40039 12.0703 2.40039Z" fill="#2C2044"/>
</svg>
