<svg width="24" height="24" viewBox="0 0 24 24" fill="none" xmlns="http://www.w3.org/2000/svg">
<path d="M8 19C8.55227 19 8.99997 19.4478 9 20C9 20.5523 8.55228 21 8 21H3C2.44772 21 2 20.5523 2 20C2.00003 19.4478 2.44773 19 3 19H8Z" fill="#2C2044"/>
<path fill-rule="evenodd" clip-rule="evenodd" d="M9.6709 2.15138C9.92566 1.99251 10.2414 1.9554 10.5293 2.05568C10.8583 2.17039 11.1041 2.44851 11.1777 2.78907C11.5277 4.40854 12.0287 5.28399 12.7031 5.8379C13.3156 6.34084 14.1841 6.67446 15.5332 6.9131L16.1416 7.00978L16.2305 7.02638C16.6668 7.12935 16.9862 7.51423 17 7.96974V7.98732C17.0004 7.99873 17.0013 8.016 17.002 8.0381C17.0034 8.0828 17.005 8.1486 17.0078 8.23243C17.0135 8.40057 17.0221 8.64155 17.0332 8.93165C17.0554 9.51273 17.0884 10.29 17.1309 11.0752C17.1735 11.8632 17.2248 12.648 17.2842 13.25C17.3109 13.5204 17.3385 13.739 17.3643 13.8984C17.3925 13.9167 17.424 13.9395 17.4619 13.9629C17.6468 14.0769 17.8874 14.2136 18.1719 14.3721C18.7264 14.681 19.4394 15.0659 20.0742 15.4463C20.3798 15.6294 20.88 15.905 21.2617 16.292C21.7017 16.7381 22 17.3327 22 18.124V20C22 20.5523 21.5523 21 21 21H13.0801C12.7983 21 12.5294 20.8813 12.3398 20.6729L2.96777 10.3643C2.1982 9.51779 2.29369 8.19876 3.17773 7.47267L9.56543 2.22755L9.6709 2.15138ZM7.1543 6.79396L10.7471 10.8359C11.114 11.2487 11.0768 11.8802 10.6641 12.2471C10.2513 12.614 9.61985 12.5769 9.25293 12.1641L5.6084 8.06349L4.44727 9.01857L13.5225 19H20V18.124C20 17.8984 19.9379 17.7977 19.8379 17.6963C19.6797 17.536 19.46 17.4103 19.0459 17.1621C18.4475 16.8035 17.7875 16.4478 17.1992 16.1201C16.9123 15.9603 16.6377 15.8041 16.4121 15.6651C16.216 15.5441 15.9597 15.3794 15.7832 15.1983C15.655 15.0666 15.5883 14.9287 15.5596 14.8652C15.5247 14.7882 15.5003 14.7145 15.4834 14.6572C15.4495 14.5425 15.4238 14.418 15.4033 14.3018C15.3616 14.0648 15.3256 13.7672 15.2939 13.4463C15.2656 13.1593 15.24 12.8381 15.2158 12.5H14C13.4477 12.5 13 12.0523 13 11.5C13 10.9477 13.4477 10.5 14 10.5H15.0996C15.0728 9.94675 15.0501 9.42693 15.0342 9.0088C15.0321 8.95481 15.0302 8.90206 15.0283 8.85157C13.5995 8.58575 12.3912 8.17014 11.4336 7.3838C10.6182 6.71416 10.0561 5.83823 9.65527 4.74025L7.1543 6.79396Z" fill="#2C2044"/>
<path d="M5 16C5.55227 16 5.99997 16.4478 6 17C6 17.5523 5.55228 18 5 18H3C2.44772 18 2 17.5523 2 17C2.00003 16.4478 2.44773 16 3 16H5Z" fill="#2C2044"/>
</svg>
