<svg width="24" height="24" viewBox="0 0 24 24" fill="none" xmlns="http://www.w3.org/2000/svg">
<path d="M16.5008 9.00194C17.3297 9.00194 18.0017 8.32993 18.0017 7.50097C18.0017 6.67201 17.3297 6 16.5008 6C15.6719 6 15 6.67201 15 7.50097C15 8.32993 15.6719 9.00194 16.5008 9.00194Z" fill="#2C2044"/>
<path fill-rule="evenodd" clip-rule="evenodd" d="M18.9983 2H13.8306C13.025 2 12.2531 2.3239 11.6887 2.89885L2.85975 11.8924C1.70605 13.0676 1.71453 14.953 2.87875 16.1178L7.87888 21.1203C9.04325 22.2853 10.9288 22.2943 12.1043 21.1406L21.1008 12.3109C21.676 11.7464 22 10.9743 22 10.1684V5.00194C22 3.34401 20.6561 2 18.9983 2ZM13.8306 4.00129H18.9983C19.5509 4.00129 19.9989 4.4493 19.9989 5.00194V10.1684C19.9989 10.437 19.8909 10.6944 19.6991 10.8825L10.7026 19.7122C10.3108 20.0968 9.68229 20.0938 9.29416 19.7055L4.29404 14.7029C3.90596 14.3147 3.90314 13.6862 4.2877 13.2945L13.1167 4.30091C13.3048 4.10926 13.5621 4.00129 13.8306 4.00129Z" fill="#2C2044"/>
</svg>
