<svg width="24" height="24" viewBox="0 0 24 24" fill="none" xmlns="http://www.w3.org/2000/svg">
<path fill-rule="evenodd" clip-rule="evenodd" d="M10 4C10 2.89543 10.8954 2 12 2H13C14.1046 2 15 2.89543 15 4C15 4.55228 14.5523 5 14 5C13.4477 5 13 4.55228 13 4H12V8C12 10.2091 13.7909 12 16 12C18.2091 12 20 10.2091 20 8V4H19C19 4.55228 18.5523 5 18 5C17.4477 5 17 4.55228 17 4C17 2.89543 17.8954 2 19 2H20C21.1046 2 22 2.89543 22 4V8C22 10.973 19.8377 13.441 17 13.917V18C17 20.2091 15.2091 22 13 22H8C5.79086 22 4 20.2091 4 18V14.8293C2.83481 14.4175 2 13.3062 2 12C2 10.3431 3.34315 9 5 9C6.65685 9 8 10.3431 8 12C8 13.3062 7.16519 14.4175 6 14.8293V18C6 19.1046 6.89543 20 8 20H13C14.1046 20 15 19.1046 15 18V13.917C12.1623 13.441 10 10.973 10 8V4ZM5 13C5.55228 13 6 12.5523 6 12C6 11.4477 5.55228 11 5 11C4.44772 11 4 11.4477 4 12C4 12.5523 4.44772 13 5 13Z" fill="#2C2044"/>
</svg>
