<svg width="24" height="24" viewBox="0 0 24 24" fill="none" xmlns="http://www.w3.org/2000/svg">
<path fill-rule="evenodd" clip-rule="evenodd" d="M7.19995 14.9193V8.89275C7.19995 8.56453 7.49391 8.29984 7.85842 8.29984H10.2195C11.4424 8.29984 12.4371 9.19557 12.4371 10.2967C12.4371 10.8329 12.1805 11.3161 11.7716 11.6521C12.2287 12.0624 12.51 12.6185 12.51 13.2295C12.51 14.4873 11.3177 15.5122 9.855 15.5122H7.85842C7.49391 15.5122 7.19995 15.2475 7.19995 14.9193ZM9.86932 10.9468H10.3959C10.7933 10.9468 11.1178 10.6546 11.1178 10.2967C11.1178 9.8499 10.7134 9.48567 10.2172 9.48567H8.51454V10.9468H9.855L9.86932 10.9468ZM8.51689 12.1326V14.3264H9.855C10.5934 14.3264 11.1931 13.8351 11.1931 13.2295C11.1931 12.6267 10.5991 12.1372 9.86544 12.1326H8.51689Z" fill="#2C2044"/>
<path d="M15.2093 15.7998C16.4862 15.7998 17.2 15.0693 17.2 14.2182C17.2 13.2632 16.3103 12.9401 15.5911 12.679C15.1032 12.5018 14.6938 12.3532 14.6938 12.055C14.6938 11.8564 14.8762 11.7004 15.3124 11.7004C15.6701 11.7004 15.9256 11.8115 16.1769 11.9207L16.2086 11.9345C16.4307 12.0338 16.6448 12.0763 16.8034 11.7997L16.9938 11.4664C17.1127 11.2607 17.0889 11.0834 16.8589 10.9344C16.5893 10.7642 15.9865 10.5585 15.3283 10.5585C14.1783 10.5585 13.3059 11.1756 13.3059 12.1118C13.3059 13.0622 14.2029 13.4035 14.9236 13.6776C15.4076 13.8617 15.8121 14.0156 15.8121 14.3033C15.8121 14.5019 15.6217 14.658 15.2093 14.658C14.7921 14.658 14.4719 14.4945 14.273 14.393C14.2376 14.3749 14.2059 14.3588 14.1783 14.3459C13.9166 14.2182 13.7342 14.2324 13.5756 14.4381L13.3297 14.7572C13.1235 15.0197 13.2425 15.1757 13.409 15.2963C13.7104 15.509 14.4162 15.7998 15.2093 15.7998Z" fill="#2C2044"/>
<path fill-rule="evenodd" clip-rule="evenodd" d="M11.2598 2.03391C11.1769 2.01168 11.0899 1.99983 11 1.99983H5C4.44772 1.99983 4 2.44754 4 2.99983C4 3.55211 4.44772 3.99983 5 3.99983L6.06254 3.99945C5.29508 4.57238 4.61792 5.24867 4.04734 6.00276L4 5.99983H2C1.44772 5.99983 1 6.44755 1 6.99983C1 7.55211 1.44772 7.99983 2 7.99983L2.8681 7.9998C2.31537 9.2412 2.01 10.5998 2.00024 12L1 11.9998C0.447715 11.9998 0 12.4475 0 12.9998C0 13.5521 0.447715 13.9998 1 13.9998L2.189 13.9995L2.23353 14.2161C2.55264 15.6722 3.1754 16.9813 4.0208 18.0923C4.17261 18.2918 4.33638 18.4803 4.50004 18.6687C4.53879 18.7133 4.57755 18.7579 4.61613 18.8027C4.93313 19.1703 4.97026 20.1274 4.72752 21.674L4.68177 21.9531L4.6746 22.043C4.67711 22.2801 4.84861 22.4887 5.09058 22.53C5.18796 22.5466 5.28808 22.534 5.37831 22.4938L5.87626 22.2746L6.54503 21.9915L6.93877 21.8331L7.29084 21.6992L7.60122 21.5895L7.86993 21.5042C8.20041 21.4067 8.41975 21.3742 8.52795 21.4065L9.21201 21.6228L9.55874 21.7192C11.0132 22.0753 12.5729 22.1076 14.1382 21.7528C19.5319 20.5297 22.9475 15.1725 21.7666 9.78725C20.6877 4.86822 16.1476 1.62697 11.2598 2.03391ZM4.18716 13.7879C3.2417 9.47677 5.98017 5.18111 10.3039 4.20078C14.6163 3.22293 18.87 5.91588 19.813 10.2157C20.7582 14.5259 18.0192 18.822 13.6959 19.8023C12.4673 20.0808 11.2223 20.0674 10.0344 19.7766L9.83187 19.7208L9.20024 19.5205L8.98916 19.4595C8.43081 19.3187 7.86616 19.3756 7.01385 19.6605L6.891 19.7018L6.88164 19.514C6.82586 18.6866 6.59791 18.0383 6.13073 17.4966L5.76855 17.0759L5.61241 16.8812L5.41198 16.6056C4.82904 15.7662 4.4123 14.8152 4.18716 13.7879Z" fill="#2C2044"/>
<path d="M3 2.99983C3 2.44754 2.55228 1.99983 2 1.99983H1C0.447715 1.99983 0 2.44754 0 2.99983C0 3.55211 0.447715 3.99983 1 3.99983H2C2.55228 3.99983 3 3.55211 3 2.99983Z" fill="#2C2044"/>
</svg>
