<svg width="24" height="24" viewBox="0 0 24 24" fill="none" xmlns="http://www.w3.org/2000/svg">
<path fill-rule="evenodd" clip-rule="evenodd" d="M11 1.99983C11.0899 1.99983 11.1769 2.01168 11.2598 2.03391C16.1476 1.62697 20.6877 4.86822 21.7666 9.78725C22.9475 15.1725 19.5319 20.5297 14.1382 21.7528C12.5729 22.1076 11.0132 22.0753 9.55874 21.7192L9.21201 21.6228L8.52795 21.4065C8.41975 21.3742 8.20041 21.4067 7.86993 21.5042L7.60122 21.5895L7.29084 21.6992L6.93877 21.8331L6.54503 21.9915L5.87626 22.2746L5.37831 22.4938C5.28808 22.534 5.18796 22.5466 5.09058 22.53C4.84861 22.4887 4.67711 22.2801 4.6746 22.043L4.68177 21.9531L4.72752 21.674C4.97026 20.1274 4.93313 19.1703 4.61613 18.8027C4.41462 18.569 4.20856 18.3391 4.0208 18.0923C3.1754 16.9813 2.55264 15.6722 2.23353 14.2161L2.189 13.9995L1 13.9998C0.447715 13.9998 0 13.5521 0 12.9998C0 12.4475 0.447715 11.9998 1 11.9998L2.00024 12C2.01 10.5998 2.31537 9.2412 2.8681 7.9998L2 7.99983C1.44772 7.99983 1 7.55211 1 6.99983C1 6.44755 1.44772 5.99983 2 5.99983H4L4.04734 6.00276C4.61792 5.24867 5.29508 4.57238 6.06254 3.99945L5 3.99983C4.44772 3.99983 4 3.55211 4 2.99983C4 2.44754 4.44772 1.99983 5 1.99983H11ZM10.3039 4.20078C5.98017 5.18111 3.2417 9.47677 4.18716 13.7879C4.4123 14.8152 4.82904 15.7662 5.41198 16.6056L5.61241 16.8812L5.76855 17.0759L6.13073 17.4966C6.59791 18.0383 6.82586 18.6866 6.88164 19.514L6.891 19.7018L7.01385 19.6605C7.86616 19.3756 8.43081 19.3187 8.98916 19.4595L9.20024 19.5205L9.83187 19.7208L10.0344 19.7766C11.2223 20.0674 12.4673 20.0808 13.6959 19.8023C18.0192 18.822 20.7582 14.5259 19.813 10.2157C18.87 5.91588 14.6163 3.22293 10.3039 4.20078ZM16.9516 8.21025C17.3565 8.21025 17.5572 8.42133 17.4858 8.77093L17.4595 8.86965L15.0195 16.0288C14.9214 16.3079 14.736 16.463 14.4401 16.494L14.324 16.4998H13.9927C13.5879 16.4998 13.3872 16.2888 13.4586 15.9472L13.4849 15.8509L15.9249 8.68125C16.023 8.40214 16.2084 8.24708 16.5042 8.21607L16.6204 8.21025H16.9516ZM9.80143 7.49983C10.8324 7.49983 11.7763 7.8413 12.1986 8.1239C12.5261 8.3487 12.5867 8.61242 12.455 8.91506L12.4098 9.00703L12.1117 9.56045C11.8824 9.98435 11.579 9.95676 11.2601 9.82034L10.87 9.64398C10.5544 9.5082 10.2144 9.3956 9.77659 9.3956C9.09345 9.3956 8.80777 9.65465 8.80777 9.98435C8.80777 10.3554 9.16819 10.587 9.67059 10.8037L9.98732 10.9329L10.6811 11.2043L10.8255 11.2647L11.1128 11.3941C11.9675 11.8019 12.7327 12.4007 12.7327 13.5757C12.7327 14.9887 11.6149 16.2015 9.61512 16.2015C8.37304 16.2015 7.2676 15.7188 6.79561 15.3655C6.55484 15.1807 6.37757 14.9458 6.60572 14.5681L6.6714 14.4706L7.05645 13.9407C7.30486 13.5993 7.59054 13.5757 8.00042 13.7877L8.29387 13.9434C8.60668 14.1065 9.05506 14.3058 9.61512 14.3058C10.261 14.3058 10.5591 14.0467 10.5591 13.717C10.5591 13.3566 10.1987 13.1227 9.69628 12.8984L9.37955 12.764L8.86349 12.5544L8.50744 12.4012L8.20922 12.2589C7.37279 11.8352 6.63414 11.2228 6.63414 10.0785C6.63414 8.52425 8.00042 7.49983 9.80143 7.49983ZM2 1.99983C2.55228 1.99983 3 2.44754 3 2.99983C3 3.55211 2.55228 3.99983 2 3.99983H1C0.447715 3.99983 0 3.55211 0 2.99983C0 2.44754 0.447715 1.99983 1 1.99983H2Z" fill="#2C2044"/>
</svg>
