<svg width="24" height="24" viewBox="0 0 24 24" fill="none" xmlns="http://www.w3.org/2000/svg">
<path fill-rule="evenodd" clip-rule="evenodd" d="M3.29079 7.28691C2.90307 7.67587 2.90307 8.30407 3.29079 8.69303C3.47856 8.88182 3.73416 8.98801 4.00079 8.98801C4.26743 8.98801 4.52303 8.88182 4.71079 8.69303L7.00079 6.39936L7 16.0057C7 16.5564 7.44771 17.0029 8 17.0029C8.55228 17.0029 9 16.5564 9 16.0057L9.00079 6.40933L11.2908 8.703C11.5445 8.95596 11.9142 9.05475 12.2607 8.96216C12.6072 8.86958 12.8778 8.59967 12.9707 8.25412C13.0635 7.90857 12.9645 7.53987 12.7108 7.28691L8.71079 3.29791C8.52303 3.10912 8.26743 3.00293 8.00079 3.00293C7.73416 3.00293 7.47856 3.10912 7.29079 3.29791L3.29079 7.28691Z" fill="#2C2044"/>
<path fill-rule="evenodd" clip-rule="evenodd" d="M11.0342 15.7517C10.9414 16.0973 11.0405 16.466 11.2941 16.719L15.2941 20.7079C15.4819 20.8967 15.7375 21.0029 16.0041 21.0029C16.2708 21.0029 16.5263 20.8967 16.7141 20.7079L20.7141 16.719C21.1018 16.33 21.1018 15.7018 20.7141 15.3128C20.5263 15.124 20.2708 15.0178 20.0041 15.0178C19.7375 15.0178 19.4819 15.124 19.2941 15.3128L17.0041 17.6065L17 8.00018C17 7.44941 16.5523 7.00293 16 7.00293C15.4477 7.00293 15 7.44941 15 8.00018L15.0041 17.5965L12.7141 15.3029C12.4605 15.0499 12.0907 14.9511 11.7442 15.0437C11.3977 15.1363 11.1271 15.4062 11.0342 15.7517Z" fill="#2C2044"/>
</svg>
