<svg width="24" height="24" viewBox="0 0 24 24" fill="none" xmlns="http://www.w3.org/2000/svg">
<path d="M5.3623 4.90101C5.47 4.90619 5.57678 4.92721 5.67871 4.96351C5.81465 5.01203 5.9408 5.0874 6.04785 5.18421C6.15474 5.281 6.24191 5.39866 6.30371 5.52894C6.36541 5.65925 6.40096 5.80096 6.4082 5.94496C6.41538 6.08908 6.39417 6.23384 6.3457 6.36976C6.30932 6.47163 6.25746 6.56729 6.19336 6.65394L6.125 6.73792C4.82177 8.18044 4.09972 10.0556 4.09961 11.9996C4.09961 13.9437 4.82185 15.8188 6.125 17.2614L6.19434 17.3463C6.34426 17.5496 6.41992 17.7998 6.40723 18.0543C6.39442 18.3091 6.29382 18.5505 6.12402 18.7379L6.04688 18.8151C5.83078 19.0105 5.5459 19.1126 5.25488 19.0983C5.00005 19.0856 4.75782 18.9848 4.57031 18.8151L4.49414 18.7379C2.82485 16.8908 1.90039 14.4893 1.90039 11.9996C1.9005 9.51002 2.82479 7.1084 4.49414 5.26136L4.57031 5.18421C4.75778 5.01434 5 4.91376 5.25488 4.90101H5.3623Z" fill="#2C2044"/>
<path d="M18.7451 4.90101C19.0363 4.91554 19.3101 5.04534 19.5059 5.26136L19.8105 5.6139C21.2877 7.40873 22.0995 9.66556 22.0996 11.9996C22.0996 14.3338 21.2876 16.5905 19.8105 18.3854L19.5059 18.7379C19.3101 18.9541 19.0364 19.0837 18.7451 19.0983C18.4538 19.1128 18.1684 19.0108 17.9521 18.8151C17.7361 18.6193 17.6063 18.3455 17.5918 18.0543C17.5774 17.7631 17.6794 17.4775 17.875 17.2614L18.1123 16.986C19.2654 15.5842 19.8994 13.8222 19.8994 11.9996C19.8993 10.1771 19.2654 8.41501 18.1123 7.01331L17.875 6.73792C17.6794 6.52166 17.5773 6.23617 17.5918 5.94496C17.6064 5.6538 17.736 5.37987 17.9521 5.18421C18.1684 4.9886 18.4539 4.88655 18.7451 4.90101Z" fill="#2C2044"/>
<path d="M8.45605 7.34828C8.60193 7.34625 8.74748 7.3729 8.88281 7.42738C9.01803 7.48187 9.14142 7.56319 9.24512 7.66566C9.34872 7.76811 9.43125 7.89055 9.4873 8.02503C9.54333 8.15969 9.57161 8.30497 9.57129 8.45081C9.57091 8.5966 9.54196 8.74128 9.48535 8.87562C9.42884 9.00953 9.3449 9.13024 9.24121 9.23206L9.24219 9.23304C8.51093 9.9679 8.09972 10.963 8.09961 11.9996C8.09961 13.0364 8.51099 14.0313 9.24219 14.7662L9.31445 14.8473C9.47361 15.0438 9.56084 15.2905 9.55957 15.5455C9.55813 15.8008 9.46811 16.047 9.30664 16.2418L9.2334 16.3219C9.02605 16.5269 8.74564 16.6408 8.4541 16.6393C8.19882 16.6378 7.95263 16.5479 7.75781 16.3864L7.67773 16.3131C6.53905 15.1665 5.89941 13.6156 5.89941 11.9996C5.89953 10.3837 6.53897 8.83275 7.67773 7.68617C7.77838 7.58134 7.89898 7.49712 8.03223 7.4391C8.16595 7.38088 8.31022 7.35034 8.45605 7.34828Z" fill="#2C2044"/>
<path d="M15.5488 7.37464C15.8012 7.37404 16.0451 7.4602 16.2402 7.61683L16.3213 7.68812L16.3223 7.6891L16.5293 7.90882C17.5379 9.02983 18.0995 10.4875 18.0996 12.0026C18.0996 13.6186 17.461 15.1694 16.3223 16.316C16.2197 16.4189 16.0971 16.5008 15.9629 16.5563C15.8623 16.5978 15.7563 16.624 15.6484 16.6344L15.54 16.6393C15.3238 16.6386 15.1115 16.5749 14.9316 16.4547C14.752 16.3346 14.6117 16.1638 14.5283 15.9645C14.445 15.7651 14.4222 15.5449 14.4629 15.3327C14.5037 15.1204 14.6065 14.9245 14.7578 14.7702L14.8916 14.6285C15.5392 13.9099 15.9004 12.9745 15.9004 12.0026C15.9003 10.9659 15.4891 9.97081 14.7578 9.23597L14.7568 9.23499C14.5575 9.02649 14.4472 8.74708 14.4512 8.45863C14.4554 8.17036 14.5733 7.89474 14.7783 7.69203C14.9835 7.48934 15.2604 7.37541 15.5488 7.37464Z" fill="#2C2044"/>
<path d="M12 10.4C12.4242 10.4001 12.8308 10.5689 13.1309 10.8688C13.4308 11.1687 13.5995 11.5755 13.5996 11.9996L13.5957 12.1178C13.5754 12.3925 13.4838 12.6581 13.3301 12.8883C13.1543 13.1514 12.9047 13.3571 12.6123 13.4782C12.3199 13.5993 11.9979 13.6307 11.6875 13.569C11.3773 13.5072 11.0918 13.3551 10.8682 13.1315C10.6446 12.9078 10.4924 12.6223 10.4307 12.3121C10.369 12.0019 10.4005 11.6796 10.5215 11.3873C10.6426 11.0951 10.8483 10.8453 11.1113 10.6696C11.3744 10.4939 11.6837 10.4001 12 10.4Z" fill="#2C2044"/>
</svg>
