<svg width="24" height="24" viewBox="0 0 24 24" fill="none" xmlns="http://www.w3.org/2000/svg">
<path d="M16.0002 11C16.0002 13.2091 14.2094 15 12.0002 15C9.79111 15 8.00024 13.2091 8.00024 11C8.00024 10.4477 8.44796 10 9.00024 10C9.55253 10 10.0002 10.4477 10.0002 11C10.0002 12.1046 10.8957 13 12.0002 13C13.1048 13 14.0002 12.1046 14.0002 11C14.0002 10.4477 14.448 10 15.0002 10C15.5525 10 16.0002 10.4477 16.0002 11Z" fill="#2C2044"/>
<path fill-rule="evenodd" clip-rule="evenodd" d="M16.9002 6H17.1818C18.7659 6 20.0771 7.23175 20.1759 8.81284L20.6682 16.6881C20.8481 19.5666 18.562 22 15.6779 22H8.32246C5.43836 22 3.1523 19.5666 3.3322 16.6881L3.82439 8.81287C3.92321 7.23176 5.23436 6 6.81855 6H7.10026C7.56353 3.71776 9.58129 2 12.0002 2C14.4192 2 16.437 3.71776 16.9002 6ZM6.81855 8C6.29049 8 5.85344 8.41059 5.8205 8.93762L5.32831 16.8129C5.22037 18.54 6.592 20 8.32246 20H15.6779C17.4084 20 18.78 18.5399 18.6721 16.8128L18.1798 8.93761C18.1469 8.41058 17.7098 8 17.1818 8H6.81855ZM9.17095 6C9.58279 4.83481 10.694 4 12.0002 4C13.3065 4 14.4177 4.83481 14.8295 6H9.17095Z" fill="#2C2044"/>
</svg>
