<svg width="24" height="24" viewBox="0 0 24 24" fill="none" xmlns="http://www.w3.org/2000/svg">
<path fill-rule="evenodd" clip-rule="evenodd" d="M13 20.94C13 20.41 12.53 20 12 20C11.25 20 10.53 19.9 9.84 19.71C9.56 18.48 9.36 17.25 9.22 16H12C12.55 16 13 15.55 13 15C13 14.45 12.55 14 12 14H9.06C8.99 12.67 9 11.33 9.09 10H14.91C14.95 10.66 14.98 11.32 14.98 11.98C14.98 12.54 15.43 13 15.99 13C16.55 13 16.98 12.57 16.98 12.02C16.98 11.35 16.95 10.67 16.91 10H19.74C19.9 10.64 19.99 11.31 19.99 12C19.99 12.53 20.4 13 20.93 13H21.05C21.56 13 21.99 12.61 21.99 12.11C21.99 12.07 21.99 12.04 21.99 12C22 6.48 17.52 2 12 2C6.48 2 2 6.48 2 12C2 16.3 4.71 19.97 8.52 21.38C8.61 21.43 8.71 21.47 8.82 21.49C9.82 21.82 10.89 22.01 12 22.01C12.04 22.01 12.07 22.01 12.11 22.01C12.62 22.01 13 21.57 13 21.07V20.95V20.94ZM7.21 16C7.3 16.9 7.43 17.79 7.59 18.68C6.56 18 5.69 17.08 5.07 16H7.21ZM7.06 14H4.26C4.1 13.36 4.01 12.69 4.01 12C4.01 11.31 4.1 10.64 4.26 10H7.09C7.01 11.33 7 12.67 7.06 14ZM7.27 8H5.07C5.71 6.89 6.62 5.94 7.7 5.25C7.52 6.16 7.37 7.08 7.27 8ZM12 4C11.3 4 10.61 4.09 9.97 4.26C9.67 5.5 9.44 6.74 9.29 8H14.73C14.57 6.75 14.34 5.5 14.05 4.26C13.4 4.09 12.72 4 12.02 4H12ZM16.73 8C16.62 7.08 16.48 6.16 16.3 5.25C17.38 5.94 18.29 6.88 18.93 8H16.73ZM17.22 17.53V21.26C17.22 21.67 17.58 22 18.02 22C18.46 22 18.82 21.67 18.82 21.26V17.53L20.14 18.74C20.45 19.03 20.96 19.03 21.27 18.74C21.43 18.6 21.5 18.41 21.5 18.22C21.5 18.03 21.42 17.84 21.27 17.7L18.58 15.22C18.27 14.93 17.76 14.93 17.45 15.22L14.73 17.7C14.42 17.99 14.42 18.46 14.73 18.75C15.04 19.04 15.55 19.04 15.86 18.75L17.22 17.54V17.53Z" fill="#2C2044"/>
</svg>
