<svg width="24" height="24" viewBox="0 0 24 24" fill="none" xmlns="http://www.w3.org/2000/svg">
<path fill-rule="evenodd" clip-rule="evenodd" d="M4 18C4 19.1046 4.89543 20 6 20C7.10457 20 8 19.1046 8 18C8 16.8954 7.10457 16 6 16C4.89543 16 4 16.8954 4 18ZM6 22C3.79086 22 2 20.2091 2 18C2 15.7909 3.79086 14 6 14C6.72918 14 7.41279 14.1951 8.00147 14.536L10.6402 11.6746L3.26491 3.67798C2.89048 3.272 2.91605 2.63935 3.32202 2.26492C3.728 1.89049 4.36065 1.91605 4.73508 2.32203L15.9996 14.5354C16.588 14.1949 17.2712 14 18 14C20.2091 14 22 15.7909 22 18C22 20.2091 20.2091 22 18 22C15.7909 22 14 20.2091 14 18C14 17.2455 14.2089 16.5398 14.572 15.9376L12.0006 13.1495L9.42861 15.9386C9.79134 16.5406 10 17.2459 10 18C10 20.2091 8.20914 22 6 22ZM13.789 9.73514C13.383 9.36073 13.3574 8.72808 13.7318 8.32208L19.2649 2.32208C19.6393 1.91608 20.2719 1.89047 20.6779 2.26487C21.0839 2.63928 21.1095 3.27193 20.7351 3.67793L15.2021 9.67793C14.8277 10.0839 14.195 10.1095 13.789 9.73514ZM16 18C16 19.1046 16.8954 20 18 20C19.1046 20 20 19.1046 20 18C20 16.8954 19.1046 16 18 16C16.8954 16 16 16.8954 16 18Z" fill="#2C2044"/>
</svg>
