<svg width="24" height="24" viewBox="0 0 24 24" fill="none" xmlns="http://www.w3.org/2000/svg">
<path d="M18.7071 3.29289C18.3166 2.90237 17.6834 2.90237 17.2929 3.29289C16.9024 3.68342 16.9024 4.31658 17.2929 4.70711L18.5858 6L16.8842 5.99998C16.0666 5.99978 15.5094 5.99964 15.0245 6.09607C13.0411 6.49061 11.4906 8.0411 11.0961 10.0245C10.9996 10.5093 10.9998 11.0666 11 11.8842L11 12C11 12.9772 10.9952 13.3198 10.9424 13.5853C10.7056 14.7753 9.77534 15.7056 8.58527 15.9424C8.31982 15.9952 7.97724 16 7 16H3C2.44772 16 2 16.4477 2 17C2 17.5523 2.44772 18 3 18L7.11576 18C7.93336 18.0002 8.49065 18.0004 8.97545 17.9039C10.9589 17.5094 12.5094 15.9589 12.9039 13.9755C13.0004 13.4906 13.0002 12.9334 13 12.1158L13 12C13 11.0228 13.0048 10.6802 13.0576 10.4147C13.2944 9.22466 14.2247 8.29436 15.4147 8.05764C15.6802 8.00484 16.0228 8 17 8H18.5858L17.2929 9.29289C16.9024 9.68342 16.9024 10.3166 17.2929 10.7071C17.6834 11.0976 18.3166 11.0976 18.7071 10.7071L21.7071 7.70711C22.0976 7.31658 22.0976 6.68342 21.7071 6.29289L18.7071 3.29289Z" fill="#2C2044"/>
<path d="M3 6C2.44772 6 2 6.44772 2 7C2 7.55228 2.44772 8 3 8H9C9.55228 8 10 7.55228 10 7C10 6.44772 9.55228 6 9 6H3Z" fill="#2C2044"/>
<path d="M18.7071 13.2929C18.3166 12.9024 17.6834 12.9024 17.2929 13.2929C16.9024 13.6834 16.9024 14.3166 17.2929 14.7071L18.5858 16H15C14.4477 16 14 16.4477 14 17C14 17.5523 14.4477 18 15 18H18.5858L17.2929 19.2929C16.9024 19.6834 16.9024 20.3166 17.2929 20.7071C17.6834 21.0976 18.3166 21.0976 18.7071 20.7071L21.7071 17.7071C22.0976 17.3166 22.0976 16.6834 21.7071 16.2929L18.7071 13.2929Z" fill="#2C2044"/>
</svg>
