<svg width="24" height="24" viewBox="0 0 24 24" fill="none" xmlns="http://www.w3.org/2000/svg">
<path fill-rule="evenodd" clip-rule="evenodd" d="M15.1797 2C17.5472 2 19.781 7.46076 20.085 10.5C20.2613 12.2638 20.1484 14.2141 19.8779 16H21C21.5523 16 22 16.4477 22 17C22 17.5523 21.5523 18 21 18H19.4951C18.9541 20.3138 18.1892 21.9991 17.5859 22L17.4609 21.9883C16.7736 21.8785 15.1797 21 15.1797 21C15.1545 21.0125 13.173 22 12.585 22C12.0142 21.999 11.2971 20.2545 10.7627 18H3C2.44772 18 2 17.5523 2 17C2 16.4477 2.44772 16 3 16H10.3623C10.0419 14.0646 9.89395 12.0273 10.085 10.5C10.518 7.03751 12.8123 2.00043 15.1797 2ZM15.9502 17C15.9502 17.4693 15.5698 17.8493 15.1006 17.8496C14.6311 17.8496 14.251 17.4694 14.251 17V4.96387C14.0589 5.23123 13.861 5.54757 13.6631 5.91016C12.8553 7.39016 12.2536 9.27474 12.0693 10.748C11.8609 12.4143 12.1366 15.0282 12.6543 17.3066C12.868 18.2471 13.1065 19.0556 13.333 19.6533C13.5834 19.5439 13.8205 19.4351 13.998 19.3506C14.0892 19.3072 14.1635 19.2707 14.2139 19.2461C14.2387 19.2339 14.2581 19.2249 14.2705 19.2188L14.2861 19.2109L14.2871 19.21L15.2266 18.7412L16.1455 19.249H16.1475C16.1496 19.2502 16.1529 19.253 16.1582 19.2559C16.1688 19.2616 16.1859 19.2703 16.208 19.2822C16.2524 19.3062 16.3182 19.3413 16.3994 19.3838C16.539 19.4568 16.7209 19.5467 16.915 19.6406C17.115 19.1385 17.329 18.4661 17.5225 17.6592C18.0245 15.5649 18.3169 12.9208 18.0947 10.6992C17.9708 9.46023 17.4207 7.57457 16.626 6.02051C16.4001 5.57883 16.1708 5.19867 15.9502 4.88574V17Z" fill="#2C2044"/>
<path d="M7 12.5C7.55228 12.5 8 12.9477 8 13.5C8 14.0523 7.55228 14.5 7 14.5H4C3.44772 14.5 3 14.0523 3 13.5C3 12.9477 3.44772 12.5 4 12.5H7Z" fill="#2C2044"/>
<path fill-rule="evenodd" clip-rule="evenodd" d="M5.5 3C7.433 3 9 4.567 9 6.5C9 8.433 7.433 10 5.5 10C3.567 10 2 8.433 2 6.5C2 4.567 3.567 3 5.5 3ZM5.5 5C4.67157 5 4 5.67157 4 6.5C4 7.32843 4.67157 8 5.5 8C6.32843 8 7 7.32843 7 6.5C7 5.67157 6.32843 5 5.5 5Z" fill="#2C2044"/>
</svg>
