<svg width="24" height="24" viewBox="0 0 24 24" fill="none" xmlns="http://www.w3.org/2000/svg">
<path fill-rule="evenodd" clip-rule="evenodd" d="M15 2C17.209 2.00015 19 3.79095 19 6C19 6.34527 18.9563 6.6804 18.874 7H19.25C20.7687 7.00007 22 8.23126 22 9.75C22 11.2687 20.7687 12.4999 19.25 12.5H17C16.4477 12.5 16 12.0523 16 11.5C16 10.9477 16.4477 10.5 17 10.5H19.25C19.6642 10.4999 20 10.1642 20 9.75C20 9.33583 19.6642 9.00007 19.25 9H17.6445C16.9395 9.62197 16.014 9.99993 15 10C13.986 10 13.0605 9.6219 12.3555 9H4.00098C3.58676 9 3.25 9.33579 3.25 9.75C3.25 10.1642 3.58676 10.5 4.00098 10.5H10.5654L4.65039 18.8691C4.41662 19.2108 4.50428 19.6781 4.8457 19.9121C5.18747 20.1456 5.65483 20.0584 5.88867 19.7168L9.49316 14.7236L13.25 15.3301V17.7402C13.2501 18.1542 13.586 18.49 14 18.4902C14.4139 18.4899 14.7499 18.1542 14.75 17.7402V14.6924C14.7499 14.3247 14.4821 14.0111 14.1191 13.9521L11.9521 13.6016C11.2438 13.487 10.8957 12.6743 11.3008 12.082C11.5095 11.7773 11.8721 11.6162 12.2383 11.665L13.8496 11.8799L13.8486 11.8818L14.4385 11.9775C15.7684 12.1929 16.7494 13.3413 16.75 14.6914V15.1211L20.6279 13.5703C21.1405 13.3654 21.7225 13.6155 21.9277 14.1279C22.1327 14.6404 21.8842 15.2223 21.3721 15.4277L16.75 17.2764V17.7402L16.7354 18.0215C16.5944 19.4074 15.424 20.4899 14 20.4902C12.4828 20.4895 11.2504 19.2589 11.25 17.7402V17.0332L10.4268 16.8994L7.53906 20.8457C6.68113 22.0989 4.96956 22.4191 3.7168 21.5625L3.71484 21.5615C2.46396 20.704 2.14251 18.9938 3 17.7402L6.77441 12.5H4.00098C2.48558 12.5 1.25 11.2722 1.25 9.75C1.25 8.22783 2.48558 7 4.00098 7H4.69922C4.90687 5.97467 5.43005 5.17854 6.11719 4.61621C6.98556 3.90583 8.07016 3.59983 9 3.59961C9.49661 3.59973 9.89888 4.00247 9.89941 4.49902C9.89951 4.99581 9.49766 5.39986 9.00098 5.40039C8.43084 5.4005 7.76322 5.59453 7.25684 6.00879C6.96746 6.2456 6.71604 6.56672 6.56152 7H11.002L11.127 7.00586C11.0437 6.68451 11 6.34737 11 6C11 3.79086 12.7909 2 15 2ZM15 4C13.8954 4 13 4.89543 13 6C13 7.10457 13.8954 8 15 8C16.1045 7.99993 17 7.10452 17 6C17 4.89548 16.1045 4.00007 15 4Z" fill="#2C2044"/>
<path d="M4.09766 2.19434C4.54208 1.9724 5.0824 2.15338 5.30469 2.59766C5.5268 3.04218 5.34683 3.58243 4.90234 3.80469C4.55788 3.97693 4.27933 4.24851 4.07812 4.5C3.98024 4.62236 3.90704 4.73177 3.86035 4.80762C3.83726 4.84516 3.82081 4.87476 3.81152 4.8916C3.8073 4.89928 3.8039 4.90401 3.80273 4.90625C3.57929 5.34789 3.04088 5.52611 2.59766 5.30469C2.15337 5.08236 1.97328 4.54209 2.19531 4.09766V4.09473L2.19727 4.09375C2.19727 4.09375 2.20002 4.08917 2.20117 4.08691C2.20344 4.08247 2.20571 4.07655 2.20898 4.07031C2.21569 4.05753 2.22542 4.04028 2.23633 4.02051C2.25822 3.98087 2.28817 3.92759 2.32715 3.86426C2.40546 3.737 2.5209 3.56494 2.67285 3.375C2.97166 3.00158 3.44244 2.52195 4.09766 2.19434Z" fill="#2C2044"/>
</svg>
