<svg width="24" height="24" viewBox="0 0 24 24" fill="none" xmlns="http://www.w3.org/2000/svg">
<path fill-rule="evenodd" clip-rule="evenodd" d="M16.5 2C18.433 2 20 3.567 20 5.5C20 7.433 18.433 9 16.5 9C15.5812 9 14.7455 8.6455 14.1211 8.06641L8.89551 11.1543C8.96277 11.4252 9 11.7083 9 12C9 12.2913 8.96356 12.5741 8.89648 12.8447L14.1221 15.9316C14.7463 15.3534 15.5819 15 16.5 15C18.433 15 20 16.567 20 18.5C20 20.433 18.433 22 16.5 22C14.567 22 13 20.433 13 18.5C13 18.2083 13.0363 17.9252 13.1035 17.6543L7.87793 14.5664C7.25355 15.1452 6.41854 15.5 5.5 15.5C3.567 15.5 2 13.933 2 12C2 10.067 3.567 8.5 5.5 8.5C6.4178 8.5 7.25273 8.85366 7.87695 9.43164L13.1025 6.34375C13.0356 6.07351 13 5.79092 13 5.5C13 3.567 14.567 2 16.5 2ZM16.5 17C15.6716 17 15 17.6716 15 18.5C15 19.3284 15.6716 20 16.5 20C17.3284 20 18 19.3284 18 18.5C18 17.6716 17.3284 17 16.5 17ZM5.5 10.5C4.67157 10.5 4 11.1716 4 12C4 12.8284 4.67157 13.5 5.5 13.5C6.32843 13.5 7 12.8284 7 12C7 11.1716 6.32843 10.5 5.5 10.5ZM16.5 4C15.6716 4 15 4.67157 15 5.5C15 6.32843 15.6716 7 16.5 7C17.3284 7 18 6.32843 18 5.5C18 4.67157 17.3284 4 16.5 4Z" fill="#2C2044"/>
</svg>
