<svg width="24" height="24" viewBox="0 0 24 24" fill="none" xmlns="http://www.w3.org/2000/svg">
<path d="M13 18C13 18.5523 12.5523 19 12 19C11.4477 19 11 18.5523 11 18C11 17.4477 11.4477 17 12 17C12.5523 17 13 17.4477 13 18Z" fill="#2C2044"/>
<path fill-rule="evenodd" clip-rule="evenodd" d="M8 2H16C17.6569 2 19 3.34315 19 5V19C19 20.6569 17.6569 22 16 22H8C6.34315 22 5 20.6569 5 19V5C5 3.34315 6.34315 2 8 2ZM9 4H8C7.44772 4 7 4.44772 7 5V19C7 19.5523 7.44772 20 8 20H16C16.5523 20 17 19.5523 17 19V5C17 4.44772 16.5523 4 16 4H15C15 5.10457 14.1046 6 13 6H11C9.89543 6 9 5.10457 9 4Z" fill="#2C2044"/>
</svg>
