<svg width="24" height="24" viewBox="0 0 24 24" fill="none" xmlns="http://www.w3.org/2000/svg">
<path fill-rule="evenodd" clip-rule="evenodd" d="M7.75063 5.11952C7.84265 5.18237 7.92864 5.25363 8.00675 5.33312L16.0669 13.3937C16.7684 14.0981 16.7668 15.2378 16.0629 15.9397C15.9808 16.0217 15.8909 16.0955 15.7928 16.1575C14.7363 16.8681 13.562 17.2739 12.2698 17.3749L13 19.2H13.9C14.3971 19.2 14.8 19.6029 14.8 20.1C14.8 20.5971 14.3971 21 13.9 21H6.7C6.20294 21 5.8 20.5971 5.8 20.1C5.8 19.6029 6.20294 19.2 6.7 19.2H7.6L8.57404 16.7643C5.89759 15.5878 4.03718 12.9043 4.00057 9.78245C3.98243 8.2362 4.39884 6.83911 5.2498 5.59116C5.80973 4.76974 6.92974 4.55881 7.75063 5.11952ZM6.56497 7.07707C6.53498 7.10689 6.50935 7.1408 6.48785 7.17724C5.99649 8.07223 5.76371 8.98184 5.7895 9.90608C5.7895 13.0574 8.34394 15.6121 11.495 15.6121C12.4488 15.6228 13.3578 15.3908 14.2223 14.9159C14.4391 14.7946 14.5177 14.5207 14.3972 14.3033C14.3763 14.2657 14.3502 14.2312 14.3187 14.2019L7.19878 7.08133C7.02609 6.90256 6.74117 6.9018 6.56497 7.07707Z" fill="#2C2044"/>
<path d="M12.55 3C15.7809 3 18.4 5.61913 18.4 8.85C18.4 9.34706 17.9971 9.75 17.5 9.75C17.0029 9.75 16.6 9.34706 16.6 8.85C16.6 6.61325 14.7868 4.8 12.55 4.8C12.0529 4.8 11.65 4.39706 11.65 3.9C11.65 3.40294 12.0529 3 12.55 3Z" fill="#2C2044"/>
<path d="M12.55 5.7C14.2897 5.7 15.7 7.1103 15.7 8.85C15.7 9.34706 15.2971 9.75 14.8 9.75C14.3384 9.75 13.958 9.40256 13.9061 8.95496L13.9 8.85C13.9 8.14827 13.3646 7.5716 12.68 7.50618L12.55 7.5C12.0529 7.5 11.65 7.09706 11.65 6.6C11.65 6.10294 12.0529 5.7 12.55 5.7Z" fill="#2C2044"/>
</svg>
