<svg width="24" height="24" viewBox="0 0 24 24" fill="none" xmlns="http://www.w3.org/2000/svg">
<path d="M16.0703 12.3506C17.3403 11.8306 18.7302 11.8409 19.9902 12.3809C21.2502 12.9209 22.23 13.9109 22.75 15.1709C23.2699 16.4308 23.2607 17.8309 22.7207 19.0908C22.4407 19.8006 21.9604 20.4303 21.3906 20.9502H22.3008L22.29 20.9707C22.7 20.9707 23.04 21.3107 23.04 21.7207C23.0399 22.1306 22.6999 22.4707 22.29 22.4707H18.9902C18.5804 22.4707 18.2404 22.1306 18.2402 21.7207V18.5205C18.2402 18.1105 18.5803 17.7705 18.9902 17.7705C19.4002 17.7705 19.7402 18.1105 19.7402 18.5205V19.7402C20.2301 19.4003 20.6303 18.9007 20.8604 18.3408C21.2003 17.5509 21.2006 16.7104 20.8906 15.9404C20.5806 15.1704 19.9802 14.5605 19.2002 14.2305C18.4303 13.9005 17.5902 13.89 16.8203 14.21C16.0503 14.52 15.4404 15.1204 15.1104 15.9004C14.6004 17.1004 14.8207 18.3607 15.7207 19.2607C16.1103 19.6508 16.1106 20.281 15.7207 20.6709C15.3308 21.0607 14.7006 21.0605 14.3105 20.6709C12.8405 19.1909 12.4403 17.0604 13.2803 15.1104C13.8203 13.8504 14.8104 12.8706 16.0703 12.3506Z" fill="#2C2044"/>
<path fill-rule="evenodd" clip-rule="evenodd" d="M15 2C15.6 2 16 2.4 16 3V4H17C18.7 4 20 5.3 20 7V11H4V17C4 17.5 4.40039 18 4.90039 18H11.4199C11.5099 18.69 11.7 19.3505 12 19.9805V20H5C3.3 20 2 18.7 2 17V7C2 5.3 3.3 4 5 4H6V3C6 2.4 6.4 2 7 2C7.6 2 8 2.4 8 3V4H14V3C14 2.4 14.4 2 15 2ZM5 6C4.5 6 4 6.4 4 7V9H18V7C18 6.5 17.5996 6 17.0996 6H5Z" fill="#2C2044"/>
</svg>
