<svg width="24" height="24" viewBox="0 0 24 24" fill="none" xmlns="http://www.w3.org/2000/svg">
<path fill-rule="evenodd" clip-rule="evenodd" d="M12 8C9.79086 8 8 9.79086 8 12C8 14.2091 9.79086 16 12 16C14.2091 16 16 14.2091 16 12C16 9.79086 14.2091 8 12 8ZM12 10C13.1046 10 14 10.8954 14 12C14 13.1046 13.1046 14 12 14C10.8954 14 10 13.1046 10 12C10 10.8954 10.8954 10 12 10Z" fill="#2C2044"/>
<path fill-rule="evenodd" clip-rule="evenodd" d="M13.2496 2C14.3285 2 15.2319 2.77859 15.3392 3.80099L15.4433 4.79653C15.9186 5.01586 16.3688 5.27658 16.789 5.57379L17.7863 5.14645C18.7697 4.72379 19.9294 5.07956 20.4689 5.96941L21.7185 8.03059C22.2579 8.92044 22.0016 10.0548 21.1255 10.6545L20.1551 11.3191C20.175 11.5436 20.1851 11.7707 20.1851 12C20.1851 12.2293 20.175 12.4564 20.1551 12.6809L21.1255 13.3455C22.0016 13.9452 22.2579 15.0796 21.7185 15.9694L20.4689 18.0306C19.9294 18.9204 18.7697 19.2762 17.7863 18.8535L16.789 18.4262C16.3688 18.7234 15.9186 18.9841 15.4433 19.2035L15.3392 20.199C15.2373 21.1703 14.4169 21.9215 13.41 21.9942L13.2496 22H10.7504C9.72544 22 8.85888 21.2973 8.68275 20.3505L8.66075 20.199L8.57614 19.3957C7.99702 19.1676 7.45052 18.8795 6.94515 18.5397L6.21372 18.8535C5.28207 19.254 4.19218 18.9557 3.62134 18.1666L3.53113 18.0306L2.28155 15.9694C1.77205 15.129 1.97239 14.0705 2.73423 13.4502L2.87447 13.3455L3.44377 12.956C3.40457 12.6425 3.38441 12.3235 3.38441 12C3.38441 11.6765 3.40457 11.3575 3.44377 11.044L2.87447 10.6545C2.04708 10.0881 1.77248 9.04483 2.19897 8.18103L2.28155 8.03059L3.53113 5.96941C4.0422 5.1264 5.10995 4.76272 6.0571 5.08615L6.21372 5.14645L6.94515 5.46027C7.45052 5.12046 7.99702 4.83244 8.57614 4.60431L8.66075 3.80099C8.76811 2.77859 9.67149 2 10.7504 2H13.2496ZM13.2496 4H10.7504C10.7101 4 10.6833 4.00743 10.6675 4.0118C10.6617 4.0134 10.6574 4.01459 10.6545 4.01485L10.5651 4.8138C10.487 5.55534 10.0029 6.19186 9.30916 6.46514C8.97838 6.59544 8.6603 6.75168 8.35803 6.93187L8.06114 7.11996C7.54465 7.46725 6.89899 7.5526 6.31436 7.35821L6.15657 7.29824L5.49512 7.01289L5.41079 6.97884C5.35146 6.95858 5.28831 6.97232 5.25768 6.99139L5.24138 7.00624L4.021 9.015L4.57304 9.39334C5.14702 9.78601 5.47262 10.4459 5.4418 11.1332L5.42832 11.2922C5.39914 11.5255 5.38441 11.7616 5.38441 12C5.38441 12.2384 5.39914 12.4745 5.42832 12.7078C5.5146 13.3979 5.23617 14.079 4.70104 14.5114L4.57304 14.6067L4.07149 14.9477L4.022 14.983L5.19787 16.9252L5.2418 16.9944C5.2588 17.0179 5.31863 17.0377 5.37973 17.0284L5.42514 17.0156L6.15657 16.7018C6.72853 16.4564 7.37882 16.4923 7.91722 16.7918L8.06114 16.88C8.44966 17.1413 8.86812 17.3611 9.30916 17.5349C9.95336 17.7886 10.4168 18.3556 10.5423 19.029L10.5651 19.1862L10.64 19.9116L10.6489 19.984C10.6488 19.9807 10.6534 19.9822 10.663 19.9854C10.6722 19.9884 10.6859 19.9929 10.7043 19.9961L10.7504 20L13.1777 20.0013L13.266 19.9994L13.3466 19.9846L13.3501 19.9911L13.4541 18.9956C13.5274 18.2941 13.9649 17.683 14.6053 17.3875C14.9674 17.2204 15.3118 17.0214 15.6339 16.7935C16.1544 16.4253 16.816 16.3292 17.415 16.5267L17.5767 16.5879L18.576 17.0161C18.6372 17.0424 18.7066 17.0301 18.7405 17.0099L18.7586 16.9938L19.977 14.983L19.025 14.331C18.4747 13.954 18.1515 13.3301 18.1552 12.6702L18.1629 12.5046C18.1777 12.3376 18.1851 12.1694 18.1851 12C18.1851 11.8306 18.1777 11.6624 18.1629 11.4954C18.1041 10.831 18.3804 10.1849 18.8922 9.7683L19.025 9.66904L19.977 9.016L18.7586 7.00624C18.7451 6.98399 18.6853 6.96202 18.6217 6.9714L18.574 6.98479L17.5767 7.41213C16.9374 7.68606 16.2017 7.6082 15.6339 7.20654C15.3118 6.97864 14.9674 6.7796 14.6053 6.61249C14.0141 6.33969 13.5959 5.79807 13.4774 5.1646L13.4541 5.00443L13.3502 4.00987C13.3509 4.01669 13.3452 4.01515 13.3317 4.0115C13.3232 4.00919 13.3116 4.00605 13.2965 4.00363L13.2496 4Z" fill="#2C2044"/>
</svg>
