<svg width="24" height="24" viewBox="0 0 24 24" fill="none" xmlns="http://www.w3.org/2000/svg">
<path d="M8.5 19C9.32843 19 10 19.6716 10 20.5C10 21.3284 9.32843 22 8.5 22C7.67157 22 7 21.3284 7 20.5C7 19.6716 7.67157 19 8.5 19Z" fill="#2C2044"/>
<path d="M16.5 19C17.3284 19 18 19.6716 18 20.5C18 21.3284 17.3284 22 16.5 22C15.6716 22 15 21.3284 15 20.5C15 19.6716 15.6716 19 16.5 19Z" fill="#2C2044"/>
<path fill-rule="evenodd" clip-rule="evenodd" d="M3 2C4.26595 2 5.37789 2.8141 5.77148 4H21C21.3141 4 21.6099 4.14755 21.7988 4.39844C21.9877 4.64936 22.0477 4.97453 21.9609 5.27637L20.2832 11.1064C19.79 12.8198 18.2225 14 16.4395 14H8.28125L8.5918 15.2422C8.70309 15.6873 9.10267 16 9.56152 16H17C17.5523 16 18 16.4477 18 17C18 17.5523 17.5523 18 17 18H9.56152C8.18493 18 6.98524 17.063 6.65137 15.7275L6.21973 14H6.18262V13.8525L3.89355 4.69727C3.79087 4.28745 3.42253 4 3 4C2.44772 4 2 3.55228 2 3C2 2.44772 2.44772 2 3 2ZM7.78125 12H16.4395C17.331 12 18.1148 11.4095 18.3613 10.5527L19.6719 6H6.28125L7.78125 12Z" fill="#2C2044"/>
</svg>
