<svg width="24" height="24" viewBox="0 0 24 24" fill="none" xmlns="http://www.w3.org/2000/svg">
<path fill-rule="evenodd" clip-rule="evenodd" d="M20.4432 2.36525C20.0496 1.97158 19.4426 1.88657 18.9559 2.15695L15.9965 3.80107C15.5968 4.02314 15.3148 4.40953 15.2251 4.85792L14.9157 6.40472C14.8408 6.77948 14.9581 7.1669 15.2283 7.43714L15.189 7.39782L10.7803 11.8065L10.413 11.4391C9.39845 10.4246 7.75361 10.4246 6.7391 11.4391L3.06524 15.1129C1.64492 16.5332 1.64492 18.836 3.06523 20.2563L3.80001 20.9911C5.22032 22.4114 7.5231 22.4114 8.94342 20.9911L12.6173 17.3173C13.6318 16.3027 13.6318 14.6579 12.6173 13.6434L12.2499 13.276L16.6585 8.86737L16.6192 8.82804C16.8894 9.09828 17.2769 9.21558 17.6516 9.14063L19.1984 8.83127C19.6468 8.74159 20.0332 8.45954 20.2553 8.05982L21.8994 5.1004C22.1698 4.61373 22.0848 4.00678 21.6911 3.6131L20.4432 2.36525ZM17.2158 5.5011L19.4171 4.27819L19.7781 4.63926L18.5552 6.8405L17.7348 7.00458L17.0518 6.32151L17.2158 5.5011ZM11.1477 15.1129C11.3506 15.3158 11.3506 15.6448 11.1477 15.8477L8.57603 18.4194L5.63694 15.4803L8.20864 12.9086C8.41155 12.7057 8.74052 12.7057 8.94342 12.9086L11.1477 15.1129ZM7.47387 19.5216C6.86517 20.1303 5.87826 20.1303 5.26955 19.5216L4.53478 18.7868C3.92607 18.1781 3.92607 17.1912 4.53478 16.5825L4.90216 16.2151L7.84126 19.1542L7.47387 19.5216Z" fill="#2C2044"/>
</svg>
