<svg width="24" height="24" viewBox="0 0 24 24" fill="none" xmlns="http://www.w3.org/2000/svg">
<path d="M7.85 9.3C7.85 8.49919 8.49919 7.85 9.3 7.85C10.1008 7.85 10.75 8.49919 10.75 9.3C10.75 10.1008 10.1008 10.75 9.3 10.75C8.49919 10.75 7.85 10.1008 7.85 9.3Z" fill="#2C2044"/>
<path d="M13.25 9.3C13.25 8.49919 13.8992 7.85 14.7 7.85C15.5008 7.85 16.15 8.49919 16.15 9.3C16.15 10.1008 15.5008 10.75 14.7 10.75C13.8992 10.75 13.25 10.1008 13.25 9.3Z" fill="#2C2044"/>
<path d="M8.4 13.8C7.6 14.4 7.60048 14.4006 7.60048 14.4006L7.60214 14.4028L7.60479 14.4063L7.61167 14.4153L7.63166 14.4409C7.64775 14.4612 7.66937 14.488 7.69643 14.5202C7.75048 14.5846 7.82664 14.6715 7.92411 14.7732C8.11821 14.9757 8.40156 15.2422 8.76808 15.5087C9.49727 16.0391 10.5995 16.6 12 16.6C13.4005 16.6 14.5027 16.0391 15.2319 15.5087C15.5984 15.2422 15.8818 14.9757 16.0759 14.7732C16.1759 14.6688 16.325 14.5 16.4 14.4C16.7314 13.9582 16.6418 13.3314 16.2 13C15.7597 12.6697 15.1356 12.7576 14.8034 13.1955C14.8034 13.1955 14.8018 13.1976 14.8002 13.1995C14.7955 13.2056 14.7859 13.2175 14.7716 13.2345C14.7431 13.2685 14.6962 13.3223 14.6319 13.3893C14.5026 13.5243 14.3078 13.7078 14.0556 13.8913C13.5473 14.2609 12.8495 14.6 12 14.6C11.1505 14.6 10.4527 14.2609 9.94442 13.8913C9.69219 13.7078 9.49741 13.5243 9.36808 13.3893C9.30383 13.3223 9.25694 13.2685 9.22838 13.2345C9.21413 13.2175 9.20455 13.2056 9.19976 13.1995C9.19824 13.1976 9.19666 13.1956 9.19666 13.1956C8.86443 12.7576 8.24035 12.6697 7.8 13C7.35817 13.3314 7.26911 13.9588 7.60048 14.4006L8.4 13.8Z" fill="#2C2044"/>
<path fill-rule="evenodd" clip-rule="evenodd" d="M2 12C2 6.47715 6.47715 2 12 2C17.5228 2 22 6.47715 22 12C22 17.5228 17.5228 22 12 22C6.47715 22 2 17.5228 2 12ZM12 4C7.58172 4 4 7.58172 4 12C4 16.4183 7.58172 20 12 20C16.4183 20 20 16.4183 20 12C20 7.58172 16.4183 4 12 4Z" fill="#2C2044"/>
</svg>
