<svg width="24" height="24" viewBox="0 0 24 24" fill="none" xmlns="http://www.w3.org/2000/svg">
<path fill-rule="evenodd" clip-rule="evenodd" d="M21.1575 8.826L15.4618 7.97576L12.9092 2.56427C12.742 2.21918 12.392 2 12.0083 2C11.6246 2 11.2747 2.21918 11.1074 2.56427L8.55486 7.97576L2.85915 8.846C2.47609 8.92328 2.16556 9.20288 2.04888 9.57556C1.9322 9.94825 2.0279 10.3549 2.29858 10.6365L6.42272 14.8377L5.42172 20.7693C5.35013 21.0715 5.42305 21.3898 5.6191 21.6307C5.81514 21.8717 6.11206 22.008 6.42272 21.9996C6.58672 21.9965 6.74776 21.9554 6.89319 21.8796L12.0083 19.0588L17.1034 21.8596C17.2489 21.9354 17.4099 21.9765 17.5739 21.9796C17.8846 21.988 18.1815 21.8517 18.3775 21.6107C18.5736 21.3698 18.6465 21.0515 18.5749 20.7493L17.5739 14.8177L21.698 10.6165C21.9685 10.3376 22.0666 9.93428 21.9543 9.56251C21.8421 9.19074 21.5371 8.90888 21.1575 8.826ZM16.1525 13.4172C15.7057 13.87 15.5013 14.5096 15.6019 15.1377L16.2526 19.1388L13.0093 17.2983L12.9442 17.2638C12.3588 16.9537 11.6578 16.9537 11.0724 17.2638L11.0073 17.2983L7.75405 19.1088L8.4047 15.1077C8.50527 14.4796 8.30094 13.8399 7.85415 13.3872L5.00129 10.5164L8.85515 9.97624L8.89155 9.96938C9.53363 9.84832 10.0761 9.4212 10.3444 8.82543L10.3667 8.77591L12.0083 5.33496L13.65 8.81592L13.6598 8.83777C13.9345 9.44771 14.5 9.87647 15.1615 9.97624L19.0053 10.5564L16.1525 13.4172Z" fill="#2C2044"/>
</svg>
