<svg width="24" height="24" viewBox="0 0 24 24" fill="none" xmlns="http://www.w3.org/2000/svg">
<path fill-rule="evenodd" clip-rule="evenodd" d="M9.44721 2.10555C9.94119 2.35254 10.1414 2.95321 9.89443 3.44719L7.61803 7.99997H16.382L14.1056 3.44719C13.8586 2.95321 14.0588 2.35254 14.5528 2.10555C15.0468 1.85856 15.6474 2.05878 15.8944 2.55276L18.618 7.99997H19C20.6569 7.99997 22 9.34312 22 11C22 12.1535 21.3489 13.155 20.3942 13.657L19.5947 17.9214C19.1512 20.2863 17.0864 22 14.6803 22H9.31971C6.91363 22 4.84876 20.2863 4.40534 17.9214L3.60576 13.657C2.65106 13.155 2 12.1535 2 11C2 9.34312 3.34315 7.99997 5 7.99997H5.38197L8.10557 2.55276C8.35256 2.05878 8.95324 1.85856 9.44721 2.10555ZM17.9799 9.99998C17.9938 10.0003 18.0077 10.0003 18.0217 9.99998H19C19.5523 9.99998 20 10.4477 20 11C20 11.5523 19.5523 12 19 12H5C4.44772 12 4 11.5523 4 11C4 10.4477 4.44772 9.99998 5 9.99998H5.97834C5.99228 10.0003 6.00621 10.0003 6.02012 9.99998H17.9799ZM5.70493 14L6.37109 17.5528C6.63714 18.9718 7.87606 20 9.31971 20H14.6803C16.1239 20 17.3629 18.9718 17.6289 17.5528L18.2951 14H5.70493Z" fill="#2C2044"/>
</svg>
