<svg width="24" height="24" viewBox="0 0 24 24" fill="none" xmlns="http://www.w3.org/2000/svg">
<path fill-rule="evenodd" clip-rule="evenodd" d="M9.26039 8.4696H13.6788L11.4726 4.86912L9.26039 8.4696ZM10.5789 2.50314L6.66316 8.87631C6.23158 9.56813 6.73684 10.4696 7.55789 10.4696H15.3789C16.2 10.4696 16.7053 9.56813 16.2737 8.87631L12.3684 2.50314C11.9579 1.83229 10.9895 1.83229 10.5789 2.50314ZM17.2632 20C18.7826 20 20 18.7757 20 17.283C20 15.7904 18.7826 14.566 17.2632 14.566C15.7437 14.566 14.5263 15.7904 14.5263 17.283C14.5263 18.7757 15.7437 20 17.2632 20ZM8.42105 19.4759V15.0901H4V19.4759H8.42105ZM17.2632 22C19.8792 22 22 19.8881 22 17.283C22 14.6779 19.8792 12.566 17.2632 12.566C14.6471 12.566 12.5263 14.6779 12.5263 17.283C12.5263 19.8881 14.6471 22 17.2632 22ZM9.36842 21.4759H3.05263C2.47368 21.4759 2 21.0042 2 20.4277V14.1384C2 13.5618 2.47368 13.0901 3.05263 13.0901H9.36842C9.94737 13.0901 10.4211 13.5618 10.4211 14.1384V20.4277C10.4211 21.0042 9.94737 21.4759 9.36842 21.4759Z" fill="#2C2044"/>
</svg>
