<svg width="24" height="24" viewBox="0 0 24 24" fill="none" xmlns="http://www.w3.org/2000/svg">
<path d="M12.6 17.2777C12.6 17.7504 12.408 17.9998 11.988 17.9998H11.916C11.484 17.9998 11.292 17.7898 11.292 17.409V16.8051C10.392 16.6607 9.732 16.2668 9.324 15.9517C8.988 15.7022 8.964 15.3215 9.204 14.9539L9.564 14.3762C9.816 13.9823 10.116 13.9561 10.488 14.2055C10.872 14.4681 11.424 14.7438 12 14.7438C12.432 14.7438 12.9 14.56 12.9 13.9955C12.9 13.5975 12.3402 13.3371 11.6447 13.0137C10.5046 12.4835 9 11.7837 9 10.0305C9 8.56 9.96 7.50968 11.292 7.23396V6.72193C11.292 6.24928 11.484 5.99983 11.916 5.99983H11.988C12.408 5.99983 12.6 6.20989 12.6 6.59064V7.19458C13.38 7.28648 13.956 7.57532 14.316 7.82477C14.664 8.04797 14.7 8.41558 14.52 8.80946L14.232 9.42652C14.028 9.85978 13.728 9.9123 13.332 9.67598C12.996 9.46591 12.516 9.26898 12.012 9.26898C11.58 9.26898 11.1 9.47904 11.1 10.0042C11.1 10.4314 11.6714 10.6835 12.3768 10.9947C13.5143 11.4966 15 12.1521 15 13.9429C15 15.3346 14.136 16.5425 12.6 16.8051V17.2777Z" fill="#2C2044"/>
<path fill-rule="evenodd" clip-rule="evenodd" d="M11.2598 2.03391C11.1769 2.01168 11.0899 1.99983 11 1.99983H5C4.44772 1.99983 4 2.44754 4 2.99983C4 3.55211 4.44772 3.99983 5 3.99983L6.06254 3.99945C5.29508 4.57238 4.61792 5.24867 4.04734 6.00276L4 5.99983H2C1.44772 5.99983 1 6.44755 1 6.99983C1 7.55211 1.44772 7.99983 2 7.99983L2.8681 7.9998C2.31537 9.2412 2.01 10.5998 2.00024 12L1 11.9998C0.447715 11.9998 0 12.4475 0 12.9998C0 13.5521 0.447715 13.9998 1 13.9998L2.189 13.9995L2.23353 14.2161C2.55264 15.6722 3.1754 16.9813 4.0208 18.0923C4.17261 18.2918 4.33638 18.4803 4.50004 18.6687C4.53879 18.7133 4.57755 18.7579 4.61613 18.8027C4.93313 19.1703 4.97026 20.1274 4.72752 21.674L4.68177 21.9531L4.6746 22.043C4.67711 22.2801 4.84861 22.4887 5.09058 22.53C5.18796 22.5466 5.28808 22.534 5.37831 22.4938L5.87626 22.2746L6.54503 21.9915L6.93877 21.8331L7.29084 21.6992L7.60122 21.5895L7.86993 21.5042C8.20041 21.4067 8.41975 21.3742 8.52795 21.4065L9.21201 21.6228L9.55874 21.7192C11.0132 22.0753 12.5729 22.1076 14.1382 21.7528C19.5319 20.5297 22.9475 15.1725 21.7666 9.78725C20.6877 4.86822 16.1476 1.62697 11.2598 2.03391ZM4.18716 13.7879C3.2417 9.47677 5.98017 5.18111 10.3039 4.20078C14.6163 3.22293 18.87 5.91588 19.813 10.2157C20.7582 14.5259 18.0192 18.822 13.6959 19.8023C12.4673 20.0808 11.2223 20.0674 10.0344 19.7766L9.83187 19.7208L9.20024 19.5205L8.98916 19.4595C8.43081 19.3187 7.86616 19.3756 7.01385 19.6605L6.891 19.7018L6.88164 19.514C6.82586 18.6866 6.59791 18.0383 6.13073 17.4966L5.76855 17.0759L5.61241 16.8812L5.41198 16.6056C4.82904 15.7662 4.4123 14.8152 4.18716 13.7879Z" fill="#2C2044"/>
<path d="M3 2.99983C3 2.44754 2.55228 1.99983 2 1.99983H1C0.447715 1.99983 0 2.44754 0 2.99983C0 3.55211 0.447715 3.99983 1 3.99983H2C2.55228 3.99983 3 3.55211 3 2.99983Z" fill="#2C2044"/>
</svg>
