<svg width="24" height="24" viewBox="0 0 24 24" fill="none" xmlns="http://www.w3.org/2000/svg">
<path fill-rule="evenodd" clip-rule="evenodd" d="M6.50086 8.88653C6.36071 9.42471 6.28611 9.98936 6.28611 10.5714C6.28611 11.0974 5.85972 11.5238 5.33373 11.5238C4.80775 11.5238 4.38135 11.0974 4.38135 10.5714C4.38135 5.83756 8.21891 2 12.9528 2C17.6867 2 21.5242 5.83756 21.5242 10.5714C21.5242 15.3053 17.6867 19.1429 12.9528 19.1429C12.4268 19.1429 12.0004 18.7165 12.0004 18.1905C12.0004 17.6645 12.4268 17.2381 12.9528 17.2381C14.2042 17.2381 15.3751 16.8933 16.3756 16.2935L14.5062 14.4241H10.8458C10.4332 14.4241 10.0675 14.1585 9.94005 13.7661L8.71416 9.99318L6.50086 8.88653ZM7.24307 7.12805C8.25473 5.45414 9.9817 4.26103 12.0004 3.97228L12.0004 6.50176L9.55047 8.28174L7.24307 7.12805ZM17.86 15.0841C18.9524 13.8968 19.6194 12.312 19.6194 10.5714C19.6194 9.98938 19.5449 9.42475 19.4047 8.88657L17.1915 9.99316L16.107 13.3311L17.86 15.0841ZM13.9052 3.97227C15.9239 4.26103 17.6509 5.45416 18.6625 7.12808L16.3552 8.28173L13.9052 6.50167L13.9052 3.97227ZM10.6632 9.82772L12.9528 8.16419L15.2425 9.82772L14.3679 12.5194H11.5378L10.6632 9.82772Z" fill="#2C2044"/>
<path d="M6.00714 13.7075C6.37907 14.0794 6.37907 14.6825 6.00714 15.0544L4.10238 16.9591C3.73045 17.3311 3.12744 17.3311 2.75551 16.9592C2.38358 16.5872 2.38358 15.9842 2.75551 15.6123L4.66027 13.7075C5.0322 13.3356 5.63521 13.3356 6.00714 13.7075Z" fill="#2C2044"/>
<path d="M6.95952 18.8639C7.33145 18.492 7.33145 17.889 6.95952 17.517C6.58759 17.1451 5.98458 17.1451 5.61265 17.517L2.75551 20.3742C2.38358 20.7461 2.38358 21.3491 2.75551 21.7211C3.12744 22.093 3.73045 22.093 4.10238 21.7211L6.95952 18.8639Z" fill="#2C2044"/>
<path d="M10.769 18.4694C11.141 18.8413 11.141 19.4444 10.769 19.8163L9.81666 20.7687C9.44474 21.1406 8.84172 21.1406 8.46979 20.7687C8.09787 20.3967 8.09787 19.7937 8.46979 19.4218L9.42217 18.4694C9.7941 18.0975 10.3971 18.0975 10.769 18.4694Z" fill="#2C2044"/>
<path d="M9.81666 16.0068C10.1886 15.6348 10.1886 15.0318 9.81666 14.6599C9.44474 14.288 8.84172 14.288 8.46979 14.6599L7.51741 15.6123C7.14548 15.9842 7.14548 16.5872 7.51741 16.9591C7.88934 17.3311 8.49235 17.3311 8.86428 16.9591L9.81666 16.0068Z" fill="#2C2044"/>
</svg>
