<svg width="24" height="24" viewBox="0 0 24 24" fill="none" xmlns="http://www.w3.org/2000/svg">
<path fill-rule="evenodd" clip-rule="evenodd" d="M9.58343 2L9.46681 2.00673C8.96947 2.06449 8.58343 2.48716 8.58343 3L8.58324 5.781L5.39166 5.78163C4.83935 5.7816 4.3916 6.22932 4.3916 6.78163V10.5635L4.39833 10.6801C4.4561 11.1775 4.87882 11.5635 5.39168 11.5635L8.58424 11.563L8.5848 16.4785L8.59105 16.7224C8.74194 20.4606 11.0892 22 16.026 22H18.6088C19.1611 22 19.6088 21.5523 19.6088 21V17.3035C19.6088 16.7512 19.1611 16.3035 18.6088 16.3035H15.965L15.7916 16.3007L15.6547 16.2951C14.9159 16.2566 14.7957 16.0958 14.7774 15.318L14.7772 11.563L17.9707 11.5635C18.523 11.5635 18.9708 11.1158 18.9708 10.5635V6.78163L18.9641 6.66501C18.9063 6.16765 18.4836 5.7816 17.9707 5.78163L14.7762 5.781L14.7763 3C14.7763 2.44772 14.3286 2 13.7763 2H9.58343ZM12.7763 6.78189L12.7831 6.89852C12.8408 7.39587 13.2635 7.78192 13.7764 7.78189L16.9702 7.781V9.563L13.7778 9.56315C13.2255 9.56311 12.7777 10.0108 12.7777 10.5632V15.3415C12.8225 17.2597 13.8154 18.2392 15.7447 18.3001L15.9497 18.3034L17.6082 18.303V20H16.026C15.5399 20 15.0931 19.9868 14.6829 19.9592L14.2081 19.9191C11.6155 19.6516 10.6722 18.694 10.5899 16.655L10.5844 16.4514L10.5848 10.5632L10.5781 10.4465C10.5203 9.94916 10.0976 9.56311 9.58472 9.56315L6.39124 9.563V7.781L9.58337 7.78189L9.7 7.77517C10.1974 7.71743 10.5834 7.29475 10.5834 6.78189L10.5832 4H12.7762L12.7763 6.78189Z" fill="#2C2044"/>
</svg>
