<svg width="24" height="24" viewBox="0 0 24 24" fill="none" xmlns="http://www.w3.org/2000/svg">
<path d="M18.2071 9.79289C17.8166 9.40237 17.1834 9.40237 16.7929 9.79289L14.5 12.085L13.2071 10.7929L13.1129 10.7097C12.7206 10.4047 12.1534 10.4324 11.7929 10.7929C11.4024 11.1834 11.4024 11.8166 11.7929 12.2071L13.7929 14.2071L13.8871 14.2903C14.2794 14.5953 14.8466 14.5676 15.2071 14.2071L18.2071 11.2071L18.2903 11.1129C18.5953 10.7206 18.5676 10.1534 18.2071 9.79289Z" fill="#2C2044"/>
<path fill-rule="evenodd" clip-rule="evenodd" d="M22 12C22 8.13401 18.866 5 15 5H9C5.13401 5 2 8.13401 2 12C2 15.866 5.13401 19 9 19H15C18.866 19 22 15.866 22 12ZM9 7H10.101C8.80447 8.27052 8 10.0413 8 12C8 13.9587 8.80447 15.7295 10.101 17H9L8.78311 16.9954C6.12231 16.8818 4 14.6888 4 12C4 9.23858 6.23858 7 9 7ZM10 12C10 9.23858 12.2386 7 15 7L15.2169 7.00462C17.8777 7.11818 20 9.31124 20 12C20 14.7614 17.7614 17 15 17C12.2386 17 10 14.7614 10 12Z" fill="#2C2044"/>
</svg>
