<svg width="24" height="24" viewBox="0 0 24 24" fill="none" xmlns="http://www.w3.org/2000/svg">
<path d="M8 14C7.44772 14 7 14.4477 7 15C7 15.5523 7.44772 16 8 16C8.55228 16 9 15.5523 9 15C9 14.4477 8.55228 14 8 14Z" fill="#2C2044"/>
<path d="M16 14C15.4477 14 15 14.4477 15 15C15 15.5523 15.4477 16 16 16C16.5523 16 17 15.5523 17 15C17 14.4477 16.5523 14 16 14Z" fill="#2C2044"/>
<path fill-rule="evenodd" clip-rule="evenodd" d="M9.77208 2.68377C9.90819 2.27543 10.2903 2 10.7208 2H13.2792C13.7097 2 14.0918 2.27543 14.2279 2.68377L14.6667 4H14.921C16.1715 4 17.2909 4.77572 17.73 5.94663L19.25 10H21C21.5523 10 22 10.4477 22 11C22 11.5523 21.5523 12 21 12V18C21 19.1046 20.1046 20 19 20V20.5C19 21.3284 18.3284 22 17.5 22C16.6716 22 16 21.3284 16 20.5V20H8V20.5C8 21.3284 7.32843 22 6.5 22C5.67157 22 5 21.3284 5 20.5V20C3.89543 20 3 19.1046 3 18V12C2.44772 12 2 11.5523 2 11C2 10.4477 2.44772 10 3 10H4.75L6.27001 5.94663C6.70911 4.77572 7.82847 4 9.079 4H9.33333L9.77208 2.68377ZM9.079 6H14.921C15.3378 6 15.711 6.25857 15.8573 6.64888L17.114 10H6.886L8.14267 6.64888C8.28904 6.25857 8.66216 6 9.079 6ZM6 12C5.44772 12 5 12.4477 5 13V17C5 17.5523 5.44772 18 6 18H18C18.5523 18 19 17.5523 19 17V13C19 12.4477 18.5523 12 18 12H6Z" fill="#2C2044"/>
</svg>
