<svg width="24" height="24" viewBox="0 0 24 24" fill="none" xmlns="http://www.w3.org/2000/svg">
<path fill-rule="evenodd" clip-rule="evenodd" d="M13.4936 8.13919C13.4978 8.09336 13.5 8.04693 13.5 8C13.5 7.17157 12.8284 6.5 12 6.5C11.1716 6.5 10.5 7.17157 10.5 8C10.5 8.04693 10.5022 8.09336 10.5064 8.13919C6.80192 8.83877 4 12.0922 4 16H3C2.44772 16 2 16.4477 2 17C2 17.5523 2.44772 18 3 18H21C21.5523 18 22 17.5523 22 17C22 16.4477 21.5523 16 21 16H20C20 12.0922 17.1981 8.83877 13.4936 8.13919ZM12 10C15.1454 10 17.7255 12.4203 17.9795 15.5002C18.0022 15.7754 17.7761 16 17.5 16H6.5C6.22386 16 5.99783 15.7754 6.02052 15.5002C6.27453 12.4203 8.85462 10 12 10Z" fill="#2C2044"/>
</svg>
