<svg width="24" height="24" viewBox="0 0 24 24" fill="none" xmlns="http://www.w3.org/2000/svg">
<path d="M12.5256 2C10.9336 2 9.36183 2.42318 7.99154 3.20908C7.5079 3.4912 7.34669 4.10582 7.62881 4.58945C7.91093 5.07309 8.52555 5.2343 9.00918 4.96225C10.0772 4.34764 11.2964 4.01514 12.5357 4.01514C16.4249 4.01514 19.5887 7.17891 19.5887 11.0681C19.5887 13.4158 19.2662 15.7432 18.6315 17.98C18.4803 18.5141 18.7927 19.0682 19.3267 19.2294C19.4174 19.2597 19.5081 19.2697 19.5987 19.2697C20.032 19.2697 20.4451 18.9775 20.566 18.5342C21.2511 16.116 21.6038 13.6072 21.6038 11.0681C21.5937 6.07058 17.5231 2 12.5256 2Z" fill="#2C2044"/>
<path d="M6.41951 7.54201C6.70163 7.05837 6.53034 6.44376 6.05678 6.16164C5.57315 5.87952 4.95853 6.0508 4.67641 6.53444C3.88043 7.90473 3.45726 9.47654 3.45726 11.0685C3.45726 12.4589 3.15499 13.7889 2.55044 15.0282C2.30863 15.532 2.52022 16.1366 3.01393 16.3784C3.15499 16.4489 3.30612 16.4791 3.45726 16.4791C3.83006 16.4791 4.19278 16.2676 4.36407 15.9149C5.09959 14.4036 5.47239 12.7713 5.47239 11.0786C5.47239 9.83926 5.79482 8.62011 6.41951 7.55208V7.54201Z" fill="#2C2044"/>
<path d="M12.5251 10.0605C11.9709 10.0605 11.5175 10.514 11.5175 11.0681C11.5175 14.3024 10.6107 17.4561 8.89786 20.1765C8.60567 20.6501 8.74673 21.2647 9.21021 21.567C9.38149 21.6677 9.56286 21.7181 9.74422 21.7181C10.0767 21.7181 10.4092 21.5468 10.6007 21.2446C12.515 18.2017 13.5327 14.6752 13.5327 11.0681C13.5327 10.514 13.0793 10.0605 12.5251 10.0605Z" fill="#2C2044"/>
<path d="M7.48784 11.0681C7.48784 8.28723 9.7448 6.03027 12.5257 6.03027V6.04035C15.3066 6.04035 17.5635 8.2973 17.5635 11.0782C17.5635 12.1462 17.493 13.2042 17.3519 14.242C17.2713 14.7861 16.7676 15.179 16.2134 15.0984C15.6693 15.0178 15.2764 14.514 15.357 13.9598C15.4779 13.0228 15.5484 12.0455 15.5484 11.0782C15.5484 9.41571 14.1882 8.05549 12.5257 8.05549C10.8632 8.05549 9.50298 9.41571 9.50298 11.0782C9.50298 13.9296 8.707 16.7105 7.19565 19.1085C6.90345 19.5619 6.26869 19.7634 5.78505 19.4712C5.12006 19.0682 5.26112 18.3932 5.4324 18.1211C5.52728 17.9326 5.63074 17.7373 5.73912 17.5327C6.49397 16.1075 7.48784 14.2311 7.48784 11.0681Z" fill="#2C2044"/>
<path d="M14.7519 16.8412C14.903 16.3072 15.4572 15.9949 15.9912 16.146L16.0113 16.1561C16.5453 16.3072 16.8577 16.8614 16.7066 17.3954C16.3136 18.7858 15.7796 20.146 15.1347 21.4458C14.9534 21.7985 14.6007 22 14.2279 22C14.0768 22 13.9156 21.9597 13.7745 21.8891C13.2707 21.6372 13.0692 21.0327 13.3211 20.539C13.9156 19.3501 14.3891 18.1108 14.7519 16.8412Z" fill="#2C2044"/>
</svg>
