<svg width="24" height="24" viewBox="0 0 24 24" fill="none" xmlns="http://www.w3.org/2000/svg">
<path d="M15 16C17.2091 16 19 14.2091 19 12C19 9.79086 17.2091 8 15 8C12.7909 8 11 9.79086 11 12C11 14.2091 12.7909 16 15 16Z" fill="#2C2044"/>
<path fill-rule="evenodd" clip-rule="evenodd" d="M15 5C18.866 5 22 8.13401 22 12C22 15.866 18.866 19 15 19H9C5.13401 19 2 15.866 2 12C2 8.13401 5.13401 5 9 5H15ZM15 7H9C6.23858 7 4 9.23858 4 12C4 14.6888 6.12231 16.8818 8.78311 16.9954L9 17H15C17.7614 17 20 14.7614 20 12C20 9.31124 17.8777 7.11818 15.2169 7.00462L15 7Z" fill="#2C2044"/>
</svg>
