<svg width="24" height="24" viewBox="0 0 24 24" fill="none" xmlns="http://www.w3.org/2000/svg">
<path fill-rule="evenodd" clip-rule="evenodd" d="M4.15522 5.07371L4.6313 6.02718C4.7127 6.19021 4.74335 6.37395 4.7193 6.55462L4.59348 7.49956C4.47813 8.36592 4.39945 8.96189 4.37543 9.40497C4.35044 9.86574 4.39833 10.001 4.41084 10.0266C4.56041 10.3327 4.86819 10.5296 5.20844 10.5367C5.23688 10.5373 5.3796 10.5239 5.78653 10.3073C6.17783 10.0991 6.68466 9.77694 7.42102 9.30769C7.72377 9.11477 8.11153 9.11824 8.41079 9.31655C8.71005 9.51487 8.8648 9.87092 8.80581 10.2254L7.53084 17.8859C7.76533 18.0061 8.00436 18.1187 8.2476 18.2234L9.70202 14.9463C9.87329 14.5604 10.2871 14.3431 10.7015 14.4215C11.4159 14.5566 12.1544 14.6275 12.9097 14.6275C13.6649 14.6275 14.4021 14.5566 15.1167 14.4215C15.5311 14.3431 15.9449 14.5604 16.1161 14.9463L17.5705 18.2234C17.8081 18.1212 18.0416 18.0114 18.2708 17.8943L17.098 12.0219C17.0006 11.5344 16.9688 11.3885 16.9277 11.275C16.7173 10.6949 16.2295 10.2643 15.6359 10.1243C15.61 11.6102 14.3991 12.8068 12.9091 12.8068C11.4029 12.8068 10.1818 11.5841 10.1818 10.0757V9.93813C10.1818 9.42591 10.1813 9.21783 10.1718 9.07515C9.97258 6.07443 6.97817 4.09707 4.15522 5.07371ZM13.8182 10.0757H12C12 10.5785 12.407 10.9861 12.9091 10.9861C13.4112 10.9861 13.8182 10.5785 13.8182 10.0757ZM11.9017 8.25502C11.2259 4.41248 7.20647 2.01154 3.44329 3.39498C3.24451 3.46806 2.99397 3.57958 2.58497 3.76163C2.57015 3.76823 2.55512 3.77492 2.53987 3.7817C2.313 3.88267 2.13724 4.07217 2.0534 4.30618C1.96957 4.54019 1.98495 4.79835 2.09598 5.02072L2.88015 6.59125L2.78601 7.29826C2.67716 8.11574 2.58829 8.78309 2.55992 9.30624C2.53206 9.82007 2.5484 10.3576 2.77768 10.8268C3.2264 11.7452 4.14975 12.3356 5.17048 12.357C5.69203 12.3679 6.18591 12.1566 6.63969 11.9151C6.65481 11.9071 6.67004 11.8989 6.68539 11.8906L5.86078 16.8452C5.67353 16.7057 5.49054 16.5607 5.31203 16.4105C4.92761 16.0871 4.35417 16.137 4.03121 16.522C3.70826 16.9069 3.75809 17.4812 4.14251 17.8046C6.51248 19.7983 9.57183 21 12.9091 21C16.2463 21 19.3057 19.7983 21.6757 17.8046C22.0601 17.4812 22.1099 16.9069 21.7869 16.522C21.464 16.137 20.8906 16.0871 20.5061 16.4105C20.316 16.5704 20.1209 16.7244 19.9209 16.8723L18.8808 11.6649C18.8764 11.6425 18.872 11.6204 18.8676 11.5986C18.8242 11.3811 18.787 11.1942 18.7463 11.0265C19.5667 11.2025 20.1818 11.9327 20.1818 12.8068C20.1818 13.3096 20.5888 13.7171 21.0909 13.7171C21.593 13.7171 22 13.3096 22 12.8068C22 10.7957 20.3719 9.16537 18.3636 9.16537H17.6239C17.1095 8.71111 16.4681 8.40343 15.7655 8.29642C15.4921 8.25478 15.1942 8.25488 14.7947 8.255C14.7726 8.25501 14.7501 8.25502 14.7273 8.25502H11.9017ZM15.8422 18.8122L14.7389 16.3262C14.1403 16.4067 13.5298 16.4482 12.9097 16.4482C12.2896 16.4482 11.6784 16.4067 11.0793 16.3262L9.97594 18.8121C10.9137 19.0519 11.8964 19.1793 12.9091 19.1793C13.9218 19.1793 14.9045 19.0519 15.8422 18.8122Z" fill="#2C2044"/>
</svg>
