<svg width="24" height="24" viewBox="0 0 24 24" fill="none" xmlns="http://www.w3.org/2000/svg">
<path fill-rule="evenodd" clip-rule="evenodd" d="M8.71132 2.29289L12.001 5.583L15.2926 2.29289C15.6531 1.93241 16.2204 1.90468 16.6126 2.20971L16.7069 2.29289C17.0974 2.68342 17.0974 3.31658 16.7069 3.70711L14.828 5.585L19 5.58579C20.6569 5.58579 22 6.92893 22 8.58579V16C22 17.6568 20.6569 19 19 19H5C3.34315 19 2 17.6568 2 16V8.58579C2 6.92893 3.34315 5.58579 5 5.58579L9.175 5.585L7.29711 3.70711C6.90658 3.31658 6.90658 2.68342 7.29711 2.29289C7.4913 2.0987 7.74548 2.00107 8 2.00001C8.25732 1.99893 8.51499 2.09656 8.71132 2.29289ZM19 7.58579H5C4.44772 7.58579 4 8.0335 4 8.58579V16C4 16.5523 4.44772 17 5 17H19C19.5523 17 20 16.5523 20 16V8.58579C20 8.0335 19.5523 7.58579 19 7.58579Z" fill="#2C2044"/>
<path d="M7 20H17C17.5523 20 18 20.4477 18 21C18 21.5523 17.5523 22 17 22H7C6.44772 22 6 21.5523 6 21C6 20.4477 6.44772 20 7 20Z" fill="#2C2044"/>
</svg>
