<svg width="24" height="24" viewBox="0 0 24 24" fill="none" xmlns="http://www.w3.org/2000/svg">
<path d="M14.8078 8.24731C14.9748 8.42731 15.1608 8.58631 15.3648 8.72131C15.4348 8.76631 15.5078 8.80831 15.5818 8.84731C16.0658 9.08831 16.5378 9.16131 16.7708 9.13631V11.0133C16.7708 11.0133 16.1068 10.9863 15.6138 10.8553C14.9268 10.6713 14.4868 10.3893 14.4868 10.3893C14.4868 10.3893 14.1818 10.1873 14.1588 10.1743V14.0533C14.1588 14.2693 14.1008 14.8083 13.9298 15.2583C13.7808 15.6423 13.5658 15.9993 13.2968 16.3113C13.2968 16.3113 12.8748 16.8343 12.1328 17.1863C11.5201 17.4771 10.9747 17.4944 10.7528 17.5015C10.7328 17.5021 10.7154 17.5026 10.7008 17.5033C10.7008 17.5033 9.68585 17.5433 8.76985 16.9213L8.76585 16.9173V16.9213C8.45685 16.7053 8.18085 16.4453 7.94685 16.1493C7.65685 15.7793 7.47985 15.3413 7.43385 15.2123V15.2073C7.36085 14.9893 7.20785 14.4623 7.23085 13.9523C7.26685 13.0553 7.56885 12.5023 7.64785 12.3643C7.85785 11.9863 8.13185 11.6483 8.45785 11.3663C9.20985 10.7353 10.1908 10.4483 11.1638 10.5733L11.1618 12.4993C11.0028 12.4473 10.8378 12.4213 10.6708 12.4213C9.78985 12.4213 9.07585 13.1403 9.07585 14.0273C9.07585 14.9143 9.78985 15.6333 10.6708 15.6333C10.9448 15.6333 11.2148 15.5623 11.4528 15.4263C11.9168 15.1623 12.2198 14.6853 12.2608 14.1513V14.1473C12.2618 14.1423 12.2618 14.1373 12.2618 14.1313C12.262 14.1292 12.2623 14.1252 12.2623 14.1252C12.2631 14.115 12.2638 14.1062 12.2638 14.0953C12.2678 14.0003 12.2678 13.9023 12.2678 13.8043V6.49231H14.1588C14.1548 6.49231 14.1358 6.67331 14.1838 6.95331H14.1818C14.2378 7.29031 14.3928 7.77331 14.8078 8.24731Z" fill="#2C2044"/>
<path fill-rule="evenodd" clip-rule="evenodd" d="M14.851 2.012L13.758 2H10.242L9.018 2.015L7.877 2.057C6.813 2.106 6.086 2.275 5.449 2.522C4.792 2.777 4.234 3.12 3.679 3.675C3.122 4.232 2.78 4.789 2.525 5.447C2.278 6.083 2.109 6.81 2.061 7.874L2.026 8.727L2.012 9.327L2.003 10.239L2 12.544L2.002 13.485L2.018 14.979L2.061 16.12C2.109 17.185 2.278 17.911 2.525 18.547C2.78 19.205 3.122 19.763 3.679 20.319C4.234 20.875 4.792 21.217 5.449 21.472C6.086 21.719 6.813 21.888 7.877 21.937L8.716 21.971L9.302 21.985L10.022 21.992L13.325 21.995C14.548 21.992 15.047 21.982 15.627 21.958L16.433 21.919C17.332 21.853 17.978 21.694 18.551 21.472C19.208 21.217 19.766 20.875 20.321 20.319C20.878 19.763 21.22 19.205 21.476 18.547C21.723 17.911 21.892 17.185 21.94 16.12L21.974 15.281L21.988 14.695L21.996 13.975L21.999 10.672C21.995 9.449 21.985 8.95 21.962 8.37L21.922 7.564C21.857 6.665 21.698 6.019 21.476 5.447C21.22 4.789 20.878 4.232 20.321 3.675C19.766 3.12 19.208 2.777 18.551 2.522C17.914 2.275 17.188 2.106 16.123 2.057L15.482 2.03L14.851 2.012ZM9.852 4.003L13.736 4L14.829 4.012L15.089 4.018L16.033 4.055C16.812 4.091 17.337 4.196 17.828 4.387C18.26 4.554 18.573 4.756 18.907 5.089C19.242 5.424 19.443 5.737 19.612 6.172C19.781 6.606 19.881 7.064 19.927 7.708L19.964 8.468L19.974 8.73L19.986 9.2L19.995 9.985L19.996 13.973L19.988 14.673L19.967 15.435L19.928 16.28C19.882 16.925 19.78 17.388 19.612 17.823C19.442 18.258 19.242 18.57 18.908 18.903C18.574 19.238 18.262 19.439 17.827 19.607C17.391 19.777 16.933 19.877 16.288 19.924L15.528 19.961L14.999 19.978L14.65 19.985L14.012 19.992H10.024L9.324 19.985L8.561 19.964L7.717 19.924C7.072 19.878 6.608 19.776 6.172 19.607C5.739 19.439 5.426 19.238 5.095 18.906C4.759 18.57 4.558 18.259 4.39 17.824C4.2 17.334 4.094 16.809 4.059 16.03L4.017 14.904L4.002 13.464L4.003 10.242L4.012 9.347L4.022 8.88L4.059 7.966C4.094 7.185 4.2 6.659 4.389 6.171C4.558 5.736 4.758 5.424 5.093 5.089C5.427 4.756 5.74 4.554 6.173 4.386C6.662 4.196 7.189 4.091 7.969 4.055L9.091 4.013L9.852 4.003Z" fill="#2C2044"/>
</svg>
