<svg width="24" height="24" viewBox="0 0 24 24" fill="none" xmlns="http://www.w3.org/2000/svg">
<path d="M12.133 9.20702C12.1531 9.18699 12.2503 9.12491 12.4282 9.12491C12.6061 9.12491 12.7032 9.18699 12.7234 9.20702C13.117 9.59754 13.7551 9.59754 14.1487 9.20702C14.5423 8.8165 14.5423 8.18334 14.1487 7.79282C13.665 7.31286 13.0062 7.12494 12.4282 7.12494C11.8502 7.12494 11.1914 7.31286 10.7076 7.79282C10.314 8.18334 10.314 8.8165 10.7076 9.20702C11.1012 9.59753 11.7394 9.59753 12.133 9.20702Z" fill="#2C2044"/>
<path d="M17.4675 9.12491C17.2896 9.12491 17.1925 9.18699 17.1723 9.20702C16.7787 9.59754 16.1406 9.59754 15.747 9.20702C15.3534 8.8165 15.3534 8.18334 15.747 7.79282C16.2307 7.31286 16.8895 7.12494 17.4675 7.12494C18.0455 7.12494 18.7043 7.31286 19.1881 7.79282C19.5817 8.18334 19.5817 8.8165 19.1881 9.20702C18.7945 9.59753 18.1563 9.59753 17.7627 9.20702C17.7425 9.18699 17.6454 9.12491 17.4675 9.12491Z" fill="#2C2044"/>
<path d="M15.7889 11.7534C16.1847 11.4027 16.7924 11.4158 17.1723 11.7928C17.5659 12.1833 17.5659 12.8164 17.1723 13.207C16.8438 13.5329 16.3972 13.6796 16.0763 13.7545C15.7179 13.8382 15.3234 13.8748 14.9478 13.8748C14.5723 13.8748 14.1777 13.8382 13.8194 13.7545C13.4985 13.6796 13.0519 13.5329 12.7234 13.207C12.3298 12.8164 12.3298 12.1833 12.7234 11.7928C13.1033 11.4158 13.711 11.4027 14.1068 11.7534C14.1238 11.7609 14.1761 11.7832 14.281 11.8077C14.4581 11.849 14.6935 11.8749 14.9478 11.8749C15.2022 11.8749 15.4376 11.849 15.6146 11.8077C15.7196 11.7832 15.7719 11.7609 15.7889 11.7534Z" fill="#2C2044"/>
<path fill-rule="evenodd" clip-rule="evenodd" d="M15.9589 18.3429C17.4844 17.2962 20.2733 15.148 20.9951 12.9999C21.8582 10.4307 21.9821 8.595 21.9999 6.23652C22.0057 5.47901 21.5746 4.7795 20.8778 4.47C19.0873 3.67485 17.0176 3.00029 14.9478 3C12.8781 2.99971 10.8083 3.67464 9.01788 4.46996C8.32103 4.7795 7.89 5.47901 7.89572 6.23652C7.91352 8.59499 8.03748 10.4307 8.90061 12.9999C9.62232 15.148 12.4112 17.2962 13.9367 18.3429C14.549 18.763 15.3466 18.763 15.9589 18.3429ZM9.91174 6.2643C9.9299 8.49566 10.0484 10.0919 10.8129 12.3674C11.0164 12.973 11.6048 13.772 12.5169 14.6452C13.3326 15.4262 14.247 16.1166 14.9478 16.6044C15.6487 16.1166 16.563 15.4262 17.3788 14.6452C18.2909 13.772 18.8793 12.973 19.0828 12.3674C19.8472 10.0919 19.9658 8.49568 19.9839 6.26436C18.323 5.53327 16.5822 5.0002 14.9475 4.99997C13.3134 4.99974 11.5729 5.53294 9.91174 6.2643Z" fill="#2C2044"/>
<path d="M7.28239 7.05275C7.03346 6.55878 6.42805 6.35856 5.93019 6.60555C5.08413 7.02528 3.94887 7.74663 2.98123 8.53966C2.17334 9.20178 1.84607 10.2489 2.06768 11.2294C2.66523 13.8733 3.75483 15.8085 5.66825 17.7069C6.82487 18.8545 8.4934 19.6652 9.78613 20.1783C10.4472 20.4406 11.041 20.637 11.4703 20.768C11.6854 20.8337 11.8603 20.8833 11.983 20.9169C12.0443 20.9337 12.0927 20.9465 12.1267 20.9553L12.1666 20.9656L12.1781 20.9685L12.1837 20.9699C12.7237 21.1039 13.2709 20.7781 13.4059 20.2423C13.5409 19.7066 13.2122 19.1637 12.6724 19.0296L12.6665 19.0281L12.6381 19.0208C12.612 19.014 12.5718 19.0034 12.519 18.9889C12.4134 18.96 12.2575 18.9159 12.0631 18.8565C11.6735 18.7376 11.1335 18.5589 10.5348 18.3213C9.3078 17.8344 7.95272 17.1451 7.0936 16.2927C5.44584 14.6579 4.54716 13.0597 4.03458 10.7918C3.97131 10.5118 4.06905 10.2422 4.26496 10.0816C5.12148 9.37964 6.12934 8.74279 6.83166 8.39437C7.32953 8.14739 7.53133 7.54672 7.28239 7.05275Z" fill="#2C2044"/>
</svg>
