<svg width="24" height="24" viewBox="0 0 24 24" fill="none" xmlns="http://www.w3.org/2000/svg">
<path d="M12.0835 15C12.204 15.7179 12.4519 16.3926 12.8033 17H6.69194C5.74927 17 4.92188 17.4721 4.54057 18.1621L4.47026 18.3037L4.02202 19.3057C4.03394 19.302 4.04325 19.3021 4.05522 19.3037L4.10112 19.3135C6.07088 19.7717 8.03674 20 10.0005 20C11.8057 20 13.6123 19.8071 15.4224 19.4199C16.1667 19.7746 16.9957 19.9805 17.8706 19.999C17.6682 20.514 17.2367 20.9517 16.6392 21.1748C16.5458 21.2097 16.4498 21.239 16.3521 21.2617C14.4701 21.6995 12.5876 21.9426 10.7056 21.9912L10.0005 22C7.8832 22 5.76533 21.7542 3.64799 21.2617C2.47791 20.9895 1.77044 19.9006 2.06791 18.8301C2.09278 18.7406 2.12453 18.6528 2.16264 18.5674L2.64409 17.4883C3.3155 15.9835 4.91539 15 6.69194 15H12.0835Z" fill="#2C2044"/>
<path d="M18.146 10.6709C18.2961 10.3864 18.704 10.3864 18.854 10.6709L19.7837 12.4326C19.8415 12.5422 19.9469 12.6194 20.0689 12.6406L22.0328 12.9805C22.3497 13.0353 22.4757 13.4227 22.2515 13.6533L20.8628 15.082C20.7764 15.171 20.7358 15.2952 20.7535 15.418L21.0376 17.3906C21.083 17.7087 20.7529 17.9475 20.4644 17.8057L18.6763 16.9268C18.5651 16.8722 18.435 16.8721 18.3238 16.9268L16.5357 17.8057C16.2472 17.9475 15.918 17.7088 15.9634 17.3906L16.2466 15.418C16.2643 15.2952 16.2237 15.171 16.1373 15.082L14.7486 13.6533C14.5245 13.4227 14.6505 13.0354 14.9673 12.9805L16.9312 12.6406C17.0533 12.6194 17.1585 12.5422 17.2164 12.4326L18.146 10.6709Z" fill="#2C2044"/>
<path fill-rule="evenodd" clip-rule="evenodd" d="M10.0005 2C12.7618 2.00021 15.0005 4.23871 15.0005 7V8.80273C13.3219 9.77375 12.1574 11.5346 12.0152 13.5771C11.4614 13.8212 10.8546 13.9679 10.2173 13.9951L10.0005 14C7.23911 14 5.00053 11.7614 5.00053 9V7C5.00053 4.31125 7.12293 2.11845 9.78374 2.00488L10.0005 2ZM10.0005 4C8.40302 4 7.09691 5.24867 7.00541 6.82324L7.00053 7V9C7.00053 10.6569 8.34368 12 10.0005 12C11.5979 11.9998 12.9032 10.7512 12.9947 9.17676L13.0005 9V7C13.0005 5.34328 11.6572 4.00021 10.0005 4Z" fill="#2C2044"/>
</svg>
