<svg width="24" height="24" viewBox="0 0 24 24" fill="none" xmlns="http://www.w3.org/2000/svg">
<path d="M11.0023 9.41225L10.414 10.0048C10.023 10.3958 9.39101 10.3958 9.00001 10.0048C8.60901 9.61381 8.60901 8.98081 9.00001 8.59081L11.2933 6.29325C11.6843 5.90225 12.3163 5.90225 12.7073 6.29325L15.0076 8.58981C15.2026 8.78481 15.3006 9.04081 15.3006 9.29681C15.3006 9.55281 15.2026 9.80881 15.0076 10.0038C14.6176 10.3948 13.9846 10.3948 13.5936 10.0048L13.0023 9.41525L13 14.0174C13 14.5704 12.553 15.0174 12 15.0174C11.447 15.0174 11 14.5704 11 14.0174L11.0023 9.41225Z" fill="#2C2044"/>
<path d="M11 16C10.4477 16 10 16.4477 10 17C10 17.5523 10.4477 18 11 18H13C13.5523 18 14 17.5523 14 17C14 16.4477 13.5523 16 13 16H11Z" fill="#2C2044"/>
<path fill-rule="evenodd" clip-rule="evenodd" d="M12.9419 2.04047C13.1702 2.06884 13.3985 2.09721 13.625 2.13641C15.5305 2.4662 17.2042 3.28333 18.6373 4.57672C20.2893 6.0676 21.3627 7.90099 21.8048 10.0891C21.8653 10.3879 21.9044 10.691 21.9436 10.9942C21.9617 11.1343 21.9798 11.2744 22 11.4141V12.5859L21.9843 12.7162C21.9726 12.8131 21.9609 12.9105 21.9501 13.0074C21.7335 14.9453 21.0198 16.6809 19.7954 18.196C18.2597 20.0963 16.299 21.3202 13.8957 21.8071C13.6002 21.867 13.3005 21.9057 13.0008 21.9443C12.8624 21.9622 12.7239 21.9801 12.5859 22H11.4141C11.2824 21.9815 11.1504 21.9648 11.0184 21.9481C10.7315 21.9118 10.4446 21.8755 10.1613 21.821C8.33542 21.4699 6.73198 20.6603 5.35583 19.4157C3.65568 17.8782 2.57406 15.9839 2.15656 13.7226C2.11071 13.4742 2.07841 13.2234 2.04611 12.9725C2.03118 12.8566 2.01626 12.7407 2 12.625V11.375C2.0038 11.3551 2.00787 11.3352 2.01195 11.3153C2.02079 11.2722 2.02964 11.2291 2.03562 11.1855C2.05119 11.0727 2.06463 10.9596 2.07808 10.8464C2.10527 10.6175 2.13246 10.3886 2.17714 10.1632C2.64057 7.8262 3.80099 5.89411 5.61339 4.35922C6.97932 3.20245 8.54797 2.45557 10.3183 2.15167C10.5579 2.11056 10.7989 2.07821 11.04 2.04586C11.1517 2.03086 11.2634 2.01587 11.375 2H12.625C12.7305 2.01421 12.8362 2.02734 12.9419 2.04047ZM4.00024 11.9826C3.98566 16.3845 7.5684 19.9829 11.9828 19.9999C16.3828 20.0168 19.984 16.4309 19.9997 12.017C20.0154 7.61464 16.4329 4.01674 12.0172 4.00014C7.61652 3.98358 4.01486 7.56971 4.00024 11.9826Z" fill="#2C2044"/>
</svg>
