<svg width="24" height="24" viewBox="0 0 24 24" fill="none" xmlns="http://www.w3.org/2000/svg">
<path d="M6.29274 10.707C5.92662 10.3409 5.90402 9.76191 6.22438 9.36914L6.29274 9.29297L11.158 4.42773C11.2015 4.38422 11.2349 4.34993 11.2576 4.32715C11.269 4.31583 11.2782 4.30756 11.284 4.30176L11.2908 4.29492L11.2918 4.29297L11.2928 4.29297L11.366 4.22656C11.544 4.0808 11.7678 4 11.9998 4C12.265 4.00006 12.5194 4.10549 12.7069 4.29297L17.7069 9.29297C18.0973 9.68346 18.0973 10.3165 17.7069 10.707C17.3164 11.0975 16.6834 11.0974 16.2928 10.707L12.9998 7.41406L12.9998 20C12.9998 20.5522 12.552 20.9999 11.9998 21C11.4475 21 10.9998 20.5523 10.9998 20L10.9998 7.41406L7.70681 10.707L7.63064 10.7754C7.23791 11.0957 6.65886 11.073 6.29274 10.707Z" fill="#2C2044"/>
</svg>
