<svg width="24" height="24" viewBox="0 0 24 24" fill="none" xmlns="http://www.w3.org/2000/svg">
<path d="M13.8191 8.37198C13.737 8.29819 13.6448 8.21537 13.5701 8.15L13.3701 7.95C12.4801 7.12 12.0901 6.48 12.0901 5.56C12.0901 4.15 13.1301 3 14.4401 3C15.0301 3 15.5101 3.28 15.9001 3.73L15.9701 3.82L16.0401 3.73C16.4201 3.28 16.9101 3 17.5001 3C18.8101 3 19.8601 4.15 19.8601 5.56C19.8601 6.49 19.4501 7.14 18.5501 7.98C18.5004 8.02969 18.3898 8.12814 18.2754 8.22993C18.1826 8.31251 18.0873 8.39729 18.0201 8.46L17.3501 9.07C16.4801 9.86 16.3601 9.96 16.2301 9.98L16.0401 10H15.9701C15.9301 10 15.8901 10 15.8501 9.99L15.7301 9.98C15.6301 9.97 15.5601 9.93 15.1501 9.57L14.0201 8.55C13.9934 8.52868 13.9128 8.45621 13.8191 8.37198Z" fill="#2C2044"/>
<path fill-rule="evenodd" clip-rule="evenodd" d="M19.51 11.2102C19.63 11.2902 19.74 11.3802 19.86 11.5002C20.99 12.5902 21.17 14.3302 20.29 15.6302L18.2 18.7002C17.36 19.9402 15.96 20.6802 14.47 20.6802H10.98C10.27 20.6802 9.59 20.5202 8.96 20.2002L6.4 18.9002H4.86C3.84 18.9002 3 18.0702 3 17.0402V12.6302C3 11.6002 3.84 10.7602 4.86 10.7602H6.33L7.68 9.92018C9.16 9.00018 10.96 8.75018 12.64 9.26018L13.16 9.41018C14.53 9.82018 15.5 11.0702 15.56 12.4902L15.95 11.9102C16.7 10.7902 18.21 10.4502 19.37 11.1202L19.51 11.2102ZM12.8 13.4102L12.9 13.4002C13.29 13.3502 13.59 13.0202 13.59 12.6202C13.59 12.0102 13.19 11.4702 12.6 11.2902L12.09 11.1302C10.96 10.8002 9.74 10.9602 8.73 11.5802L7.61 12.2802V17.3102L9.85 18.4302C10.16 18.5802 10.47 18.6702 10.79 18.6902L10.99 18.7002H14.47C15.32 18.7002 16.1 18.2902 16.58 17.5902L18.67 14.5202C19.02 14.0102 18.95 13.3202 18.51 12.9002C18.495 12.8902 18.48 12.8777 18.465 12.8652C18.45 12.8527 18.435 12.8402 18.42 12.8302C18.14 12.6402 17.77 12.7202 17.58 13.0002L16.27 14.9402C16.08 15.2102 15.78 15.3702 15.45 15.3702L12.68 15.3602C12.09 15.3002 11.8 14.8002 11.82 14.3302C11.85 13.8902 12.16 13.4102 12.8 13.4102ZM5.65 16.9402V12.7302H4.96V16.9402H5.65Z" fill="#2C2044"/>
</svg>
