<svg width="24" height="24" viewBox="0 0 24 24" fill="none" xmlns="http://www.w3.org/2000/svg">
<path fill-rule="evenodd" clip-rule="evenodd" d="M10.6436 3.09789C11.9246 1.91576 13.9997 2.82444 14 4.56761V19.4319L13.9941 19.593C13.8749 21.1773 12.0105 21.9934 10.7656 21.0061L10.6436 20.9016L5.33398 16.0002H4L3.7959 15.9895C2.85449 15.894 2.10639 15.1457 2.01074 14.2043L2 14.0002V10.0002C2 8.96455 2.78718 8.11222 3.7959 8.00999L4 8.00023H5.33203L10.6436 3.09789ZM6.68848 9.46996C6.31906 9.81086 5.83472 10.0002 5.33203 10.0002H4V14.0002H5.33398L5.52148 14.009C5.95603 14.0499 6.36718 14.2321 6.69043 14.5305L12 19.4319V4.56761L6.68848 9.46996Z" fill="#2C2044"/>
<path d="M16.293 9.2932C16.6835 8.90267 17.3165 8.90267 17.707 9.2932L19.124 10.7102L20.5352 9.30003C20.9257 8.90951 21.5597 8.90951 21.9502 9.30003C22.3402 9.69051 22.3404 10.3237 21.9502 10.7141L20.5391 12.1243L21.9502 13.5354L22.0186 13.6116C22.3385 14.0042 22.3159 14.5834 21.9502 14.9494L21.8789 15.0139C21.5367 15.2965 21.0502 15.3168 20.6875 15.0744L20.6113 15.0188L20.5352 14.9494L19.124 13.5383L17.707 14.9563L17.6309 15.0256L17.5547 15.0813C17.1921 15.3236 16.7064 15.3034 16.3643 15.0207L16.293 14.9563C15.9498 14.613 15.9079 14.0822 16.168 13.6936L16.2236 13.6184L16.293 13.5422L17.71 12.1243L16.293 10.7073C15.9025 10.3168 15.9027 9.68374 16.293 9.2932Z" fill="#2C2044"/>
</svg>
