<svg width="24" height="24" viewBox="0 0 24 24" fill="none" xmlns="http://www.w3.org/2000/svg">
<path d="M13.0005 15.9995H11.0005C10.4482 15.9995 10.0005 16.4472 10.0005 16.9995C10.0005 17.5518 10.4482 17.9995 11.0005 17.9995H13.0005C13.5528 17.9995 14.0005 17.5518 14.0005 16.9995C14.0005 16.4472 13.5528 15.9995 13.0005 15.9995Z" fill="#2C2044"/>
<path d="M17.0005 16.9995C17.0005 16.4472 16.5528 15.9995 16.0005 15.9995C15.4482 15.9995 15.0005 16.4472 15.0005 16.9995C15.0005 17.5518 15.4482 17.9995 16.0005 17.9995C16.5528 17.9995 17.0005 17.5518 17.0005 16.9995Z" fill="#2C2044"/>
<path fill-rule="evenodd" clip-rule="evenodd" d="M9.7005 12.8904V7.52751C9.7005 7.23543 9.93605 6.99988 10.2281 6.99988H12.12C13.0999 6.99988 13.897 7.79697 13.897 8.77685C13.897 9.25395 13.6914 9.68401 13.3638 9.98299C13.73 10.3481 13.9554 10.8429 13.9554 11.3867C13.9554 12.506 13 13.418 11.828 13.418H10.2281C9.93605 13.418 9.7005 13.1825 9.7005 12.8904ZM11.8405 9.35535H12.2614C12.5798 9.35535 12.8399 9.09531 12.8399 8.77685C12.8399 8.37924 12.5158 8.05513 12.1182 8.05513H10.7539V9.35532H11.828L11.8405 9.35535ZM10.7558 10.4106V12.3628H11.828C12.4197 12.3628 12.9002 11.9256 12.9002 11.3867C12.9002 10.8505 12.4246 10.4151 11.8371 10.4106H10.7558Z" fill="#2C2044"/>
<path d="M16.1054 13.674C17.1286 13.674 17.7005 13.0239 17.7005 12.2665C17.7005 11.4167 16.9876 11.1292 16.4113 10.8968C16.0204 10.7391 15.6923 10.6068 15.6923 10.3415C15.6923 10.1648 15.8385 10.026 16.188 10.026C16.4747 10.026 16.6794 10.1248 16.8808 10.222L16.9061 10.2343C17.0841 10.3226 17.2557 10.3605 17.3828 10.1143L17.5353 9.8177C17.6306 9.63467 17.6115 9.47689 17.4272 9.34435C17.2112 9.19287 16.7282 9.00984 16.2007 9.00984C15.2793 9.00984 14.5802 9.55894 14.5802 10.392C14.5802 11.2378 15.299 11.5415 15.8765 11.7855C16.2643 11.9493 16.5884 12.0862 16.5884 12.3423C16.5884 12.519 16.4359 12.6578 16.1054 12.6578C15.7711 12.6578 15.5145 12.5124 15.3552 12.4221C15.3268 12.406 15.3014 12.3916 15.2793 12.3801C15.0696 12.2665 14.9234 12.2791 14.7963 12.4622L14.5993 12.7462C14.4341 12.9797 14.5294 13.1186 14.6628 13.2259C14.9043 13.4152 15.4699 13.674 16.1054 13.674Z" fill="#2C2044"/>
<path fill-rule="evenodd" clip-rule="evenodd" d="M21.002 5.99952C21.002 3.79038 19.2111 1.99951 17.002 1.99951H8.49951C8.44926 1.99948 8.39905 2.0007 8.34894 2.00319H6.00195C4.3451 2.00319 3.00195 3.34633 3.00195 5.00319V7.00319C3.00195 7.55547 3.44967 8.00319 4.00195 8.00319H6.00195V19.9995C6.0024 21.1039 6.89756 21.9993 8.00195 22L19.002 22.0024L19.1517 21.9974C20.1865 21.921 21.0024 21.0572 21.002 20.0028V5.99952ZM8.17612 4.05251C8.27981 4.01734 8.38858 3.99944 8.49808 3.99951L17.002 3.99952L17.1512 4.005C18.1861 4.08135 19.002 4.94516 19.002 5.99952V20.0028L8.0024 20L8.00195 7.99918L7.99264 7.61308C7.9616 6.97009 7.8531 6.32985 7.66853 5.69534L7.56399 5.36197L7.5302 5.24113C7.41427 4.71849 7.69049 4.21723 8.17612 4.05251Z" fill="#2C2044"/>
</svg>
