<svg width="24" height="24" viewBox="0 0 24 24" fill="none" xmlns="http://www.w3.org/2000/svg">
<path fill-rule="evenodd" clip-rule="evenodd" d="M4.65356 19.3467C4.25898 19.7413 3.61943 19.7413 3.22485 19.3467C2.83034 18.9521 2.8303 18.3125 3.22485 17.918L4.46411 16.6797C3.2905 15.3705 2.47851 13.815 2.03833 12.2744C1.98722 12.0952 1.98722 11.9048 2.03833 11.7256C3.13211 7.89734 6.75462 4.00025 12.0002 4C13.5564 4 14.9685 4.34591 16.2151 4.92871L17.8469 3.2959C18.2415 2.90177 18.8812 2.90153 19.2756 3.2959C19.6702 3.69048 19.6702 4.33101 19.2756 4.72558L14.8284 9.17285C15.5523 9.8962 16.0002 10.8956 16.0002 12C16.0002 14.209 14.2093 15.9998 12.0002 16C10.8959 16 9.89765 15.5509 9.17407 14.8271L4.65356 19.3467ZM8.04614 13.0986C8.01656 12.9033 8.00024 12.7036 8.00024 12.5C8.00024 10.2909 9.7911 8.5 12.0002 8.5C12.2035 8.50001 12.4029 8.51744 12.5979 8.54687L14.6829 6.46093C13.8592 6.16674 12.9615 6 12.0002 6C7.96148 6.00024 5.04038 8.92642 4.04516 12C4.41638 13.1634 5.03032 14.2995 5.87817 15.2656L8.04614 13.0986ZM12.0002 14C13.1047 13.9998 14.0002 13.1045 14.0002 12C14.0002 11.4479 13.7751 10.95 13.4133 10.5889L10.5881 13.4131C10.9497 13.7749 11.4481 14 12.0002 14Z" fill="#2C2044"/>
<path d="M12.0002 20C10.3814 19.9999 8.95052 19.663 7.70825 19.0928L9.24829 17.5527C10.0766 17.8384 10.9942 17.9999 12.0002 18C16.2839 18 18.9681 15.0904 19.9543 12C19.582 10.8502 18.9404 9.72092 18.0715 8.75781L19.4856 7.34472C20.6783 8.64599 21.5237 10.191 21.9622 11.7256C22.0133 11.9049 22.0133 12.0951 21.9622 12.2744C20.8737 16.0837 17.5307 20 12.0002 20Z" fill="#2C2044"/>
</svg>
