<svg width="24" height="24" viewBox="0 0 24 24" fill="none" xmlns="http://www.w3.org/2000/svg">
<path fill-rule="evenodd" clip-rule="evenodd" d="M10.6436 3.09789C11.9246 1.91576 13.9997 2.82444 14 4.56761V19.4319C13.9999 21.1208 12.0521 22.0264 10.7656 21.0061L10.6436 20.9016L5.33398 16.0002H4L3.7959 15.9895C2.85449 15.894 2.10639 15.1457 2.01074 14.2043L2 14.0002V10.0002C2 8.96455 2.78718 8.11222 3.7959 8.00999L4 8.00023H5.33203L10.6436 3.09789ZM6.68848 9.46996C6.31906 9.81086 5.83472 10.0002 5.33203 10.0002H4V14.0002H5.33398L5.52148 14.009C5.95603 14.0499 6.36718 14.2321 6.69043 14.5305L12 19.4319V4.56761L6.68848 9.46996Z" fill="#2C2044"/>
<path d="M16.6152 5.00707L16.7158 5.02367L17.001 5.09398C19.9221 5.88486 22 8.72216 22 12.0002L21.9941 12.3059C21.8695 15.4533 19.8309 18.1404 17.001 18.9065L16.7158 18.9768C16.1767 19.0958 15.6428 18.755 15.5234 18.2161C15.4043 17.6768 15.745 17.1429 16.2842 17.0237L16.4766 16.9768C16.6616 16.9265 16.8429 16.8632 17.0195 16.7883C17.1962 16.7135 17.3686 16.6275 17.5352 16.5295C18.7555 15.8121 19.6754 14.4972 19.9297 12.8987C19.9644 12.6807 19.9861 12.4574 19.9951 12.2297L20 12.0002C20 11.8463 19.9943 11.6941 19.9824 11.5442C19.9647 11.3198 19.9334 11.1001 19.8906 10.886C19.8763 10.8144 19.8607 10.7434 19.8438 10.6731C19.4884 9.19874 18.5566 8.0096 17.3662 7.37718C17.2528 7.31692 17.1374 7.26101 17.0195 7.21117C16.8429 7.13638 16.6615 7.0739 16.4766 7.02367L16.2842 6.97679L16.1855 6.94945C15.7044 6.79069 15.412 6.28984 15.5234 5.78441C15.6352 5.27871 16.1116 4.94802 16.6152 5.00707Z" fill="#2C2044"/>
<path d="M15.6533 9.34593C15.9292 8.90791 16.4894 8.75747 16.9434 8.98265L17.0332 9.03246L17.2109 9.15355C18.081 9.78588 18.6249 10.8401 18.625 12.0002L18.6182 12.2307C18.5465 13.3752 17.9457 14.3933 17.0332 14.968L16.9434 15.0178C16.4896 15.2429 15.9292 15.0922 15.6533 14.6545C15.3594 14.1874 15.5 13.57 15.9668 13.2756L16.1025 13.177C16.3679 12.9551 16.569 12.6055 16.6152 12.1848L16.625 12.0002C16.6249 11.4972 16.4059 11.0772 16.1025 10.8235L15.9668 10.7258L15.8838 10.6662C15.4844 10.3544 15.3778 9.78406 15.6533 9.34593Z" fill="#2C2044"/>
</svg>
