<svg width="24" height="24" viewBox="0 0 24 24" fill="none" xmlns="http://www.w3.org/2000/svg">
<path fill-rule="evenodd" clip-rule="evenodd" d="M12.0003 16.0001C9.79114 16.0001 8.00028 14.2092 8.00028 12.0001C8.00028 9.79092 9.79114 8.00006 12.0003 8.00006C14.2093 8.00018 16.0003 9.791 16.0003 12.0001C16.0003 14.2091 14.2093 15.9999 12.0003 16.0001ZM12.0003 14.0001C13.1047 13.9999 14.0003 13.1046 14.0003 12.0001C14.0003 10.8956 13.1047 10.0002 12.0003 10.0001C10.8957 10.0001 10.0003 10.8955 10.0003 12.0001C10.0003 13.1046 10.8957 14.0001 12.0003 14.0001Z" fill="#2C2044"/>
<path fill-rule="evenodd" clip-rule="evenodd" d="M12.0003 20.0001C6.46981 20.0001 3.12677 16.0838 2.03837 12.2745C1.98721 12.0952 1.98721 11.905 2.03837 11.7256C3.1322 7.8973 6.75441 4.00006 12.0003 4.00006C17.2461 4.00016 20.8684 7.89733 21.9622 11.7257C22.0133 11.9049 22.0133 12.0952 21.9622 12.2745C20.8738 16.0838 17.5307 20 12.0003 20.0001ZM12.0003 18.0001C16.2839 18 18.9682 15.0905 19.9544 12.0001C18.959 8.92652 16.0391 6.00016 12.0003 6.00006C7.96128 6.00006 5.04048 8.92638 4.0452 12.0001C5.0313 15.0906 7.71647 18.0001 12.0003 18.0001Z" fill="#2C2044"/>
</svg>
