<svg width="24" height="24" viewBox="0 0 24 24" fill="none" xmlns="http://www.w3.org/2000/svg">
<path fill-rule="evenodd" clip-rule="evenodd" d="M17.001 1.99951C19.2101 1.99951 21.001 3.79038 21.001 5.99952V20.0028C21.0014 21.0572 20.1855 21.921 19.1507 21.9974L19.001 22.0024L8.00098 22C6.89658 21.9993 6.00142 21.1039 6.00098 19.9995V8.00319H4.00098C3.44869 8.00319 3.00098 7.55547 3.00098 7.00319V5.00319C3.00098 3.34633 4.34412 2.00319 6.00098 2.00319H8.34797C8.39807 2.0007 8.44828 1.99948 8.49854 1.99951H17.001ZM8.4971 3.99951C8.3876 3.99944 8.27884 4.01734 8.17515 4.05251C7.68951 4.21723 7.41329 4.71849 7.52922 5.24113L7.56302 5.36197L7.66755 5.69533C7.85212 6.32984 7.96062 6.97009 7.99166 7.61308L8.00098 7.99918L8.00142 20L19.001 20.0028V5.99952C19.001 4.94515 18.1851 4.08135 17.1502 4.005L17.001 3.99951L8.4971 3.99951ZM10.9995 15.9995H12.9995C13.5518 15.9995 13.9995 16.4472 13.9995 16.9995C13.9995 17.5518 13.5518 17.9995 12.9995 17.9995H10.9995C10.4472 17.9995 9.99952 17.5518 9.99952 16.9995C9.99952 16.4472 10.4472 15.9995 10.9995 15.9995ZM15.9995 15.9995C16.5518 15.9995 16.9995 16.4472 16.9995 16.9995C16.9995 17.5518 16.5518 17.9995 15.9995 17.9995C15.4472 17.9995 14.9995 17.5518 14.9995 16.9995C14.9995 16.4472 15.4472 15.9995 15.9995 15.9995ZM11.9987 12.9999C13.2821 12.9999 13.9995 12.1636 13.9995 11.1893C13.9995 9.35439 11.4806 9.55736 11.4806 8.71298C11.4806 8.48564 11.6639 8.30702 12.1023 8.30702C12.477 8.30702 12.7401 8.44505 13.0031 8.57495C13.2263 8.68862 13.4415 8.73734 13.601 8.42069L13.7923 8.03909C13.9118 7.80364 13.8879 7.60066 13.6568 7.43016C13.3857 7.23531 12.7799 6.99985 12.1183 6.99985C10.9624 6.99985 10.0856 7.70621 10.0856 8.77793C10.0856 10.5966 12.6045 10.4667 12.6045 11.2867C12.6045 11.5141 12.4132 11.6927 11.9987 11.6927C11.5045 11.6927 11.1458 11.4329 10.9624 11.3354C10.6994 11.1893 10.5161 11.2055 10.3566 11.441L10.1095 11.8063C9.90226 12.1068 10.0218 12.2854 10.1892 12.4234C10.4921 12.667 11.2016 12.9999 11.9987 12.9999ZM14.6502 12.9999C14.9197 12.9999 15.083 12.8862 15.1647 12.6589L16.9696 7.47712C17.0676 7.18167 16.9206 6.99985 16.5939 6.99985H16.3489C16.0794 6.99985 15.916 7.11349 15.8344 7.34076L14.0295 12.5302C13.9315 12.818 14.0785 12.9999 14.4051 12.9999H14.6502Z" fill="#2C2044"/>
</svg>
