<svg width="24" height="24" viewBox="0 0 24 24" fill="none" xmlns="http://www.w3.org/2000/svg">
<path d="M7.68767 13.4037C7.9379 13.1324 8.34361 13.1324 8.59384 13.4037C9.0943 13.9463 9.9057 13.9463 10.4062 13.4037C10.6564 13.1324 11.0621 13.1324 11.3123 13.4037C11.5626 13.675 11.5626 14.1149 11.3123 14.3862C10.3114 15.4715 8.68859 15.4715 7.68767 14.3862C7.43744 14.1149 7.43744 13.675 7.68767 13.4037Z" fill="#2C2044"/>
<path d="M13.5938 13.4037C13.3436 13.1324 12.9379 13.1324 12.6877 13.4037C12.4374 13.675 12.4374 14.1149 12.6877 14.3862C13.6886 15.4715 15.3114 15.4715 16.3123 14.3862C16.5626 14.1149 16.5626 13.675 16.3123 13.4037C16.0621 13.1324 15.6564 13.1324 15.4062 13.4037C14.9057 13.9463 14.0943 13.9463 13.5938 13.4037Z" fill="#2C2044"/>
<path fill-rule="evenodd" clip-rule="evenodd" d="M12 2C9.40387 2 7.26987 3.58288 7.02369 5.60808C5.1812 6.96594 4 9.06105 4 11.4118C4 15.5052 6.28571 22 12 22C17.7143 22 20 15.5052 20 11.4118C20 9.06105 18.8188 6.96594 16.9763 5.60808C16.7301 3.58288 14.5961 2 12 2ZM17.9848 11.9507C17.894 13.6046 17.3926 15.6096 16.4295 17.2093C15.3888 18.9377 13.9556 20 12 20C10.0444 20 8.61124 18.9377 7.57054 17.2093C6.53793 15.4943 6.03615 13.3134 6.00189 11.5988C7.25843 11.2985 9.2311 10.8013 10.4468 10.2769C10.5809 10.2191 10.7239 10.2412 10.7993 10.2904C12.2856 11.2599 14.7683 12.2329 17.9848 11.9507ZM6.41862 9.43705C7.53601 9.1557 8.82644 8.79771 9.6547 8.44046C10.3522 8.13962 11.209 8.16974 11.892 8.61528C13.0466 9.36843 15.0747 10.1896 17.7773 9.9611C17.087 7.74835 14.8574 6 12 6C9.37237 6 7.27558 7.47852 6.41862 9.43705Z" fill="#2C2044"/>
</svg>
