<svg width="24" height="24" viewBox="0 0 24 24" fill="none" xmlns="http://www.w3.org/2000/svg">
<path fill-rule="evenodd" clip-rule="evenodd" d="M6 3H14C15.6569 3 17 4.34315 17 6H18C19.6569 6 21 7.34315 21 9V18C21 19.6569 19.6569 21 18 21H6C4.34315 21 3 19.6569 3 18V6C3 4.34315 4.34315 3 6 3ZM14.1166 5.00673C14.614 5.06449 15 5.48716 15 6H5C5 5.44772 5.44772 5 6 5H14L14.1166 5.00673ZM5 18V8H18C18.5523 8 19 8.44772 19 9V11H13C11.3431 11 10 12.3431 10 14C10 15.6569 11.3431 17 13 17H19V18C19 18.5523 18.5523 19 18 19H6C5.44772 19 5 18.5523 5 18ZM13 13C12.4477 13 12 13.4477 12 14C12 14.5523 12.4477 15 13 15C13.5523 15 14 14.5523 14 14C14 13.4477 13.5523 13 13 13Z" fill="#2C2044"/>
</svg>
