<svg width="24" height="24" viewBox="0 0 24 24" fill="none" xmlns="http://www.w3.org/2000/svg">
<path fill-rule="evenodd" clip-rule="evenodd" d="M8.05135 2.68377C8.18746 2.27543 8.5696 2 9.00003 2H15C15.4305 2 15.8126 2.27543 15.9487 2.68378L16.8766 5.46753C17.6015 5.85261 18.1909 6.45171 18.564 7.18404C18.8113 7.66937 18.9099 8.18608 18.9558 8.74817C19 9.28937 19 9.95374 19 10.7587V13.2413C19 14.0463 19 14.7106 18.9558 15.2518C18.9099 15.8139 18.8113 16.3306 18.564 16.816C18.1909 17.5484 17.6014 18.1475 16.8764 18.5326L15.9483 21.3163C15.8121 21.7246 15.43 22 14.9996 22H8.9996C8.56914 22 8.18698 21.7245 8.05089 21.3162L7.12321 18.5324C6.39842 18.1473 5.80909 17.5482 5.43597 16.816C5.18868 16.3306 5.09012 15.8139 5.04419 15.2518C4.99998 14.7106 4.99999 14.0463 5 13.2413V10.7587C4.99999 9.95373 4.99998 9.28937 5.04419 8.74817C5.09012 8.18608 5.18868 7.66937 5.43597 7.18404C5.80912 6.4517 6.39853 5.8526 7.12341 5.46752L8.05135 2.68377ZM9.38362 5.01148C9.78849 4.99999 10.2505 5 10.7738 5H13.2262C13.7495 5 14.2115 4.99999 14.6164 5.01148L14.2793 4H9.72078L9.38362 5.01148ZM9.38335 18.9885L9.72042 20H14.2789L14.6162 18.9885C14.2114 19 13.7494 19 13.2262 19H10.7738C10.2504 19 9.78827 19 9.38335 18.9885ZM9.11112 7.02401C8.68521 7.04758 8.43024 7.09192 8.24976 7.15242C8.1905 7.17229 8.13891 7.19409 8.09202 7.21799C7.7157 7.40973 7.40973 7.71569 7.21799 8.09202C7.1383 8.24842 7.07337 8.47262 7.03755 8.91104C7.00078 9.36113 7 9.94342 7 10.8V13.2C7 14.0566 7.00078 14.6389 7.03755 15.089C7.07337 15.5274 7.1383 15.7516 7.21799 15.908C7.40973 16.2843 7.7157 16.5903 8.09202 16.782C8.13889 16.8059 8.19046 16.8277 8.24968 16.8475C8.43014 16.9081 8.6851 16.9524 9.11102 16.976C9.53847 16.9997 10.0715 17 10.8 17H13.2C13.9284 17 14.4614 16.9997 14.8888 16.976C15.3147 16.9524 15.5697 16.9081 15.7502 16.8476C15.8095 16.8277 15.8611 16.8059 15.908 16.782C16.2843 16.5903 16.5903 16.2843 16.782 15.908C16.8617 15.7516 16.9266 15.5274 16.9624 15.089C16.9992 14.6389 17 14.0566 17 13.2V10.8C17 9.94342 16.9992 9.36113 16.9624 8.91104C16.9266 8.47262 16.8617 8.24842 16.782 8.09202C16.5903 7.71569 16.2843 7.40973 15.908 7.21799C15.8611 7.19409 15.8095 7.17229 15.7502 7.15243C15.5698 7.09193 15.3148 7.04758 14.8889 7.02401C14.4615 7.00035 13.9285 7 13.2 7H10.8C10.0715 7 9.53856 7.00035 9.11112 7.02401ZM12 8.5C12.5523 8.5 13 8.94772 13 9.5V11.5L14.6 12.7C15.0418 13.0314 15.1314 13.6582 14.8 14.1C14.4686 14.5418 13.8418 14.6314 13.4 14.3L11.4 12.8C11.1482 12.6111 11 12.3148 11 12V9.5C11 8.94772 11.4477 8.5 12 8.5Z" fill="#2C2044"/>
</svg>
