<svg width="24" height="24" viewBox="0 0 24 24" fill="none" xmlns="http://www.w3.org/2000/svg">
<path d="M12.0002 15C11.4232 15 10.9311 14.5828 10.8362 14.0137L10.3293 10.9727C10.1573 9.93998 10.9533 9 12.0002 9C13.0471 9.00005 13.8432 9.94002 13.6711 10.9727L13.1643 14.0137C13.0694 14.5828 12.5772 15 12.0002 15Z" fill="#2C2044"/>
<path d="M12.0002 18C11.448 18 11.0002 17.5523 11.0002 17C11.0002 16.4477 11.448 16 12.0002 16C12.5525 16 13.0002 16.4477 13.0002 17C13.0002 17.5523 12.5525 18 12.0002 18Z" fill="#2C2044"/>
<path fill-rule="evenodd" clip-rule="evenodd" d="M5.56665 22C4.07971 22 2.97305 21.0861 2.43383 20.0391C1.89632 18.9953 1.81585 17.6541 2.43383 16.4541L8.86743 3.96094L8.99243 3.73731C9.6495 2.64544 10.7797 2 12.0002 2C13.2207 2.00003 14.351 2.64545 15.0081 3.73731L15.1331 3.96094L21.5666 16.4541L21.6741 16.6807C22.1725 17.8206 22.0706 19.0605 21.5666 20.0391C21.0274 21.0861 19.9207 22 18.4338 22L5.56665 22ZM18.5452 19.9961C19.6466 19.9122 20.3267 18.5919 19.8411 17.4805L19.7883 17.3701L13.3547 4.87696C12.7528 3.70802 11.2477 3.70804 10.6458 4.87695L4.21215 17.3701C3.6291 18.5026 4.31705 19.9095 5.45532 19.9961L5.56665 20L18.4338 20L18.5452 19.9961Z" fill="#2C2044"/>
</svg>
