<svg width="24" height="24" viewBox="0 0 24 24" fill="none" xmlns="http://www.w3.org/2000/svg">
<path d="M13.9447 19.3749C13.8685 19.3749 13.7813 19.3642 13.705 19.3427C13.4545 19.2781 13.2475 19.106 13.1058 18.8693C12.986 18.6756 12.9533 18.4389 13.0187 18.2022C13.084 17.9655 13.2366 17.7504 13.4545 17.632C13.8794 17.4061 14.2498 17.051 14.5222 16.6207C14.7945 16.1903 14.9471 15.7062 14.9689 15.2221C15.0124 14.7056 15.4482 14.3076 15.9494 14.3614C16.4615 14.4044 16.8428 14.8347 16.8101 15.3296C16.7883 16.1473 16.5486 16.9435 16.1128 17.6105C15.6988 18.2991 15.0996 18.8693 14.3914 19.2566C14.2607 19.3319 14.0973 19.3749 13.9447 19.3749Z" fill="#2C2044"/>
<path fill-rule="evenodd" clip-rule="evenodd" d="M13.923 5.10418L13.9556 5.15192L13.9783 5.18487C15.9831 8.10069 19 12.4884 19 15.0823C19 16.922 18.27 18.6542 16.9409 19.9668C15.6008 21.2793 13.8467 22.0002 11.9946 22.0002C10.1533 22.0002 8.39922 21.2793 7.05914 19.9883C5.72996 18.6757 5 16.9435 5 15.1038C5 12.4941 8.12251 7.94921 10.011 5.20047L10.0444 5.15192C10.5346 4.46336 10.8942 3.93618 11.2101 3.43052C11.3518 3.21534 11.5588 3.07548 11.7984 3.02168C12.049 2.96789 12.2996 3.01092 12.5066 3.15079C12.6156 3.21534 12.7136 3.32293 12.7899 3.41976L13.1385 3.94694C13.3798 4.30953 13.6413 4.69208 13.923 5.10418ZM15.6444 18.6757C16.6031 17.6967 17.137 16.4271 17.137 15.0823C17.137 13.1293 14.4059 9.10015 12.5972 6.43179L12.5829 6.4107L12.4086 6.15249C12.3105 6.01263 12.2124 5.87275 12.1253 5.73289C12.1164 5.71971 12.1075 5.70698 12.0988 5.69452C12.0648 5.64593 12.0337 5.60137 12.0163 5.54999L11.8856 5.74365C11.8366 5.81358 11.7903 5.88351 11.744 5.95345C11.6977 6.02338 11.6514 6.09331 11.6023 6.16324C9.70661 8.91749 6.87393 13.0596 6.87393 15.0823C6.87393 16.4486 7.40778 17.7289 8.36654 18.6757C9.34708 19.6225 10.6436 20.1497 12.0054 20.1497C13.3891 20.1497 14.6856 19.6225 15.6444 18.6757Z" fill="#2C2044"/>
</svg>
