<svg width="24" height="24" viewBox="0 0 24 24" fill="none" xmlns="http://www.w3.org/2000/svg">
<path d="M12.7327 13.5759C12.7327 14.9889 11.6149 16.2017 9.61512 16.2017C8.37304 16.2017 7.2676 15.7189 6.79561 15.3657C6.53477 15.1655 6.34846 14.9065 6.6714 14.4708L7.05645 13.9409C7.30486 13.5994 7.59054 13.5759 8.00042 13.7878C8.04369 13.8092 8.09322 13.836 8.14881 13.8661C8.46025 14.0346 8.96167 14.3059 9.61512 14.3059C10.261 14.3059 10.5591 14.0469 10.5591 13.7172C10.5591 13.2394 9.92566 12.984 9.16773 12.6784C8.03899 12.2232 6.63414 11.6567 6.63414 10.0787C6.63414 8.52442 8.00042 7.5 9.80143 7.5C10.8324 7.5 11.7763 7.84147 12.1986 8.12407C12.5588 8.37135 12.5961 8.66572 12.4098 9.0072L12.1117 9.56062C11.8633 10.0198 11.5279 9.94919 11.1801 9.78434C11.1636 9.77675 11.1471 9.76913 11.1305 9.76151C10.7369 9.58013 10.3368 9.39577 9.77659 9.39577C9.09345 9.39577 8.80777 9.65482 8.80777 9.98452C8.80777 10.4795 9.44896 10.7263 10.213 11.0204C11.3394 11.454 12.7327 11.9903 12.7327 13.5759Z" fill="#2C2044"/>
<path d="M15.0195 16.029C14.9091 16.343 14.6883 16.5 14.324 16.5H13.9927C13.5511 16.5 13.3524 16.2488 13.4849 15.8511L15.9249 8.68142C16.0353 8.36742 16.2561 8.21042 16.6204 8.21042H16.9516C17.3933 8.21042 17.592 8.46162 17.4595 8.86982L15.0195 16.029Z" fill="#2C2044"/>
<path fill-rule="evenodd" clip-rule="evenodd" d="M21.7666 9.78742C20.5854 4.40188 15.2553 1.02744 9.86165 2.25047C4.46748 3.47349 1.05238 8.83045 2.23353 14.2163C2.55264 15.6723 3.1754 16.9815 4.0208 18.0925C4.17261 18.292 4.33638 18.4805 4.50004 18.6689C4.5388 18.7135 4.57755 18.7581 4.61613 18.8029C4.93313 19.1705 4.97026 20.1276 4.72752 21.6742L4.68177 21.9532L4.6746 22.0432C4.67711 22.2802 4.84861 22.4889 5.09058 22.5302C5.18796 22.5468 5.28809 22.5342 5.37831 22.494C7.19406 21.6842 8.24394 21.3218 8.52795 21.4067C8.64977 21.4431 8.771 21.4823 8.8924 21.5216C9.11246 21.5927 9.33307 21.6641 9.55874 21.7193C11.0132 22.0755 12.5729 22.1078 14.1382 21.7529C19.5319 20.5299 22.9475 15.1727 21.7666 9.78742ZM10.3039 4.20095C14.6163 3.2231 18.87 5.91605 19.813 10.2159C20.7582 14.5261 18.0192 18.8221 13.6959 19.8025C12.4673 20.081 11.2223 20.0676 10.0344 19.7767C9.97232 19.7615 9.91161 19.7449 9.83187 19.721L9.20024 19.5207L8.98916 19.4597C8.43081 19.3189 7.86616 19.3757 7.01385 19.6606L6.891 19.702L6.88164 19.5142C6.82586 18.6868 6.59791 18.0385 6.13073 17.4967L5.9214 17.2552C5.76739 17.0769 5.69036 16.9838 5.61241 16.8814L5.41198 16.6058C4.82904 15.7663 4.4123 14.8154 4.18716 13.7881C3.2417 9.47694 5.98017 5.18128 10.3039 4.20095Z" fill="#2C2044"/>
</svg>
