<svg width="24" height="24" viewBox="0 0 24 24" fill="none" xmlns="http://www.w3.org/2000/svg">
<path fill-rule="evenodd" clip-rule="evenodd" d="M12 2C17.5228 2 22 6.47715 22 12C22 16.6016 18.8919 20.4773 14.6606 21.6422L14.657 21.6496C13.8043 21.8767 12.9166 22 12 22C6.47715 22 2 17.5228 2 12C2 6.47715 6.47715 2 12 2ZM12.0245 16.5034C11.1999 16.5034 10.3828 16.5559 9.57673 16.6595C9.85562 17.7732 10.2363 18.8553 10.7128 19.8967C11.132 19.9648 11.5619 20 12 20C12.4381 20 12.868 19.9648 13.2869 19.897C13.7646 18.8533 14.1458 17.7692 14.4262 16.6551C13.6349 16.5539 12.8333 16.5034 12.0245 16.5034ZM16.3974 17.0088L16.3355 17.2617C16.1796 17.8661 15.9969 18.4624 15.7879 19.0492C16.5729 18.6255 17.2801 18.0747 17.8806 17.4239C17.3924 17.2647 16.8977 17.1266 16.3974 17.0088ZM7.60371 17.0202L7.56915 17.0284C7.08378 17.145 6.6038 17.2807 6.13006 17.4352C6.72867 18.0815 7.43192 18.6281 8.21311 19.0487C7.97531 18.3843 7.77222 17.7073 7.60371 17.0202ZM4.91724 8.2775L4.90374 8.30279C4.32642 9.4086 4 10.6662 4 12C4 13.3493 4.33403 14.6205 4.92391 15.7356C5.6747 15.4647 6.44148 15.238 7.22052 15.0556C7.07446 14.0529 7 13.0323 7 12.0012C7 10.9732 7.074 9.95555 7.21956 8.95429C6.43988 8.77402 5.67095 8.54752 4.91724 8.2775ZM19.0825 8.27652L18.982 8.31375C18.2612 8.56777 17.5266 8.78209 16.7808 8.95572C16.926 9.9554 17 10.9731 17 12.0012C17 13.0285 16.9261 14.0454 16.7807 15.0459C17.5608 15.2251 18.3297 15.4506 19.0835 15.7196C19.669 14.609 20 13.3432 20 12C20 10.6556 19.6684 9.38867 19.0825 8.27652ZM14.8116 9.31394L14.7497 9.32395C13.8444 9.44236 12.9266 9.50238 12.0006 9.50238C11.0531 9.50238 10.1142 9.43954 9.18843 9.3156C9.06349 10.1971 9 11.0945 9 12.0012C9 12.9097 9.06376 13.8088 9.1892 14.6937C10.1233 14.5672 11.0696 14.5034 12.0245 14.5034C12.9631 14.5034 13.8933 14.5651 14.8106 14.6867C14.9365 13.8054 15 12.908 15 12.0012C15 11.0945 14.9365 10.1972 14.8116 9.31394ZM12 4C11.5626 4 11.1334 4.0351 10.7151 4.10264C10.2359 5.14748 9.85413 6.2331 9.57343 7.34874C10.3729 7.45077 11.1831 7.50238 12.0006 7.50238C12.8172 7.50238 13.6265 7.45089 14.425 7.34927C14.1457 6.23257 13.764 5.14738 13.2859 4.10285C12.8666 4.0351 12.4374 4 12 4ZM8.21284 4.95126L8.09724 5.01491C7.35828 5.42867 6.6917 5.95631 6.12126 6.57404C6.60817 6.73387 7.10253 6.87259 7.60256 6.99106C7.77058 6.30039 7.97465 5.61969 8.21284 4.95126ZM15.7879 4.95183L15.94 5.39602C16.1137 5.92068 16.2666 6.4525 16.3983 6.99048C16.8978 6.87283 17.3919 6.7342 17.8795 6.57571C17.2796 5.92503 16.5731 5.37473 15.7879 4.95183Z" fill="#2C2044"/>
</svg>
