<svg width="24" height="24" viewBox="0 0 24 24" fill="none" xmlns="http://www.w3.org/2000/svg">
<path d="M10 17C9.44772 17 9 16.5523 9 16C9 15.4477 9.44772 15 10 15C10.5523 15 11 15.4477 11 16C11 16.5523 10.5523 17 10 17Z" fill="#2C2044"/>
<path d="M13 16C13 16.5523 13.4477 17 14 17C14.5523 17 15 16.5523 15 16C15 15.4477 14.5523 15 14 15C13.4477 15 13 15.4477 13 16Z" fill="#2C2044"/>
<path d="M12.4596 7.32391C12.2932 6.89203 11.7068 6.89203 11.5404 7.32391L11.0912 8.49016C11.0204 8.67407 10.8548 8.79948 10.6652 8.81288L9.46246 8.8979C9.01709 8.92939 8.83587 9.51085 9.17844 9.80925L10.1035 10.615C10.2494 10.7421 10.3126 10.945 10.2663 11.1372L9.97216 12.356C9.86325 12.8074 10.3377 13.1667 10.7157 12.9193L11.7367 12.251C11.8977 12.1456 12.1023 12.1456 12.2633 12.251L13.2843 12.9193C13.6623 13.1667 14.1368 12.8074 14.0278 12.356L13.7337 11.1372C13.6874 10.945 13.7506 10.7421 13.8965 10.615L14.8216 9.80925C15.1641 9.51085 14.9829 8.92939 14.5375 8.8979L13.3348 8.81288C13.1452 8.79948 12.9796 8.67407 12.9088 8.49016L12.4596 7.32391Z" fill="#2C2044"/>
<path fill-rule="evenodd" clip-rule="evenodd" d="M18 22H14.8293C14.4175 20.8348 13.3062 20 12 20C10.6938 20 9.58254 20.8348 9.17071 22H6C4.89543 22 4 21.1046 4 20V4C4 2.89543 4.89543 2 6 2H9.40135C9.92006 2.8967 10.8896 3.5 12 3.5C13.1104 3.5 14.0799 2.8967 14.5987 2H18C19.1046 2 20 2.89543 20 4L20 20C20 21.1046 19.1046 22 18 22ZM18 4V15C17.4477 15 17 15.4477 17 16C17 16.5523 17.4477 17 18 17L18 20H15.9998C15.0886 18.7866 13.6376 18 12 18C10.3624 18 8.91145 18.7866 8.0002 20H6L6 17C6.55228 17 7 16.5523 7 16C7 15.4477 6.55228 15 6 15L6 4L8.42965 4C9.33566 4.92393 10.5999 5.5 12 5.5C13.4001 5.5 14.6643 4.92393 15.5703 4H18Z" fill="#2C2044"/>
</svg>
