<svg width="24" height="24" viewBox="0 0 24 24" fill="none" xmlns="http://www.w3.org/2000/svg">
<path d="M8 2H16C17.6569 2 19 3.34315 19 5V6.80269C18.3926 6.45134 17.7179 6.2034 17 6.08296V5C17 4.44772 16.5523 4 16 4H15V6H9V4H8C7.44772 4 7 4.44772 7 5V19C7 19.5523 7.44772 20 8 20H16C16.5523 20 17 19.5523 17 19V17.917C17.7179 17.7966 18.3926 17.5487 19 17.1973V19C19 20.6569 17.6569 22 16 22H8C6.34315 22 5 20.6569 5 19V5C5 3.34315 6.34315 2 8 2Z" fill="#2C2044"/>
<path d="M13 18C13 18.5523 12.5523 19 12 19C11.4477 19 11 18.5523 11 18C11 17.4477 11.4477 17 12 17C12.5523 17 13 17.4477 13 18Z" fill="#2C2044"/>
<path d="M15.2704 11.235C15.2095 11.3479 15.122 11.4243 15.0073 11.4643C14.8926 11.5043 14.7302 11.5244 14.52 11.5253L13.7475 11.5261L13.7495 10.4407L14.4339 10.4401C14.7403 10.4397 14.9688 10.4746 15.1182 10.5439C15.2675 10.6132 15.3423 10.7541 15.3419 10.966C15.3417 11.065 15.3177 11.1545 15.2704 11.235Z" fill="#2C2044"/>
<path d="M15.2878 12.2768C15.1406 12.1813 14.9196 12.1341 14.6261 12.1344L13.7486 12.1353L13.7464 13.361L14.6526 13.3601C15.2224 13.3595 15.508 13.1522 15.5087 12.7381C15.5091 12.5256 15.4357 12.3723 15.2878 12.2768Z" fill="#2C2044"/>
<path fill-rule="evenodd" clip-rule="evenodd" d="M16 7C18.7614 7 21 9.23858 21 12C21 14.7614 18.7614 17 16 17C13.2386 17 11 14.7614 11 12C11 9.23858 13.2386 7 16 7ZM16.1816 13.4343C16.0618 13.6222 15.9005 13.7613 15.6977 13.8516C15.5707 13.9054 15.4246 13.9427 15.2601 13.9649C15.0956 13.9871 14.9032 13.9983 14.6835 13.9985L13.4108 13.9998C13.2273 14 13.0964 13.9588 13.0173 13.8757C12.939 13.7925 12.8997 13.6605 12.9 13.4789L12.9058 10.3233C12.9061 10.1383 12.9466 10.0048 13.0273 9.92356C13.108 9.84231 13.2384 9.8016 13.4178 9.80142L14.7669 9.80005C14.9654 9.79985 15.138 9.81206 15.284 9.83667C15.43 9.86128 15.5602 9.9093 15.6754 9.97934C15.7736 10.0384 15.8608 10.1133 15.9364 10.204C16.012 10.2947 16.0698 10.3951 16.1091 10.5044C16.1485 10.6144 16.1681 10.7299 16.1679 10.8523C16.1671 11.2726 15.9584 11.5796 15.5411 11.7753C16.0881 11.9502 16.3611 12.2917 16.3602 12.7993C16.3611 13.0345 16.3013 13.2458 16.1816 13.4343ZM19.1441 13.5971C19.0394 13.7506 18.8857 13.8677 18.6815 13.947C18.478 14.0263 18.2302 14.0664 17.9382 14.0667C17.6598 14.067 17.421 14.0246 17.2226 13.9388C17.0242 13.853 16.877 13.7459 16.7831 13.6174C16.6885 13.4888 16.6416 13.3596 16.6419 13.2296C16.642 13.1436 16.6722 13.07 16.733 13.0087C16.7939 12.9474 16.8704 12.9171 16.9632 12.917C17.0444 12.9169 17.1071 12.9368 17.1507 12.9767C17.1943 13.0165 17.2358 13.0729 17.2753 13.1457C17.3548 13.2853 17.4495 13.389 17.5599 13.4577C17.6703 13.5264 17.8218 13.5606 18.0128 13.5604C18.1684 13.5603 18.2954 13.5251 18.3951 13.4555C18.4949 13.3859 18.5442 13.3061 18.5443 13.216C18.5446 13.0784 18.4929 12.978 18.39 12.9156C18.2871 12.8524 18.1173 12.7927 17.8806 12.7359C17.6139 12.6694 17.3964 12.5995 17.2293 12.5261C17.0616 12.4526 16.928 12.3558 16.8279 12.2355C16.7278 12.1153 16.6776 11.9674 16.6779 11.7921C16.6782 11.6352 16.7249 11.4873 16.8179 11.3483C16.911 11.2086 17.0484 11.0977 17.2293 11.0143C17.4103 10.9309 17.6287 10.8894 17.884 10.8891C18.0846 10.8889 18.2654 10.9101 18.4249 10.9519C18.5852 10.9936 18.7182 11.0499 18.8252 11.1206C18.9322 11.1914 19.0132 11.269 19.069 11.3549C19.1248 11.4409 19.1527 11.5247 19.1525 11.6066C19.1524 11.696 19.1222 11.7696 19.0627 11.8275C19.0033 11.8846 18.9179 11.9136 18.808 11.9137C18.7282 11.9138 18.6607 11.8912 18.6048 11.8451C18.549 11.7991 18.4849 11.7304 18.4135 11.639C18.3549 11.5627 18.2861 11.5015 18.2064 11.4562C18.1266 11.4102 18.0188 11.3876 17.8824 11.3878C17.7425 11.3879 17.6257 11.4183 17.5328 11.4782C17.4399 11.5382 17.3934 11.6132 17.3932 11.7033C17.3931 11.7851 17.4271 11.8525 17.4952 11.9054C17.5633 11.9576 17.6547 12.0008 17.7706 12.0351C17.8859 12.0694 18.0448 12.1112 18.2474 12.1605C18.4875 12.2194 18.6839 12.2901 18.8366 12.3717C18.9886 12.4534 19.1044 12.5503 19.1827 12.6623C19.2609 12.7737 19.3003 12.9016 19.3 13.0446C19.301 13.2585 19.2488 13.4436 19.1441 13.5971Z" fill="#2C2044"/>
</svg>
