<svg width="24" height="24" viewBox="0 0 24 24" fill="none" xmlns="http://www.w3.org/2000/svg">
<path fill-rule="evenodd" clip-rule="evenodd" d="M17.3277 3C18.6821 3 19.8618 3.94123 20.1864 5.28086L20.9135 8.28086C21.1857 9.40418 20.7978 10.536 20.0012 11.2519L20 19C20 20.1046 19.1046 21 18 21H6C4.89543 21 4 20.1046 4 19L4.0003 11.2531C3.387 10.7033 3 9.8977 3 9C3 8.75763 3.02883 8.51616 3.08585 8.28086L3.8129 5.28086C4.13756 3.94123 5.31724 3 6.67159 3H17.3277ZM18 12H6V19H8V17C8 14.7909 9.79086 13 12 13C14.2091 13 16 14.7909 16 17V19H18V12ZM12 15C10.9456 15 10.0818 15.8159 10.0055 16.8507L10 17V19H14V17C14 15.9456 13.1841 15.0818 12.1493 15.0055L12 15ZM7.347 5H6.67159C6.25776 5 5.89285 5.26363 5.75155 5.65152L5.71869 5.76029L4.99164 8.76029C4.97264 8.83872 4.96303 8.91921 4.96303 9C4.96303 9.51284 5.34193 9.93551 5.83007 9.99327L5.94454 10H6.633L7.347 5ZM11 5H9.366L8.652 10H11V5ZM17.3277 5H16.652L17.366 10H18.0548C18.1341 10 18.2131 9.99021 18.2901 9.97084C18.7787 9.84791 19.0907 9.3718 19.0287 8.87512L19.0077 8.76029L18.2806 5.76029C18.1814 5.35096 17.8427 5.05321 17.4392 5.00643L17.3277 5ZM14.633 5H13V10H15.347L14.633 5Z" fill="#2C2044"/>
</svg>
