<svg width="24" height="24" viewBox="0 0 24 24" fill="none" xmlns="http://www.w3.org/2000/svg">
<path fill-rule="evenodd" clip-rule="evenodd" d="M5 4C3.34315 4 2 5.34315 2 7V16C2 17.1046 2.89543 18 4 18H5.17071C5.58254 19.1652 6.69378 20 8 20C9.30622 20 10.4175 19.1652 10.8293 18H13.1707C13.5825 19.1652 14.6938 20 16 20C17.3062 20 18.4175 19.1652 18.8293 18H20C21.1046 18 22 17.1046 22 16V10C22 6.68629 19.3137 4 16 4H5ZM16 14C17.3062 14 18.4175 14.8348 18.8293 16H20V15C19.4477 15 19 14.5523 19 14C19 13.4477 19.4477 13 20 13V12H4V16H5.17071C5.58254 14.8348 6.69378 14 8 14C9.30622 14 10.4175 14.8348 10.8293 16H13.1707C13.5825 14.8348 14.6938 14 16 14ZM20 10H14V6H16C18.2091 6 20 7.79086 20 10ZM9 10H12V6H9V10ZM4 7C4 6.44772 4.44772 6 5 6H7V10H4V7ZM8 18C8.55228 18 9 17.5523 9 17C9 16.4477 8.55228 16 8 16C7.44772 16 7 16.4477 7 17C7 17.5523 7.44772 18 8 18ZM16 18C16.5523 18 17 17.5523 17 17C17 16.4477 16.5523 16 16 16C15.4477 16 15 16.4477 15 17C15 17.5523 15.4477 18 16 18Z" fill="#2C2044"/>
</svg>
