<svg width="24" height="24" viewBox="0 0 24 24" fill="none" xmlns="http://www.w3.org/2000/svg">
<path d="M11.99 16C12.34 16 12.5 15.7921 12.5 15.3982V15.0044C13.78 14.7856 14.5 13.779 14.5 12.6193C14.5 11.1269 13.2619 10.5806 12.314 10.1624C11.7262 9.90306 11.25 9.69296 11.25 9.33698C11.25 8.89934 11.65 8.72429 12.01 8.72429C12.43 8.72429 12.83 8.8884 13.11 9.06346C13.44 9.26039 13.69 9.21663 13.86 8.85558L14.1 8.34136C14.25 8.01313 14.22 7.70678 13.93 7.52079C13.63 7.31291 13.15 7.07221 12.5 6.99562V6.49234C12.5 6.17505 12.34 6 11.99 6H11.93C11.57 6 11.41 6.20788 11.41 6.60175V7.02845C10.3 7.25821 9.5 8.13348 9.5 9.35886C9.5 10.8199 10.7538 11.403 11.7039 11.8449C12.2835 12.1144 12.75 12.3314 12.75 12.663C12.75 13.1335 12.36 13.2867 12 13.2867C11.52 13.2867 11.06 13.0569 10.74 12.8381C10.43 12.6302 10.18 12.6521 9.97 12.9803L9.67 13.4617C9.47 13.7681 9.49 14.0853 9.77 14.2932C10.11 14.5558 10.66 14.884 11.41 15.0044V15.5077C11.41 15.8249 11.57 16 11.93 16H11.99Z" fill="#2C2044"/>
<path fill-rule="evenodd" clip-rule="evenodd" d="M12 2C7 2 3 6 3 11C3 16 7 20 12 20H4C3.44772 20 3 20.4477 3 21C3 21.5523 3.44772 22 4 22H20C20.5523 22 21 21.5523 21 21C21 20.4477 20.5523 20 20 20H12C17 20 21 16 21 11C21 6 17 2 12 2ZM12 4C15.9 4 19 7.1 19 11C19 14.9 15.9 18 12 18C8.1 18 5 14.9 5 11C5 7.1 8.1 4 12 4Z" fill="#2C2044"/>
</svg>
