<svg width="24" height="24" viewBox="0 0 24 24" fill="none" xmlns="http://www.w3.org/2000/svg">
<path fill-rule="evenodd" clip-rule="evenodd" d="M10.5228 5H13.4772C14.6612 4.99999 15.6045 4.99999 16.3691 5.05714C17.1534 5.11576 17.8245 5.23836 18.4476 5.5223C19.4569 5.98217 20.2954 6.71894 20.8534 7.63612C21.198 8.20243 21.3754 8.82536 21.4932 9.55939C21.6081 10.275 21.6753 11.1628 21.7597 12.2772L21.9906 15.3279C22.1408 17.3122 20.4753 19 18.3671 19C17.289 19 16.2666 18.5481 15.5764 17.7666L15.2285 17.3727C14.8897 16.989 14.7879 16.8783 14.6812 16.7926C14.4281 16.5892 14.1216 16.4537 13.7938 16.4004C13.6558 16.378 13.5005 16.375 12.9713 16.375H11.0287C10.4995 16.375 10.3442 16.378 10.2062 16.4004C9.87845 16.4537 9.57194 16.5892 9.31875 16.7926C9.21212 16.8783 9.11028 16.989 8.77146 17.3727L8.42358 17.7666C7.73339 18.5481 6.71098 19 5.63287 19C3.52467 19 1.85922 17.3122 2.00942 15.3279L2.24033 12.2773C2.32468 11.1629 2.39188 10.275 2.50677 9.55939C2.62461 8.82536 2.80203 8.20243 3.14656 7.63612C3.70456 6.71894 4.54311 5.98217 5.55236 5.5223C6.17552 5.23836 6.84663 5.11576 7.63092 5.05714C8.39554 4.99999 9.33884 4.99999 10.5228 5ZM7.77736 6.80167C7.10585 6.85187 6.69085 6.94689 6.35877 7.0982C5.68593 7.40478 5.1269 7.89596 4.7549 8.50742C4.57129 8.8092 4.44128 9.19305 4.34038 9.82151C4.23779 10.4606 4.17514 11.2793 4.08738 12.4386L3.85924 15.4525C3.78572 16.4238 4.60094 17.25 5.63287 17.25C6.16059 17.25 6.66105 17.0288 6.99889 16.6463L7.34676 16.2523C7.36177 16.2353 7.37658 16.2186 7.39119 16.202C7.66626 15.8903 7.8736 15.6554 8.11638 15.4603C8.62276 15.0534 9.23577 14.7824 9.89121 14.6758C10.2055 14.6247 10.5295 14.6248 10.9593 14.625C10.9822 14.625 11.0053 14.625 11.0287 14.625H12.9713C12.9947 14.625 13.0178 14.625 13.0407 14.625C13.4705 14.6248 13.7945 14.6247 14.1088 14.6758C14.7642 14.7824 15.3772 15.0534 15.8836 15.4603C16.1264 15.6554 16.3338 15.8903 16.6088 16.202C16.6234 16.2186 16.6382 16.2353 16.6532 16.2523L17.0011 16.6463C17.339 17.0288 17.8394 17.25 18.3671 17.25C19.3991 17.25 20.2143 16.4238 20.1408 15.4525L19.9126 12.4386C19.8249 11.2793 19.7622 10.4606 19.6596 9.82152C19.5587 9.19305 19.4287 8.8092 19.2451 8.50742C18.8731 7.89596 18.3141 7.40478 17.6412 7.0982C17.3092 6.94689 16.8941 6.85187 16.2226 6.80167C15.5398 6.75064 14.67 6.75 13.4382 6.75H10.5618C9.33005 6.75 8.46017 6.75064 7.77736 6.80167ZM8.29093 8.5C8.80304 8.5 9.2182 8.89175 9.2182 9.375V10.25H10.1455C10.6576 10.25 11.0727 10.6418 11.0727 11.125C11.0727 11.6082 10.6576 12 10.1455 12H9.2182V12.875C9.2182 13.3582 8.80304 13.75 8.29093 13.75C7.77881 13.75 7.36366 13.3582 7.36366 12.875V12H6.43639C5.92427 12 5.50912 11.6082 5.50912 11.125C5.50912 10.6418 5.92427 10.25 6.43639 10.25H7.36366V9.375C7.36366 8.89175 7.77881 8.5 8.29093 8.5ZM16.6363 10.25C16.6363 9.76675 17.0515 9.375 17.5636 9.375H17.5729C18.085 9.375 18.5002 9.76675 18.5002 10.25C18.5002 10.7332 18.085 11.125 17.5729 11.125H17.5636C17.0515 11.125 16.6363 10.7332 16.6363 10.25ZM13.8545 12C13.8545 11.5168 14.2697 11.125 14.7818 11.125H14.7911C15.3032 11.125 15.7183 11.5168 15.7183 12C15.7183 12.4832 15.3032 12.875 14.7911 12.875H14.7818C14.2697 12.875 13.8545 12.4832 13.8545 12Z" fill="#2C2044"/>
</svg>
