<svg width="24" height="24" viewBox="0 0 24 24" fill="none" xmlns="http://www.w3.org/2000/svg">
<path fill-rule="evenodd" clip-rule="evenodd" d="M10.8357 2.36116C11.5337 1.87901 12.4688 1.87992 13.165 2.36207L14.858 3.53377L16.9374 3.53286C17.8125 3.53286 18.5914 4.09143 18.874 4.9229L19.4984 6.75051L21.1169 7.8731C21.8676 8.39345 22.1857 9.36138 21.8903 10.2256L21.285 12.0014L21.8903 13.7753C22.1866 14.6404 21.8676 15.6084 21.116 16.1278L19.4956 17.2513L18.874 19.078C18.5914 19.9086 17.8125 20.4671 16.9374 20.4671H14.8517L13.165 21.6388C12.816 21.879 12.4079 22 11.9999 22C11.5927 22 11.1847 21.8799 10.8375 21.6407L9.14171 20.4653L7.06329 20.4671C6.1863 20.4671 5.40746 19.9077 5.12574 19.0753L4.5023 17.2495L2.88374 16.1269C2.13398 15.6102 1.81408 14.6423 2.10853 13.7762L2.7147 11.9986L2.10944 10.2247C1.81499 9.35865 2.13398 8.39163 2.88464 7.87219L4.50503 6.7496L5.12574 4.92199C5.40746 4.09234 6.1863 3.53286 7.06329 3.53286H9.14898L10.8357 2.36116ZM11.9767 4.00373L9.77548 5.53286H7.06329C7.04402 5.53286 7.0261 5.54572 7.0195 5.56517L6.18653 8.01775L4.0227 9.51682C4.00692 9.52774 3.99609 9.56061 4.0023 9.57887L4.82785 11.9985L4.00208 14.42C3.99554 14.4393 4.00618 14.4715 4.02355 14.4835L6.1825 15.9809L7.02017 18.4341C7.02718 18.4548 7.04435 18.4671 7.06154 18.4671L9.76625 18.4648L11.9725 19.9939C11.9768 19.9969 11.987 20 11.9999 20L12.0239 19.9963L14.2252 18.4671H16.9374C16.9557 18.4671 16.9736 18.4542 16.9806 18.4337L17.8145 15.9832L19.9789 14.4825C19.994 14.4721 20.0042 14.4409 19.9974 14.4211L19.1719 12.0017L19.9978 9.57882C20.004 9.56047 19.9933 9.52773 19.9771 9.51651L17.8183 8.01923L16.9804 5.56657C16.9733 5.54559 16.9556 5.53286 16.9382 5.53286L14.2339 5.53405L12.0262 4.00622C12.0141 3.99785 11.9853 3.99784 11.9767 4.00373ZM15.7068 8.28963C16.0977 8.681 16.0977 9.31359 15.7068 9.70496L9.70714 15.7106C9.51216 15.9058 9.25617 16.0039 9.00019 16.0039C8.7442 16.0039 8.48822 15.9058 8.29323 15.7106C7.90226 15.3193 7.90226 14.6867 8.29323 14.2953L14.2929 8.28963C14.6838 7.89826 15.3158 7.89826 15.7068 8.28963ZM14.5 13C15.328 13 16 13.672 16 14.5C16 15.328 15.328 16 14.5 16C13.672 16 13 15.328 13 14.5C13 13.672 13.672 13 14.5 13ZM9.5 8C10.328 8 11 8.672 11 9.5C11 10.328 10.328 11 9.5 11C8.672 11 8 10.328 8 9.5C8 8.672 8.672 8 9.5 8Z" fill="#2C2044"/>
</svg>
