<svg width="24" height="24" viewBox="0 0 24 24" fill="none" xmlns="http://www.w3.org/2000/svg">
<path d="M15.709 10.1209C15.3185 9.73037 14.6854 9.73037 14.2948 10.1209L11.0402 13.5727L9.74727 12.2806L9.65306 12.1974C9.26077 11.8924 8.69354 11.9201 8.33305 12.2806C7.94253 12.6712 7.94253 13.3043 8.33305 13.6948L10.3331 15.6948L10.4273 15.778C10.8196 16.0831 11.3868 16.0553 11.7473 15.6948L15.709 11.5351L15.7922 11.4409C16.0973 11.0486 16.0695 10.4814 15.709 10.1209Z" fill="#2C2044"/>
<path fill-rule="evenodd" clip-rule="evenodd" d="M12.2674 21.9635L13.3685 21.6572C17.2939 20.5646 20 17.2921 20 13.0947V6.50863C20 6.05069 19.6324 5.50674 19 5.50674C17.2566 5.50674 14.7146 4.58524 12.745 2.3348C12.5642 2.12825 12.3159 2.01665 12 2C11.6881 2.01526 11.4401 2.12686 11.2561 2.3348C9.30164 4.54254 6.72801 5.50674 5 5.50674C4.40574 5.50674 4 6.00769 4 6.50863V13.0947C4 17.2921 6.70507 20.5646 10.6304 21.6572L11.7326 21.9635C11.9076 22.0122 12.0924 22.0122 12.2674 21.9635ZM18 7.44493V13.0947C18 16.2974 15.987 18.8487 12.8333 19.7265L11.9998 19.9584L11.165 19.7263C8.01228 18.8488 6 16.2977 6 13.0947V7.44233C8.02725 7.17226 10.226 6.11045 11.9965 4.44352C13.7692 6.13187 15.9533 7.1814 18 7.44493Z" fill="#2C2044"/>
</svg>
