<svg width="24" height="24" viewBox="0 0 24 24" fill="none" xmlns="http://www.w3.org/2000/svg">
<path d="M8 2H16C17.6569 2 19 3.34315 19 5V6.80269C18.3926 6.45134 17.7179 6.2034 17 6.08296V5C17 4.44772 16.5523 4 16 4H15C15 5.10457 14.1046 6 13 6H11C9.89543 6 9 5.10457 9 4H8C7.44772 4 7 4.44772 7 5V19C7 19.5523 7.44772 20 8 20H16C16.5523 20 17 19.5523 17 19V17.917C17.7179 17.7966 18.3926 17.5487 19 17.1973V19C19 20.6569 17.6569 22 16 22H8C6.34315 22 5 20.6569 5 19V5C5 3.34315 6.34315 2 8 2Z" fill="#2C2044"/>
<path d="M13 18C13 18.5523 12.5523 19 12 19C11.4477 19 11 18.5523 11 18C11 17.4477 11.4477 17 12 17C12.5523 17 13 17.4477 13 18Z" fill="#2C2044"/>
<path fill-rule="evenodd" clip-rule="evenodd" d="M21 12C21 9.23858 18.7614 7 16 7C13.2386 7 11 9.23858 11 12C11 14.7614 13.2386 17 16 17C18.7614 17 21 14.7614 21 12ZM16.4239 12.9551C16.4239 13.8114 15.7772 14.5465 14.6203 14.5465C13.9018 14.5465 13.2622 14.2539 12.9892 14.0398C12.8383 13.9185 12.7305 13.7615 12.9173 13.4974L13.1401 13.1763C13.2838 12.9694 13.4491 12.9551 13.6862 13.0835C13.7112 13.0965 13.7399 13.1128 13.772 13.131C13.9522 13.2331 14.2423 13.3975 14.6203 13.3975C14.994 13.3975 15.1664 13.2405 15.1664 13.0407C15.1664 12.7512 14.8 12.5964 14.3615 12.4111C13.7085 12.1353 12.8958 11.7919 12.8958 10.8356C12.8958 9.89359 13.6862 9.27273 14.7281 9.27273C15.3245 9.27273 15.8706 9.47968 16.1149 9.65095C16.3233 9.80082 16.3449 9.97923 16.2371 10.1862L16.0646 10.5216C15.9209 10.7999 15.7269 10.7571 15.5257 10.6572C15.5161 10.6526 15.5066 10.648 15.497 10.6433C15.2693 10.5334 15.0378 10.4217 14.7137 10.4217C14.3185 10.4217 14.1533 10.5787 14.1533 10.7785C14.1533 11.0785 14.5242 11.2281 14.9662 11.4063C15.6178 11.6691 16.4239 11.9941 16.4239 12.9551ZM17.7468 14.4418C17.683 14.6321 17.5552 14.7273 17.3444 14.7273H17.1528C16.8973 14.7273 16.7824 14.575 16.859 14.334L18.2706 9.98874C18.3345 9.79844 18.4622 9.70329 18.673 9.70329H18.8646C19.1201 9.70329 19.235 9.85553 19.1584 10.1029L17.7468 14.4418Z" fill="#2C2044"/>
</svg>
