<svg width="24" height="24" viewBox="0 0 24 24" fill="none" xmlns="http://www.w3.org/2000/svg">
<path fill-rule="evenodd" clip-rule="evenodd" d="M7.20001 15.1513V8.45846C7.20001 8.09395 7.49397 7.79999 7.85848 7.79999H10.2196C11.4424 7.79999 12.4372 8.79475 12.4372 10.0176C12.4372 10.613 12.1805 11.1497 11.7717 11.5229C12.2287 11.9785 12.5101 12.5961 12.5101 13.2747C12.5101 14.6716 11.3178 15.8098 9.85506 15.8098H7.85848C7.49397 15.8098 7.20001 15.5158 7.20001 15.1513ZM9.86938 10.7396H10.3959C10.7934 10.7396 11.1179 10.4151 11.1179 10.0176C11.1179 9.52142 10.7134 9.11693 10.2172 9.11693H8.5146V10.7395H9.85506L9.86938 10.7396ZM8.51695 12.0565V14.4928H9.85506C10.5935 14.4928 11.1932 13.9472 11.1932 13.2747C11.1932 12.6053 10.5991 12.0616 9.8655 12.0565H8.51695Z" fill="#2C2044"/>
<path d="M15.2094 16.1292C16.4862 16.1292 17.2 15.3179 17.2 14.3727C17.2 13.3121 16.3103 12.9533 15.5911 12.6633C15.1033 12.4665 14.6939 12.3014 14.6939 11.9703C14.6939 11.7498 14.8763 11.5765 15.3125 11.5765C15.6702 11.5765 15.9257 11.6998 16.177 11.8212L16.2087 11.8364C16.4307 11.9467 16.6449 11.994 16.8035 11.6868L16.9938 11.3166C17.1128 11.0882 17.089 10.8913 16.859 10.7259C16.5893 10.5368 15.9866 10.3084 15.3283 10.3084C14.1784 10.3084 13.306 10.9937 13.306 12.0334C13.306 13.0889 14.203 13.4679 14.9237 13.7723C15.4077 13.9768 15.8121 14.1476 15.8121 14.4672C15.8121 14.6877 15.6218 14.861 15.2094 14.861C14.7921 14.861 14.472 14.6795 14.2731 14.5668C14.2376 14.5467 14.206 14.5288 14.1784 14.5145C13.9166 14.3727 13.7342 14.3884 13.5756 14.6169L13.3298 14.9713C13.1236 15.2627 13.2425 15.436 13.4091 15.5699C13.7104 15.8062 14.4163 16.1292 15.2094 16.1292Z" fill="#2C2044"/>
<path fill-rule="evenodd" clip-rule="evenodd" d="M21.7666 9.78742C20.5854 4.40188 15.2553 1.02744 9.86165 2.25047C4.46748 3.47349 1.05238 8.83045 2.23353 14.2163C2.55264 15.6723 3.1754 16.9815 4.0208 18.0925C4.17261 18.292 4.33638 18.4805 4.50004 18.6689C4.5388 18.7135 4.57755 18.7581 4.61613 18.8029C4.93313 19.1705 4.97026 20.1276 4.72752 21.6742L4.68177 21.9532L4.6746 22.0432C4.67711 22.2802 4.84861 22.4889 5.09058 22.5302C5.18796 22.5468 5.28809 22.5342 5.37831 22.494C7.19406 21.6842 8.24394 21.3218 8.52795 21.4067C8.64977 21.4431 8.771 21.4823 8.8924 21.5216C9.11246 21.5927 9.33307 21.6641 9.55874 21.7193C11.0132 22.0755 12.5729 22.1078 14.1382 21.7529C19.5319 20.5299 22.9475 15.1727 21.7666 9.78742ZM10.3039 4.20095C14.6163 3.2231 18.87 5.91605 19.813 10.2159C20.7582 14.5261 18.0192 18.8221 13.6959 19.8025C12.4673 20.081 11.2223 20.0676 10.0344 19.7767C9.97232 19.7615 9.91161 19.7449 9.83187 19.721L9.20024 19.5207L8.98916 19.4597C8.43081 19.3189 7.86616 19.3757 7.01385 19.6606L6.891 19.702L6.88164 19.5142C6.82586 18.6868 6.59791 18.0385 6.13073 17.4967L5.9214 17.2552C5.76739 17.0769 5.69036 16.9838 5.61241 16.8814L5.41198 16.6058C4.82904 15.7663 4.4123 14.8154 4.18716 13.7881C3.2417 9.47694 5.98017 5.18128 10.3039 4.20095Z" fill="#2C2044"/>
</svg>
