<svg width="24" height="24" viewBox="0 0 24 24" fill="none" xmlns="http://www.w3.org/2000/svg">
<path fill-rule="evenodd" clip-rule="evenodd" d="M19.9898 13.8302L19.8498 12.9602C20.5098 12.8102 21.0098 12.2102 21.0098 11.5002C21.0098 10.6702 20.3398 10.0002 19.5098 10.0002C19.4598 10.0002 19.4098 10.0002 19.3598 10.0002L18.9998 7.83023C18.9198 7.35023 18.4998 6.99023 18.0098 6.99023H15.0098C14.4598 6.99023 14.0098 7.44023 14.0098 7.99023C14.0098 8.54023 14.4598 8.99023 15.0098 8.99023H17.1598L17.9198 13.5402C16.9798 13.7002 16.1798 14.2402 15.6498 14.9902H13.0098V12.9902C13.0098 11.8902 12.1098 10.9902 11.0098 10.9902H10.8398C10.9498 10.6802 11.0098 10.3402 11.0098 9.99023V6.99023C11.0098 5.33023 9.66977 3.99023 8.00977 3.99023H5.00977C3.34977 3.99023 2.00977 5.33023 2.00977 6.99023V9.99023C2.00977 11.6502 3.34977 12.9902 5.00977 12.9902H5.17977C5.06977 13.3002 5.00977 13.6402 5.00977 13.9902V16.9902C5.00977 18.9202 6.57977 20.4902 8.50977 20.4902C10.4398 20.4902 12.0098 18.9202 12.0098 16.9902H15.0098C15.0098 18.9202 16.5798 20.4902 18.5098 20.4902C20.4398 20.4902 22.0098 18.9202 22.0098 16.9902C22.0098 15.5902 21.1898 14.3802 19.9998 13.8202L19.9898 13.8302ZM4.99977 11.0002C4.44977 11.0002 3.99977 10.5502 3.99977 10.0002V7.00023C3.99977 6.45023 4.44977 6.00023 4.99977 6.00023H7.99977C8.54977 6.00023 8.99977 6.45023 8.99977 7.00023V10.0002C8.99977 10.5502 8.54977 11.0002 7.99977 11.0002H4.99977ZM6.99977 14.0002C6.99977 13.4502 7.44977 13.0002 7.99977 13.0002H10.9998V15.0002H6.99977V14.0002ZM8.49977 18.5002C7.66977 18.5002 6.99977 17.8302 6.99977 17.0002H9.99977C9.99977 17.8302 9.32977 18.5002 8.49977 18.5002ZM18.4998 18.5002C17.6698 18.5002 16.9998 17.8302 16.9998 17.0002C16.9998 16.1702 17.6698 15.5002 18.4998 15.5002C19.3298 15.5002 19.9998 16.1702 19.9998 17.0002C19.9998 17.8302 19.3298 18.5002 18.4998 18.5002Z" fill="#2C2044"/>
</svg>
